<svg viewBox="0 0 330 200" xmlns="http://www.w3.org/2000/svg"><g><g><g><g><g><line x1="41.149001121520996" y1="176.5999994277954" x2="36.149001121520996" y2="176.5999994277954" style="visibility: inherit;" fill="rgb(0, 0, 0)" stroke="rgb(204, 204, 204)" stroke-width="1px"></line><line x1="41.149001121520996" y1="156.97777726915146" x2="36.149001121520996" y2="156.97777726915146" style="visibility: inherit;" fill="rgb(0, 0, 0)" stroke="rgb(204, 204, 204)" stroke-width="1px"></line><line x1="41.149001121520996" y1="137.35555511050754" x2="36.149001121520996" y2="137.35555511050754" style="visibility: inherit;" fill="rgb(0, 0, 0)" stroke="rgb(204, 204, 204)" stroke-width="1px"></line><line x1="41.149001121520996" y1="117.73333295186362" x2="36.149001121520996" y2="117.73333295186362" style="visibility: inherit;" fill="rgb(0, 0, 0)" stroke="rgb(204, 204, 204)" stroke-width="1px"></line><line x1="41.149001121520996" y1="98.11111079321968" x2="36.149001121520996" y2="98.11111079321968" style="visibility: inherit;" fill="rgb(0, 0, 0)" stroke="rgb(204, 204, 204)" stroke-width="1px"></line><line x1="41.149001121520996" y1="78.48888863457573" x2="36.149001121520996" y2="78.48888863457573" style="visibility: inherit;" fill="rgb(0, 0, 0)" stroke="rgb(204, 204, 204)" stroke-width="1px"></line><line x1="41.149001121520996" y1="58.86666647593181" x2="36.149001121520996" y2="58.86666647593181" style="visibility: inherit;" fill="rgb(0, 0, 0)" stroke="rgb(204, 204, 204)" stroke-width="1px"></line><line x1="41.149001121520996" y1="39.244444317287886" x2="36.149001121520996" y2="39.244444317287886" style="visibility: inherit;" fill="rgb(0, 0, 0)" stroke="rgb(204, 204, 204)" stroke-width="1px"></line><line x1="41.149001121520996" y1="19.622222158643922" x2="36.149001121520996" y2="19.622222158643922" style="visibility: inherit;" fill="rgb(0, 0, 0)" stroke="rgb(204, 204, 204)" stroke-width="1px"></line><line x1="41.149001121520996" y1="0" x2="36.149001121520996" y2="0" style="visibility: inherit;" fill="rgb(0, 0, 0)" stroke="rgb(204, 204, 204)" stroke-width="1px"></line></g><g transform="translate(31.149001121520996, 0)"><text style="text-anchor: end; visibility: hidden; font-family: Roboto, sans-serif; font-size: 12px; font-weight: 200;" x="0" y="176.5999994277954" dx="0em" dy="0.3em" fill="rgb(33, 33, 33)" stroke="none" stroke-width="1px">0</text><text style="text-anchor: end; visibility: inherit; font-family: Roboto, sans-serif; font-size: 12px; font-weight: 200;" x="0" y="156.97777726915146" dx="0em" dy="0.3em" fill="rgb(33, 33, 33)" stroke="none" stroke-width="1px">0.2</text><text style="text-anchor: end; visibility: hidden; font-family: Roboto, sans-serif; font-size: 12px; font-weight: 200;" x="0" y="137.35555511050754" dx="0em" dy="0.3em" fill="rgb(33, 33, 33)" stroke="none" stroke-width="1px">0.4</text><text style="text-anchor: end; visibility: inherit; font-family: Roboto, sans-serif; font-size: 12px; font-weight: 200;" x="0" y="117.73333295186362" dx="0em" dy="0.3em" fill="rgb(33, 33, 33)" stroke="none" stroke-width="1px">0.6</text><text style="text-anchor: end; visibility: hidden; font-family: Roboto, sans-serif; font-size: 12px; font-weight: 200;" x="0" y="98.11111079321968" dx="0em" dy="0.3em" fill="rgb(33, 33, 33)" stroke="none" stroke-width="1px">0.8</text><text style="text-anchor: end; visibility: inherit; font-family: Roboto, sans-serif; font-size: 12px; font-weight: 200;" x="0" y="78.48888863457573" dx="0em" dy="0.3em" fill="rgb(33, 33, 33)" stroke="none" stroke-width="1px">1</text><text style="text-anchor: end; visibility: hidden; font-family: Roboto, sans-serif; font-size: 12px; font-weight: 200;" x="0" y="58.86666647593181" dx="0em" dy="0.3em" fill="rgb(33, 33, 33)" stroke="none" stroke-width="1px">1.2</text><text style="text-anchor: end; visibility: inherit; font-family: Roboto, sans-serif; font-size: 12px; font-weight: 200;" x="0" y="39.244444317287886" dx="0em" dy="0.3em" fill="rgb(33, 33, 33)" stroke="none" stroke-width="1px">1.4</text><text style="text-anchor: end; visibility: hidden; font-family: Roboto, sans-serif; font-size: 12px; font-weight: 200;" x="0" y="19.622222158643922" dx="0em" dy="0.3em" fill="rgb(33, 33, 33)" stroke="none" stroke-width="1px">1.6</text><text style="text-anchor: end; visibility: hidden; font-family: Roboto, sans-serif; font-size: 12px; font-weight: 200;" x="0" y="0" dx="0em" dy="0.3em" fill="rgb(33, 33, 33)" stroke="none" stroke-width="1px">1.8</text></g><line x1="41.149001121520996" y1="0" x2="41.149001121520996" y2="176.5999994277954" fill="rgb(0, 0, 0)" stroke="rgb(204, 204, 204)" stroke-width="1px"></line></g></g><g transform="translate(41, 0)" clip-path="url(#clip_0)"><clipPath id="clip_0"><rect width="288" height="176"></rect></clipPath><g><g><g><line x1="0" y1="0" x2="0" y2="176.5999994277954" fill="rgb(0, 0, 0)" stroke="rgb(66, 66, 66)" stroke-width="1px" opacity="0.25"></line><line x1="32.09455543094211" y1="0" x2="32.09455543094211" y2="176.5999994277954" fill="rgb(0, 0, 0)" stroke="rgb(66, 66, 66)" stroke-width="1px" opacity="0.25"></line><line x1="64.18911086188422" y1="0" x2="64.18911086188422" y2="176.5999994277954" fill="rgb(0, 0, 0)" stroke="rgb(66, 66, 66)" stroke-width="1px" opacity="0.25"></line><line x1="96.28366629282633" y1="0" x2="96.28366629282633" y2="176.5999994277954" fill="rgb(0, 0, 0)" stroke="rgb(66, 66, 66)" stroke-width="1px" opacity="0.25"></line><line x1="128.37822172376843" y1="0" x2="128.37822172376843" y2="176.5999994277954" fill="rgb(0, 0, 0)" stroke="rgb(66, 66, 66)" stroke-width="1px" opacity="0.25"></line><line x1="160.47277715471057" y1="0" x2="160.47277715471057" y2="176.5999994277954" fill="rgb(0, 0, 0)" stroke="rgb(66, 66, 66)" stroke-width="1px" opacity="0.25"></line><line x1="192.56733258565265" y1="0" x2="192.56733258565265" y2="176.5999994277954" fill="rgb(0, 0, 0)" stroke="rgb(66, 66, 66)" stroke-width="1px" opacity="0.25"></line><line x1="224.6618880165948" y1="0" x2="224.6618880165948" y2="176.5999994277954" fill="rgb(0, 0, 0)" stroke="rgb(66, 66, 66)" stroke-width="1px" opacity="0.25"></line><line x1="256.75644344753687" y1="0" x2="256.75644344753687" y2="176.5999994277954" fill="rgb(0, 0, 0)" stroke="rgb(66, 66, 66)" stroke-width="1px" opacity="0.25"></line><line x1="288.850998878479" y1="0" x2="288.850998878479" y2="176.5999994277954" fill="rgb(0, 0, 0)" stroke="rgb(66, 66, 66)" stroke-width="1px" opacity="0.25"></line></g><g><line x1="0" y1="176.5999994277954" x2="288.850998878479" y2="176.5999994277954" fill="rgb(0, 0, 0)" stroke="rgb(66, 66, 66)" stroke-width="1px" opacity="0.25"></line><line x1="0" y1="156.97777726915146" x2="288.850998878479" y2="156.97777726915146" fill="rgb(0, 0, 0)" stroke="rgb(66, 66, 66)" stroke-width="1px" opacity="0.25"></line><line x1="0" y1="137.35555511050754" x2="288.850998878479" y2="137.35555511050754" fill="rgb(0, 0, 0)" stroke="rgb(66, 66, 66)" stroke-width="1px" opacity="0.25"></line><line x1="0" y1="117.73333295186362" x2="288.850998878479" y2="117.73333295186362" fill="rgb(0, 0, 0)" stroke="rgb(66, 66, 66)" stroke-width="1px" opacity="0.25"></line><line x1="0" y1="98.11111079321968" x2="288.850998878479" y2="98.11111079321968" fill="rgb(0, 0, 0)" stroke="rgb(66, 66, 66)" stroke-width="1px" opacity="0.25"></line><line x1="0" y1="78.48888863457573" x2="288.850998878479" y2="78.48888863457573" fill="rgb(0, 0, 0)" stroke="rgb(66, 66, 66)" stroke-width="1px" opacity="0.25"></line><line x1="0" y1="58.86666647593181" x2="288.850998878479" y2="58.86666647593181" fill="rgb(0, 0, 0)" stroke="rgb(66, 66, 66)" stroke-width="1px" opacity="0.25"></line><line x1="0" y1="39.244444317287886" x2="288.850998878479" y2="39.244444317287886" fill="rgb(0, 0, 0)" stroke="rgb(66, 66, 66)" stroke-width="1px" opacity="0.25"></line><line x1="0" y1="19.622222158643922" x2="288.850998878479" y2="19.622222158643922" fill="rgb(0, 0, 0)" stroke="rgb(66, 66, 66)" stroke-width="1px" opacity="0.25"></line><line x1="0" y1="0" x2="288.850998878479" y2="0" fill="rgb(0, 0, 0)" stroke="rgb(66, 66, 66)" stroke-width="1px" opacity="0.25"></line></g></g></g><g><g><line x1="0" y1="176.5999994277954" x2="288.850998878479" y2="176.5999994277954" fill="rgb(0, 0, 0)" stroke="rgb(153, 153, 153)" stroke-width="1.5px"></line></g></g><g><g><line x1="32.09455543094211" y1="0" x2="32.09455543094211" y2="176.5999994277954" fill="rgb(0, 0, 0)" stroke="rgb(153, 153, 153)" stroke-width="1.5px"></line></g></g><g><g><g><g><g><path style="fill: none;" stroke="rgb(0, 119, 187)" stroke-width="2px" d="M32.7362860667838,167.66074612652892L33.05723162109322,160.31307515536128L33.21770439824793,157.6418158559941L33.53864995255735,152.62736284738705L33.859595506866775,148.52426504724866L34.020068284021484,145.7458587349564L34.18054106117619,143.21290119501003L34.3410138383309,139.5097019005039L34.50148661548562,137.0649350073069L34.66195939264033,134.7372220738716L34.822432169795036,128.5253997661445L34.982904946949745,125.0657816288159L35.14337772410446,121.5403260355348L35.30385050125917,116.69590276466971L35.46432327841388,113.85865806508886L35.785268832723304,107.83894926574717L36.10621438703272,100.71553567484753L36.26668716418743,92.06821781652802L37.06905104996098,89.10031010265871L37.22952382711569,84.39294406016263L37.38999660427041,78.26705362801215L37.55046938142512,78.1445539663512L37.710942158579826,74.34650566017822L38.03188771288925,75.06779337299346L38.51330604435338,74.90857498567244L38.67377882150809,74.69143204706141L38.99472437581751,72.64646645529186L39.15519715297222,74.82237251718985L39.31566993012694,74.5569831896149L39.47614270728164,67.55643561590396L39.797088261591064,64.48647985191165L40.11803381590049,64.87589768194043L40.2785065930552,65.76549971161262L40.759924924519325,64.88053784065946L40.920397701674034,60.859391126979766L41.08087047882875,58.58872897998318L41.24134325598346,57.67492353537756L41.40181603313817,57.52880836471866L41.883234364602295,56.02957959943137L42.04370714175701,54.80377783047731L42.36465269606643,55.39926518792474L42.525125473221145,55.41145373563953L42.685598250375854,52.7407007365374L42.84607102753056,50.42523937857891L43.00654380468528,50.352633435156065L43.16701658183998,48.807113635125006L43.32748935899469,47.762270933072486L43.648434913304115,48.98198919990692L43.80890769045883,51.00958848080204L43.96938046761354,49.328354369457585L44.12985324476825,49.77250293146496L44.45079879907767,52.71647459223377L44.77174435338709,51.40749189045886L44.9322171305418,52.95541607019934L45.253162684851226,53.75166455382733L45.413635462005935,56.78205065920109L45.73458101631535,55.83371745467502L45.89505379347006,58.20509161391214L46.05552657062477,59.368692844389514L46.21599934777949,59.80541722925682L46.376472124934196,66.84711266940928L46.53694490208891,67.93978894080189L46.85789045639832,69.05558045090413L47.01836323355304,72.56854849540261L47.17883601070775,71.79588811761892L47.33930878786246,71.0923013721555L48.14167267363601,67.93242141235623L48.30214545079072,69.0163739796392L48.62309100510014,68.66166837609443L48.94403655940957,66.50731951398298L49.10450933656428,65.67782213935207L49.26498211371899,66.0333434258018L49.74640044518312,63.346270972620765L50.38829155380196,56.54271013780379L50.86970988526609,50.00566514078848L51.190655439575515,47.152847886710475L51.351128216730224,42.391662223221175L51.51160099388493,43.32098502663135L52.153492102503776,36.39537460162L52.313964879658485,35.301194047924476L52.4744376568132,36.65505836256737L52.63491043396791,39.77184293871624L52.955855988277335,44.454175751341644L53.11632876543204,41.41301355101567L53.59774709689617,42.68987698107848L54.079165428360305,43.522998217594576L54.239638205515014,42.860607050770206L54.56058375982443,45.578109617515565L54.88152931413386,44.89452740860005L55.042002091288566,42.700043090890375L55.20247486844328,38.3153432931336L55.36294764559799,36.91588847285507L55.5234204227527,35.67258585975549L55.6838931999074,33.05975174204781L56.00483875421683,32.45905123179615L56.16531153137154,31.286413186259693L56.32578430852625,33.75692318263668L56.48625708568096,34.79900403007418L56.807202639990386,41.64421936280634L56.96767541714509,40.55272415872512L57.128148194299804,38.17343043176868L57.44909374860922,34.67002541128854L57.60956652576394,36.66369576790918L57.77003930291865,36.00967855884658L58.090984857228065,32.01877143667568L58.251457634382774,27.833557935453562L58.5724031886922,27.635505631763465L58.73287596584691,28.840821664971035L59.05382152015633,30.099248480932747L59.21429429731104,27.752421424996044L59.37476707446575,30.934234977838404L59.69571262877517,30.23025866035164L60.33760373739402,31.533996254249615L60.49807651454873,34.362600761120305L60.65854929170343,31.81162589165061L60.819022068858146,31.25089243311433L61.139967623167564,35.97120752219725L61.30044040032228,33.34851509851348L61.621385954631705,32.43039508589266L61.942331508941116,34.578839727045334L62.10280428609583,32.65185759448265L62.26327706325054,33.207325584314596L62.42374984040525,34.13275576944358L62.744695394714675,37.235125639710574L62.905168171869384,39.29764214137282L64.02847761195235,39.14990305557493L64.6703687205712,36.94190712051195L65.15178705203533,34.19070200220119L65.31225982919004,36.78681297288303L65.47273260634476,38.303287913811005L65.63320538349946,38.21864832257504L66.27509649211831,35.01289518996749L66.43556926927302,37.497862743191966L66.59604204642773,38.14558036139534L66.75651482358244,36.49489583683141L67.23793315504656,37.4917382568512L67.39840593220129,40.495597814100556L67.558878709356,44.30582055517561L67.7193514865107,47.00118223897826L67.87982426366541,47.46020923285415L68.04029704082012,47.562121963903124L68.36124259512954,48.005465033172285L68.52171537228425,51.636415425330995L68.68218814943896,55.421367912707005L69.00313370374839,53.11601846808234L69.1636064809031,53.05415572448442L69.32407925805781,56.448894858999694L69.48455203521252,58.40032875855159L69.64502481236723,57.752313684529305L69.80549758952193,56.97921718584177L70.28691592098608,54.04781070848877L70.44738869814078,50.94331518882548L70.7683342524502,49.0430960556785L71.41022536106904,47.273340337528744L71.57069813822376,48.45484500489511L71.89164369253317,46.35035000114067L72.05211646968789,43.48890951730641L72.2125892468426,44.58332525252401L72.37306202399732,45.15968742441162L72.53353480115202,46.941960147715115L72.69400757830672,50.389153464660936L73.17542590977087,50.72402002194712L73.65684424123499,55.85082145494574L73.8173170183897,58.73016605881336L73.97778979554441,57.09205975309852L74.13826257269912,54.973950021405486L74.45920812700854,55.082515039712305L75.10109923562739,54.21084372571539L75.4220447899368,51.93328141063824L75.74299034424624,52.24723913877054L75.90346312140093,52.17405394272085L76.06393589855566,55.607449120696344L76.22440867571036,55.962184371122206L76.38488145286506,53.41170731677093L76.70582700717449,55.94307264624359L76.8662997843292,57.257430203020675L77.18724533863863,60.326962774640535L77.50819089294804,64.20855760280041L77.82913644725745,63.78650228214455L78.63150033303101,62.76128559363426L78.95244588734043,64.97055159225137L79.11291866449515,65.75839571948967L79.43386421880457,66.7811478383053L79.59433699595928,66.05543257382932L79.754809773114,66.91279740003773L79.9152825502687,64.3479989596813L80.07575532742341,60.42190598148625L80.23622810457813,63.7562885613887L80.39670088173283,64.88085543096831L80.55717365888755,63.13160502754484L80.71764643604226,62.213569266022745L80.87811921319697,62.4368148735753L81.5200103218158,63.761539289829805L81.68048309897053,65.27333639355986L82.00142865327994,66.67737507924232L82.48284698474407,68.26790293391107L83.12473809336292,71.07410663518553L83.28521087051762,69.94654460656025L83.44568364767234,67.43436367216225L83.60615642482705,67.02795968031559L83.92710197913647,67.33042372640148L84.08757475629118,69.0019274309309L84.2480475334459,68.98323674465425L84.4085203106006,69.76960253121877L84.56899308775532,71.33091239513436L84.72946586491003,72.4582355380498L85.21088419637415,74.70190601228147L85.37135697352886,74.59679434588311L85.6923025278383,71.72315965000553L86.01324808214771,72.36093922081591L86.33419363645712,75.1657192930579L86.65513919076655,77.13360538391532L86.97608474507597,80.20984345275497L87.13655752223069,82.58896478669938L87.29703029938538,82.63325772395174L87.45750307654009,83.08930537054204L87.61797585369482,87.43744891591658L87.77844863084951,88.00925147728123L87.93892140800423,89.30152254151909L88.09939418515894,89.311022759507L88.25986696231365,91.22242531729752L88.58081251662307,93.24538427874742L88.90175807093249,95.73517180469538L89.06223084808721,98.02577107731575L89.38317640239663,99.23482460576773L89.70412195670606,97.34857318170242L89.86459473386076,96.90442733508185L90.02506751101546,98.58221663917057L90.18554028817019,100.24017501065933L90.34601306532488,99.91310335172186L90.5064858424796,98.9823914827677L90.66695861963431,101.82082262931492L90.82743139678902,100.87129439737684L90.98790417394373,100.89822542527179L91.14837695109844,99.13972650434077L91.30884972825315,97.36002222835128L91.62979528256258,98.14310758072335L91.79026805971728,99.55852593643287L92.11121361402671,97.61953643085154L92.43215916833613,95.79762433611926L92.59263194549084,93.29565080074954L92.75310472264555,93.4199498585367L92.91357749980025,92.53510236521544L93.07405027695498,92.98493460775418L93.3949958312644,94.68273989693427L93.5554686084191,93.91900092888166L93.87641416272852,92.7680424391378L94.03688693988323,91.47004424802219L94.19735971703794,90.74808840360333L94.35783249419265,89.91700769460444L94.51830527134737,87.49961481928797L94.83925082565678,87.47600106436569L94.9997236028115,87.5214858395831L95.1601963799662,84.91956377628684L95.32066915712092,86.45864031806043L96.12303304289448,87.7052393656547L96.28350582004917,85.03354012187458L96.76492415151331,83.31430165807475L96.92539692866802,80.10119420229006L97.24634248297744,74.5256615565641L97.40681526013215,72.32881798545296L97.72776081444157,70.13776508645503L98.048706368751,74.87847540053619L98.85107025452454,70.80169353137596L99.01154303167927,70.05085558771916L99.4929613631434,67.52506148654331L99.6534341402981,70.12243106237902L99.81390691745281,71.49721647946217L99.97437969460752,71.88488790242059L100.13485247176223,73.88708395219147L100.29532524891694,77.18828440363377L100.61627080322636,78.40128303713279L100.93721635753579,82.79236771687061L101.2581619118452,81.10965675533609L101.57910746615464,80.87389006060934L102.06052579761875,80.56513790109938L102.22099857477347,85.53150412341033L102.7024169062376,86.04232005106786L102.86288968339231,87.38815253705005L103.02336246054703,88.41418175103604L103.18383523770173,86.7144750085354L103.50478079201116,84.95873459694572L103.66525356916586,84.31336056062928L104.14667190063,81.21309694707449L104.3071446777847,75.43483262216033L104.62809023209412,74.69294545523175L105.10950856355825,76.82335853772267L105.59092689502239,78.5795737156606L105.7513996721771,76.9466738686432L105.91187244933182,78.98947109498658L106.07234522648652,83.54508879836347L106.23281800364123,81.65408231746855L106.55376355795065,81.71828957250993L106.71423633510537,80.92650249198357L106.87470911226008,81.8110965532928L107.0351818894148,81.35835633682449L107.1956546665695,83.65950413413908L107.3561274437242,84.98236471605661L107.51660022087891,87.9593372446895L107.83754577518835,88.52526262619536L108.15849132949776,87.08082034579098L108.31896410665247,84.54533107591453L108.8003824381166,83.55800812446917L108.96085521527132,82.06383485687851L109.60274632389016,81.14948911540527L110.08416465535429,80.88150596855851L110.244637432509,82.5104231983786L110.56558298681841,82.10707603433542L110.72605576397314,79.75879047076846L111.04700131828254,76.31757395580387L111.20747409543726,74.77982018194439L111.36794687259197,73.57527531196307L111.84936520405611,71.98271184279847L112.00983798121081,73.26496732861784L112.33078353552024,72.09956952623855L112.97267464413908,73.62911782600922L113.4540929756032,76.87466025229162L113.61456575275791,78.38783796806254L113.77503852991263,76.2188295105166L113.93551130706733,76.67518867352042L114.09598408422205,77.58512512770234L114.25645686137676,77.71090075929447L114.41692963853149,81.5372873192064L114.73787519284089,82.24769584532937L114.89834796999561,82.66757662470089L115.0588207471503,84.10177704585517L115.21929352430503,85.275658678664L115.37976630145974,84.06258468315207L115.54023907861445,81.54352671616138L115.70071185576916,81.82070696102866L116.342602964388,81.99987626660585L116.5030757415427,81.35984168235494L117.46591240447097,84.98136546140329L117.7868579587804,88.5657019517264L117.9473307359351,88.2284077365949L118.10780351308982,89.25074285840914L118.26827629024453,90.97137944695866L118.42874906739924,89.91341129709107L118.58922184455395,92.97962849606803L118.74969462170866,93.81957039630976L118.91016739886336,92.63407766127447L119.07064017601807,92.96016413649595L119.2311129531728,94.43328086323282L119.39158573032749,96.38979229547417L119.55205850748222,96.49421908364523L119.71253128463692,96.67890541046758L119.87300406179162,100.35600551213841L120.03347683894634,99.37822612678961L120.19394961610105,95.03855954240632L120.35442239325577,94.26989438874028L120.67536794756519,91.49724736282131L120.8358407247199,90.11810607224416L120.9963135018746,90.95901595527826L121.31725905618403,92.08573099771118L121.63820461049345,94.8273962914083L121.95915016480286,95.2012525423898L122.11962294195759,94.41173401836154L122.60104127342171,95.87860094680153L122.76151405057642,94.00967168159828L122.92198682773113,95.02519886097338L123.24293238204056,93.77892664851684L123.40340515919526,92.16938577247778L123.56387793634997,93.52723128385554L123.88482349065939,91.94440405400303L124.20576904496882,93.55826073548452L124.36624182212353,92.34940517551645L124.68718737643295,92.0755609227954L124.84766015358765,94.63339712794645L125.00813293074236,94.54482574830352L125.16860570789709,93.51729324536551L125.32907848505178,95.4505089539695L125.4895512622065,95.92989877281386L125.65002403936121,94.69922439785056L125.81049681651594,93.32370396802366L125.97096959367063,92.89343922786178L126.29191514798006,91.59638590526464L126.45238792513476,89.37670700747219L126.61286070228948,89.3434677650468L127.09427903375361,86.27298925452325L127.25475181090832,83.77024914835728L127.41522458806303,82.81368921179919L127.73617014237246,80.69483179376307L127.89664291952715,77.43616131682772L128.05711569668188,75.23780446891008L128.21758847383657,69.42195252535271L128.538534028146,66.9706765389143L128.85947958245544,69.24809239520772L129.01995235961013,67.56137786697269L129.18042513676485,72.2698755995085L129.50137069107427,73.79379272785954L129.8223162453837,78.28158375194606L130.1432617996931,81.32802357418646L130.30373457684783,80.5105179302833L130.46420735400253,77.38400724442207L130.94562568546667,79.13587491873044L131.5875167940855,79.3288547968735L131.74798957124023,75.46707053659753L131.90846234839492,74.09869464886997L132.06893512554964,72.96216523759222L132.22940790270434,71.60800708756497L132.55035345701376,72.35102196018265L132.71082623416848,72.97438319306934L133.19224456563262,74.67025559244904L133.35271734278732,78.15470388854169L133.67366289709673,78.64605349952551L133.99460845140615,78.41069800645282L134.15508122856087,80.36874035754401L134.636499560025,77.84278600455774L134.9574451143344,78.32457392001982L135.11791789148913,80.3154888401021L135.27839066864385,81.85606355311228L135.59933622295327,81.62691407596232L135.759809000108,84.06308122830438L135.9202817772627,83.89743516421206L136.08075455441738,84.660475201001L136.2412273315721,84.1660267222514L136.40170010872683,81.09846258327937L136.56217288588152,77.80647820336239L136.72264566303625,77.0566418790603L136.88311844019097,73.03847532001738L137.52500954880978,77.46953717999048L137.6854823259645,76.06365276274698L138.00642788027392,73.3933417414352L138.32737343458336,77.07750101005264L138.48784621173806,79.81851763152652L138.64831898889275,80.21444412750985L138.80879176604748,81.24616909918507L138.96926454320217,78.969039323072L139.1297373203569,79.1972833719399L139.29021009751162,75.71743220880117L139.4506828746663,72.22604226094283L139.61115565182104,73.93542553585547L139.93210120613045,74.28750312722676L140.09257398328515,74.06810030801284L140.25304676043987,73.99995678677645L140.41351953759457,74.89716070769673L140.5739923147493,74.88265491202588L140.8949378690587,75.50329476501781L141.05541064621343,73.14506446343904L141.21588342336813,71.48783399370221L141.53682897767754,70.93755074211327L141.69730175483227,71.77371004271403L141.857774531987,73.85302282901114L142.01824730914169,74.36203295417884L142.1787200862964,74.65804482548035L142.3391928634511,76.00714409201093L142.49966564060583,73.4119819358388L142.66013841776052,75.35044846411006L142.82061119491524,74.314178979295L143.30202952637939,74.9055801870217L143.6229750806888,72.6957438914858L143.94392063499822,75.06547420259365L144.42533896646233,72.40387503624224L144.58581174361706,71.79471179960669L144.74628452077175,67.28509148891439L144.90675729792648,64.64530324346866L145.0672300750812,59.311460339046604L145.2277028522359,56.291995679774374L145.3881756293906,53.713338333276475L145.54864840654534,51.720271205559314L145.70912118370003,51.908720858929286L145.86959396085473,53.511691119810685L146.03006673800945,53.73190556844822L146.19053951516415,53.49866017761126L146.3510122923189,54.14985892376244L146.83243062378298,52.241635168633465L146.99290340093773,51.85122866739328L147.47432173240185,53.05610731964883L147.63479450955654,51.989608318812444L147.955740063866,53.53475951871455L148.11621284102068,51.672057227415806L148.2766856181754,50.23119300513577L148.4371583953301,49.71293088402654L148.59763117248482,54.117828712120236L148.75810394963955,53.84114796552775L149.2395222811037,52.348289918254274L149.39999505825838,52.7970302747377L149.56046783541308,52.68709994374344L150.20235894403194,49.640026535178364L150.36283172118664,50.40908440693731L150.68377727549608,50.010149612931116L150.84425005265078,52.97012680058596L151.00472282980547,52.470592262236686L151.1651956069602,52.91099357973864L151.48614116126961,50.125687203877725L151.96755949273373,52.282405516630824L152.12803226988845,53.36232649068757L152.44897782419787,51.56436070783337L152.6094506013526,48.74328542017132L152.7699233785073,51.293196036940564L152.930396155662,47.733685528871746L153.09086893281673,47.48618398909375L153.25134170997143,47.87457988400639L153.41181448712612,48.94816396870593L153.57228726428085,48.57561551570119L154.053705595745,45.372741647170706L154.21417837289968,41.43969997086371L154.53512392720913,38.12347934265616L154.85606948151852,35.45331007904249L155.01654225867324,35.1199771826384L155.17701503582796,34.74328889056628L155.33748781298266,35.2178276802021L155.65843336729208,36.708150841155884L155.81890614444677,35.58018193988753L155.97937892160152,35.108343964469995L156.13985169875622,32.43862474116456L156.3003244759109,29.816689541419493L156.46079725306564,29.66247541967731L156.62127003022036,29.645832572395033L156.78174280737505,28.653068919623145L157.26316113883917,27.97664127591314L157.42363391599392,26.670124222128997L157.90505224745803,25.897840397642295L158.06552502461275,26.50833670097994L158.22599780176748,24.90662966587751L158.54694335607687,23.54808608432554L158.8678889103863,23.294283766137L159.028361687541,22.886729925410357L159.1888344646957,25.803875496372587L159.34930724185043,27.503073808683435L159.50978001900515,28.284596625053464L159.67025279615987,31.90063718102584L159.83072557331457,34.48557651483068L159.99119835046926,36.24648866107593L160.3121439047787,37.80315799337225L160.4726166819334,38.799273276856226L160.63308945908813,42.09356024275582L160.95403501339752,44.737052869534146L161.43545334486166,43.66456404020746L161.59592612201638,44.325311313156725L161.7563988991711,45.693867905162605L161.9168716763258,44.562056473555856L162.07734445348052,43.769270204882275L162.3982900077899,44.96792051008331L162.55876278494466,46.54332404323686L162.71923556209936,47.13913145078715L163.04018111640877,49.7517311565447L163.2006538935635,51.431399832159535L163.52159944787292,52.344686514798404L164.00301777933706,51.86437473027434L164.32396333364645,51.580680732847505L164.48443611080117,50.61148012278903L164.64490888795586,49.87320219812833L165.12632721942,49.938190128895L165.2867999965747,49.49977743219805L165.60774555088415,50.58206975603633L165.76821832803884,52.25833996192594L166.08916388234826,53.43330914218523L166.24963665950298,53.40331335195885L166.4101094366577,51.99704212306188L166.7310549909671,54.01391216407444L166.89152776812185,54.00641386738599L167.37294609958596,51.5654968793338L167.53341887674065,53.27786696684619L167.8543644310501,51.04271940416159L168.0148372082048,51.38201957113765L168.1753099853595,50.56505500775391L168.3357827625142,50.98582975552226L168.65672831682363,49.13179004577196L168.81720109397835,47.65851838362351L168.97767387113305,46.36464873695555L169.1381466482878,45.63237017257068L169.4590922025972,45.47560846227614L169.7800377569066,43.48298805228217L170.10098331121603,45.47231692193359L170.26145608837075,44.372273158436975L170.42192886552544,44.95514562409322L170.5824016426802,44.467020799964466L170.7428744198349,44.4675732146282L171.38476552845373,46.28561279195161L171.54523830560845,44.441619094705075L171.70571108276314,45.94801614929525L171.86618385991784,45.75830731111121L172.34760219138198,44.385007433462974L172.5080749685367,44.05490500253283L172.6685477456914,45.172592397853386L172.82902052284612,44.4327680348082L172.98949330000085,45.83178582981266L173.31043885431023,46.61784178313225L173.47091163146496,45.24842923842823L173.63138440861968,46.990341024636244L173.79185718577438,47.2188258079355L174.1128027400838,47.96224735040126L174.43374829439324,48.04775371535312L174.59422107154793,48.9610508507637L174.75469384870263,48.83486450556092L174.91516662585735,48.515852740535976L175.07563940301208,50.17152164418411L175.3965849573215,48.730335658938266L175.5570577344762,48.971315118551196L175.71753051163088,49.56130292776683L176.03847606594033,49.32961802654806L176.19894884309502,49.4129426689971L176.51989439740447,49.502221974701975L176.68036717455917,48.339984113385064L177.32225828317803,49.223129541656185L177.48273106033272,49.07371070818373L177.80367661464214,48.49241550608567L177.96414939179687,50.73817250496345L178.12462216895156,52.00064463176426L178.28509494610628,53.1223191403864L178.44556772326098,53.41492033628056L178.60604050041567,54.50466044924798L178.76651327757043,54.10140931051752L179.08745883187981,55.43464672475479L179.24793160903454,56.54401271346129L179.40840438618926,57.87117001786146L179.88982271765337,58.85252496657413L180.05029549480807,59.00340656649229L180.21076827196282,57.8445563947291L180.37124104911751,56.44584256493974L180.69218660342693,54.03414662836319L181.65502326635522,54.984998401785205L181.8154960435099,54.720747990364586L181.9759688206646,54.649998481504475L182.13644159781933,55.956368456584514L182.29691437497402,54.84761848968594L182.93880548359286,53.38168328164186L183.42022381505703,51.87011374755711L183.58069659221172,51.926848834393134L183.90164214652117,50.938458404005466L184.38306047798528,50.96993196280578L184.54353325513998,51.173999734183035L184.86447880944942,51.72466416689087L185.02495158660412,52.26383303929597L185.1854243637588,52.71878888566341L185.34589714091356,53.5533580286245L185.66684269522295,55.97189839741876L185.82731547237768,56.43002456329044L185.98778824953237,58.42792670901019L186.1482610266871,61.574862400649636L186.30873380384182,61.9074145309617L186.4692065809965,63.037309437987226L186.6296793581512,64.53581419771527L186.79015213530596,63.794058200723065L186.95062491246065,65.32803419383443L187.27157046677007,64.19214600474295L187.43204324392477,66.49050292475519L187.7529887982342,66.9472249711538L188.0739343525436,68.96406672081964L188.23440712969833,68.51027551473473L188.55535268400774,68.64774136759632L188.87629823831716,70.79638838061415L189.03677101547188,71.67676825171343L189.1972437926266,72.29285340163375L189.3577165697813,71.92946354262017L189.83913490124544,73.23962928490653L189.99960767840014,74.23223043012743L190.16008045555486,75.24466642906222L190.32055323270956,74.97870861590904L190.641498787019,76.22711185252598L190.8019715641737,76.3647344199624L191.12291711848312,75.93329792733059L191.28338989563784,75.99745340371628L192.0857537814114,76.36065447022843L192.2462265585661,76.72153722484958L192.5671721128755,76.3074080352227L192.72764489003023,76.45170323712125L193.04859044433965,76.4106899514092L193.20906322149435,76.07467620994818L193.36953599864904,75.18636676193759L193.5300087758038,76.33694084873477L193.85095433011318,77.13077133954238L194.0114271072679,76.23792090576565L194.17189988442263,75.92707395981644L194.49284543873205,75.88657149995406L194.65331821588674,74.89394096222398L194.81379099304144,74.96275875265297L194.9742637701962,73.54991375996089L195.4556821016603,72.86203908610281L195.77662765596975,74.46751626326399L196.25804598743383,74.855276803151L196.57899154174328,74.88889464495L196.739464318898,75.29754774478558L196.8999370960527,74.76443451657603L197.0604098732074,75.45873183967275L197.38135542751684,77.05790479493163L197.70230098182626,75.94796047805067L197.86277375898098,75.35296499449481L198.02324653613567,75.12248591371224L198.3441920904451,74.23384505185533L198.5046648675998,75.7478311954823L198.66513764475454,76.46746971542817L198.82561042190923,76.33605513482824L198.98608319906393,76.40206980433594L199.46750153052807,76.11672916952524L199.6279743076828,76.62020045464766L199.7884470848375,76.77755257315441L200.59081097061105,78.35951844047105L200.75128374776574,78.24329372444573L200.91175652492046,79.9343588129367L201.0722293020752,78.55470806123L201.39317485638458,79.83363396910345L201.55364763353933,82.18527454603327L201.71412041069402,83.05354742193126L201.87459318784872,82.35818011412516L202.03506596500344,83.21196986319676L202.83742985077697,85.17179106790154L202.99790262793172,85.40592251733632L203.15837540508642,86.18568554428234L203.3188481822411,87.63153684157747L203.47932095939584,87.46889919709707L203.63979373655053,87.62559357517638L203.96073929085998,89.23054171933859L204.12121206801467,88.86094726013295L204.28168484516937,88.61599033785885L204.4421576223241,89.2593812422616L204.6026303994788,88.79265397319807L204.7631031766335,88.71260990080894L204.92357595378823,90.26815612509371L205.08404873094292,91.10686967446084L205.24452150809768,92.09883287144008L205.56546706240707,94.0196672746824L205.72593983956176,93.99906245418299L205.88641261671648,93.23457185635213L206.0468853938712,93.16406714679631L206.2073581710259,94.09029984755719L206.36783094818063,94.8615382501562L206.52830372533532,95.99011185775052L206.84924927964477,97.17925828508254L207.17019483395416,98.37308809334154L207.4911403882636,99.55736536240515L207.65161316541833,101.02176414575288L207.81208594257302,101.24017380915534L208.1330314968824,101.55860378284572L208.45397705119186,102.8205546740191L208.61444982834658,102.06844450652012L208.935395382656,103.01975625601513L209.25634093696542,103.7432400575099L209.4168137141201,103.1771131879468L209.57728649127483,103.82706298684326L209.89823204558425,103.75491349208555L210.3796503770484,103.13606895870876L210.54012315420312,101.66720002457329L211.02154148566723,102.21411661931052L211.34248703997665,103.01787207947247L211.82390537144076,102.07042792356475L212.3053237029049,102.55952905385398L212.46579648005962,102.15794882352913L212.62626925721435,101.97523373222569L212.78674203436904,102.26879985587956L212.94721481152376,103.72717968827004L213.10768758867846,103.4420835370261L213.26816036583315,103.62150078352195L213.4286331429879,103.50235960087637L213.5891059201426,103.35473972602985L213.7495786972973,104.44732765015989L214.07052425160674,106.20597256281671L214.23099702876144,106.92531606095655L214.39146980591616,108.40571136963646L214.8728881373803,107.24798409322788L215.033360914535,108.07895274291631L215.3543064688444,109.89733619829862L215.51477924599914,110.64823682154805L215.67525202315383,110.43118656485717L215.83572480030855,110.2705099352495L216.15667035461794,110.26465944921073L216.63808868608209,109.90034041695561L216.7985614632368,109.48999783329513L216.9590342403915,109.51128534658086L217.11950701754623,109.8197373352687L217.27997979470095,110.02142465288469L217.44045257185564,111.51503220395176L217.60092534901034,111.07638138677127L217.7613981261651,111.02430834645288L217.92187090331979,110.83396060095032L218.08234368047448,111.0194780544128L218.2428164576292,111.67127500829619L218.4032892347839,112.2635502556458L218.56376201193865,111.6907617095403L218.72423478909334,111.6483325355021L219.04518034340273,110.32597420954421L219.20565312055749,111.25559762611948L219.36612589771218,112.23136237667936L219.5265986748669,113.23593503564732L221.131326446414,114.38608460713442L221.61274477787813,115.13005916430129L221.77321755503283,116.3327958981897L221.93369033218755,117.03204598137673L222.09416310934225,116.5393063810164L222.4151086636517,114.74006963701663L222.5755814408064,115.22036078331105L222.73605421796108,115.57954256096708L222.89652699511583,115.72586523778062L223.05699977227053,115.50166695522135L223.37794532657995,115.04906857310424L223.53841810373464,114.0248428389905L223.69889088088937,114.36564848040123L223.8593636580441,115.02405293799043L224.01983643519878,113.81411114955593L224.18030921235348,114.66812022047077L224.3407819895082,115.0195469545536L224.50125476666292,114.69519087626392L224.66172754381762,114.92457691093072L224.82220032097234,116.00496541670961L224.98267309812704,116.54128980187L225.30361865243648,116.88134343867286L225.46409142959118,116.29715059110136L225.7850369839006,116.29260789681199L225.94550976105532,115.82513410067654L226.10598253821001,113.96199412423742L226.42692809251943,113.7868815776291L226.58740086967416,113.86933721240894L226.74787364682888,114.44485188338732L226.90834642398357,113.8539099080508L227.06881920113827,114.41857805557433L227.229291978293,113.31042505949972L227.87118308691183,112.87792020761079L228.19212864122127,112.54075948707113L228.6735469726854,112.36563904900008L228.8340197498401,111.36693504225022L229.15496530414953,112.44478041583024L229.31543808130422,113.0026512781051L229.47591085845892,110.90548715538523L229.79685641276836,110.54636343757234L229.95732918992306,109.09465138846885L230.11780196707778,110.2865134325509L230.2782747442325,110.78762058950872L230.43874752138723,111.26410651108556L230.59922029854192,111.88842895937417L230.75969307569662,112.51966299876923L230.9201658528513,112.37426796263925L231.08063863000606,111.51141067050753L231.56205696147018,111.72059980306285L231.7225297386249,113.16202709920566L231.88300251577962,112.97518268370325L232.203948070089,112.43203736718323L232.3644208472437,113.0269581492653L232.52489362439846,111.43054836321186L232.68536640155315,110.76385360887888L232.84583917870788,111.75838105329458L233.32725751017202,112.32243640030082L233.4877302873267,113.22780816298119L233.6482030644814,112.28112007454824L233.80867584163613,113.39883785431653L233.96914861879085,112.42797761652996L234.12962139594555,111.82392579957909L234.29009417310027,111.05879440894816L234.61103972740966,111.92197906957797L234.7715125045644,111.65723032846871L234.9319852817191,111.92022872990802L235.0924580588738,111.78265298490942L235.25293083602853,110.56511542293893L235.41340361318325,109.87345834514794L235.57387639033794,108.73420455598831L235.73434916749267,108.34996783522325L236.2157674989568,107.91245030984128L236.3762402761115,105.72640145447699L236.69718583042092,104.07943591205834L237.33907693903976,101.38270463075659L237.49954971619445,100.30216538720812L237.8204952705039,99.24553178918855L237.9809680476586,99.14102472747116L238.46238637912273,97.9919228580469L238.78333193343215,95.8490770026215L238.94380471058685,94.41977910446208L239.1042774877416,91.79193066241571L239.425223042051,92.19106998789123L239.5856958192057,88.44336013919893L239.7461685963604,91.10415681094818L239.90664137351513,89.16144774877459L240.22758692782455,90.26556439428623L240.38805970497924,91.39935623915919L240.54853248213396,92.31608900535467L240.7090052592887,91.81966415524442L240.86947803644338,91.84901585881708L241.1904235907528,90.14529022489671L241.35089636790755,91.53922041306956L241.51136914506225,91.98929944411202L241.83231469937164,94.31156663943132L241.99278747652636,94.54328203835074L242.4742058079905,94.32686888840837L242.79515136229995,95.34572067891406L242.95562413945464,97.30726921844968L243.27656969376403,98.05525312913056L243.43704247091875,99.10965543773919L243.59751524807348,98.87747885677857L243.7579880252282,100.77187337710174L243.9184608023829,101.00685694605204L244.0789335795376,101.4405575959721L244.23940635669229,102.55242171576498L244.72082468815645,103.93897795542159L244.88129746531115,103.22483707200179L245.04177024246587,104.27503447759588L245.2022430196206,103.02288952220547L245.3627157967753,103.86573225978955L245.52318857392999,104.73771384529967L245.6836613510847,105.01946470274522L246.00460690539413,106.53513766145237L246.16507968254885,108.85670385161077L246.32555245970354,110.27130636384305L246.48602523685827,112.09004970108536L246.646498014013,112.33391727772657L246.80697079116769,112.93076756872789L247.28838912263183,113.98417488765863L247.60933467694124,114.1380897302768L247.76980745409594,113.68539861046845L247.93028023125063,115.67098273190486L248.0907530084054,116.26094008085676L248.25122578556008,117.23182234198606L248.41169856271478,118.34536357920163L248.5721713398695,119.95248559021151L248.73264411702422,121.42365800345563L248.89311689417892,122.11080107204305L249.05358967133364,122.18851458780152L249.53500800279778,124.3699206819763L249.69548077995248,125.29854905462173L250.17689911141662,126.41986559297145L250.3373718885713,126.18365973356168L250.65831744288073,127.84901619530883L250.81879022003542,128.0796202305289L250.97926299719018,127.78691135837515L251.30020855149957,127.52744400167381L251.4606813286543,126.70855050351221L251.621154105809,126.6548384864282L251.94209966011843,127.01555197821979L252.10257243727312,128.2189285346357L252.26304521442782,127.54837771338833L252.58399076873727,127.37412537458209L252.74446354589196,128.26511257335846L252.90493632304668,126.79651989792684L253.2258818773561,126.0315094852006L253.38635465451082,125.6091080699852L253.54682743166552,124.80335319649821L253.86777298597497,124.1080037523798L254.02824576312966,122.97952688748472L254.34919131743908,122.90760954949361L254.50966409459377,122.50949526977675L254.67013687174853,122.96669678059911L254.83060964890322,123.17855821679372L254.99108242605791,123.05563007887035L255.1515552032126,123.37947043575035L255.47250075752206,122.82315673057457L255.63297353467678,122.75312549832991L256.1143918661409,121.94054300402675L256.4353374204503,120.68943913472036L256.9167557519145,122.18758233632383L257.5586468605333,122.19278244055972L258.3610107463069,122.5773528296994L258.842429077771,122.25890843201198L259.0029018549257,122.78637792808046L259.1633746320804,123.13898014932035L259.3238474092351,123.25393074529579L259.4843201863898,123.44078356730316L259.6447929635445,122.72119748461533L259.96573851785394,122.2775947539735L260.12621129500866,122.77211683550246L260.44715684931805,123.87097164326165L260.60762962647283,124.90766281652552L260.9285751807822,124.7920027788236L261.0890479579369,125.98756225422659L261.24952073509166,125.46313767716404L261.40999351224633,125.74989535255895L261.7309390665558,125.74004843362708L261.89141184371044,125.47306312416279L262.0518846208652,126.18801555041496L262.2123573980199,126.80714004195168L262.3728301751746,127.1453065710228L262.5333029523293,128.09838480562837L262.69377572948406,128.8327606205116L262.8542485066387,128.7635592031177L263.01472128379345,128.78085970656474L263.33566683810284,128.07065387804084L263.6566123924123,128.02225854501935L263.817085169567,127.05697584836004L264.1380307238764,127.57245708453314L264.61944905534057,126.68499331585986L264.94039460965,126.27737045406253L265.5822857182688,126.16183085655669L265.7427584954235,125.80662946308762L265.90323127257824,123.21661500217726L266.06370404973296,122.76442467863927L266.5451223811971,122.95684540012319L266.7055951583518,123.43134627013306L266.8660679355065,122.57620614199844L267.34748626697063,122.82307854149182L267.50795904412536,123.82471581297493L267.8289045984348,123.52227376241675L267.98937737558947,123.90672258146938L268.1498501527442,123.52998050762723L268.6312684842083,122.85925593228585L268.79174126136303,122.45672951643404L269.27315959282714,122.60160295587532L269.43363236998186,123.66713918559051L269.5941051471366,124.39864984350906L269.7545779242913,124.85184603481224L269.915050701446,126.0720311245983L270.0755234786007,125.55171835090462L270.2359962557554,125.10430712973256L270.5569418100648,124.4358687012461L270.71741458721954,125.16854725052593L270.87788736437426,125.80454441868552L271.038360141529,124.93600550460229L271.1988329186837,124.97240589220206L271.3593056958384,126.13737414792097L271.51977847299315,127.16764865617967L271.6802512501478,127.79412928880312L271.84072402730254,126.5555771349191L272.4826151359214,127.51509625995924L272.80356069023077,127.78305366710491" fill="none"></path></g></g></g></g><g opacity="0.2"><g><g><g><path style="fill: none;" stroke="rgb(0, 119, 187)" stroke-width="2px" d="M32.7362860667838,167.66074612652892L33.05723162109322,154.43493837842718L33.21770439824793,153.79520246490534L33.53864995255735,142.8391505745861L33.859595506866775,138.83438928244178L34.020068284021484,138.27394620743516L34.18054106117619,135.7370695206313L34.3410138383309,127.8033734452282L34.50148661548562,128.92652272399152L34.66195939264033,126.67605170557798L34.822432169795036,106.34606790126112L34.982904946949745,112.41602482001943L35.14337772410446,108.40757351691556L35.30385050125917,98.3835096244463L35.46432327841388,103.00881263285109L35.785268832723304,84.60731276543018L36.10621438703272,73.02390638108845L36.26668716418743,58.25782753293959L37.06905104996098,77.44253953636962L37.22952382711569,65.83484106720077L37.38999660427041,54.045998731973896L37.55046938142512,77.65907475952295L37.710942158579826,59.26641103562004L38.03188771288925,77.93591329965685L38.51330604435338,74.27470898669131L38.67377882150809,73.8261416639302L38.99472437581751,64.49132620525484L39.15519715297222,83.50495269262747L39.31566993012694,73.49747922978138L39.47614270728164,39.597576611752196L39.797088261591064,52.221858480578746L40.11803381590049,66.43202635909924L40.2785065930552,69.32108856893424L40.759924924519325,61.34293400174054L40.920397701674034,44.782960126733315L41.08087047882875,49.50976475197594L41.24134325598346,54.02088794423973L41.40181603313817,56.94449941675136L41.883234364602295,50.03391004881162L42.04370714175701,49.90138543967528L42.36465269606643,57.78089800232783L42.525125473221145,55.46020274206389L42.685598250375854,42.058597550280886L42.84607102753056,41.164024275282124L43.00654380468528,50.062225473639L43.16701658183998,42.62530370252625L43.32748935899469,43.583045754680235L43.648434913304115,53.86072626411328L43.80890769045883,59.1198047364828L43.96938046761354,42.6035379009551L44.12985324476825,51.549071823094096L44.45079879907767,64.49222677845255L44.77174435338709,46.17160891036819L44.9322171305418,59.14706754328686L45.253162684851226,56.93663986884387L45.413635462005935,68.90353839059371L45.73458101631535,52.04039882911373L45.89505379347006,67.6905598592956L46.05552657062477,64.02308662121341L46.21599934777949,61.552311422335265L46.376472124934196,95.01385126455168L46.53694490208891,72.31048866790354L46.85789045639832,73.5187421138525L47.01836323355304,86.62040964776759L47.17883601070775,68.70524854651133L47.33930878786246,68.27795580357717L48.14167267363601,55.29290665089045L48.30214545079072,73.35218285529541L48.62309100510014,67.24284632670897L48.94403655940957,57.88992583803245L49.10450933656428,62.35983318680523L49.26498211371899,67.45542838439692L49.74640044518312,52.59798229182361L50.38829155380196,29.328469091331318L50.86970988526609,23.8574869151111L51.190655439575515,35.74157948569289L51.351128216730224,23.34692039077629L51.51160099388493,47.038276111993106L52.153492102503776,8.692933666355474L52.313964879658485,30.924471929804984L52.4744376568132,42.07051552545606L52.63491043396791,52.23898106709148L52.955855988277335,63.18350679005532L53.11632876543204,29.248364859756453L53.59774709689617,47.797330664366996L54.079165428360305,46.85548314436519L54.239638205515014,40.21104239574472L54.56058375982443,56.44811984421976L54.88152931413386,42.16019858104316L55.042002091288566,33.922105840867815L55.20247486844328,20.776544135380185L55.36294764559799,31.318069200237005L55.5234204227527,30.699375413395295L55.6838931999074,22.608415281368842L56.00483875421683,30.056249192656697L56.16531153137154,26.595861007029544L56.32578430852625,43.6389631632303L56.48625708568096,38.96732741816559L56.807202639990386,69.02508068502007L56.96767541714509,36.18674334351192L57.128148194299804,28.65625552588158L57.44909374860922,20.656405331651605L57.60956652576394,44.638377193352014L57.77003930291865,33.393609722869066L58.090984857228065,16.05514294932393L58.251457634382774,11.092703931682582L58.5724031886922,26.84329641704528L58.73287596584691,33.66208579759545L59.05382152015633,35.13295574460765L59.21429429731104,18.3651132015058L59.37476707446575,43.66148918892941L59.69571262877517,27.41435339045372L60.33760373739402,36.748946629768625L60.49807651454873,45.677018788476246L60.65854929170343,21.607726413863293L60.819022068858146,29.00795859898535L61.139967623167564,54.85246787842057L61.30044040032228,22.857745403826563L61.621385954631705,28.757915035422933L61.942331508941116,43.172618291630855L62.10280428609583,24.943929064250007L62.26327706325054,35.42919754363813L62.42374984040525,37.83447650995397L62.744695394714675,49.64460512076359L62.905168171869384,47.54770814801388L64.02847761195235,38.55894671238379L64.6703687205712,28.10992338026542L65.15178705203533,23.185881528963726L65.31225982919004,47.171256855606224L65.47273260634476,44.36918767752095L65.63320538349946,37.8800899576313L66.27509649211831,22.189882659539876L66.43556926927302,47.43773295608828L66.59604204642773,40.736450834208405L66.75651482358244,29.892157738576497L67.23793315504656,41.47910793693006L67.39840593220129,52.51103604309715L67.558878709356,59.54671151947507L67.7193514865107,57.7826289741884L67.87982426366541,49.296317208357706L68.04029704082012,47.969772888098895L68.36124259512954,49.778837310248875L68.52171537228425,66.16021699396568L68.68218814943896,70.56117786221083L69.00313370374839,43.89462068958378L69.1636064809031,52.80670475009272L69.32407925805781,70.02785139706062L69.48455203521252,66.2060643567593L69.64502481236723,55.160253388440154L69.80549758952193,53.88683119109169L70.28691592098608,42.32218479907674L70.44738869814078,38.52533311017235L70.7683342524502,41.442219523090515L71.41022536106904,40.19431746492971L71.57069813822376,53.180863674360715L71.89164369253317,37.93236998612299L72.05211646968789,32.04314758196917L72.2125892468426,48.96098819339452L72.37306202399732,47.465136111962124L72.53353480115202,54.07105104092898L72.69400757830672,64.17792673244419L73.17542590977087,52.063486251091945L73.65684424123499,76.35802718694015L73.8173170183897,70.24754447428388L73.97778979554441,50.53963453023916L74.13826257269912,46.50151109463336L74.45920812700854,55.516775112939584L75.10109923562739,50.72415846972765L75.4220447899368,42.823032150329524L75.74299034424624,53.50307005129982L75.90346312140093,51.8813131585222L76.06393589855566,69.3410298325983L76.22440867571036,57.38112537282566L76.38488145286506,43.209799099365775L76.70582700717449,66.06853396413426L76.8662997843292,62.514860430129055L77.18724533863863,72.60509306111994L77.50819089294804,79.73493691543992L77.82913644725745,62.09828099952115L78.63150033303101,58.660418839593106L78.95244588734043,73.80761558671972L79.11291866449515,68.90977222844295L79.43386421880457,70.87215631356783L79.59433699595928,63.15257151592546L79.754809773114,70.3422567048713L79.9152825502687,54.088805198255685L80.07575532742341,44.71753406870589L80.23622810457813,77.09381888099861L80.39670088173283,69.37912290928678L80.55717365888755,56.13460341385098L80.71764643604226,58.54142621993437L80.87811921319697,63.32979730378556L81.5200103218158,69.06043695484789L81.68048309897053,71.32052480848009L82.00142865327994,72.29352982197221L82.48284698474407,74.630014352586L83.12473809336292,82.2989214402833L83.28521087051762,65.43629649205914L83.44568364767234,57.38563993457012L83.60615642482705,65.40234371292907L83.92710197913647,68.54027991074501L84.08757475629118,75.68794224904869L84.2480475334459,68.90847399954752L84.4085203106006,72.91506567747687L84.56899308775532,77.57615185079673L84.72946586491003,76.9675281097115L85.21088419637415,83.67658790920817L85.37135697352886,74.1763476802897L85.6923025278383,60.228620866495206L86.01324808214771,74.91205750405746L86.33419363645712,86.38483958202583L86.65513919076655,85.00514974734503L86.97608474507597,92.51479572811357L87.13655752223069,92.10545012247705L87.29703029938538,82.8104294729612L87.45750307654009,84.91349595690315L87.61797585369482,104.83002309741464L87.77844863084951,90.29646172273986L87.93892140800423,94.47060679847058L88.09939418515894,89.34902363145865L88.25986696231365,98.8680355484597L88.58081251662307,101.33722012454703L88.90175807093249,105.69432190848707L89.06223084808721,107.18816816779727L89.38317640239663,104.07103871957565L89.70412195670606,89.80356748544105L89.86459473386076,95.12784394859962L90.02506751101546,105.29337385552553L90.18554028817019,106.87200849661436L90.34601306532488,98.60481671597202L90.5064858424796,95.25954400695102L90.66695861963431,113.17454721550375L90.82743139678902,97.07318146962456L90.98790417394373,101.00594953685155L91.14837695109844,92.10573082061663L91.30884972825315,90.2412051243933L91.62979528256258,101.27544899021173L91.79026805971728,105.22019935927088L92.11121361402671,89.86357840852625L92.43215916833613,88.50997595719014L92.59263194549084,83.28775665927063L92.75310472264555,93.91714608968536L92.91357749980025,88.99571239193035L93.07405027695498,94.78426357790914L93.3949958312644,101.47396105365458L93.5554686084191,90.86404505667132L93.87641416272852,88.16420848016232L94.03688693988323,86.27805148355974L94.19735971703794,87.86026502592786L94.35783249419265,86.59268485860883L94.51830527134737,77.83004331802219L94.83925082565678,87.38154604467647L94.9997236028115,87.70342494045276L95.1601963799662,74.51187552310175L95.32066915712092,92.61494648515483L96.12303304289448,92.6916355560318L96.28350582004917,74.34674314675404L96.76492415151331,76.43734780287544L96.92539692866802,67.24876437915123L97.24634248297744,52.22353097366026L97.40681526013215,63.54144370100835L97.72776081444157,61.37355349046341L98.048706368751,93.84131665686076L98.85107025452454,54.49456605473499L99.01154303167927,67.04750381309191L99.4929613631434,57.421885081839875L99.6534341402981,80.51190936572192L99.81390691745281,76.99635814779472L99.97437969460752,73.4355735942542L100.13485247176223,81.89586815127508L100.29532524891694,90.39308620940298L100.61627080322636,83.2532775711289L100.93721635753579,100.35670643582185L101.2581619118452,74.37881290919793L101.57910746615464,79.93082328170237L102.06052579761875,79.3301292630595L102.22099857477347,105.39696901265421L102.7024169062376,88.08558376169802L102.86288968339231,92.77148248097875L103.02336246054703,92.51829860698008L103.18383523770173,79.91564803853281L103.50478079201116,77.93577295058705L103.66525356916586,81.7318644153635L104.14667190063,68.81204249285534L104.3071446777847,52.32177532250371L104.62809023209412,71.72539678751745L105.10950856355825,85.34501086768641L105.59092689502239,85.60443442741223L105.7513996721771,70.41507448057362L105.91187244933182,87.1606600003601L106.07234522648652,101.76755961187095L106.23281800364123,74.09005639388886L106.55376355795065,81.97511859267549L106.71423633510537,77.75935416987815L106.87470911226008,85.34947279852973L107.0351818894148,79.54739547095124L107.1956546665695,92.86409532339744L107.3561274437242,90.2738070437268L107.51660022087891,99.86722735922095L107.83754577518835,90.78896415221888L108.15849132949776,81.30305122417342L108.31896410665247,74.4033739964088L108.8003824381166,79.60871631868768L108.96085521527132,76.08714178651594L109.60274632389016,77.49210614951232L110.08416465535429,79.80957338117142L110.244637432509,89.02609211765903L110.56558298681841,80.4936873781626L110.72605576397314,70.3656482165007L111.04700131828254,62.552707895945424L111.20747409543726,68.62880508650646L111.36794687259197,68.75709583203789L111.84936520405611,65.61245796614011L112.00983798121081,78.3939892718953L112.33078353552024,67.43797831672138L112.97267464413908,79.74731102509188L113.4540929756032,89.85682995742118L113.61456575275791,84.4405488311463L113.77503852991263,67.54279568033272L113.93551130706733,78.50062532553578L114.09598408422205,81.22487094443008L114.25645686137676,78.2140032856629L114.41692963853149,96.8428335588541L114.73787519284089,85.0893299498213L114.89834796999561,84.34709974218687L115.0588207471503,89.83857873047234L115.21929352430503,89.9711852098994L115.37976630145974,79.2102887011042L115.54023907861445,71.4672948481987L115.70071185576916,82.92942794049785L116.342602964388,82.71655348891451L116.5030757415427,78.79970334535133L117.46591240447097,99.46746057759667L117.7868579587804,102.90304791301877L117.9473307359351,86.87923087606893L118.10780351308982,93.3400833456661L118.26827629024453,97.8539258011568L118.42874906739924,85.68153869762062L118.58922184455395,105.2444972919759L118.74969462170866,97.17933799727666L118.91016739886336,87.89210672113337L119.07064017601807,94.26451003738188L119.2311129531728,100.32574777018036L119.39158573032749,104.21583802443953L119.55205850748222,96.91192623632942L119.71253128463692,97.41765071775694L119.87300406179162,115.06440591882168L120.03347683894634,95.46710858539447L120.19394961610105,77.67989320487311L120.35442239325577,91.19523377407612L120.67536794756519,80.40665925914544L120.8358407247199,84.60154090993564L120.9963135018746,94.32265548741466L121.31725905618403,96.59259116744282L121.63820461049345,105.7940574661969L121.95915016480286,96.69667754631573L122.11962294195759,91.25365992224845L122.60104127342171,101.74606866056143L122.76151405057642,86.53395462078534L122.92198682773113,99.08730757847364L123.24293238204056,88.79383779869076L123.40340515919526,85.73122226832146L123.56387793634997,98.95861332936663L123.88482349065939,85.61309513459301L124.20576904496882,100.01368746141051L124.36624182212353,87.5139829356442L124.68718737643295,90.98018391191127L124.84766015358765,104.86474194855057L125.00813293074236,94.19054022973184L125.16860570789709,89.40716323361349L125.32907848505178,103.18337178838546L125.4895512622065,97.84745804819127L125.65002403936121,89.77652689799746L125.81049681651594,87.82162224871611L125.97096959367063,91.17238026721421L126.29191514798006,86.40817261487618L126.45238792513476,80.49799141630241L126.61286070228948,89.21051079534519L127.09427903375361,73.99107521242907L127.25475181090832,73.75928872369339L127.41522458806303,78.98744946556677L127.73617014237246,72.21940212161867L127.89664291952715,64.40147940908632L128.05711569668188,66.44437707723958L128.21758847383657,46.158544751123166L128.538534028146,57.165572593160775L128.85947958245544,78.35775582038134L129.01995235961013,60.814519754032496L129.18042513676485,91.1038665296517L129.50137069107427,79.8894612412637L129.8223162453837,96.23274784829201L130.1432617996931,93.51378286314807L130.30373457684783,77.24049535467073L130.46420735400253,64.8779645009771L130.94562568546667,86.14334561596397L131.5875167940855,80.10077430944575L131.74798957124023,60.01993349549357L131.90846234839492,68.62519109795974L132.06893512554964,68.4160475924813L132.22940790270434,66.19137448745603L132.55035345701376,75.32308145065338L132.71082623416848,75.46782812461606L133.19224456563262,81.45374518996788L133.35271734278732,92.09249707291227L133.67366289709673,80.6114519434608L133.99460845140615,77.46927603416202L134.15508122856087,88.20090976190885L134.636499560025,67.73896859261265L134.9574451143344,80.25172558186816L135.11791789148913,88.27914852043128L135.27839066864385,88.01836240515306L135.59933622295327,80.71031616736244L135.759809000108,93.80774983767259L135.9202817772627,83.23485090784284L136.08075455441738,87.71263534815684L136.2412273315721,82.18823280725299L136.40170010872683,68.82820602739125L136.56217288588152,64.63854068369442L136.72264566303625,74.05729658185189L136.88311844019097,56.96580908384574L137.52500954880978,95.19378461988288L137.6854823259645,70.4401150937729L138.00642788027392,62.71209765618812L138.32737343458336,91.81413808452247L138.48784621173806,90.78258411742196L138.64831898889275,81.79815011144329L138.80879176604748,85.37306898588588L138.96926454320217,69.86052021861974L139.1297373203569,80.11025956741146L139.29021009751162,61.79802755624623L139.4506828746663,58.26048246950952L139.61115565182104,80.77295863550597L139.93210120613045,75.69581349271198L140.09257398328515,73.1904890311572L140.25304676043987,73.7273827018309L140.41351953759457,78.48597639137787L140.5739923147493,74.82463172934258L140.8949378690587,77.9858541769856L141.05541064621343,63.712143257123856L141.21588342336813,64.85891211475496L141.53682897767754,68.7364177357575L141.69730175483227,75.11834724511709L141.857774531987,82.17027397419953L142.01824730914169,76.39807345484967L142.1787200862964,75.8420923106864L142.3391928634511,81.4035411581333L142.49966564060583,63.0313333111503L142.66013841776052,83.10431457719501L142.82061119491524,70.1691010400347L143.30202952637939,77.2711850179285L143.6229750806888,63.85639870934233L143.94392063499822,84.54439544702501L144.42533896646233,61.75747837083668L144.58581174361706,69.35805885306449L144.74628452077175,49.246610246145245L144.90675729792648,54.086150261685745L145.0672300750812,37.97608872135834L145.2277028522359,44.2141370426855L145.3881756293906,43.39870894728476L145.54864840654534,43.74800269469072L145.70912118370003,52.66251947240912L145.86959396085473,59.92357216333626L146.03006673800945,54.612763362998336L146.19053951516415,52.565678614263426L146.3510122923189,56.75465390836719L146.83243062378298,44.60874014811759L146.99290340093773,50.28960266243255L147.47432173240185,57.87562192867108L147.63479450955654,47.72361231546695L147.955740063866,59.71536431832301L148.11621284102068,44.22124806222082L148.2766856181754,44.46773611601559L148.4371583953301,47.63988239958953L148.59763117248482,71.73742002449497L148.75810394963955,52.73442497915789L149.2395222811037,46.376857729160314L149.39999505825838,54.59199170067143L149.56046783541308,52.24737861976644L150.20235894403194,37.451732900917975L150.36283172118664,53.485315893973095L150.68377727549608,48.414410436906245L150.84425005265078,64.81003555120533L151.00472282980547,50.47245410883954L151.1651956069602,54.67259884974633L151.48614116126961,38.984461700434125L151.96755949273373,60.90927876764317L152.12803226988845,57.68201038691457L152.44897782419787,44.37249757641651L152.6094506013526,37.4589842695231L152.7699233785073,61.49283850401753L152.930396155662,33.49564349659649L153.09086893281673,46.49617782998187L153.25134170997143,49.4281634636568L153.41181448712612,53.24250030750416L153.57228726428085,47.085421703682144L154.053705595745,32.56124617304865L154.21417837289968,25.70753326563581L154.53512392720913,24.858596829825977L154.85606948151852,24.772633024587936L155.01654225867324,33.786645597021995L155.17701503582796,33.23653572227768L155.33748781298266,37.11598283874546L155.65843336729208,42.66944348497093L155.81890614444677,31.06830633481413L155.97937892160152,33.22099206279995L156.13985169875622,21.75974784794275L156.3003244759109,19.32894874243923L156.46079725306564,29.04561893270868L156.62127003022036,29.579261183265885L156.78174280737505,24.682014308535667L157.26316113883917,25.270930701073144L157.42363391599392,21.444056006992422L157.90505224745803,22.808705099695544L158.06552502461275,28.950321914330516L158.22599780176748,18.499801525467866L158.54694335607687,18.11391175811773L158.8678889103863,22.27907449338277L159.028361687541,21.256514562503753L159.1888344646957,37.47245778022163L159.34930724185043,34.29986705792673L159.50978001900515,31.410687890533588L159.67025279615987,46.36479940491536L159.83072557331457,44.82533385004997L159.99119835046926,43.29013724605693L160.3121439047787,44.02983532255748L160.4726166819334,42.78373441079216L160.63308945908813,55.270708106354164L160.95403501339752,55.31102337664743L161.43545334486166,39.3746087229008L161.59592612201638,46.968300404953766L161.7563988991711,51.16809427318613L161.9168716763258,40.03481074712886L162.07734445348052,40.59812513018797L162.3982900077899,49.76252173088737L162.55876278494466,52.84493817585096L162.71923556209936,49.52236108098839L163.04018111640877,60.20212997957492L163.2006538935635,58.15007453461876L163.52159944787292,55.9978332453539L164.00301777933706,49.94312759217794L164.32396333364645,50.44590474314016L164.48443611080117,46.73467768255519L164.64490888795586,46.92009049948558L165.12632721942,50.19814185196162L165.2867999965747,47.74612664541023L165.60774555088415,54.91123905138943L165.76821832803884,58.96342078548448L166.08916388234826,58.133185863222344L166.24963665950298,53.28333019105328L166.4101094366577,46.371957207473955L166.7310549909671,62.08139232812473L166.89152776812185,53.97642068063226L167.37294609958596,41.80182892712503L167.53341887674065,60.12734731689575L167.8543644310501,42.1021291534232L168.0148372082048,52.7392202390419L168.1753099853595,47.29719675421889L168.3357827625142,52.66892874659557L168.65672831682363,41.715631206770695L168.81720109397835,41.765431735029686L168.97767387113305,41.189170150283715L169.1381466482878,42.70325591503122L169.4590922025972,44.84856162109795L169.7800377569066,35.51250641230622L170.10098331121603,53.42963240053932L170.26145608837075,39.972098104450446L170.42192886552544,47.286635486718204L170.5824016426802,42.514521503449444L170.7428744198349,44.46978287328316L171.38476552845373,53.55777110124516L171.54523830560845,37.065644305719005L171.70571108276314,51.97360436765598L171.86618385991784,44.99947195837501L172.34760219138198,38.891807922870086L172.5080749685367,42.734495278812275L172.6685477456914,49.643341979135606L172.82902052284612,41.47347058262737L172.98949330000085,51.42785700983056L173.31043885431023,49.762065596410615L173.47091163146496,39.770779059612074L173.63138440861968,53.95798816946831L173.79185718577438,48.13276494113252L174.1128027400838,50.93593352026437L174.43374829439324,48.38977917516049L174.59422107154793,52.614239392406056L174.75469384870263,48.330119124749714L174.91516662585735,47.23980568043616L175.07563940301208,56.79419725877667L175.3965849573215,42.96559171795489L175.5570577344762,49.93523295700302L175.71753051163088,51.92125416462939L176.03847606594033,48.40287842167295L176.19894884309502,49.746241238793324L176.51989439740447,49.85933919752144L176.68036717455917,43.69103266811733L177.32225828317803,52.75571125474064L177.48273106033272,48.476035374293886L177.80367661464214,46.167234697693495L177.96414939179687,59.72120050047456L178.12462216895156,57.050533138967396L178.28509494610628,57.60901717487504L178.44556772326098,54.585325119857046L178.60604050041567,58.863620901117656L178.76651327757043,52.48840475559571L179.08745883187981,60.767596381703925L179.24793160903454,60.981476668287314L179.40840438618926,63.17979923546206L179.88982271765337,62.77794476142488L180.05029549480807,59.60693296616496L180.21076827196282,53.20915570767647L180.37124104911751,50.85098724578222L180.69218660342693,44.38736288205698L181.65502326635522,58.78840549547333L181.8154960435099,53.66374634468214L181.9759688206646,54.3670004460641L182.13644159781933,61.181848356904695L182.29691437497402,50.41261862209153L182.93880548359286,47.51794244946548L183.42022381505703,45.82383561121814L183.58069659221172,52.15378918173722L183.90164214652117,46.98489668245482L184.38306047798528,51.0958261980071L184.54353325513998,51.99027081969193L184.86447880944942,53.927321897722166L185.02495158660412,54.42050852891634L185.1854243637588,54.53861227113316L185.34589714091356,56.89163460046893L185.66684269522295,65.64605987259574L185.82731547237768,58.26252922677709L185.98778824953237,66.41953529188916L186.1482610266871,74.16260516720743L186.30873380384182,63.23762305220994L186.4692065809965,67.55688906608944L186.6296793581512,70.52983323662743L186.79015213530596,60.827034212754214L186.95062491246065,71.4639381662799L187.27157046677007,59.64859324837691L187.43204324392477,75.68393060480423L187.7529887982342,68.77411315674829L188.0739343525436,77.03143371948299L188.23440712969833,66.69511069039507L188.55535268400774,69.19760477904268L188.87629823831716,79.39097643268548L189.03677101547188,75.19828773611054L189.1972437926266,74.75719400131504L189.3577165697813,70.47590410656588L189.83913490124544,78.48029225405193L189.99960767840014,78.20263501101101L190.16008045555486,79.29441042480141L190.32055323270956,73.91487736329631L190.641498787019,81.22072479899376L190.8019715641737,76.91522468970815L191.12291711848312,74.20755195680331L191.28338989563784,76.25407530925911L192.0857537814114,77.81345873627694L192.2462265585661,78.16506824333422L192.5671721128755,74.65089127671524L192.72764489003023,77.0288840447154L193.04859044433965,76.24663680856096L193.20906322149435,74.73062124410403L193.36953599864904,71.63312896989532L193.5300087758038,80.93923719592352L193.85095433011318,80.30609330277278L194.0114271072679,72.66651917065874L194.17189988442263,74.68368617601966L194.49284543873205,75.72456166050449L194.65331821588674,70.92341881130365L194.81379099304144,75.2380299143689L194.9742637701962,67.89853378919256L195.4556821016603,70.11054039067054L195.77662765596975,80.88942497190872L196.25804598743383,76.40631896269903L196.57899154174328,75.02336601214593L196.739464318898,76.93216014412785L196.8999370960527,72.63198160373796L197.0604098732074,78.23592113205964L197.38135542751684,83.45459661596729L197.70230098182626,71.50818321052691L197.86277375898098,72.97298306027126L198.02324653613567,74.20056959058195L198.3441920904451,70.67928160442764L198.5046648675998,81.80377576999015L198.66513764475454,79.34602379521168L198.82561042190923,75.81039681242855L198.98608319906393,76.66612848236673L199.46750153052807,74.97536663028241L199.6279743076828,78.63408559513731L199.7884470848375,77.40696104718131L200.59081097061105,84.68738190973761L200.75128374776574,77.77839486034448L200.91175652492046,86.69861916690047L201.0722293020752,73.0361050544032L201.39317485638458,84.94933760059729L201.55364763353933,91.59183685375253L201.71412041069402,86.52663892552324L201.87459318784872,79.57671088290078L202.03506596500344,86.62712885948312L202.83742985077697,93.01107588672073L202.99790262793172,86.34244831507547L203.15837540508642,89.3047376520663L203.3188481822411,93.41494203075806L203.47932095939584,86.81834861917552L203.63979373655053,88.25237108749351L203.96073929085998,95.6503342959875L204.12121206801467,87.38256942331026L204.28168484516937,87.63616264876244L204.4421576223241,91.83294485987253L204.6026303994788,86.925744896944L204.7631031766335,88.39243361125243L204.92357595378823,96.49034102223281L205.08404873094292,94.46172387192932L205.24452150809768,96.06668565935703L205.56546706240707,101.7030048876517L205.72593983956176,93.91664317218533L205.88641261671648,90.17660946502875L206.0468853938712,92.88204830857299L206.2073581710259,97.79523065060074L206.36783094818063,97.94649186055223L206.52830372533532,100.50440628812778L206.84924927964477,101.9358439944107L207.17019483395416,103.1484073263774L207.4911403882636,104.29447443865965L207.65161316541833,106.87935927914387L207.81208594257302,102.11381246276508L208.1330314968824,102.8323236776073L208.45397705119186,107.86835823871263L208.61444982834658,99.06000383652425L208.935395382656,106.82500325399508L209.25634093696542,106.63717526348896L209.4168137141201,100.91260570969445L209.57728649127483,106.42686218242906L209.89823204558425,103.46631551305462L210.3796503770484,100.66069082520167L210.54012315420312,95.79172428803139L211.02154148566723,104.4017829982595L211.34248703997665,106.23289392012018L211.82390537144076,98.28065129993396L212.3053237029049,104.51593357501095L212.46579648005962,100.55162790222963L212.62626925721435,101.24437336701207L212.78674203436904,103.443064350495L212.94721481152376,109.56069901783194L213.10768758867846,102.30169893205029L213.26816036583315,104.3391697695055L213.4286331429879,103.02579487029404L213.5891059201426,102.76426022664366L213.7495786972973,108.81767934668002L214.07052425160674,113.240552213444L214.23099702876144,109.80269005351593L214.39146980591616,114.32729260435619L214.8728881373803,102.61707498759361L215.033360914535,111.40282734167008L215.3543064688444,117.17087001982782L215.51477924599914,113.65183931454575L215.67525202315383,109.56298553809373L215.83572480030855,109.62780341681876L216.15667035461794,110.24125750505549L216.63808868608209,108.44306428793524L216.7985614632368,107.84862749865324L216.9590342403915,109.59643539972375L217.11950701754623,111.05354529001997L217.27997979470095,110.82817392334866L217.44045257185564,117.48946240822019L217.60092534901034,109.32177811804931L217.7613981261651,110.81601618517928L217.92187090331979,110.0725696189401L218.08234368047448,111.76154786826268L218.2428164576292,114.27846282382981L218.4032892347839,114.63265124504423L218.56376201193865,109.39960752511821L218.72423478909334,111.47861583934932L219.04518034340273,105.03654090571266L219.20565312055749,114.97409129242058L219.36612589771218,116.13442137891886L219.5265986748669,117.25422567151915L221.131326446414,118.98668289308289L221.61274477787813,118.1059573929687L221.77321755503283,121.1437428337434L221.93369033218755,119.82904631412487L222.09416310934225,114.56834797957501L222.4151086636517,107.54312266101752L222.5755814408064,117.14152536848874L222.73605421796108,117.01626967159123L222.89652699511583,116.31115594503476L223.05699977227053,114.60487382498431L223.37794532657995,113.23867504463576L223.53841810373464,109.92793990253554L223.69889088088937,115.72887104604419L223.8593636580441,117.65767076834717L224.01983643519878,108.97434399581789L224.18030921235348,118.0841565041301L224.3407819895082,116.42525389088503L224.50125476666292,113.39776656310518L224.66172754381762,115.84212104959792L224.82220032097234,120.32651943982513L224.98267309812704,118.68658734251147L225.30361865243648,118.24155798588433L225.46409142959118,113.96037920081538L225.7850369839006,116.2744371196545L225.94550976105532,113.95523891613485L226.10598253821001,106.50943421848082L226.42692809251943,113.08643139119582L226.58740086967416,114.19915975152824L226.74787364682888,116.74691056730083L226.90834642398357,111.4901420067047L227.06881920113827,116.67725064566851L227.229291978293,108.87781307520127L227.87118308691183,111.14790080005504L228.19212864122127,111.19211660491251L228.6735469726854,111.66515729671586L228.8340197498401,107.37211901525083L229.15496530414953,116.75616191015027L229.31543808130422,115.23413472720458L229.47591085845892,102.51683066450583L229.79685641276836,109.1098685663207L229.95732918992306,103.2878031920549L230.11780196707778,115.05396160887918L230.2782747442325,112.7920492173399L230.43874752138723,113.17005019739301L230.59922029854192,114.3857187525285L230.75969307569662,115.0445991563495L230.9201658528513,111.79268781811933L231.08063863000606,108.05998150198063L231.56205696147018,112.55735633328426L231.7225297386249,118.92773628377681L231.88300251577962,112.22780502169351L232.203948070089,110.25945610110315L232.3644208472437,115.40664127759348L232.52489362439846,105.04490921899807L232.68536640155315,108.09707459154696L232.84583917870788,115.73649083095748L233.32725751017202,114.57865778832567L233.4877302873267,116.8492952137027L233.6482030644814,108.49436772081643L233.80867584163613,117.86970897338973L233.96914861879085,108.54453666538356L234.12962139594555,109.40771853177571L234.29009417310027,107.9982688464244L234.61103972740966,115.37471771209724L234.7715125045644,110.5982353640317L234.9319852817191,112.9722223356653L235.0924580588738,111.23235000491505L235.25293083602853,105.6949651750569L235.41340361318325,107.10683003398393L235.57387639033794,104.17718939934984L235.73434916749267,106.81302095216293L236.2157674989568,106.16238020831338L236.3762402761115,96.98220603301993L236.69718583042092,97.49157374238374L237.33907693903976,90.59577950554959L237.49954971619445,95.9800084130143L237.8204952705039,95.01899739711013L237.9809680476586,98.72299648060162L238.46238637912273,93.39551538034985L238.78333193343215,87.27769358091986L238.94380471058685,88.70258751182449L239.1042774877416,81.28053689423011L239.425223042051,93.7876272897934L239.5856958192057,73.45252074442969L239.7461685963604,101.74734349794525L239.90664137351513,81.39061150008014L240.22758692782455,94.68203097633287L240.38805970497924,95.93452361865096L240.54853248213396,95.98302007013659L240.7090052592887,89.83396475480346L240.86947803644338,91.96642267310776L241.1904235907528,83.3303876892152L241.35089636790755,97.11494116576094L241.51136914506225,93.7896155682819L241.83231469937164,103.60063542070853L241.99278747652636,95.47014363402836L242.4742058079905,93.4612162886389L242.79515136229995,99.42112784093675L242.95562413945464,105.15346337659221L243.27656969376403,101.04718877185418L243.43704247091875,103.32726467217368L243.59751524807348,97.94877253293609L243.7579880252282,108.3494514583944L243.9184608023829,101.94679122185326L244.0789335795376,103.17536019565237L244.23940635669229,106.99987819493644L244.72082468815645,109.48520291404807L244.88129746531115,100.3682735383226L245.04177024246587,108.47582409997221L245.2022430196206,98.01430970064375L245.3627157967753,107.23710321012595L245.52318857392999,108.22564018734002L245.6836613510847,106.14646813252749L246.00460690539413,112.59782949628102L246.16507968254885,118.14296861224433L246.32555245970354,115.92971641277208L246.48602523685827,119.36502305005465L246.646498014013,113.3093875842914L246.80697079116769,115.3181687327332L247.28838912263183,118.19780416338153L247.60933467694124,114.7537491007496L247.76980745409594,111.87463413123501L247.93028023125063,123.61331921765056L248.0907530084054,118.62076947666426L248.25122578556008,121.11535138650324L248.41169856271478,122.79952852806387L248.5721713398695,126.38097363425109L248.73264411702422,127.30834765643218L248.89311689417892,124.85937334639263L249.05358967133364,122.49936865083546L249.53500800279778,133.09554505867544L249.69548077995248,129.01306254520344L250.17689911141662,130.90513174637036L250.3373718885713,125.2388362959226L250.65831744288073,134.51044204229743L250.81879022003542,129.00203637140913L250.97926299719018,126.61607586976024L251.30020855149957,126.48957457486844L251.4606813286543,123.43297651086581L251.621154105809,126.43999041809204L251.94209966011843,128.45840594538618L252.10257243727312,133.0324347602993L252.26304521442782,124.86617442839886L252.58399076873727,126.67711601935713L252.74446354589196,131.82906136846404L252.90493632304668,120.92214919620025L253.2258818773561,122.97146783429574L253.38635465451082,123.91950240912351L253.54682743166552,121.58033370255025L253.86777298597497,121.3266059759062L254.02824576312966,118.46561942790439L254.34919131743908,122.61994019752919L254.50966409459377,120.91703815090922L254.67013687174853,124.79550282388855L254.83060964890322,124.02600396157217L254.99108242605791,122.56391752717681L255.1515552032126,124.67483186327043L255.47250075752206,120.59790190987147L255.63297353467678,122.47300056935123L256.1143918661409,118.69021302681402L256.4353374204503,115.6850236574949L256.9167557519145,128.18015514273765L257.5586468605333,122.21358285750333L258.3610107463069,124.11563438625811L258.842429077771,120.98513084126238L259.0029018549257,124.89625591235429L259.1633746320804,124.54938903427987L259.3238474092351,123.71373312919764L259.4843201863898,124.18819485533247L259.6447929635445,119.84285315386413L259.96573851785394,120.50318383140612L260.12621129500866,124.75020516161825L260.44715684931805,128.26639087429837L260.60762962647283,129.05442750958107L260.9285751807822,124.32936262801589L261.0890479579369,130.76980015583848L261.24952073509166,123.36543936891385L261.40999351224633,126.89692605413856L261.7309390665558,125.70066075789966L261.89141184371044,124.40512188630558L262.0518846208652,129.04782525542367L262.2123573980199,129.28363800809856L262.3728301751746,128.4979726873073L262.5333029523293,131.91069774405062L262.69377572948406,131.77026388004458L262.8542485066387,128.48675353354204L263.01472128379345,128.85006172035295L263.33566683810284,125.22983056394528L263.6566123924123,127.82867721293331L263.817085169567,123.19584506172282L264.1380307238764,129.63438202922552L264.61944905534057,123.13513824116663L264.94039460965,124.64687900687329L265.5822857182688,125.69967246653331L265.7427584954235,124.38582388921132L265.90323127257824,112.85655715853585L266.06370404973296,120.95566338448725L266.5451223811971,123.72652828605892L266.7055951583518,125.32934975017254L266.8660679355065,119.15564562945994L267.34748626697063,123.81056813946542L267.50795904412536,127.83126489890732L267.8289045984348,122.31250556018406L267.98937737558947,125.44451785767987L268.1498501527442,122.02301221225865L268.6312684842083,120.17635763092022L268.79174126136303,120.84662385302684L269.27315959282714,123.18109671364047L269.43363236998186,127.92928410445134L269.5941051471366,127.32469247518323L269.7545779242913,126.66463080002492L269.915050701446,130.95277148374257L270.0755234786007,123.47046725612982L270.2359962557554,123.31466224504433L270.5569418100648,121.76211498730018L270.71741458721954,128.0992614476453L270.87788736437426,128.34853309132396L271.038360141529,121.46184984826945L271.1988329186837,125.11800744260094L271.3593056958384,130.79724717079662L271.51977847299315,131.28874668921452L271.6802512501478,130.30005181929695L271.84072402730254,121.60136851938299L272.4826151359214,131.3531727601198L272.80356069023077,128.85488329568756" fill="none"></path></g></g></g></g></g></g><g transform="translate(41, 176)" clip-path="url(#clip_1)"><clipPath id="clip_1"><rect width="288" height="23"></rect></clipPath><g><g><line x1="0" y1="0" x2="0" y2="5" style="visibility: inherit;" fill="rgb(0, 0, 0)" stroke="rgb(204, 204, 204)" stroke-width="1px"></line><line x1="32.09455543094211" y1="0" x2="32.09455543094211" y2="5" style="visibility: inherit;" fill="rgb(0, 0, 0)" stroke="rgb(204, 204, 204)" stroke-width="1px"></line><line x1="64.18911086188422" y1="0" x2="64.18911086188422" y2="5" style="visibility: inherit;" fill="rgb(0, 0, 0)" stroke="rgb(204, 204, 204)" stroke-width="1px"></line><line x1="96.28366629282633" y1="0" x2="96.28366629282633" y2="5" style="visibility: inherit;" fill="rgb(0, 0, 0)" stroke="rgb(204, 204, 204)" stroke-width="1px"></line><line x1="128.37822172376843" y1="0" x2="128.37822172376843" y2="5" style="visibility: inherit;" fill="rgb(0, 0, 0)" stroke="rgb(204, 204, 204)" stroke-width="1px"></line><line x1="160.47277715471057" y1="0" x2="160.47277715471057" y2="5" style="visibility: inherit;" fill="rgb(0, 0, 0)" stroke="rgb(204, 204, 204)" stroke-width="1px"></line><line x1="192.56733258565265" y1="0" x2="192.56733258565265" y2="5" style="visibility: inherit;" fill="rgb(0, 0, 0)" stroke="rgb(204, 204, 204)" stroke-width="1px"></line><line x1="224.6618880165948" y1="0" x2="224.6618880165948" y2="5" style="visibility: inherit;" fill="rgb(0, 0, 0)" stroke="rgb(204, 204, 204)" stroke-width="1px"></line><line x1="256.75644344753687" y1="0" x2="256.75644344753687" y2="5" style="visibility: inherit;" fill="rgb(0, 0, 0)" stroke="rgb(204, 204, 204)" stroke-width="1px"></line><line x1="288.850998878479" y1="0" x2="288.850998878479" y2="5" style="visibility: inherit;" fill="rgb(0, 0, 0)" stroke="rgb(204, 204, 204)" stroke-width="1px"></line></g><g transform="translate(0, 8)"><text style="text-anchor: middle; visibility: hidden; font-family: Roboto, sans-serif; font-size: 12px; font-weight: 200;" x="0" y="0" dx="0em" dy="0.95em" fill="rgb(33, 33, 33)" stroke="none" stroke-width="1px">-200k</text><text style="text-anchor: middle; visibility: inherit; font-family: Roboto, sans-serif; font-size: 12px; font-weight: 200;" x="32.09455543094211" y="0" dx="0em" dy="0.95em" fill="rgb(33, 33, 33)" stroke="none" stroke-width="1px">0</text><text style="text-anchor: middle; visibility: hidden; font-family: Roboto, sans-serif; font-size: 12px; font-weight: 200;" x="64.18911086188422" y="0" dx="0em" dy="0.95em" fill="rgb(33, 33, 33)" stroke="none" stroke-width="1px">200k</text><text style="text-anchor: middle; visibility: inherit; font-family: Roboto, sans-serif; font-size: 12px; font-weight: 200;" x="96.28366629282633" y="0" dx="0em" dy="0.95em" fill="rgb(33, 33, 33)" stroke="none" stroke-width="1px">400k</text><text style="text-anchor: middle; visibility: hidden; font-family: Roboto, sans-serif; font-size: 12px; font-weight: 200;" x="128.37822172376843" y="0" dx="0em" dy="0.95em" fill="rgb(33, 33, 33)" stroke="none" stroke-width="1px">600k</text><text style="text-anchor: middle; visibility: inherit; font-family: Roboto, sans-serif; font-size: 12px; font-weight: 200;" x="160.47277715471057" y="0" dx="0em" dy="0.95em" fill="rgb(33, 33, 33)" stroke="none" stroke-width="1px">800k</text><text style="text-anchor: middle; visibility: hidden; font-family: Roboto, sans-serif; font-size: 12px; font-weight: 200;" x="192.56733258565265" y="0" dx="0em" dy="0.95em" fill="rgb(33, 33, 33)" stroke="none" stroke-width="1px">1M</text><text style="text-anchor: middle; visibility: inherit; font-family: Roboto, sans-serif; font-size: 12px; font-weight: 200;" x="224.6618880165948" y="0" dx="0em" dy="0.95em" fill="rgb(33, 33, 33)" stroke="none" stroke-width="1px">1.2M</text><text style="text-anchor: middle; visibility: hidden; font-family: Roboto, sans-serif; font-size: 12px; font-weight: 200;" x="256.75644344753687" y="0" dx="0em" dy="0.95em" fill="rgb(33, 33, 33)" stroke="none" stroke-width="1px">1.4M</text><text style="text-anchor: middle; visibility: hidden; font-family: Roboto, sans-serif; font-size: 12px; font-weight: 200;" x="288.850998878479" y="0" dx="0em" dy="0.95em" fill="rgb(33, 33, 33)" stroke="none" stroke-width="1px">1.6M</text></g><line x1="0" y1="0" x2="288.850998878479" y2="0" fill="rgb(0, 0, 0)" stroke="rgb(204, 204, 204)" stroke-width="1px"></line></g></g></g></g></svg>