<svg viewBox="0 0 330 200" xmlns="http://www.w3.org/2000/svg"><g><g><g><g><g><line x1="72.29800224304199" y1="176.5999994277954" x2="67.29800224304199" y2="176.5999994277954" style="visibility: inherit;" fill="rgb(0, 0, 0)" stroke="rgb(204, 204, 204)" stroke-width="1px"></line><line x1="72.29800224304199" y1="163.98571375438146" x2="67.29800224304199" y2="163.98571375438146" style="visibility: inherit;" fill="rgb(0, 0, 0)" stroke="rgb(204, 204, 204)" stroke-width="1px"></line><line x1="72.29800224304199" y1="151.37142808096752" x2="67.29800224304199" y2="151.37142808096752" style="visibility: inherit;" fill="rgb(0, 0, 0)" stroke="rgb(204, 204, 204)" stroke-width="1px"></line><line x1="72.29800224304199" y1="138.75714240755354" x2="67.29800224304199" y2="138.75714240755354" style="visibility: inherit;" fill="rgb(0, 0, 0)" stroke="rgb(204, 204, 204)" stroke-width="1px"></line><line x1="72.29800224304199" y1="126.14285673413958" x2="67.29800224304199" y2="126.14285673413958" style="visibility: inherit;" fill="rgb(0, 0, 0)" stroke="rgb(204, 204, 204)" stroke-width="1px"></line><line x1="72.29800224304199" y1="113.52857106072561" x2="67.29800224304199" y2="113.52857106072561" style="visibility: inherit;" fill="rgb(0, 0, 0)" stroke="rgb(204, 204, 204)" stroke-width="1px"></line><line x1="72.29800224304199" y1="100.91428538731165" x2="67.29800224304199" y2="100.91428538731165" style="visibility: inherit;" fill="rgb(0, 0, 0)" stroke="rgb(204, 204, 204)" stroke-width="1px"></line><line x1="72.29800224304199" y1="88.2999997138977" x2="67.29800224304199" y2="88.2999997138977" style="visibility: inherit;" fill="rgb(0, 0, 0)" stroke="rgb(204, 204, 204)" stroke-width="1px"></line><line x1="72.29800224304199" y1="75.68571404048376" x2="67.29800224304199" y2="75.68571404048376" style="visibility: inherit;" fill="rgb(0, 0, 0)" stroke="rgb(204, 204, 204)" stroke-width="1px"></line><line x1="72.29800224304199" y1="63.07142836706978" x2="67.29800224304199" y2="63.07142836706978" style="visibility: inherit;" fill="rgb(0, 0, 0)" stroke="rgb(204, 204, 204)" stroke-width="1px"></line><line x1="72.29800224304199" y1="50.457142693655825" x2="67.29800224304199" y2="50.457142693655825" style="visibility: inherit;" fill="rgb(0, 0, 0)" stroke="rgb(204, 204, 204)" stroke-width="1px"></line><line x1="72.29800224304199" y1="37.84285702024188" x2="67.29800224304199" y2="37.84285702024188" style="visibility: inherit;" fill="rgb(0, 0, 0)" stroke="rgb(204, 204, 204)" stroke-width="1px"></line><line x1="72.29800224304199" y1="25.228571346827923" x2="67.29800224304199" y2="25.228571346827923" style="visibility: inherit;" fill="rgb(0, 0, 0)" stroke="rgb(204, 204, 204)" stroke-width="1px"></line><line x1="72.29800224304199" y1="12.614285673413953" x2="67.29800224304199" y2="12.614285673413953" style="visibility: inherit;" fill="rgb(0, 0, 0)" stroke="rgb(204, 204, 204)" stroke-width="1px"></line><line x1="72.29800224304199" y1="0" x2="67.29800224304199" y2="0" style="visibility: inherit;" fill="rgb(0, 0, 0)" stroke="rgb(204, 204, 204)" stroke-width="1px"></line></g><g transform="translate(62.29800224304199, 0)"><text style="text-anchor: end; visibility: hidden; font-family: Roboto, sans-serif; font-size: 12px; font-weight: 200;" x="0" y="176.5999994277954" dx="0em" dy="0.3em" fill="rgb(33, 33, 33)" stroke="none" stroke-width="1px">-5e+4</text><text style="text-anchor: end; visibility: inherit; font-family: Roboto, sans-serif; font-size: 12px; font-weight: 200;" x="0" y="163.98571375438146" dx="0em" dy="0.3em" fill="rgb(33, 33, 33)" stroke="none" stroke-width="1px">0</text><text style="text-anchor: end; visibility: hidden; font-family: Roboto, sans-serif; font-size: 12px; font-weight: 200;" x="0" y="151.37142808096752" dx="0em" dy="0.3em" fill="rgb(33, 33, 33)" stroke="none" stroke-width="1px">5e+4</text><text style="text-anchor: end; visibility: inherit; font-family: Roboto, sans-serif; font-size: 12px; font-weight: 200;" x="0" y="138.75714240755354" dx="0em" dy="0.3em" fill="rgb(33, 33, 33)" stroke="none" stroke-width="1px">1e+5</text><text style="text-anchor: end; visibility: hidden; font-family: Roboto, sans-serif; font-size: 12px; font-weight: 200;" x="0" y="126.14285673413958" dx="0em" dy="0.3em" fill="rgb(33, 33, 33)" stroke="none" stroke-width="1px">1.5e+5</text><text style="text-anchor: end; visibility: inherit; font-family: Roboto, sans-serif; font-size: 12px; font-weight: 200;" x="0" y="113.52857106072561" dx="0em" dy="0.3em" fill="rgb(33, 33, 33)" stroke="none" stroke-width="1px">2e+5</text><text style="text-anchor: end; visibility: hidden; font-family: Roboto, sans-serif; font-size: 12px; font-weight: 200;" x="0" y="100.91428538731165" dx="0em" dy="0.3em" fill="rgb(33, 33, 33)" stroke="none" stroke-width="1px">2.5e+5</text><text style="text-anchor: end; visibility: inherit; font-family: Roboto, sans-serif; font-size: 12px; font-weight: 200;" x="0" y="88.2999997138977" dx="0em" dy="0.3em" fill="rgb(33, 33, 33)" stroke="none" stroke-width="1px">3e+5</text><text style="text-anchor: end; visibility: hidden; font-family: Roboto, sans-serif; font-size: 12px; font-weight: 200;" x="0" y="75.68571404048376" dx="0em" dy="0.3em" fill="rgb(33, 33, 33)" stroke="none" stroke-width="1px">3.5e+5</text><text style="text-anchor: end; visibility: inherit; font-family: Roboto, sans-serif; font-size: 12px; font-weight: 200;" x="0" y="63.07142836706978" dx="0em" dy="0.3em" fill="rgb(33, 33, 33)" stroke="none" stroke-width="1px">4e+5</text><text style="text-anchor: end; visibility: hidden; font-family: Roboto, sans-serif; font-size: 12px; font-weight: 200;" x="0" y="50.457142693655825" dx="0em" dy="0.3em" fill="rgb(33, 33, 33)" stroke="none" stroke-width="1px">4.5e+5</text><text style="text-anchor: end; visibility: inherit; font-family: Roboto, sans-serif; font-size: 12px; font-weight: 200;" x="0" y="37.84285702024188" dx="0em" dy="0.3em" fill="rgb(33, 33, 33)" stroke="none" stroke-width="1px">5e+5</text><text style="text-anchor: end; visibility: hidden; font-family: Roboto, sans-serif; font-size: 12px; font-weight: 200;" x="0" y="25.228571346827923" dx="0em" dy="0.3em" fill="rgb(33, 33, 33)" stroke="none" stroke-width="1px">5.5e+5</text><text style="text-anchor: end; visibility: inherit; font-family: Roboto, sans-serif; font-size: 12px; font-weight: 200;" x="0" y="12.614285673413953" dx="0em" dy="0.3em" fill="rgb(33, 33, 33)" stroke="none" stroke-width="1px">6e+5</text><text style="text-anchor: end; visibility: hidden; font-family: Roboto, sans-serif; font-size: 12px; font-weight: 200;" x="0" y="0" dx="0em" dy="0.3em" fill="rgb(33, 33, 33)" stroke="none" stroke-width="1px">6.5e+5</text></g><line x1="72.29800224304199" y1="0" x2="72.29800224304199" y2="176.5999994277954" fill="rgb(0, 0, 0)" stroke="rgb(204, 204, 204)" stroke-width="1px"></line></g></g><g transform="translate(72, 0)" clip-path="url(#clip_0)"><clipPath id="clip_0"><rect width="257" height="176"></rect></clipPath><g><g><g><line x1="0" y1="0" x2="0" y2="176.5999994277954" fill="rgb(0, 0, 0)" stroke="rgb(66, 66, 66)" stroke-width="1px" opacity="0.25"></line><line x1="28.633555306328667" y1="0" x2="28.633555306328667" y2="176.5999994277954" fill="rgb(0, 0, 0)" stroke="rgb(66, 66, 66)" stroke-width="1px" opacity="0.25"></line><line x1="57.26711061265733" y1="0" x2="57.26711061265733" y2="176.5999994277954" fill="rgb(0, 0, 0)" stroke="rgb(66, 66, 66)" stroke-width="1px" opacity="0.25"></line><line x1="85.900665918986" y1="0" x2="85.900665918986" y2="176.5999994277954" fill="rgb(0, 0, 0)" stroke="rgb(66, 66, 66)" stroke-width="1px" opacity="0.25"></line><line x1="114.53422122531467" y1="0" x2="114.53422122531467" y2="176.5999994277954" fill="rgb(0, 0, 0)" stroke="rgb(66, 66, 66)" stroke-width="1px" opacity="0.25"></line><line x1="143.16777653164334" y1="0" x2="143.16777653164334" y2="176.5999994277954" fill="rgb(0, 0, 0)" stroke="rgb(66, 66, 66)" stroke-width="1px" opacity="0.25"></line><line x1="171.801331837972" y1="0" x2="171.801331837972" y2="176.5999994277954" fill="rgb(0, 0, 0)" stroke="rgb(66, 66, 66)" stroke-width="1px" opacity="0.25"></line><line x1="200.4348871443007" y1="0" x2="200.4348871443007" y2="176.5999994277954" fill="rgb(0, 0, 0)" stroke="rgb(66, 66, 66)" stroke-width="1px" opacity="0.25"></line><line x1="229.06844245062933" y1="0" x2="229.06844245062933" y2="176.5999994277954" fill="rgb(0, 0, 0)" stroke="rgb(66, 66, 66)" stroke-width="1px" opacity="0.25"></line><line x1="257.701997756958" y1="0" x2="257.701997756958" y2="176.5999994277954" fill="rgb(0, 0, 0)" stroke="rgb(66, 66, 66)" stroke-width="1px" opacity="0.25"></line></g><g><line x1="0" y1="176.5999994277954" x2="257.701997756958" y2="176.5999994277954" fill="rgb(0, 0, 0)" stroke="rgb(66, 66, 66)" stroke-width="1px" opacity="0.25"></line><line x1="0" y1="163.98571375438146" x2="257.701997756958" y2="163.98571375438146" fill="rgb(0, 0, 0)" stroke="rgb(66, 66, 66)" stroke-width="1px" opacity="0.25"></line><line x1="0" y1="151.37142808096752" x2="257.701997756958" y2="151.37142808096752" fill="rgb(0, 0, 0)" stroke="rgb(66, 66, 66)" stroke-width="1px" opacity="0.25"></line><line x1="0" y1="138.75714240755354" x2="257.701997756958" y2="138.75714240755354" fill="rgb(0, 0, 0)" stroke="rgb(66, 66, 66)" stroke-width="1px" opacity="0.25"></line><line x1="0" y1="126.14285673413958" x2="257.701997756958" y2="126.14285673413958" fill="rgb(0, 0, 0)" stroke="rgb(66, 66, 66)" stroke-width="1px" opacity="0.25"></line><line x1="0" y1="113.52857106072561" x2="257.701997756958" y2="113.52857106072561" fill="rgb(0, 0, 0)" stroke="rgb(66, 66, 66)" stroke-width="1px" opacity="0.25"></line><line x1="0" y1="100.91428538731165" x2="257.701997756958" y2="100.91428538731165" fill="rgb(0, 0, 0)" stroke="rgb(66, 66, 66)" stroke-width="1px" opacity="0.25"></line><line x1="0" y1="88.2999997138977" x2="257.701997756958" y2="88.2999997138977" fill="rgb(0, 0, 0)" stroke="rgb(66, 66, 66)" stroke-width="1px" opacity="0.25"></line><line x1="0" y1="75.68571404048376" x2="257.701997756958" y2="75.68571404048376" fill="rgb(0, 0, 0)" stroke="rgb(66, 66, 66)" stroke-width="1px" opacity="0.25"></line><line x1="0" y1="63.07142836706978" x2="257.701997756958" y2="63.07142836706978" fill="rgb(0, 0, 0)" stroke="rgb(66, 66, 66)" stroke-width="1px" opacity="0.25"></line><line x1="0" y1="50.457142693655825" x2="257.701997756958" y2="50.457142693655825" fill="rgb(0, 0, 0)" stroke="rgb(66, 66, 66)" stroke-width="1px" opacity="0.25"></line><line x1="0" y1="37.84285702024188" x2="257.701997756958" y2="37.84285702024188" fill="rgb(0, 0, 0)" stroke="rgb(66, 66, 66)" stroke-width="1px" opacity="0.25"></line><line x1="0" y1="25.228571346827923" x2="257.701997756958" y2="25.228571346827923" fill="rgb(0, 0, 0)" stroke="rgb(66, 66, 66)" stroke-width="1px" opacity="0.25"></line><line x1="0" y1="12.614285673413953" x2="257.701997756958" y2="12.614285673413953" fill="rgb(0, 0, 0)" stroke="rgb(66, 66, 66)" stroke-width="1px" opacity="0.25"></line><line x1="0" y1="0" x2="257.701997756958" y2="0" fill="rgb(0, 0, 0)" stroke="rgb(66, 66, 66)" stroke-width="1px" opacity="0.25"></line></g></g></g><g><g><line x1="0" y1="163.98571375438146" x2="257.701997756958" y2="163.98571375438146" fill="rgb(0, 0, 0)" stroke="rgb(153, 153, 153)" stroke-width="1.5px"></line></g></g><g><g><line x1="28.633555306328667" y1="0" x2="28.633555306328667" y2="176.5999994277954" fill="rgb(0, 0, 0)" stroke="rgb(153, 153, 153)" stroke-width="1.5px"></line></g></g><g><g><g><g><g><path style="fill: none;" stroke="rgb(255, 112, 67)" stroke-width="2px" d="M29.20608324467871,163.9855391459233L29.492418797741994,163.98545249566075L29.63558657427364,163.9853944146921L29.921922127336924,163.98532909745563L30.208257680400212,163.98525062716442L30.351425456931857,163.9851737361154L30.494593233463497,163.98511471599488L30.637761009995142,163.98505644077846L30.780928786526786,163.98499471758103L30.92409656305843,163.98494770194975L31.06726433959007,163.98490546671692L31.210432116121716,163.9848641021016L31.35359989265336,163.98482755855485L31.496767669185004,163.98479762315478L31.639935445716645,163.9847456246391L31.926270998779934,163.98471016332346L32.212606551843216,163.984651861333L32.355774328374864,163.9846049738877L33.071613211033075,163.9845552842815L33.21478098756472,163.9845030307442L33.35794876409636,163.98445689556348L33.50111654062801,163.984413874517L33.64428431715965,163.98438164855122L33.93061987022294,163.98434554730207L34.36012319981787,163.98430553108204L34.50329097634951,163.984274765047L34.7896265294128,163.98424519092885L34.93279430594445,163.98423928402204L35.07596208247609,163.98419914345104L35.21912985900773,163.98416384977133L35.50546541207102,163.98414183624106L35.79180096513431,163.98412255759547L35.93496874166595,163.9840905351514L36.36447207126087,163.98404385029653L36.50763984779252,163.9840117229942L36.65080762432416,163.98402630914848L36.79397540085581,163.98400700550158L36.93714317738745,163.9839850945808L37.36664650698238,163.9839688357673L37.50981428351402,163.9839697306181L37.79614983657731,163.9839832499623L37.939317613108955,163.98397878862926L38.082485389640595,163.98397019371387L38.22565316617224,163.98400341048577L38.368820942703884,163.98401065273438L38.511988719235525,163.9840224292278L38.655156495767166,163.98403560703488L38.941492048830455,163.98403811952682L39.0846598253621,163.98405984308974L39.22782760189374,163.9841008099718L39.37099537842539,163.984105717852L39.65733093148867,163.98411806802025L39.94366648455196,163.984155348936L40.0868342610836,163.98418177839443L40.37316981414689,163.98422040973807L40.51633759067853,163.98426957058115L40.80267314374181,163.98429771373603L40.94584092027346,163.98433482484052L41.0890086968051,163.98436419145804L41.23217647333675,163.98440167326484L41.37534424986839,163.98442153893987L41.51851202640004,163.98444009764088L41.80484757946332,163.98446448591733L41.94801535599496,163.98451137515562L42.09118313252661,163.98451918279503L42.23435090905825,163.9845455261942L42.95018979171647,163.98457605893233L43.09335756824811,163.9846053894063L43.3796931213114,163.9846354909197L43.66602867437469,163.98467097256068L43.809196450906335,163.98471170060728L43.952364227437975,163.98472895787296L44.381867557032905,163.98476969466063L44.95453866315948,163.98478506365447L45.384041992754405,163.98482102593812L45.67037754581769,163.9848567831273L45.813545322349334,163.98489227778813L45.95671309888098,163.98491996209088L46.52938420500755,163.9849452958738L46.67255198153919,163.98495879926966L46.81571975807084,163.98498493540703L46.95888753460248,163.98499961441803L47.24522308766577,163.98502369634315L47.38839086419741,163.98503855386772L47.81789419379234,163.98505626170714L48.24739752338728,163.98506896534482L48.39056529991892,163.98508172233886L48.6769008529822,163.9850890454208L48.96323640604549,163.98510555838976L49.10640418257714,163.98512358020372L49.24957195910878,163.98513202295888L49.392739735640426,163.98513849767187L49.535907512172066,163.98513566941304L49.6790752887037,163.98514077824788L49.96541084176699,163.98514786484407L50.10857861829864,163.98515405119105L50.25174639483028,163.9851610046699L50.394914171361926,163.98516509250052L50.681249724425214,163.98516866449947L50.82441750095685,163.98517602565568L50.967585277488496,163.98517714327366L51.253920830551785,163.9851661700081L51.397088607083425,163.9851666701333L51.54025638361507,163.98516560151253L51.826591936678355,163.98516861606385L51.969759713209996,163.98516614743087L52.256095266273284,163.98515647818752L52.39926304280493,163.98515880334296L52.68559859586822,163.9851599970458L52.82876637239986,163.98516683273837L52.9719341489315,163.98516612864412L53.25826970199479,163.98516925951662L53.83094080812137,163.98517232932014L53.97410858465301,163.98518149769603L54.11727636118465,163.985183746766L54.26044413771629,163.98518808301188L54.54677969077958,163.98519862409194L54.68994746731122,163.98519926770894L54.97628302037451,163.98520622540676L55.26261857343779,163.98520936422787L55.40578634996944,163.98521734743082L55.54895412650108,163.98521839522283L55.69212190303273,163.98521680475992L55.97845745609602,163.985214029227L56.12162523262766,163.98521094074565L57.123799668349164,163.98522004705057L57.696470774475735,163.98521623705545L58.125974104070664,163.9852187550749L58.26914188060231,163.98521544706875L58.41230965713395,163.98521993898396L58.555477433665594,163.98521560257913L59.128148539792164,163.985211223464L59.27131631632381,163.9852163568787L59.41448409285545,163.98521357947055L59.5576518693871,163.98521033239032L59.98715519898202,163.98520415752108L60.13032297551367,163.9852044510139L60.27349075204531,163.98520288661334L60.41665852857696,163.9852056189032L60.5598263051086,163.98520678637828L60.70299408164024,163.98521224268808L60.98932963470353,163.98520980583856L61.13249741123517,163.98521492612053L61.27566518776682,163.98521426930654L61.56200074083011,163.98522076499202L61.70516851736175,163.98522216732158L61.84833629389339,163.9852247735992L61.99150407042503,163.98522794814113L62.13467184695668,163.98522711379104L62.27783962348832,163.98522915914216L62.707342953083256,163.9852285082285L62.850510729614896,163.98523440823894L63.13684628267818,163.9852368436391L63.709517388804755,163.98523682024927L63.852685165336396,163.98523608965488L64.13902071839968,163.9852350514408L64.28218849493132,163.98523107345147L64.42535627146297,163.9852382580543L64.56852404799461,163.9852272285812L64.71169182452626,163.9852222963571L64.8548596010579,163.98522274516185L65.28436293065283,163.985217290476L65.71386626024776,163.98521657707428L65.8570340367794,163.9852209543253L66.00020181331105,163.98521357131588L66.14336958984269,163.98520647932367L66.42970514290597,163.98519887990804L67.00237624903255,163.98519311711132L67.28871180209585,163.9851807903297L67.57504735515913,163.98517440776487L67.71821513169077,163.9851739370458L67.86138290822242,163.98517356819374L68.00455068475405,163.98516742109723L68.14771846128569,163.98516732415797L68.43405401434897,163.9851623452922L68.57722179088063,163.98515733267902L68.86355734394392,163.9851454359171L69.14989289700719,163.9851348968185L69.43622845007049,163.98513558747928L70.15206733272869,163.98513159540474L70.43840288579199,163.98513104761784L70.58157066232364,163.98512808733958L70.86790621538692,163.9851232317505L71.01107399191856,163.98511987142288L71.15424176845022,163.98512058427187L71.29740954498185,163.98511445665235L71.44057732151349,163.9851144464516L71.58374509804514,163.9851155551248L71.72691287457678,163.98510939618714L71.87008065110842,163.985105976374L72.01324842764006,163.98510333048324L72.15641620417172,163.9851023563604L72.72908731029828,163.98510261085335L72.87225508682992,163.985111797923L73.15859063989322,163.98511185985302L73.58809396948814,163.98511228470647L74.16076507561472,163.98511187749511L74.30393285214636,163.985109668045L74.44710062867802,163.98510954993137L74.59026840520964,163.98511510150306L74.87660395827294,163.98512620423253L75.01977173480458,163.985125263902L75.16293951133622,163.9851274225535L75.30610728786786,163.98512704699345L75.44927506439952,163.98512620851932L75.59244284093116,163.9851321512488L76.02194617052608,163.98513327533178L76.16511394705773,163.98514159485745L76.45144950012102,163.98514575965896L76.73778505318431,163.98514873146874L77.02412060624758,163.98515130588243L77.31045615931086,163.98515448419596L77.59679171237416,163.98515679798956L77.73995948890581,163.98515521070485L77.88312726543744,163.98516079701736L78.02629504196908,163.98516529241286L78.16946281850073,163.98516652606497L78.31263059503237,163.98516701334796L78.45579837156401,163.9851643471656L78.59896614809566,163.9851633454172L78.74213392462731,163.98515985138545L79.02846947769058,163.98516348446825L79.31480503075387,163.98516782348148L79.45797280728553,163.98517340557012L79.74430836034881,163.9851729683989L80.0306439134121,163.98517821630415L80.17381168994373,163.98517955301105L80.31697946647537,163.9851769873918L80.46014724300703,163.98518605658776L80.60331501953867,163.9851850619275L80.74648279607031,163.98518350933682L80.88965057260195,163.98518957443034L81.0328183491336,163.98518486473955L81.17598612566525,163.98518886356362L81.31915390219687,163.98518617281L81.46232167872853,163.98518885492376L81.74865723179182,163.985194633777L81.89182500832345,163.9851901445499L82.17816056138675,163.98518588185055L82.46449611445003,163.98518335973978L82.60766389098167,163.9851786020684L82.75083166751332,163.98517325712405L82.89399944404495,163.98517104022173L83.0371672205766,163.98516885295487L83.3235027736399,163.98515863359628L83.46667055017153,163.98516000972174L83.75300610323482,163.98516031361586L83.89617387976647,163.9851591843458L84.0393416562981,163.98515551977434L84.18250943282975,163.98515083929158L84.3256772093614,163.98514930693102L84.61201276242467,163.98514715565295L84.75518053895632,163.98514231488724L84.89834831548797,163.9851365265219L85.04151609201962,163.98513035934417L85.75735497467782,163.98513062673797L85.90052275120946,163.98512804545294L86.3300260808044,163.98512455653952L86.47319385733604,163.98510936609773L86.75952941039932,163.98510725116094L86.90269718693096,163.98510790754818L87.18903273999426,163.98510311992038L87.47536829305754,163.98509705220485L88.19120717571576,163.98509899889518L88.33437495224742,163.98510019804456L88.76387828184234,163.9851022823541L88.907046058374,163.98509947212105L89.05021383490562,163.98510324432024L89.19338161143726,163.9851064807354L89.33654938796892,163.98510926406655L89.47971716450056,163.9851082473928L89.76605271756384,163.98510772956877L90.05238827062713,163.9851048360753L90.33872382369042,163.985107447569L90.62505937675371,163.98511075313323L91.05456270634863,163.98511366653753L91.19773048288027,163.98511408368563L91.62723381247521,163.98511808417194L91.77040158900684,163.98511589315973L91.91356936553849,163.9851163692656L92.05673714207013,163.98512069257174L92.34307269513342,163.98511877918355L92.48624047166506,163.98511891272827L92.91574380125999,163.98511863072093L93.05891157779163,163.98511794867582L93.34524713085493,163.98511578103356L93.77475046044985,163.98511551968272L94.20425379004479,163.98510903322125L94.34742156657643,163.985112966497L94.49058934310808,163.98511147357434L94.63375711963971,163.98511882586902L94.77692489617135,163.9851190251674L95.06326044923465,163.98511860546168L95.20642822576629,163.98512288426625L95.34959600229793,163.98512294772613L95.49276377882958,163.9851222600975L95.63593155536121,163.98511836135802L95.77909933189285,163.98511906622096L95.9222671084245,163.98511550063668L96.20860266148779,163.98511564702386L96.49493821455108,163.9851156989555L96.63810599108272,163.98511673099634L97.06760932067765,163.98511850126644L97.2107770972093,163.98512225597875L97.78344820333588,163.9851305218402L98.2129515329308,163.98512951750868L98.35611930946244,163.98512388892664L98.64245486252572,163.98512454176003L98.78562263905738,163.9851250755514L99.07195819212065,163.9851215301725L99.2151259686523,163.98511903756423L99.35829374518394,163.9851203426351L99.78779707477888,163.9851180967011L99.93096485131052,163.98511877988585L100.2173004043738,163.9851208253136L100.78997151050038,163.98512158528814L101.2194748400953,163.98512179778416L101.36264261662694,163.9851190734062L101.5058103931586,163.98512220874667L101.64897816969024,163.98511924893907L101.79214594622188,163.98512080514476L101.93531372275352,163.9851221732355L102.07848149928518,163.98512148776112L102.36481705234844,163.98512193312519L102.5079848288801,163.98512207213204L102.65115260541174,163.98512607281523L102.7943203819434,163.98512560282862L102.93748815847502,163.98512404115834L103.08065593500667,163.98512637892782L103.22382371153832,163.98512680864465L103.7964948176649,163.98513106887896L103.93966259419653,163.98512994037895L104.7986692533864,163.98512926686925L105.08500480644967,163.98513033714752L105.22817258298132,163.98513320049017L105.37134035951297,163.9851318078553L105.51450813604461,163.98513133141742L105.65767591257625,163.98513018757015L105.8008436891079,163.98513255289524L105.94401146563953,163.98512875157445L106.08717924217119,163.98513265830206L106.23034701870282,163.98513060279447L106.37351479523447,163.98512936455458L106.51668257176611,163.9851307031718L106.65985034829777,163.9851337840246L106.80301812482939,163.9851317544129L106.94618590136103,163.98513161866825L107.08935367789269,163.98512739689843L107.23252145442433,163.98512892904944L107.37568923095597,163.98513117064888L107.66202478401927,163.9851332826612L107.8051925605509,163.9851324765197L107.94836033708253,163.98513335840792L108.23469589014583,163.9851307451522L108.52103144320911,163.9851324262404L108.8073669962724,163.98513052257536L108.95053477280406,163.9851308490992L109.38003810239898,163.98513743960822L109.52320587893061,163.98513559877168L109.66637365546227,163.98513552335362L109.95270920852556,163.98513751414464L110.09587698505719,163.98513768209807L110.23904476158883,163.98513723470592L110.52538031465212,163.98513752170413L110.8117158677154,163.98514327070237L110.95488364424706,163.98514237205893L111.24121919731033,163.98514112669082L111.38438697384198,163.9851436330881L111.52755475037362,163.98514509032722L111.67072252690528,163.98515010577722L111.8138903034369,163.9851494564589L111.95705807996856,163.98515139591998L112.1002258565002,163.98515603953922L112.24339363303186,163.98515805740988L112.38656140956348,163.9851610518871L112.67289696262678,163.9851640459454L112.81606473915842,163.9851633084925L112.95923251569006,163.98516668760993L113.388735845285,163.98516944063556L113.53190362181662,163.98517027409923L113.67507139834828,163.98517118471668L113.96140695141158,163.9851705571138L114.1045747279432,163.9851718089217L114.24774250447486,163.98517227228172L114.3909102810065,163.9851719116829L114.67724583406978,163.98517399801838L114.96358138713308,163.9851774647418L115.1067491636647,163.98517886980133L115.24991694019636,163.98517882552716L115.53625249325965,163.98518140451023L115.82258804632292,163.98518393676736L116.10892359938622,163.98518933083645L116.25209137591786,163.9851901394361L116.3952591524495,163.98518893909753L116.82476248204442,163.9851875657192L117.397433588171,163.98518767509722L117.54060136470265,163.9851886738661L117.6837691412343,163.9851874625492L117.82693691776595,163.98518912899857L117.97010469429758,163.98519034691145L118.25644024736087,163.985189685341L118.39960802389251,163.98519274279334L118.82911135348745,163.9851920643684L118.97227913001907,163.98519473667275L119.25861468308237,163.98518968257275L119.54495023614565,163.98519068108044L119.6881180126773,163.98519220486975L120.11762134227222,163.98519248424412L120.40395689533551,163.98519458044132L120.54712467186717,163.985195678387L120.6902924483988,163.98519527659155L120.97662800146209,163.98519862903277L121.11979577799374,163.98520293669708L121.26296355452537,163.98520565907245L121.40613133105701,163.98520814290566L121.54929910758867,163.98521112515337L121.69246688412031,163.98521143201893L121.83563466065195,163.98521229750338L121.97880243718359,163.98521224030665L122.12197021371524,163.98521349785273L122.6946413198418,163.9852124737684L122.83780909637346,163.98521630029373L123.12414464943674,163.98521818725544L123.41048020250003,163.98521617032586L123.55364797903167,163.9852198720641L123.6968157555633,163.98521905622218L123.83998353209496,163.98521680265495L123.98315130862659,163.98521921128375L124.12631908515824,163.98522125688L124.26948686168988,163.98522210224542L124.41265463822154,163.98521899543456L124.55582241475317,163.9852252221143L124.84215796781646,163.98522395828138L124.9853257443481,163.9852224221511L125.12849352087974,163.9852251284263L125.27166129741138,163.9852299189104L125.41482907394304,163.985227051414L125.7011646270063,163.98522786417388L125.84433240353796,163.9852254087857L125.9875001800696,163.98522538153293L126.27383573313288,163.98523090668482L126.41700350966454,163.98523199538457L126.56017128619618,163.98523659425425L126.70333906272784,163.98523812990695L126.84650683925946,163.985237947945L126.9896746157911,163.9852380443152L127.13284239232276,163.9852339246353L127.2760101688544,163.98523374656554L127.41917794538604,163.98523222084333L127.84868127498096,163.9852301927872L128.13501682804426,163.98523138237832L128.42135238110754,163.98523257694129L128.85085571070246,163.98523371064053L128.9940234872341,163.9852354031537L129.13719126376574,163.9852387548167L129.2803590402974,163.9852386014227L129.42352681682905,163.9852415918584L129.5666945933607,163.98524454291854L129.70986236989233,163.98524692394085L129.85303014642398,163.9852527637396L129.99619792295562,163.98525150076176L130.13936569948726,163.98525233424752L130.2825334760189,163.9852524600626L130.42570125255054,163.98525323600828L130.5688690290822,163.98525130619913L130.9983723586771,163.98525202273774L131.14154013520877,163.98525282115673L131.5710434648037,163.9852535235783L131.71421124133533,163.98525283252718L132.00054679439864,163.9852569963233L132.14371457093026,163.98526182515744L132.2868823474619,163.9852593167399L132.43005012399354,163.98526120016328L132.5732179005252,163.98526160803493L132.71638567705685,163.98526365870703L133.14588900665177,163.9852679198606L133.2890567831834,163.9852700157417L133.43222455971505,163.98527051187233L134.00489566584164,163.98527178828428L134.14806344237329,163.98527243067588L134.43439899543657,163.98527669413485L134.5775667719682,163.98527521332593L134.72073454849985,163.9852767759637L134.8639023250315,163.9852790798769L135.1502378780948,163.98527952111874L135.5797412076897,163.98527868779365L135.72290898422133,163.98528226732853L136.00924453728464,163.98528446514246L136.15241231381628,163.98528366514685L136.29558009034793,163.98528312978658L136.4387478668796,163.98528379401364L136.5819156434112,163.9852860611504L136.72508341994285,163.98528616634042L136.8682511964745,163.98528397033536L137.01141897300613,163.9852854689841L137.44092230260108,163.9852838778518L137.5840900791327,163.98528437981636L137.870425632196,163.9852857124978L138.15676118525928,163.98528765716398L138.29992896179093,163.9852867291996L138.4430967383226,163.9852897856002L138.58626451485424,163.98529359378287L138.8726000679175,163.98529454504768L139.01576784444913,163.98529950057994L139.1589356209808,163.98529867004197L139.30210339751244,163.9852957954265L139.44527117404408,163.98529505671252L139.58843895057572,163.9852958391913L139.7316067271074,163.9852946803011L139.874774503639,163.985293150917L140.30427783323393,163.98529637942454L140.4474456097656,163.9852994636497L140.87694893936052,163.98530177973552L141.02011671589216,163.98530135485305L141.1632844924238,163.98530098928126L141.44962004548708,163.98530170134623L141.7359555985504,163.98530241130916L141.87912337508203,163.9853024505405L142.02229115161364,163.98530481044892L142.16545892814528,163.98530417589987L142.30862670467695,163.9853053879979L142.4517944812086,163.98530719547605L142.59496225774024,163.9853073223658L142.73813003427188,163.9853068594277L143.0244655873352,163.9853078252525L143.1676333638668,163.98530418266697L143.31080114039844,163.98530454339544L143.59713669346172,163.98530778146807L144.02664002305667,163.9853073486809L144.1698077995883,163.98531059735825L144.31297557611995,163.98531350016387L144.4561433526516,163.9853162149507L144.59931112918323,163.98531509825108L144.88564668224652,163.98531353708043L145.02881445877819,163.98531852819588L145.17198223530983,163.9853212569361L145.45831778837308,163.9853221971533L145.60148556490475,163.9853236311649L145.88782111796803,163.98532359637437L146.31732444756298,163.98532327602237L146.60366000062623,163.985320994209L146.74682777715788,163.98532143395016L146.88999555368952,163.98532125287178L147.31949888328447,163.98532148078021L147.4626666598161,163.9853216226082L147.7490022128794,163.98532454882238L147.89216998941103,163.98532588540965L148.1785055424743,163.98532943881588L148.32167331900598,163.98533139569966L148.46484109553762,163.98533096808347L148.75117664860088,163.98532705550417L148.89434442513254,163.985331013963L149.32384775472747,163.98533124761292L149.4670155312591,163.98533303813326L149.75335108432242,163.98533455808524L149.89651886085403,163.98533327194372L150.03968663738567,163.98533419221442L150.1828544139173,163.9853354335072L150.46918996698062,163.9853347944361L150.61235774351226,163.98533741537346L150.7555255200439,163.98533818645026L150.89869329657557,163.98533988985403L151.18502884963883,163.98533586038187L151.4713644027021,163.98533554395465L151.75769995576542,163.985338789234L151.90086773229706,163.98533915100805L152.04403550882867,163.9853391461213L152.18720328536034,163.98533968071925L152.33037106189198,163.98533920183488L152.90304216801857,163.98534049937336L153.0462099445502,163.98533981948344L153.18937772108183,163.98534487913844L153.33254549761347,163.98534657841748L153.76204882720842,163.98534195290728L153.90521660374006,163.98534037123875L154.0483843802717,163.98534163084582L154.19155215680337,163.9853446764842L154.33471993333498,163.98534608326983L154.62105548639826,163.98534572814594L154.7642232629299,163.9853472554581L154.90739103946157,163.9853474145426L155.0505588159932,163.98534470962406L155.3368943690565,163.98534860470897L155.62322992211978,163.9853492548237L155.76639769865142,163.98535179839018L155.90956547518306,163.98535602518507L156.0527332517147,163.98535158969906L156.19590102824637,163.9853515163031L156.48223658130962,163.98534903416493L156.62540435784126,163.98535041890722L156.7685721343729,163.9853496953562L157.0549076874362,163.98534948518434L157.19807546396785,163.9853491591722L157.48441101703116,163.98535067142234L157.62757879356278,163.98535028787757L158.20024989968937,163.98535213576287L158.343417676221,163.98535035017932L158.6297532292843,163.98535006957138L158.77292100581593,163.98535483983574L158.91608878234757,163.98535563615226L159.0592565588792,163.98535756497233L159.20242433541085,163.9853566405113L159.3455921119425,163.9853580513749L159.48875988847416,163.98535967275117L159.77509544153745,163.98535689011527L159.91826321806906,163.98535652982912L160.06143099460073,163.9853579524293L160.49093432419565,163.98535898548826L160.6341021007273,163.98535801029243L160.77726987725896,163.98535886221703L160.92043765379057,163.98536050733526L161.20677320685385,163.98536291507898L162.06577986604373,163.98536341667872L162.20894764257537,163.98536625312119L162.352115419107,163.9853649150434L162.49528319563865,163.9853629972477L162.6384509721703,163.9853639444288L163.21112207829685,163.98536360394425L163.6406254078918,163.98536409120396L163.78379318442344,163.9853611952495L164.07012873748675,163.98536438602406L164.49963206708165,163.98536888968025L164.6427998436133,163.98537021821642L164.9291353966766,163.9853714958396L165.07230317320824,163.98537131597465L165.21547094973988,163.98536826923888L165.35863872627152,163.9853696431215L165.6449742793348,163.98536961474136L165.78814205586644,163.98537199298676L165.93130983239809,163.9853756425982L166.07447760892975,163.98537807381845L166.2176453854614,163.98537563826758L166.36081316199304,163.98537588074606L166.50398093852465,163.98537800517616L166.64714871505632,163.9853773939109L166.79031649158796,163.98537785034216L167.07665204465124,163.98537538597174L167.21981982118288,163.98537414570805L167.5061553742462,163.9853778601132L167.79249092730944,163.98537582219808L167.93565870384109,163.98537776899283L168.2219942569044,163.98537640214752L168.50832980996768,163.98537782767642L168.65149758649935,163.98537864157743L168.79466536303096,163.98537821228507L168.9378331395626,163.9853756488918L169.36733646915755,163.98537825540444L169.5105042456892,163.98537480926925L169.65367202222083,163.98537408728825L169.79683979875244,163.9853773910971L170.08317535181575,163.9853745214813L170.2263431283474,163.98537812686757L170.51267868141068,163.9853781536856L170.65584645794235,163.9853778319444L171.37168534060055,163.98537927851146L171.5148531171322,163.98537620129335L171.80118867019547,163.9853735197021L171.94435644672714,163.98537204681747L172.2306919997904,163.9853727701815L172.37385977632204,163.98537305172167L172.51702755285368,163.98537165790697L172.66019532938535,163.98537100656657L172.94653088244863,163.98537520716573L173.08969865898027,163.98537637150494L173.2328664355119,163.98537752597497L173.5192019885752,163.98537952686638L173.66236976510683,163.98538047559998L173.80553754163847,163.98538331100522L173.94870531817014,163.98538391960943L174.37820864776504,163.98538251244804L174.66454420082835,163.98538431806762L175.09404753042327,163.98538500327683L175.38038308348655,163.985381868442L175.5235508600182,163.98537967777307L175.66671863654983,163.98538240882527L175.80988641308147,163.98538478872018L176.09622196614478,163.98538220374354L176.38255751920806,163.98538015415596L176.5257252957397,163.98538129881095L176.66889307227135,163.98538010285688L176.95522862533463,163.9853805594228L177.09839640186627,163.98537782057113L177.24156417839794,163.9853779029342L177.38473195492958,163.98538182100964L177.52789973146122,163.9853805698603L177.95740306105614,163.98538159896583L178.10057083758778,163.98538147761278L178.24373861411942,163.9853810528293L178.95957749677763,163.98538214104428L179.10274527330927,163.98538306024722L179.24591304984094,163.98538362910344L179.38908082637258,163.98538389248563L179.67541637943586,163.98538463476345L179.8185841559675,163.9853842350166L179.96175193249914,163.98538585761813L180.10491970903078,163.98538281117786L180.24808748556242,163.9853841859946L180.96392636822063,163.9853818259046L181.1070941447523,163.9853815051267L181.25026192128394,163.9853812603418L181.39342969781558,163.98537958449083L181.53659747434722,163.98538020512618L181.67976525087886,163.9853781939434L181.96610080394217,163.98536961523433L182.10926858047378,163.98536031194962L182.25243635700542,163.9853599565148L182.39560413353706,163.9853583117574L182.53877191006873,163.9853600026496L182.68193968660037,163.98535390587134L182.825107463132,163.98535465235824L182.96827523966365,163.98535979991323L183.11144301619532,163.9853605325993L183.39777856925858,163.98536301765304L183.54094634579022,163.98535818831016L183.68411412232186,163.98535142295438L183.82728189885353,163.9853470583736L183.97044967538517,163.98534830904185L184.1136174519168,163.9853522382245L184.25678522844842,163.98535052302262L184.54312078151173,163.98533968753037L184.829456334575,163.98533760509687L185.11579188763832,163.9853364798709L185.25895966416996,163.98529317218816L185.40212744070158,163.98530173368403L185.68846299376486,163.98530017183114L185.97479854682817,163.9852742149016L186.1179663233598,163.98525666445042L186.40430187642312,163.9852694101084L186.69063742948637,163.98526391253918L186.833805206018,163.9852490949608L186.97697298254965,163.9852546563972L187.26330853561296,163.98524856059933L187.6928118652079,163.98526465465042L187.83597964173953,163.98527791610584L188.26548297133445,163.9852521875908L188.55181852439776,163.98520741029935L188.98132185399265,163.9852189910798L189.4108251835876,163.98520637752574L189.55399296011925,163.98515871886556L189.69716073665091,163.98513159054463L189.84032851318253,163.9851401994374L189.98349628971417,163.9851169559201L190.1266640662458,163.98509556910608L190.26983184277745,163.98498018449342L190.41299961930912,163.98494970511985L190.55616739584076,163.98491372921688L190.6993351723724,163.98491292353276L190.98567072543568,163.98493015177783L191.12883850196732,163.98479689722987L191.27200627849896,163.9846556101524L191.70150960809391,163.98458810719438L191.84467738462556,163.98454784032626L192.1310129376888,163.9845265747088L192.27418071422048,163.98445584392923L192.41734849075212,163.98454877590035L192.56051626728376,163.98462957225735L192.84685182034704,163.98452341489883L193.27635514994196,163.9844563622014L193.4195229264736,163.9845089963771L193.56269070300525,163.9843494368771L193.70585847953691,163.984402786862L193.84902625606856,163.9844324029099L193.9921940326002,163.98419455645165L194.13536180913184,163.98406568399204L194.27852958566348,163.98402252038633L194.42169736219512,163.9837903330036L194.56486513872676,163.98369501961096L194.7080329152584,163.9831192299224L194.85120069179004,163.98283076933177L194.9943684683217,163.98291952665718L195.13753624485335,163.98255720194157L195.4238717979166,163.98238477863566L195.56703957444827,163.98205335508416L195.7102073509799,163.98094138309435L195.85337512751155,163.9804107804405L197.285052892828,163.97912722034607L197.7145562224229,163.97919324673782L197.85772399895455,163.97891711920923L198.0008917754862,163.97814356832743L198.14405955201784,163.977938069908L198.43039510508115,163.97773597902628L198.5735628816128,163.97665249010183L198.7167306581444,163.976617388751L198.85989843467607,163.97579409587198L199.0030662112077,163.97606463644195L199.289401764271,163.97562745157086L199.43256954080263,163.97276817742326L199.5757373173343,163.97045965127325L199.71890509386594,163.97089173648817L199.86207287039755,163.96979741819973L200.0052406469292,163.96966206736124L200.14840842346084,163.97097793811864L200.2915761999925,163.9711983243844L200.43474397652415,163.9707901904212L200.5779117530558,163.96974066233017L200.72107952958743,163.97024330891142L201.0074150826507,163.97118673313028L201.15058285918235,163.97040438129852L201.43691841224563,163.96935517714033L201.5800861887773,163.9682745509719L201.72325396530894,163.96806300292766L202.0095895183722,163.96771141861794L202.15275729490386,163.96817497069117L202.2959250714355,163.96642634789086L202.43909284796715,163.96645491498498L202.5822606244988,163.9665422628914L202.72542840103043,163.9669653924147L203.298099507157,163.9672304919621L203.5844350602203,163.96732900068366L204.01393838981522,163.9680997047717L204.1571061663469,163.96839412737262L204.44344171941015,163.96791300537723L204.5866094959418,163.96634652554772L204.72977727247343,163.9654821617957L205.01611282553674,163.9645300919423L205.15928060206838,163.96393107288242L205.30244837860002,163.9629543651901L205.44561615513166,163.96285959682282L205.5887839316633,163.96094412091188L205.73195170819494,163.96137112740126L205.87511948472658,163.9617055092512L206.01828726125822,163.96121605827173L206.1614550377899,163.95970245431377L206.5909583673848,163.95908857278252L206.73412614391646,163.95623687884142L206.8772939204481,163.9537080360847L207.16362947351138,163.95023269527636L207.30679725004302,163.9493668037026L207.4499650265747,163.94872685810088L207.5931328031063,163.9458814320008L207.73630057963794,163.94214335071493L208.1658039092329,163.93644792597036L208.30897168576453,163.93253198290813L208.45213946229617,163.92928848851903L208.59530723882781,163.92251608550177L208.73847501535946,163.92062408074884L208.8816427918911,163.91925076160004L209.02481056842274,163.92160631560822L209.31114612148602,163.9246264980052L209.4543138980177,163.92440320396466L209.59748167454933,163.92352876122368L209.74064945108097,163.92391502185978L209.88381722761258,163.92172184467904L210.02698500414425,163.92327518454607L210.1701527806759,163.92046544864468L210.31332055720753,163.92048036589418L210.74282388680248,163.91912732989144L210.8859916633341,163.91742315785393L211.17232721639738,163.91154723198522L211.74499832252397,163.89904656507912L211.8881660990556,163.89359730185723L212.1745016521189,163.8833829179222L212.31766942865053,163.871181377476L212.74717275824548,163.85827471016134L213.03350831130876,163.84188551118208L213.17667608784038,163.82412029669493L213.31984386437205,163.81346828858074L213.60617941743533,163.7981395041643L213.74934719396697,163.7925358678519L213.8925149704986,163.77432400881855L214.03568274703028,163.75275817557662L214.32201830009353,163.73396304915968L214.46518607662517,163.71601113248727L214.6083538531568,163.694815717496L214.75152162968848,163.68279166359108L214.89468940622012,163.67114638633586L215.1810249592834,163.641789390629L215.32419273581507,163.62844225516346L215.4673605123467,163.62245667302443L215.75369606540997,163.61257077324072L215.8968638419416,163.6036353195443L216.32636717153656,163.5906087733752L216.61270272459984,163.57306647037063L216.75587050113148,163.54692804443337L217.04220605419476,163.50789019329306L217.1853738307264,163.47393411799794L217.32854160725807,163.4506816449841L217.47170938378972,163.41955680983344L217.61487716032133,163.38405350128969L217.75804493685297,163.37218080410815L217.9012127133846,163.32644665716674L218.33071604297956,163.28875793015845L218.4738838195112,163.21395541997163L218.61705159604287,163.10016965100363L218.76021937257448,163.01012731529033L218.90338714910612,162.92373033323386L219.04655492563776,162.8984598567658L219.1897227021694,162.82536281326273L219.47605825523272,162.6893419615798L219.61922603176436,162.64614671601413L219.762393808296,162.58774836168683L219.90556158482764,162.44393899963336L220.04872936135928,162.26748812380558L220.19189713789092,162.20671358465748L220.62140046748587,161.96974867426175L220.90773602054912,161.8001168765725L221.05090379708076,161.70422448918498L221.1940715736124,161.58884395027076L221.33723935014407,161.42130363249703L221.48040712667571,161.23931787564322L221.62357490320736,161.1686471881094L221.766742679739,161.05301330099704L221.90991045627067,160.91759337693725L222.05307823280228,160.79431645687848L222.19624600933392,160.84144022967843L222.62574933892887,160.4921704121186L222.7689171154605,160.337243366596L223.19842044505543,159.76092752751416L223.34158822158707,159.6801398890568L223.62792377465036,159.26056033569097L223.771091551182,158.85106182973308L223.91425932771367,158.28680926937193L224.20059488077695,157.60256702027496L224.34376265730856,156.57001971297112L224.48693043384023,156.27374599353655L224.7732659869035,155.60200345310278L224.91643376343515,154.75576992264934L225.0596015399668,153.60338082728228L225.34593709303007,153.1425776682446L225.48910486956171,153.01209384001956L225.63227264609336,151.7442673608967L225.91860819915667,150.08550763325815L226.0617759756883,150.0256279075327L226.20494375221995,148.72401018079128L226.49127930528323,146.59034684802688L226.63444708181487,145.0011583184874L226.92078263487815,142.20908992031883L227.0639504114098,140.5003940737438L227.20711818794146,137.15267682343736L227.3502859644731,135.39906788001792L227.49345374100474,134.55987688595596L227.63662151753635,133.07391480852436L227.92295707059967,129.96679927065193L228.0661248471313,127.08041563272367L228.49562817672626,122.08320838734082L228.7819637297895,119.50469794715028L229.21146705938446,118.52284321203115L229.78413816551102,120.14254813667846L230.49997704816926,124.88995630583756L230.92948037776415,129.5877798710616L231.07264815429582,132.47091299683527L231.21581593082746,135.68557218312773L231.3589837073591,136.5420813013353L231.50215148389074,139.09728805390483L231.64531926042238,140.11648775459398L231.9316548134857,140.75437713000602L232.0748225900173,142.7152309626893L232.3611581430806,143.6096552310206L232.50432591961226,143.67458763350797L232.79066147267554,144.8937452347517L232.93382924920718,145.28379605425016L233.07699702573885,145.1103889341897L233.22016480227046,146.18736285183624L233.50650035533374,146.97354718887635L233.64966813186538,148.57980812185968L233.79283590839705,148.9345730205908L233.9360036849287,150.4008597073961L234.07917146146033,151.02510613540423L234.22233923799195,151.56734671360937L234.36550701452362,152.0384078860974L234.50867479105526,152.5348246815129L234.6518425675869,152.67441816019758L234.93817812065018,152.81483203077548L235.2245136737135,153.24626750031098L235.3676814502451,153.7296225230362L235.65401700330838,154.1323447185082L236.08352033290333,153.67028730856518L236.36985588596664,153.79105346897714L236.94252699209318,152.37917699304256L237.08569476862485,151.3690321833368L237.2288625451565,149.4051911460133L237.37203032168813,147.46174026691457L237.80153365128305,142.84458853829028L237.9447014278147,140.88759333458506L238.08786920434633,140.21341286828616L238.51737253394128,135.80111264306373L238.6605403104729,132.37138810631143L238.9468758635362,128.88881972394617L239.09004364006785,126.40354004565086L239.2332114165995,123.48084213639956L239.66271474619444,120.902240544599L239.80588252272605,120.95814693482914L240.23538585232097,112.82558488511579L240.37855362885264,111.82244326144361L240.52172140538428,108.34256359618082L240.66488918191592,99.15847563292225L240.80805695844757,94.36835748617275L240.9512247349792,91.57002102435223L241.09439251151085,82.77288672078888L241.38072806457413,79.00350127627704L241.52389584110577,69.4290295222765L241.66706361763744,73.35038181726678L241.81023139416908,72.37678803979237L241.95339917070072,66.42003257030407L242.09656694723233,64.38436907515447L242.239734723764,59.68380402648853L242.38290250029564,52.948092957910234L242.52607027682728,49.23305665298233L243.09874138295385,27.358862689928063L243.38507693601713,15.027403759882919" fill="none"></path></g></g></g></g><g opacity="0.2"><g><g><g><path style="fill: none;" stroke="rgb(255, 112, 67)" stroke-width="2px" d="M29.20608324467871,163.9855391459233L29.492418797741994,163.9853831754507L29.63558657427364,163.9853107780973L29.921922127336924,163.9852015982101L30.208257680400212,163.98506531172458L30.351425456931857,163.98496695455515L30.494593233463497,163.98494052259477L30.637761009995142,163.9848722247074L30.780928786526786,163.98478924652787L30.92409656305843,163.98478488074952L31.06726433959007,163.98475466567996L31.210432116121716,163.9847128564139L31.35359989265336,163.98469142938154L31.496767669185004,163.98468446441862L31.639935445716645,163.98454677825188L31.926270998779934,163.98457330879745L32.212606551843216,163.9844252175918L32.355774328374864,163.98442164735206L33.071613211033075,163.98436010637013L33.21478098756472,163.9842970288065L33.35794876409636,163.98427448245025L33.50111654062801,163.98424337752752L33.64428431715965,163.98425369583072L33.93061987022294,163.9842019947221L34.36012319981787,163.98414622208696L34.50329097634951,163.98415216582995L34.7896265294128,163.98412725198537L34.93279430594445,163.98421571352284L35.07596208247609,163.98403889173983L35.21912985900773,163.98402289350975L35.50546541207102,163.9840538911256L35.79180096513431,163.98404551938378L35.93496874166595,163.98396254685832L36.36447207126087,163.98385722923717L36.50763984779252,163.98388327894682L36.65080762432416,163.98408463009818L36.79397540085581,163.98392981597158L36.93714317738745,163.98389747365124L37.36664650698238,163.98390381402072L37.50981428351402,163.98397330942652L37.79614983657731,163.98403732015103L37.939317613108955,163.98396094519475L38.082485389640595,163.98393581697698L38.22565316617224,163.9841362685309L38.368820942703884,163.9840396201515L38.511988719235525,163.98406953314972L38.655156495767166,163.98408831642664L38.941492048830455,163.98404816921433L39.0846598253621,163.98414673540364L39.22782760189374,163.98426467457654L39.37099537842539,163.98412534909258L39.65733093148867,163.98416746812913L39.94366648455196,163.98430447123698L40.0868342610836,163.9842874954556L40.37316981414689,163.98437493420926L40.51633759067853,163.98446621303376L40.80267314374181,163.98441028593444L40.94584092027346,163.98448326881413L41.0890086968051,163.98448165764688L41.23217647333675,163.9845516002048L41.37534424986839,163.9845010015181L41.51851202640004,163.98451433235394L41.80484757946332,163.98456203892755L41.94801535599496,163.98469893196165L42.09118313252661,163.9845504133329L42.23435090905825,163.98465089973809L42.95018979171647,163.98469818983583L43.09335756824811,163.98472271126442L43.3796931213114,163.98475589694232L43.66602867437469,163.98481289909546L43.809196450906335,163.98487461276687L43.952364227437975,163.9847979869266L44.381867557032905,163.98493264179402L44.95453866315948,163.98484653962464L45.384041992754405,163.98496487506313L45.67037754581769,163.98499981187635L45.813545322349334,163.98503425642525L45.95671309888098,163.98503069929814L46.52938420500755,163.98504663100275L46.67255198153919,163.98501281285178L46.81571975807084,163.9850894799547L46.95888753460248,163.9850583304611L47.24522308766577,163.98512002404257L47.38839086419741,163.9850979839655L47.81789419379234,163.9851270930643L48.24739752338728,163.9851197798953L48.39056529991892,163.98513275031476L48.6769008529822,163.98511833774847L48.96323640604549,163.98517161026544L49.10640418257714,163.9851956674594L49.24957195910878,163.98516579397943L49.392739735640426,163.98516439652377L49.535907512172066,163.98512435637775L49.6790752887037,163.9851612135873L49.96541084176699,163.98517621122875L50.10857861829864,163.9851787965789L50.25174639483028,163.9851888185852L50.394914171361926,163.98518144382302L50.681249724425214,163.9851829524953L50.82441750095685,163.98520547028053L50.967585277488496,163.98518161374565L51.253920830551785,163.98512227694587L51.397088607083425,163.98516867063412L51.54025638361507,163.98516132702946L51.826591936678355,163.98518067426903L51.969759713209996,163.98515627289905L52.256095266273284,163.98511780121405L52.39926304280493,163.98516810396475L52.68559859586822,163.98516477185728L52.82876637239986,163.9851941755087L52.9719341489315,163.98516331226705L53.25826970199479,163.98518178300662L53.83094080812137,163.98518460853415L53.97410858465301,163.98521817119968L54.11727636118465,163.98519274304593L54.26044413771629,163.98520542799537L54.54677969077958,163.98524078841217L54.68994746731122,163.98520184217688L54.97628302037451,163.98523405619812L55.26261857343779,163.9852219195123L55.40578634996944,163.98524928024267L55.54895412650108,163.98522258639093L55.69212190303273,163.9852104429082L55.97845745609602,163.98520292709523L56.12162523262766,163.9851985868203L57.123799668349164,163.98525647227032L57.696470774475735,163.98520099707497L58.125974104070664,163.98522882715267L58.26914188060231,163.98520221504424L58.41230965713395,163.98523790664476L58.555477433665594,163.98519825695988L59.128148539792164,163.98519370700345L59.27131631632381,163.98523689053755L59.41448409285545,163.98520246983796L59.5576518693871,163.98519734406938L59.98715519898202,163.9851794580441L60.13032297551367,163.9852056249853L60.27349075204531,163.98519662901091L60.41665852857696,163.98521654806268L60.5598263051086,163.98521145627862L60.70299408164024,163.98523406792728L60.98932963470353,163.98520005844045L61.13249741123517,163.98523540724838L61.27566518776682,163.98521164205067L61.56200074083011,163.98524674773392L61.70516851736175,163.98522777663987L61.84833629389339,163.98523519870972L61.99150407042503,163.9852406463087L62.13467184695668,163.98522377639065L62.27783962348832,163.9852373405468L62.707342953083256,163.98522590457375L62.850510729614896,163.98525800828062L63.13684628267818,163.98524658523976L63.709517388804755,163.98523672669003L63.852685165336396,163.98523316727722L64.13902071839968,163.98523089858463L64.28218849493132,163.98521516149407L64.42535627146297,163.98526699646564L64.56852404799461,163.98518311068878L64.71169182452626,163.98520256746076L64.8548596010579,163.9852245403808L65.28436293065283,163.9851954717326L65.71386626024776,163.98521372346747L65.8570340367794,163.98523846332932L66.00020181331105,163.98518403927832L66.14336958984269,163.98517811135466L66.42970514290597,163.98516848224557L67.00237624903255,163.98517006592442L67.28871180209585,163.98513148320325L67.57504735515913,163.98514887750557L67.71821513169077,163.9851720541695L67.86138290822242,163.98517209278555L68.00455068475405,163.98514283271123L68.14771846128569,163.98516693640082L68.43405401434897,163.9851424298292L68.57722179088063,163.9851372822263L68.86355734394392,163.9850978488695L69.14989289700719,163.985092740424L69.43622845007049,163.98513835012233L70.15206733272869,163.9851156271067L70.43840288579199,163.98512885647017L70.58157066232364,163.98511624622654L70.86790621538692,163.98510380939422L71.01107399191856,163.98510643011235L71.15424176845022,163.9851234356678L71.29740954498185,163.98508994617424L71.44057732151349,163.98511440564874L71.58374509804514,163.98511998981743L71.72691287457678,163.98508476043654L71.87008065110842,163.98509229712144L72.01324842764006,163.98509274692015L72.15641620417172,163.98509845986914L72.72908731029828,163.98510362882513L72.87225508682992,163.98514854620157L73.15859063989322,163.9851121075731L73.58809396948814,163.98511398412035L74.16076507561472,163.98511024864965L74.30393285214636,163.98510083024462L74.44710062867802,163.98510907747675L74.59026840520964,163.9851373077899L74.87660395827294,163.98517061515042L75.01977173480458,163.98512150257991L75.16293951133622,163.9851360571594L75.30610728786786,163.98512554475343L75.44927506439952,163.98512285462266L75.59244284093116,163.98515592216674L76.02194617052608,163.98513777166363L76.16511394705773,163.98517487296027L76.45144950012102,163.98516241886503L76.73778505318431,163.98516061870774L77.02412060624758,163.98516160353716L77.31045615931086,163.9851671974501L77.59679171237416,163.98516605316408L77.73995948890581,163.98514886156593L77.88312726543744,163.98518314226732L78.02629504196908,163.98518327399495L78.16946281850073,163.9851714606734L78.31263059503237,163.98516896248L78.45579837156401,163.98515368243616L78.59896614809566,163.98515933842347L78.74213392462731,163.9851458752585L79.02846947769058,163.9851780167995L79.31480503075387,163.9851851795343L79.45797280728553,163.9851957339247L79.74430836034881,163.9851712197141L80.0306439134121,163.98519920792506L80.17381168994373,163.98518489983866L80.31697946647537,163.98516672491482L80.46014724300703,163.9852223333716L80.60331501953867,163.9851810832863L80.74648279607031,163.98517729897412L80.88965057260195,163.98521383480437L81.0328183491336,163.98516602597647L81.17598612566525,163.98520485885982L81.31915390219687,163.98517540979546L81.46232167872853,163.9851995833789L81.74865723179182,163.98521774919007L81.89182500832345,163.98517218764147L82.17816056138675,163.9851688310531L82.46449611445003,163.98517327129667L82.60766389098167,163.9851595713829L82.75083166751332,163.98515187734662L82.89399944404495,163.98516217261255L83.0371672205766,163.9851601038873L83.3235027736399,163.985117756162L83.46667055017153,163.98516551422364L83.75300610323482,163.98516152919225L83.89617387976647,163.9851546672656L84.0393416562981,163.98514086148847L84.18250943282975,163.9851321173605L84.3256772093614,163.98514317748874L84.61201276242467,163.98513855054082L84.75518053895632,163.9851229518244L84.89834831548797,163.98511337306053L85.04151609201962,163.98510569063313L85.75735497467782,163.9851316963133L85.90052275120946,163.98511772031284L86.3300260808044,163.9851106008857L86.47319385733604,163.9850486043307L86.75952941039932,163.98509879141375L86.90269718693096,163.98511053309713L87.18903273999426,163.98508396940912L87.47536829305754,163.9850727813427L88.19120717571576,163.98510678565663L88.33437495224742,163.9851049946421L88.76387828184234,163.98511061959223L88.907046058374,163.98508823118883L89.05021383490562,163.98511833311696L89.19338161143726,163.98511942639612L89.33654938796892,163.98512039739114L89.47971716450056,163.9851041806977L89.76605271756384,163.9851056582727L90.05238827062713,163.9850932621015L90.33872382369042,163.98511789354367L90.62505937675371,163.98512397539017L91.05456270634863,163.9851253201548L91.19773048288027,163.985115752278L91.62723381247521,163.98513408611709L91.77040158900684,163.98510712911087L91.91356936553849,163.98511827368915L92.05673714207013,163.9851379857962L92.34307269513342,163.98511112563082L92.48624047166506,163.98511944690713L92.91574380125999,163.98511750269157L93.05891157779163,163.9851152204954L93.34524713085493,163.9851071104645L93.77475046044985,163.98511447427944L94.20425379004479,163.98508308737536L94.34742156657643,163.9851286996L94.49058934310808,163.9851055018837L94.63375711963971,163.98514823504766L94.77692489617135,163.98511982236096L95.06326044923465,163.98511692663882L95.20642822576629,163.98513999948457L95.34959600229793,163.98512320156556L95.49276377882958,163.985119509583L95.63593155536121,163.98510276640013L95.77909933189285,163.98512188567273L95.9222671084245,163.9851012382995L96.20860266148779,163.98511623257258L96.49493821455108,163.98511590668204L96.63810599108272,163.98512085915962L97.06760932067765,163.9851255823469L97.2107770972093,163.98513727482793L97.78344820333588,163.9851635852861L98.2129515329308,163.98512550018256L98.35611930946244,163.98510137459851L98.64245486252572,163.9851271530936L98.78562263905738,163.9851272107169L99.07195819212065,163.98510734865692L99.2151259686523,163.98510906713102L99.35829374518394,163.9851255629186L99.78779707477888,163.985109112965L99.93096485131052,163.9851215126249L100.2173004043738,163.98512900702463L100.78997151050038,163.9851246251863L101.2194748400953,163.98512264776815L101.36264261662694,163.9851081758944L101.5058103931586,163.98513475010856L101.64897816969024,163.98510740970877L101.79214594622188,163.98512702996737L101.93531372275352,163.98512764559854L102.07848149928518,163.98511874586353L102.36481705234844,163.9851237145815L102.5079848288801,163.9851226281594L102.65115260541174,163.98514207554803L102.7943203819434,163.98512372288212L102.93748815847502,163.98511779447728L103.08065593500667,163.9851357300057L103.22382371153832,163.985128527512L103.7964948176649,163.9851481098162L103.93966259419653,163.985125426379L104.7986692533864,163.9851265728304L105.08500480644967,163.98513461826062L105.22817258298132,163.98514465386071L105.37134035951297,163.98512623731594L105.51450813604461,163.98512942566583L105.65767591257625,163.98512561218112L105.8008436891079,163.98514201419545L105.94401146563953,163.9851135462914L106.08717924217119,163.98514828521246L106.23034701870282,163.9851223807641L106.37351479523447,163.98512441159508L106.51668257176611,163.98513605764057L106.65985034829777,163.98514610743598L106.80301812482939,163.98512363596595L106.94618590136103,163.9851310756897L107.08935367789269,163.9851105098192L107.23252145442433,163.98513505765348L107.37568923095597,163.9851401370467L107.66202478401927,163.98514173071038L107.8051925605509,163.9851292519538L107.94836033708253,163.98513688596074L108.23469589014583,163.98512029212932L108.52103144320911,163.98513915059323L108.8073669962724,163.98512290791518L108.95053477280406,163.9851321551946L109.38003810239898,163.9851638016442L109.52320587893061,163.98512823542552L109.66637365546227,163.98513522168142L109.95270920852556,163.98514547730875L110.09587698505719,163.98513835391176L110.23904476158883,163.9851354451372L110.52538031465212,163.98513866969716L110.8117158677154,163.98516626669516L110.95488364424706,163.98513877748525L111.24121919731033,163.9851361452184L111.38438697384198,163.9851536586771L111.52755475037362,163.9851509192838L111.67072252690528,163.98517016757725L111.8138903034369,163.98514685918568L111.95705807996856,163.98515915376422L112.1002258565002,163.98517461401624L112.24339363303186,163.98516612889244L112.38656140956348,163.98517302979604L112.67289696262678,163.98517602217854L112.81606473915842,163.98516035868101L112.95923251569006,163.98518020407957L113.388735845285,163.98518045273804L113.53190362181662,163.985173607954L113.67507139834828,163.98517482718643L113.96140695141158,163.9851680467023L114.1045747279432,163.98517681615328L114.24774250447486,163.98517412572176L114.3909102810065,163.98517046928765L114.67724583406978,163.98518234336032L114.96358138713308,163.98519133163552L115.1067491636647,163.98518449003942L115.24991694019636,163.98517864843043L115.53625249325965,163.98519172044254L115.82258804632292,163.9851940657958L116.10892359938622,163.98521090711276L116.25209137591786,163.9851933738348L116.3952591524495,163.9851841377432L116.82476248204442,163.9851820722059L117.397433588171,163.9851881126093L117.54060136470265,163.9851926689416L117.6837691412343,163.9851826172816L117.82693691776595,163.9851957947961L117.97010469429758,163.98519521856292L118.25644024736087,163.9851870390592L118.39960802389251,163.98520497260273L118.82911135348745,163.98518935066858L118.97227913001907,163.98520542589011L119.25861468308237,163.98516946617275L119.54495023614565,163.98519467511127L119.6881180126773,163.985198300027L120.11762134227222,163.98519360174163L120.40395689533551,163.98520296523006L120.54712467186717,163.9852000701696L120.6902924483988,163.98519366940994L120.97662800146209,163.98521203879744L121.11979577799374,163.9852201673544L121.26296355452537,163.98521654857396L121.40613133105701,163.98521807823846L121.54929910758867,163.9852230541443L121.69246688412031,163.98521265948116L121.83563466065195,163.98521575944125L121.97880243718359,163.9852120115196L122.12197021371524,163.98521852803717L122.6946413198418,163.98520837743106L122.83780909637346,163.98523160639508L123.12414464943674,163.98522573510226L123.41048020250003,163.98520810260754L123.55364797903167,163.98523467901714L123.6968157555633,163.98521579285435L123.83998353209496,163.98520778838602L123.98315130862659,163.98522884579904L124.12631908515824,163.98522943926508L124.26948686168988,163.985225483707L124.41265463822154,163.9852065681912L124.55582241475317,163.98525012883323L124.84215796781646,163.98521890294964L124.9853257443481,163.98521627763006L125.12849352087974,163.98523595352705L125.27166129741138,163.98524908084673L125.41482907394304,163.98521558142852L125.7011646270063,163.98523111521342L125.84433240353796,163.98521558723294L125.9875001800696,163.98522527252175L126.27383573313288,163.98525300729239L126.41700350966454,163.98523635018358L126.56017128619618,163.98525498973305L126.70333906272784,163.98524427251766L126.84650683925946,163.9852372200972L126.9896746157911,163.98523842979594L127.13284239232276,163.98521744591577L127.2760101688544,163.98523303428647L127.41917794538604,163.98522611795448L127.84868127498096,163.98522208056286L128.13501682804426,163.9852361407427L128.42135238110754,163.98523735519322L128.85085571070246,163.9852382454374L128.9940234872341,163.98524217320636L129.13719126376574,163.9852521614687L129.2803590402974,163.98523798784672L129.42352681682905,163.98525355360115L129.5666945933607,163.98525634715918L129.70986236989233,163.98525644803004L129.85303014642398,163.98527612293455L129.99619792295562,163.98524644885055L130.13936569948726,163.98525566819046L130.2825334760189,163.98525296332303L130.42570125255054,163.98525633979082L130.5688690290822,163.98524358696258L130.9983723586771,163.98525488889223L131.14154013520877,163.9852560148326L131.5710434648037,163.9852563332646L131.71421124133533,163.98525006832273L132.00054679439864,163.98527365150775L132.14371457093026,163.985281140494L132.2868823474619,163.9852492830697L132.43005012399354,163.9852687338568L132.5732179005252,163.98526323952152L132.71638567705685,163.98527186139546L133.14588900665177,163.98528496447486L133.2890567831834,163.98527839926615L133.43222455971505,163.9852724963948L134.00489566584164,163.98527689393217L134.14806344237329,163.98527500024227L134.43439899543657,163.98529374797076L134.5775667719682,163.98526929009023L134.72073454849985,163.98528302651482L134.8639023250315,163.9852882955297L135.1502378780948,163.98528128608612L135.5797412076897,163.98527535449333L135.72290898422133,163.98529658546803L136.00924453728464,163.98529325639814L136.15241231381628,163.98528046516435L136.29558009034793,163.9852809883456L136.4387478668796,163.98528645092185L136.5819156434112,163.9852951296973L136.72508341994285,163.98528658710057L136.8682511964745,163.98527518631505L137.01141897300613,163.9852914635791L137.44092230260108,163.98527751332267L137.5840900791327,163.98528638767456L137.870425632196,163.98529104322364L138.15676118525928,163.9852954358287L138.29992896179093,163.985283017342L138.4430967383226,163.9853020112027L138.58626451485424,163.98530882651343L138.8726000679175,163.98529835010697L139.01576784444913,163.98531932270905L139.1589356209808,163.98529534789L139.30210339751244,163.98528429696464L139.44527117404408,163.9852921018566L139.58843895057572,163.98529896910654L139.7316067271074,163.98529004474025L139.874774503639,163.98528703338053L140.30427783323393,163.98530929345475L140.4474456097656,163.9853118005503L140.87694893936052,163.98531104407886L141.02011671589216,163.98529965532325L141.1632844924238,163.98529952699408L141.44962004548708,163.98530454960607L141.7359555985504,163.98530525116095L141.87912337508203,163.98530260746568L142.02229115161364,163.98531425008267L142.16545892814528,163.98530163770374L142.30862670467695,163.98531023639L142.4517944812086,163.98531442538868L142.59496225774024,163.98530782992475L142.73813003427188,163.98530500767535L143.0244655873352,163.98531168855175L143.1676333638668,163.98528961232475L143.31080114039844,163.98530598630938L143.59713669346172,163.98532073375856L144.02664002305667,163.98530561753216L144.1698077995883,163.9853235920676L144.31297557611995,163.9853251113864L144.4561433526516,163.98532707409797L144.59931112918323,163.98531063145256L144.88564668224652,163.98530729239783L145.02881445877819,163.9853384926577L145.17198223530983,163.98533217189697L145.45831778837308,163.98532595802212L145.60148556490475,163.9853293672113L145.88782111796803,163.98532345721222L146.31732444756298,163.9853219946145L146.60366000062623,163.98531186695547L146.74682777715788,163.98532319291488L146.88999555368952,163.9853205285582L147.31949888328447,163.9853223924139L147.4626666598161,163.98532218992025L147.7490022128794,163.985336253679L147.89216998941103,163.98533123175872L148.1785055424743,163.98534365244086L148.32167331900598,163.98533922323475L148.46484109553762,163.9853292576187L148.75117664860088,163.98531140518696L148.89434442513254,163.9853468477982L149.32384775472747,163.98533218221263L149.4670155312591,163.98534020021464L149.75335108432242,163.98534063789322L149.89651886085403,163.98532812737764L150.03968663738567,163.98533787329725L150.1828544139173,163.98534039867826L150.46918996698062,163.98533223815176L150.61235774351226,163.985347899123L150.7555255200439,163.98534127075723L150.89869329657557,163.98534670346925L151.18502884963883,163.98531974249312L151.4713644027021,163.98533427824577L151.75769995576542,163.98535177035137L151.90086773229706,163.98534059810424L152.04403550882867,163.98533912657433L152.18720328536034,163.98534181911108L152.33037106189198,163.9853372862973L152.90304216801857,163.9853456895274L153.0462099445502,163.98533709992375L153.18937772108183,163.98536511775842L153.33254549761347,163.9853533755337L153.76204882720842,163.98532345086645L153.90521660374006,163.98533404456458L154.0483843802717,163.98534666927418L154.19155215680337,163.98535685903772L154.33471993333498,163.98535171041226L154.62105548639826,163.98534430765048L154.7642232629299,163.98535336470675L154.90739103946157,163.98534805088045L155.0505588159932,163.98533388995003L155.3368943690565,163.9853641850486L155.62322992211978,163.9853518552826L155.76639769865142,163.98536197265608L155.90956547518306,163.98537293236456L156.0527332517147,163.9853338477551L156.19590102824637,163.98535122271932L156.48223658130962,163.98533910561218L156.62540435784126,163.98535595787638L156.7685721343729,163.9853468011522L157.0549076874362,163.98534864449687L157.19807546396785,163.9853478551236L157.48441101703116,163.98535672042294L157.62757879356278,163.98534875369847L158.20024989968937,163.9853595273041L158.343417676221,163.98534320784506L158.6297532292843,163.98534894713958L158.77292100581593,163.98537392089318L158.91608878234757,163.98535882141846L159.0592565588792,163.98536528025258L159.20242433541085,163.98535294266708L159.3455921119425,163.98536369482937L159.48875988847416,163.98536615825628L159.77509544153745,163.98534575957163L159.91826321806906,163.98535508868457L160.06143099460073,163.98536364283004L160.49093432419565,163.98536311772403L160.6341021007273,163.98535410950922L160.77726987725896,163.98536226991538L160.92043765379057,163.98536708780824L161.20677320685385,163.98537254605372L162.06577986604373,163.98536542307778L162.20894764257537,163.98537759889092L162.352115419107,163.9853595627322L162.49528319563865,163.98535532606496L162.6384509721703,163.9853677331533L163.21112207829685,163.98536224200598L163.6406254078918,163.98536604024278L163.78379318442344,163.9853496114318L164.07012873748675,163.98537714912226L164.49963206708165,163.98538690430493L164.6427998436133,163.98537553236113L164.9291353966766,163.98537660633227L165.07230317320824,163.98537059651494L165.21547094973988,163.98535608229582L165.35863872627152,163.98537513865193L165.6449742793348,163.98536950122076L165.78814205586644,163.98538150596843L165.93130983239809,163.9853902410439L166.07447760892975,163.9853877986994L166.2176453854614,163.9853658960642L166.36081316199304,163.98537685065995L166.50398093852465,163.98538650289655L166.64714871505632,163.98537494884985L166.79031649158796,163.98537967606717L167.07665204465124,163.98536552848998L167.21981982118288,163.9853691846534L167.5061553742462,163.98539271773382L167.79249092730944,163.98536767053756L167.93565870384109,163.9853855561719L168.2219942569044,163.98537093476622L168.50832980996768,163.985383529792L168.65149758649935,163.9853818971814L168.79466536303096,163.98537649511564L168.9378331395626,163.98536539531875L169.36733646915755,163.98538868145496L169.5105042456892,163.9853610247284L169.65367202222083,163.98537119936432L169.79683979875244,163.98539060633243L170.08317535181575,163.98536304301822L170.2263431283474,163.98539254841268L170.51267868141068,163.9853782609576L170.65584645794235,163.9853765449797L171.37168534060055,163.98538506477973L171.5148531171322,163.98536389242082L171.80118867019547,163.98536279333723L171.94435644672714,163.9853661552789L172.2306919997904,163.98537566363763L172.37385977632204,163.98537417788233L172.51702755285368,163.98536608264823L172.66019532938535,163.98536840120485L172.94653088244863,163.98539200956247L173.08969865898027,163.98538102886178L173.2328664355119,163.98538214385493L173.5192019885752,163.9853875304322L173.66236976510683,163.98538427053433L173.80553754163847,163.98539465262618L173.94870531817014,163.98538635402628L174.37820864776504,163.98537688380236L174.66454420082835,163.98539154054598L175.09404753042327,163.98538774411364L175.38038308348655,163.98536932910267L175.5235508600182,163.9853709150973L175.66671863654983,163.98539333303415L175.80988641308147,163.9853943082998L176.09622196614478,163.98537186383695L176.38255751920806,163.98537195580568L176.5257252957397,163.9853858774309L176.66889307227135,163.98537531904057L176.95522862533463,163.9853823856864L177.09839640186627,163.98536686516448L177.24156417839794,163.98537823238652L177.38473195492958,163.9853974933114L177.52789973146122,163.98537556526296L177.95740306105614,163.9853857153879L178.10057083758778,163.9853809922006L178.24373861411942,163.98537935369538L178.95957749677763,163.9853864939042L179.10274527330927,163.98538673705895L179.24591304984094,163.9853859045283L179.38908082637258,163.98538494601434L179.67541637943586,163.98538760387487L179.8185841559675,163.98538263602907L179.96175193249914,163.9853923480243L180.10491970903078,163.9853706254168L180.24808748556242,163.9853896852616L180.96392636822063,163.98537238554454L181.1070941447523,163.98538022201504L181.25026192128394,163.98538028120223L181.39342969781558,163.98537288108702L181.53659747434722,163.98538268766748L181.67976525087886,163.98537014921243L181.96610080394217,163.98533530039805L182.10926858047378,163.98532309881082L182.25243635700542,163.98535853477551L182.39560413353706,163.9853517327278L182.53877191006873,163.9853667662184L182.68193968660037,163.98532951875822L182.825107463132,163.98535763830586L182.96827523966365,163.98538039013317L183.11144301619532,163.98536346334362L183.39777856925858,163.98537295786798L183.54094634579022,163.98533887093853L183.68411412232186,163.98532436153138L183.82728189885353,163.9853296000504L183.97044967538517,163.98535331171496L184.1136174519168,163.98536795495497L184.25678522844842,163.98534366221517L184.54312078151173,163.98529634556135L184.829456334575,163.98532927536286L185.11579188763832,163.98533197896714L185.25895966416996,163.98511994145716L185.40212744070158,163.9853359796675L185.68846299376486,163.9852939244196L185.97479854682817,163.98517038718344L186.1179663233598,163.9851864626456L186.40430187642312,163.98532039274042L186.69063742948637,163.98524192226222L186.833805206018,163.98518982464742L186.97697298254965,163.98527690214257L187.26330853561296,163.985224177408L187.6928118652079,163.98532903085473L187.83597964173953,163.98533096192762L188.26548297133445,163.98514927353054L188.55181852439776,163.98502830113353L188.98132185399265,163.98526531420157L189.4108251835876,163.98515592330958L189.55399296011925,163.9849680842248L189.69716073665091,163.98502307726096L189.84032851318253,163.98517463500846L189.98349628971417,163.98502398185082L190.1266640662458,163.98501002185014L190.26983184277745,163.98451864604274L190.41299961930912,163.98482778762553L190.55616739584076,163.98476982560504L190.6993351723724,163.9849097007962L190.98567072543568,163.98499906475817L191.12883850196732,163.98426387903794L191.27200627849896,163.9840904618426L191.70150960809391,163.98431809536228L191.84467738462556,163.9843867728538L192.1310129376888,163.98444151223907L192.27418071422048,163.98417292081078L192.41734849075212,163.9849205037849L192.56051626728376,163.98495275768533L192.84685182034704,163.98409878546477L193.27635514994196,163.98418815141164L193.4195229264736,163.98471953307978L193.56269070300525,163.98371119887716L193.70585847953691,163.98461618680165L193.84902625606856,163.9845508671015L193.9921940326002,163.9832431706187L194.13536180913184,163.98355019415357L194.27852958566348,163.98384986596358L194.42169736219512,163.98286158347264L194.56486513872676,163.9833137660404L194.7080329152584,163.98081607116816L194.85120069179004,163.98167692696927L194.9943684683217,163.9832745559589L195.13753624485335,163.9811079030791L195.4238717979166,163.9816950854121L195.56703957444827,163.9807276608781L195.7102073509799,163.97649349513506L195.85337512751155,163.97828836982518L197.285052892828,163.9739929799683L197.7145562224229,163.97945735230485L197.85772399895455,163.97781260909488L198.0008917754862,163.97504936480027L198.14405955201784,163.97711607623026L198.43039510508115,163.97692761549936L198.5735628816128,163.97231853440402L198.7167306581444,163.9764769833477L198.85989843467607,163.97250092435596L199.0030662112077,163.97714679872183L199.289401764271,163.97387871208647L199.43256954080263,163.96133108083288L199.5757373173343,163.96122554667315L199.71890509386594,163.9726200773478L199.86207287039755,163.96542014504604L200.0052406469292,163.96912066400728L200.14840842346084,163.97624142114822L200.2915761999925,163.97207986944747L200.43474397652415,163.9691576545685L200.5779117530558,163.96554254996596L200.72107952958743,163.97225389523643L201.0074150826507,163.97496043000572L201.15058285918235,163.96727497397157L201.43691841224563,163.96515836050753L201.5800861887773,163.96395204629812L201.72325396530894,163.96721681075067L202.0095895183722,163.96630508137915L202.15275729490386,163.9700291789841L202.2959250714355,163.9594318566896L202.43909284796715,163.9665691833615L202.5822606244988,163.96689165451698L202.72542840103043,163.96865791050797L203.298099507157,163.96829089015176L203.5844350602203,163.96772303556986L204.01393838981522,163.97118252112384L204.1571061663469,163.96957181777626L204.44344171941015,163.96598851739572L204.5866094959418,163.96008060622972L204.72977727247343,163.96202470678756L205.01611282553674,163.96072181252867L205.15928060206838,163.96153499664294L205.30244837860002,163.95904753442085L205.44561615513166,163.96248052335366L205.5887839316633,163.95328221726817L205.73195170819494,163.96307915335876L205.87511948472658,163.96304303665096L206.01828726125822,163.9592582543538L206.1614550377899,163.95364803848193L206.5909583673848,163.95663304665752L206.73412614391646,163.94483010307698L206.8772939204481,163.94359266505782L207.16362947351138,163.93633133204304L207.30679725004302,163.94590323740752L207.4499650265747,163.946167075694L207.5931328031063,163.93449972760035L207.73630057963794,163.92719102557152L208.1658039092329,163.91366622699212L208.30897168576453,163.9168682106592L208.45213946229617,163.9163145109627L208.59530723882781,163.8954264734327L208.73847501535946,163.91305606173705L208.8816427918911,163.91375748500488L209.02481056842274,163.9310285316408L209.31114612148602,163.93670722759322L209.4543138980177,163.9235100278025L209.59748167454933,163.92003099025973L209.74064945108097,163.9254600644042L209.88381722761258,163.91294913595615L210.02698500414425,163.92948854401413L210.1701527806759,163.9092265050391L210.31332055720753,163.9205400348922L210.74282388680248,163.91371518588042L210.8859916633341,163.910606469704L211.17232721639738,163.88804352851034L211.74499832252397,163.84904389745472L211.8881660990556,163.87180024896963L212.1745016521189,163.84252538218217L212.31766942865053,163.82237521569124L212.74717275824548,163.80664804090264L213.03350831130876,163.77632871526498L213.17667608784038,163.75305943874648L213.31984386437205,163.7708602561239L213.60617941743533,163.73682436649858L213.74934719396697,163.7701213226023L213.8925149704986,163.70147657268524L214.03568274703028,163.66649484260884L214.32201830009353,163.6587825434918L214.46518607662517,163.6442034657977L214.6083538531568,163.6100340575309L214.75152162968848,163.63469544797135L214.89468940622012,163.624565277315L215.1810249592834,163.5243614078015L215.32419273581507,163.57505371330132L215.4673605123467,163.59851434446833L215.75369606540997,163.57302717410587L215.8968638419416,163.56789350475867L216.32636717153656,163.53850258869878L216.61270272459984,163.50289725835236L216.75587050113148,163.44237434068435L217.04220605419476,163.35173878873192L217.1853738307264,163.3381098168174L217.32854160725807,163.35767175292867L217.47170938378972,163.29505746923087L217.61487716032133,163.2420402671147L217.75804493685297,163.32469001538206L217.9012127133846,163.14351006940103L218.33071604297956,163.13800302212533L218.4738838195112,162.91474537922429L218.61705159604287,162.64502657513168L218.76021937257448,162.64995797243714L218.90338714910612,162.57814240500798L219.04655492563776,162.79737795089363L219.1897227021694,162.53297463925034L219.47605825523272,162.14525855484808L219.61922603176436,162.4733657337515L219.762393808296,162.3541549443777L219.90556158482764,161.86870155141938L220.04872936135928,161.5616846204945L220.19189713789092,161.96361542806497L220.62140046748587,161.02188903267879L220.90773602054912,161.12158968581556L221.05090379708076,161.32065493963486L221.1940715736124,161.12732179461395L221.33723935014407,160.75114236140203L221.48040712667571,160.511374848228L221.62357490320736,160.8859644379741L221.766742679739,160.5904777525476L221.90991045627067,160.37591368069818L222.05307823280228,160.30120877664334L222.19624600933392,161.02993532087817L222.62574933892887,159.09509114187944L222.7689171154605,159.7175351845055L223.19842044505543,157.4556641711869L223.34158822158707,159.35698933522727L223.62792377465036,157.58224212222765L223.771091551182,157.21306780590152L223.91425932771367,156.0297990279274L224.20059488077695,154.86559802388703L224.34376265730856,152.43983048375574L224.48693043384023,155.08865111579826L224.7732659869035,152.91503329136782L224.91643376343515,151.3708358008355L225.0596015399668,148.99382444581408L225.34593709303007,151.29936503209385L225.48910486956171,152.49015852711946L225.63227264609336,146.67296144440536L225.91860819915667,143.45046872270376L226.0617759756883,149.7861090046309L226.20494375221995,143.51753927382572L226.49127930528323,138.05569351696917L226.63444708181487,138.64440420032955L226.92078263487815,131.04081632764462L227.0639504114098,133.66561068744357L227.20711818794146,123.76180782221161L227.3502859644731,128.38463210634023L227.49345374100474,131.20311290970804L227.63662151753635,127.13006649879804L227.92295707059967,117.5383371191621L228.0661248471313,115.53488108101065L228.49562817672626,102.09437940580945L228.7819637297895,109.19065618638813L229.21146705938446,114.5954242715546L229.78413816551102,126.62136783526772L230.49997704816926,143.87958898247408L230.92948037776415,148.3790741319577L231.07264815429582,144.0034454999299L231.21581593082746,148.54420892829765L231.3589837073591,139.96811777416556L231.50215148389074,149.31811506418296L231.64531926042238,144.19328655735052L231.9316548134857,143.3059346316542L232.0748225900173,150.55864629342244L232.3611581430806,147.1873523043458L232.50432591961226,143.93431724345746L232.79066147267554,149.77037563972652L232.93382924920718,146.84399933224404L233.07699702573885,144.41676045394786L233.22016480227046,150.49525852242243L233.50650035533374,150.11828453703674L233.64966813186538,155.004851853793L233.79283590839705,150.35363261551527L233.9360036849287,156.26600645461744L234.07917146146033,153.5220918474366L234.22233923799195,153.73630902643L234.36550701452362,153.92265257604944L234.50867479105526,154.52049186317487L234.6518425675869,153.23279207493647L234.93817812065018,153.37648751308694L235.2245136737135,154.97200937845298L235.3676814502451,155.66304261393717L235.65401700330838,155.7432335003961L236.08352033290333,151.82205766879312L236.36985588596664,154.27411811062493L236.94252699209318,146.73167108930443L237.08569476862485,147.32845294451363L237.2288625451565,141.5498269967192L237.37203032168813,139.6879367505198L237.80153365128305,124.37598162379304L237.9447014278147,133.05961251976422L238.08786920434633,137.5166910030906L238.51737253394128,118.15191174217402L238.6605403104729,118.65248995930209L238.9468758635362,114.9585461944852L239.09004364006785,116.4624213324696L239.2332114165995,111.79005049939434L239.66271474619444,110.5878341773968L239.80588252272605,121.18177249574978L240.23538585232097,80.29533668626233L240.37855362885264,107.80987676675487L240.52172140538428,94.42304493512975L240.66488918191592,62.4221237798879L240.80805695844757,75.20788489917483L240.9512247349792,80.3766751770702L241.09439251151085,47.58434950653545L241.38072806457413,63.92595949822958L241.52389584110577,31.131142506274323L241.66706361763744,89.03579099722793L241.81023139416908,68.4824129298947L241.95339917070072,42.59301069235082L242.09656694723233,56.24171509455599L242.239734723764,40.88154383182475L242.38290250029564,26.005248683597106L242.52607027682728,34.37291143327062L243.09874138295385,-60.13791316228902" fill="none"></path></g></g></g></g></g></g><g transform="translate(72, 176)" clip-path="url(#clip_1)"><clipPath id="clip_1"><rect width="257" height="23"></rect></clipPath><g><g><line x1="0" y1="0" x2="0" y2="5" style="visibility: inherit;" fill="rgb(0, 0, 0)" stroke="rgb(204, 204, 204)" stroke-width="1px"></line><line x1="28.633555306328667" y1="0" x2="28.633555306328667" y2="5" style="visibility: inherit;" fill="rgb(0, 0, 0)" stroke="rgb(204, 204, 204)" stroke-width="1px"></line><line x1="57.26711061265733" y1="0" x2="57.26711061265733" y2="5" style="visibility: inherit;" fill="rgb(0, 0, 0)" stroke="rgb(204, 204, 204)" stroke-width="1px"></line><line x1="85.900665918986" y1="0" x2="85.900665918986" y2="5" style="visibility: inherit;" fill="rgb(0, 0, 0)" stroke="rgb(204, 204, 204)" stroke-width="1px"></line><line x1="114.53422122531467" y1="0" x2="114.53422122531467" y2="5" style="visibility: inherit;" fill="rgb(0, 0, 0)" stroke="rgb(204, 204, 204)" stroke-width="1px"></line><line x1="143.16777653164334" y1="0" x2="143.16777653164334" y2="5" style="visibility: inherit;" fill="rgb(0, 0, 0)" stroke="rgb(204, 204, 204)" stroke-width="1px"></line><line x1="171.801331837972" y1="0" x2="171.801331837972" y2="5" style="visibility: inherit;" fill="rgb(0, 0, 0)" stroke="rgb(204, 204, 204)" stroke-width="1px"></line><line x1="200.4348871443007" y1="0" x2="200.4348871443007" y2="5" style="visibility: inherit;" fill="rgb(0, 0, 0)" stroke="rgb(204, 204, 204)" stroke-width="1px"></line><line x1="229.06844245062933" y1="0" x2="229.06844245062933" y2="5" style="visibility: inherit;" fill="rgb(0, 0, 0)" stroke="rgb(204, 204, 204)" stroke-width="1px"></line><line x1="257.701997756958" y1="0" x2="257.701997756958" y2="5" style="visibility: inherit;" fill="rgb(0, 0, 0)" stroke="rgb(204, 204, 204)" stroke-width="1px"></line></g><g transform="translate(0, 8)"><text style="text-anchor: middle; visibility: hidden; font-family: Roboto, sans-serif; font-size: 12px; font-weight: 200;" x="0" y="0" dx="0em" dy="0.95em" fill="rgb(33, 33, 33)" stroke="none" stroke-width="1px">-200k</text><text style="text-anchor: middle; visibility: inherit; font-family: Roboto, sans-serif; font-size: 12px; font-weight: 200;" x="28.633555306328667" y="0" dx="0em" dy="0.95em" fill="rgb(33, 33, 33)" stroke="none" stroke-width="1px">0</text><text style="text-anchor: middle; visibility: hidden; font-family: Roboto, sans-serif; font-size: 12px; font-weight: 200;" x="57.26711061265733" y="0" dx="0em" dy="0.95em" fill="rgb(33, 33, 33)" stroke="none" stroke-width="1px">200k</text><text style="text-anchor: middle; visibility: inherit; font-family: Roboto, sans-serif; font-size: 12px; font-weight: 200;" x="85.900665918986" y="0" dx="0em" dy="0.95em" fill="rgb(33, 33, 33)" stroke="none" stroke-width="1px">400k</text><text style="text-anchor: middle; visibility: hidden; font-family: Roboto, sans-serif; font-size: 12px; font-weight: 200;" x="114.53422122531467" y="0" dx="0em" dy="0.95em" fill="rgb(33, 33, 33)" stroke="none" stroke-width="1px">600k</text><text style="text-anchor: middle; visibility: inherit; font-family: Roboto, sans-serif; font-size: 12px; font-weight: 200;" x="143.16777653164334" y="0" dx="0em" dy="0.95em" fill="rgb(33, 33, 33)" stroke="none" stroke-width="1px">800k</text><text style="text-anchor: middle; visibility: hidden; font-family: Roboto, sans-serif; font-size: 12px; font-weight: 200;" x="171.801331837972" y="0" dx="0em" dy="0.95em" fill="rgb(33, 33, 33)" stroke="none" stroke-width="1px">1M</text><text style="text-anchor: middle; visibility: inherit; font-family: Roboto, sans-serif; font-size: 12px; font-weight: 200;" x="200.4348871443007" y="0" dx="0em" dy="0.95em" fill="rgb(33, 33, 33)" stroke="none" stroke-width="1px">1.2M</text><text style="text-anchor: middle; visibility: hidden; font-family: Roboto, sans-serif; font-size: 12px; font-weight: 200;" x="229.06844245062933" y="0" dx="0em" dy="0.95em" fill="rgb(33, 33, 33)" stroke="none" stroke-width="1px">1.4M</text><text style="text-anchor: middle; visibility: hidden; font-family: Roboto, sans-serif; font-size: 12px; font-weight: 200;" x="257.701997756958" y="0" dx="0em" dy="0.95em" fill="rgb(33, 33, 33)" stroke="none" stroke-width="1px">1.6M</text></g><line x1="0" y1="0" x2="257.701997756958" y2="0" fill="rgb(0, 0, 0)" stroke="rgb(204, 204, 204)" stroke-width="1px"></line></g></g></g></g></svg>