<svg viewBox="0 0 330 200" xmlns="http://www.w3.org/2000/svg"><g><g><g><g><g><line x1="41.149001121520996" y1="176.5999994277954" x2="36.149001121520996" y2="176.5999994277954" style="visibility: inherit;" fill="rgb(0, 0, 0)" stroke="rgb(204, 204, 204)" stroke-width="1px"></line><line x1="41.149001121520996" y1="156.97777726915146" x2="36.149001121520996" y2="156.97777726915146" style="visibility: inherit;" fill="rgb(0, 0, 0)" stroke="rgb(204, 204, 204)" stroke-width="1px"></line><line x1="41.149001121520996" y1="137.35555511050754" x2="36.149001121520996" y2="137.35555511050754" style="visibility: inherit;" fill="rgb(0, 0, 0)" stroke="rgb(204, 204, 204)" stroke-width="1px"></line><line x1="41.149001121520996" y1="117.73333295186362" x2="36.149001121520996" y2="117.73333295186362" style="visibility: inherit;" fill="rgb(0, 0, 0)" stroke="rgb(204, 204, 204)" stroke-width="1px"></line><line x1="41.149001121520996" y1="98.11111079321968" x2="36.149001121520996" y2="98.11111079321968" style="visibility: inherit;" fill="rgb(0, 0, 0)" stroke="rgb(204, 204, 204)" stroke-width="1px"></line><line x1="41.149001121520996" y1="78.48888863457573" x2="36.149001121520996" y2="78.48888863457573" style="visibility: inherit;" fill="rgb(0, 0, 0)" stroke="rgb(204, 204, 204)" stroke-width="1px"></line><line x1="41.149001121520996" y1="58.86666647593181" x2="36.149001121520996" y2="58.86666647593181" style="visibility: inherit;" fill="rgb(0, 0, 0)" stroke="rgb(204, 204, 204)" stroke-width="1px"></line><line x1="41.149001121520996" y1="39.244444317287886" x2="36.149001121520996" y2="39.244444317287886" style="visibility: inherit;" fill="rgb(0, 0, 0)" stroke="rgb(204, 204, 204)" stroke-width="1px"></line><line x1="41.149001121520996" y1="19.622222158643922" x2="36.149001121520996" y2="19.622222158643922" style="visibility: inherit;" fill="rgb(0, 0, 0)" stroke="rgb(204, 204, 204)" stroke-width="1px"></line><line x1="41.149001121520996" y1="0" x2="36.149001121520996" y2="0" style="visibility: inherit;" fill="rgb(0, 0, 0)" stroke="rgb(204, 204, 204)" stroke-width="1px"></line></g><g transform="translate(31.149001121520996, 0)"><text style="text-anchor: end; visibility: hidden; font-family: Roboto, sans-serif; font-size: 12px; font-weight: 200;" x="0" y="176.5999994277954" dx="0em" dy="0.3em" fill="rgb(33, 33, 33)" stroke="none" stroke-width="1px">0</text><text style="text-anchor: end; visibility: inherit; font-family: Roboto, sans-serif; font-size: 12px; font-weight: 200;" x="0" y="156.97777726915146" dx="0em" dy="0.3em" fill="rgb(33, 33, 33)" stroke="none" stroke-width="1px">0.2</text><text style="text-anchor: end; visibility: hidden; font-family: Roboto, sans-serif; font-size: 12px; font-weight: 200;" x="0" y="137.35555511050754" dx="0em" dy="0.3em" fill="rgb(33, 33, 33)" stroke="none" stroke-width="1px">0.4</text><text style="text-anchor: end; visibility: inherit; font-family: Roboto, sans-serif; font-size: 12px; font-weight: 200;" x="0" y="117.73333295186362" dx="0em" dy="0.3em" fill="rgb(33, 33, 33)" stroke="none" stroke-width="1px">0.6</text><text style="text-anchor: end; visibility: hidden; font-family: Roboto, sans-serif; font-size: 12px; font-weight: 200;" x="0" y="98.11111079321968" dx="0em" dy="0.3em" fill="rgb(33, 33, 33)" stroke="none" stroke-width="1px">0.8</text><text style="text-anchor: end; visibility: inherit; font-family: Roboto, sans-serif; font-size: 12px; font-weight: 200;" x="0" y="78.48888863457573" dx="0em" dy="0.3em" fill="rgb(33, 33, 33)" stroke="none" stroke-width="1px">1</text><text style="text-anchor: end; visibility: hidden; font-family: Roboto, sans-serif; font-size: 12px; font-weight: 200;" x="0" y="58.86666647593181" dx="0em" dy="0.3em" fill="rgb(33, 33, 33)" stroke="none" stroke-width="1px">1.2</text><text style="text-anchor: end; visibility: inherit; font-family: Roboto, sans-serif; font-size: 12px; font-weight: 200;" x="0" y="39.244444317287886" dx="0em" dy="0.3em" fill="rgb(33, 33, 33)" stroke="none" stroke-width="1px">1.4</text><text style="text-anchor: end; visibility: hidden; font-family: Roboto, sans-serif; font-size: 12px; font-weight: 200;" x="0" y="19.622222158643922" dx="0em" dy="0.3em" fill="rgb(33, 33, 33)" stroke="none" stroke-width="1px">1.6</text><text style="text-anchor: end; visibility: hidden; font-family: Roboto, sans-serif; font-size: 12px; font-weight: 200;" x="0" y="0" dx="0em" dy="0.3em" fill="rgb(33, 33, 33)" stroke="none" stroke-width="1px">1.8</text></g><line x1="41.149001121520996" y1="0" x2="41.149001121520996" y2="176.5999994277954" fill="rgb(0, 0, 0)" stroke="rgb(204, 204, 204)" stroke-width="1px"></line></g></g><g transform="translate(41, 0)" clip-path="url(#clip_0)"><clipPath id="clip_0"><rect width="288" height="176"></rect></clipPath><g><g><g><line x1="0" y1="0" x2="0" y2="176.5999994277954" fill="rgb(0, 0, 0)" stroke="rgb(66, 66, 66)" stroke-width="1px" opacity="0.25"></line><line x1="32.09455543094211" y1="0" x2="32.09455543094211" y2="176.5999994277954" fill="rgb(0, 0, 0)" stroke="rgb(66, 66, 66)" stroke-width="1px" opacity="0.25"></line><line x1="64.18911086188422" y1="0" x2="64.18911086188422" y2="176.5999994277954" fill="rgb(0, 0, 0)" stroke="rgb(66, 66, 66)" stroke-width="1px" opacity="0.25"></line><line x1="96.28366629282633" y1="0" x2="96.28366629282633" y2="176.5999994277954" fill="rgb(0, 0, 0)" stroke="rgb(66, 66, 66)" stroke-width="1px" opacity="0.25"></line><line x1="128.37822172376843" y1="0" x2="128.37822172376843" y2="176.5999994277954" fill="rgb(0, 0, 0)" stroke="rgb(66, 66, 66)" stroke-width="1px" opacity="0.25"></line><line x1="160.47277715471057" y1="0" x2="160.47277715471057" y2="176.5999994277954" fill="rgb(0, 0, 0)" stroke="rgb(66, 66, 66)" stroke-width="1px" opacity="0.25"></line><line x1="192.56733258565265" y1="0" x2="192.56733258565265" y2="176.5999994277954" fill="rgb(0, 0, 0)" stroke="rgb(66, 66, 66)" stroke-width="1px" opacity="0.25"></line><line x1="224.6618880165948" y1="0" x2="224.6618880165948" y2="176.5999994277954" fill="rgb(0, 0, 0)" stroke="rgb(66, 66, 66)" stroke-width="1px" opacity="0.25"></line><line x1="256.75644344753687" y1="0" x2="256.75644344753687" y2="176.5999994277954" fill="rgb(0, 0, 0)" stroke="rgb(66, 66, 66)" stroke-width="1px" opacity="0.25"></line><line x1="288.850998878479" y1="0" x2="288.850998878479" y2="176.5999994277954" fill="rgb(0, 0, 0)" stroke="rgb(66, 66, 66)" stroke-width="1px" opacity="0.25"></line></g><g><line x1="0" y1="176.5999994277954" x2="288.850998878479" y2="176.5999994277954" fill="rgb(0, 0, 0)" stroke="rgb(66, 66, 66)" stroke-width="1px" opacity="0.25"></line><line x1="0" y1="156.97777726915146" x2="288.850998878479" y2="156.97777726915146" fill="rgb(0, 0, 0)" stroke="rgb(66, 66, 66)" stroke-width="1px" opacity="0.25"></line><line x1="0" y1="137.35555511050754" x2="288.850998878479" y2="137.35555511050754" fill="rgb(0, 0, 0)" stroke="rgb(66, 66, 66)" stroke-width="1px" opacity="0.25"></line><line x1="0" y1="117.73333295186362" x2="288.850998878479" y2="117.73333295186362" fill="rgb(0, 0, 0)" stroke="rgb(66, 66, 66)" stroke-width="1px" opacity="0.25"></line><line x1="0" y1="98.11111079321968" x2="288.850998878479" y2="98.11111079321968" fill="rgb(0, 0, 0)" stroke="rgb(66, 66, 66)" stroke-width="1px" opacity="0.25"></line><line x1="0" y1="78.48888863457573" x2="288.850998878479" y2="78.48888863457573" fill="rgb(0, 0, 0)" stroke="rgb(66, 66, 66)" stroke-width="1px" opacity="0.25"></line><line x1="0" y1="58.86666647593181" x2="288.850998878479" y2="58.86666647593181" fill="rgb(0, 0, 0)" stroke="rgb(66, 66, 66)" stroke-width="1px" opacity="0.25"></line><line x1="0" y1="39.244444317287886" x2="288.850998878479" y2="39.244444317287886" fill="rgb(0, 0, 0)" stroke="rgb(66, 66, 66)" stroke-width="1px" opacity="0.25"></line><line x1="0" y1="19.622222158643922" x2="288.850998878479" y2="19.622222158643922" fill="rgb(0, 0, 0)" stroke="rgb(66, 66, 66)" stroke-width="1px" opacity="0.25"></line><line x1="0" y1="0" x2="288.850998878479" y2="0" fill="rgb(0, 0, 0)" stroke="rgb(66, 66, 66)" stroke-width="1px" opacity="0.25"></line></g></g></g><g><g><line x1="0" y1="176.5999994277954" x2="288.850998878479" y2="176.5999994277954" fill="rgb(0, 0, 0)" stroke="rgb(153, 153, 153)" stroke-width="1.5px"></line></g></g><g><g><line x1="32.09455543094211" y1="0" x2="32.09455543094211" y2="176.5999994277954" fill="rgb(0, 0, 0)" stroke="rgb(153, 153, 153)" stroke-width="1.5px"></line></g></g><g><g><g><g><g><path style="fill: none;" stroke="rgb(0, 119, 187)" stroke-width="2px" d="M32.7362860667838,167.20306342407974L33.05723162109322,160.02036758632053L33.21770439824793,157.34572032581144L33.53864995255735,152.30902772600285L33.859595506866775,148.29844421507508L34.020068284021484,145.6078157656121L34.18054106117619,143.10053692199713L34.3410138383309,139.41891269150133L34.50148661548562,137.00838225775354L34.66195939264033,134.66955912932113L34.822432169795036,128.62454614008564L34.982904946949745,125.29443518146839L35.14337772410446,121.91364026891038L35.30385050125917,117.08387608543889L35.46432327841388,114.24468419501007L35.785268832723304,108.13644323701212L36.10621438703272,100.66909256453555L36.26668716418743,92.00239409509665L37.06905104996098,89.16458420007953L37.22952382711569,84.63450785071345L37.38999660427041,78.2129586173174L37.55046938142512,78.05839395585464L37.710942158579826,74.33350352182477L38.03188771288925,75.13257439368938L38.51330604435338,75.2404532266784L38.67377882150809,75.11948051696547L38.99472437581751,73.24101684735098L39.15519715297222,75.34361781746166L39.31566993012694,75.23275088478961L39.47614270728164,68.10324091974331L39.797088261591064,64.98389312001892L40.11803381590049,65.38107751309869L40.2785065930552,66.16566127425692L40.759924924519325,65.3950945227249L40.920397701674034,61.410998237847934L41.08087047882875,58.93311592034666L41.24134325598346,58.22396573827607L41.40181603313817,58.05148352940458L41.883234364602295,56.39670038992441L42.04370714175701,55.19791886626385L42.36465269606643,55.77850543331333L42.525125473221145,55.8706285037235L42.685598250375854,53.24344762058708L42.84607102753056,50.809082110338736L43.00654380468528,50.87322661673685L43.16701658183998,49.39874863406779L43.32748935899469,48.5044077358543L43.648434913304115,49.60314822228601L43.80890769045883,51.424346992647735L43.96938046761354,49.767191723210324L44.12985324476825,50.07044440450792L44.45079879907767,52.88931869966247L44.77174435338709,51.772397240312294L44.9322171305418,53.0506372130637L45.253162684851226,54.072419490191095L45.413635462005935,56.8952779004576L45.73458101631535,55.86874417349408L45.89505379347006,58.45889540053479L46.05552657062477,59.59976587852969L46.21599934777949,59.94168198501678L46.376472124934196,67.22778794184956L46.53694490208891,68.33441924033062L46.85789045639832,69.4756108523241L47.01836323355304,73.12142741721601L47.17883601070775,72.5353664691184L47.33930878786246,71.89192350364642L48.14167267363601,68.9067113560319L48.30214545079072,69.82840898177142L48.62309100510014,69.11382048429893L48.94403655940957,66.7626448775123L49.10450933656428,66.05289662046188L49.26498211371899,66.24447314451162L49.74640044518312,63.45150772231428L50.38829155380196,56.71704107143058L50.86970988526609,50.20196424468041L51.190655439575515,47.615045824557406L51.351128216730224,42.876640143117704L51.51160099388493,43.63599285902602L52.153492102503776,36.55854692046739L52.313964879658485,35.8356331408669L52.4744376568132,37.59912228930225L52.63491043396791,40.432987686468735L52.955855988277335,44.895719573318935L53.11632876543204,41.637059627445524L53.59774709689617,42.89192524423598L54.079165428360305,43.70644005602416L54.239638205515014,43.2205016369836L54.56058375982443,45.7139711036264L54.88152931413386,45.06705671111462L55.042002091288566,42.92747356875606L55.20247486844328,38.45565546289595L55.36294764559799,36.912663672181054L55.5234204227527,35.362393606084524L55.6838931999074,32.829908814476994L56.00483875421683,32.12596243699139L56.16531153137154,30.9332742606678L56.32578430852625,33.38951255069861L56.48625708568096,34.52712670256714L56.807202639990386,41.42031758323112L56.96767541714509,40.26016326025306L57.128148194299804,37.78848073230358L57.44909374860922,34.1654599964558L57.60956652576394,36.10916818602818L57.77003930291865,35.420694622620324L58.090984857228065,31.6475291994481L58.251457634382774,27.636424847977842L58.5724031886922,27.394675086054818L58.73287596584691,28.61228868447203L59.05382152015633,30.04725316023275L59.21429429731104,27.777893310581543L59.37476707446575,30.64350538163031L59.69571262877517,29.971556021500206L60.33760373739402,31.42419780417636L60.49807651454873,34.12049732101578L60.65854929170343,31.816216609593024L60.819022068858146,31.24718966385147L61.139967623167564,35.768785887122164L61.30044040032228,33.22776556413075L61.621385954631705,32.58721441707789L61.942331508941116,34.72418031602963L62.10280428609583,32.69348541290932L62.26327706325054,33.364811035145394L62.42374984040525,34.36603631565003L62.744695394714675,37.26156266588627L62.905168171869384,39.421861780006054L64.02847761195235,39.50649416750968L64.6703687205712,37.34148964909029L65.15178705203533,34.67000339617872L65.31225982919004,37.19499295076429L65.47273260634476,38.56008776504175L65.63320538349946,38.49706504154104L66.27509649211831,35.03860888013934L66.43556926927302,37.60419165526516L66.59604204642773,38.091456979405464L66.75651482358244,36.30590544020701L67.23793315504656,37.53088266968008L67.39840593220129,40.664174734604956L67.558878709356,44.40755503280959L67.7193514865107,47.62287397415476L67.87982426366541,48.077930661537884L68.04029704082012,48.08762268007301L68.36124259512954,48.743531690640054L68.52171537228425,52.3965039936416L68.68218814943896,56.408675988798244L69.00313370374839,54.18250698039152L69.1636064809031,54.14849196687038L69.32407925805781,57.65415609706896L69.48455203521252,59.315813230283L69.64502481236723,58.6978447158815L69.80549758952193,57.86088016418732L70.28691592098608,55.093206887233336L70.44738869814078,51.8796308440368L70.7683342524502,50.014080224733775L71.41022536106904,48.67567751167322L71.57069813822376,49.622265034806645L71.89164369253317,47.558874301785046L72.05211646968789,44.53947758690862L72.2125892468426,45.52054103521194L72.37306202399732,46.1004119774462L72.53353480115202,48.143551551624824L72.69400757830672,51.325498253845275L73.17542590977087,51.55804914523025L73.65684424123499,56.56079274107496L73.8173170183897,59.13705510372974L73.97778979554441,57.683003828095025L74.13826257269912,55.62754037950721L74.45920812700854,55.6109849149266L75.10109923562739,54.618326255583526L75.4220447899368,52.33783718294469L75.74299034424624,52.827158818876214L75.90346312140093,52.92163281767232L76.06393589855566,56.27934986626686L76.22440867571036,56.47354857927464L76.38488145286506,53.760841560684405L76.70582700717449,56.17288126361541L76.8662997843292,57.46399727216375L77.18724533863863,60.80260541521893L77.50819089294804,64.63259279222521L77.82913644725745,63.98322934483812L78.63150033303101,63.02229631860965L78.95244588734043,65.18087126388293L79.11291866449515,65.90511957034006L79.43386421880457,67.06311427311236L79.59433699595928,66.56113778664628L79.754809773114,67.20485541680739L79.9152825502687,64.8082763726696L80.07575532742341,61.018632571530944L80.23622810457813,64.38395093903868L80.39670088173283,65.4308209743704L80.55717365888755,63.67074109751703L80.71764643604226,62.575208843763505L80.87811921319697,62.686765639149144L81.5200103218158,64.1588727991154L81.68048309897053,65.73033825131114L82.00142865327994,66.97906393821836L82.48284698474407,68.70197668540649L83.12473809336292,71.47951459514134L83.28521087051762,70.27422765644374L83.44568364767234,67.8602623892306L83.60615642482705,67.36762603594696L83.92710197913647,67.76100622723065L84.08757475629118,69.55019197666535L84.2480475334459,69.4027164638801L84.4085203106006,70.16048851839369L84.56899308775532,71.49593653705095L84.72946586491003,72.75031360905837L85.21088419637415,75.2424019445846L85.37135697352886,75.28400418450927L85.6923025278383,72.29513776119856L86.01324808214771,72.92895303617273L86.33419363645712,75.60066042063863L86.65513919076655,77.43354603878501L86.97608474507597,80.56778977876287L87.13655752223069,82.88458137738421L87.29703029938538,82.98061974416945L87.45750307654009,83.4019407380905L87.61797585369482,87.82377183005121L87.77844863084951,88.37325413025523L87.93892140800423,89.60435960178276L88.09939418515894,89.41702164799415L88.25986696231365,91.22674944105306L88.58081251662307,93.17384688274127L88.90175807093249,95.61312050043864L89.06223084808721,97.90644493305433L89.38317640239663,99.12674864813685L89.70412195670606,97.28614017634342L89.86459473386076,96.80577278612878L90.02506751101546,98.45647605905748L90.18554028817019,100.07366292764604L90.34601306532488,99.66718987355408L90.5064858424796,98.8837167474083L90.66695861963431,101.47289917049865L90.82743139678902,100.49353702759657L90.98790417394373,100.7247184568569L91.14837695109844,98.97644989971775L91.30884972825315,97.37896510043564L91.62979528256258,98.23672987372727L91.79026805971728,99.47258490644784L92.11121361402671,97.59607542125596L92.43215916833613,95.60239464301297L92.59263194549084,93.12449297009493L92.75310472264555,93.32985340029508L92.91357749980025,92.74992442790781L93.07405027695498,93.29989567817883L93.3949958312644,94.95391903219962L93.5554686084191,94.11174688788894L93.87641416272852,92.8538073390718L94.03688693988323,91.56919027767483L94.19735971703794,91.2546593742654L94.35783249419265,90.59502470121541L94.51830527134737,88.51758721260703L94.83925082565678,88.86506865418538L94.9997236028115,88.73939584786426L95.1601963799662,86.12562447117068L95.32066915712092,87.654554904145L96.12303304289448,88.79070037089681L96.28350582004917,85.95050946978067L96.76492415151331,84.06014598424923L96.92539692866802,80.86487102135654L97.24634248297744,75.2184007888341L97.40681526013215,73.02667535739438L97.72776081444157,70.85403257525078L98.048706368751,75.61006863593754L98.85107025452454,71.30080314745898L99.01154303167927,70.58798711946642L99.4929613631434,68.23990689955227L99.6534341402981,71.26023928599663L99.81390691745281,72.68013557026894L99.97437969460752,73.11419964785145L100.13485247176223,75.0650092066474L100.29532524891694,78.04495436543142L100.61627080322636,79.26993711363491L100.93721635753579,83.43618520346439L101.2581619118452,81.60979631679618L101.57910746615464,81.4297061373629L102.06052579761875,81.13218099922514L102.22099857477347,86.47540597245379L102.7024169062376,87.1301588829924L102.86288968339231,88.45167491506709L103.02336246054703,89.5110549642793L103.18383523770173,87.93351537958196L103.50478079201116,86.20062427848018L103.66525356916586,85.69598659308508L104.14667190063,82.59898832194065L104.3071446777847,76.7746281262889L104.62809023209412,75.89747020825237L105.10950856355825,77.92026434297905L105.59092689502239,79.7865198485669L105.7513996721771,77.85356720295287L105.91187244933182,79.79771803034073L106.07234522648652,84.27472387377998L106.23281800364123,82.22916826661515L106.55376355795065,82.58691330437064L106.71423633510537,81.68348254933657L106.87470911226008,82.68804084728546L107.0351818894148,82.10076738623053L107.1956546665695,84.51997690952972L107.3561274437242,85.97799628949915L107.51660022087891,88.99860195028454L107.83754577518835,89.7617405192553L108.15849132949776,88.47470271166586L108.31896410665247,85.95057358310966L108.8003824381166,85.0396314453759L108.96085521527132,83.35388538098267L109.60274632389016,82.14385048775596L110.08416465535429,81.65192404427466L110.244637432509,82.66195077924174L110.56558298681841,82.5365303869176L110.72605576397314,80.15556028518647L111.04700131828254,76.81414539490781L111.20747409543726,75.03804286640474L111.36794687259197,73.91085296786517L111.84936520405611,72.36095968820158L112.00983798121081,73.60590663165206L112.33078353552024,72.43579617462343L112.97267464413908,73.79194027791387L113.4540929756032,76.99707036166366L113.61456575275791,78.59353191921241L113.77503852991263,76.6283709901846L113.93551130706733,77.113393532727L114.09598408422205,77.68892494143566L114.25645686137676,77.83015768773689L114.41692963853149,81.96613535151062L114.73787519284089,82.63682981841986L114.89834796999561,83.18956413096573L115.0588207471503,84.84944116274272L115.21929352430503,86.26053469927425L115.37976630145974,85.16734223786969L115.54023907861445,82.5305103785816L115.70071185576916,82.64140343185635L116.342602964388,82.77553951175813L116.5030757415427,82.12598326879417L117.46591240447097,85.70801644712587L117.7868579587804,89.31140424912886L117.9473307359351,89.03580779501286L118.10780351308982,89.86961413067084L118.26827629024453,91.57278737639687L118.42874906739924,90.29328397382704L118.58922184455395,93.3987614107723L118.74969462170866,94.31228990558319L118.91016739886336,93.18133550782504L119.07064017601807,93.56484077939818L119.2311129531728,94.99874978003659L119.39158573032749,96.8110228007582L119.55205850748222,96.71636987898142L119.71253128463692,96.77172655527764L119.87300406179162,100.33290227828257L120.03347683894634,99.32488433949925L120.19394961610105,94.86140129476311L120.35442239325577,94.09719859880398L120.67536794756519,91.37208588515799L120.8358407247199,90.17350003348386L120.9963135018746,91.07872547497831L121.31725905618403,92.21388416132213L121.63820461049345,95.03406835825137L121.95915016480286,95.5858610563026L122.11962294195759,94.90187345062547L122.60104127342171,96.24110936507007L122.76151405057642,94.27285186110095L122.92198682773113,95.21690698983593L123.24293238204056,94.01436343973423L123.40340515919526,92.35865449185869L123.56387793634997,93.93949904044665L123.88482349065939,92.40102364381889L124.20576904496882,93.86517704218814L124.36624182212353,92.62905123186408L124.68718737643295,92.47802283441396L124.84766015358765,94.8959077738305L125.00813293074236,94.94902357710453L125.16860570789709,93.87190256794318L125.32907848505178,95.78980973093053L125.4895512622065,96.38912177144114L125.65002403936121,95.10975311825516L125.81049681651594,93.71409573695594L125.97096959367063,93.40343898608991L126.29191514798006,92.07394154125276L126.45238792513476,89.77512674397887L126.61286070228948,89.62377714852292L127.09427903375361,86.349425799318L127.25475181090832,83.83329777493739L127.41522458806303,83.15101096829082L127.73617014237246,81.12795259352492L127.89664291952715,78.07370684008593L128.05711569668188,75.73320715784132L128.21758847383657,69.84024632337118L128.538534028146,67.33930178287778L128.85947958245544,69.62861254039557L129.01995235961013,67.43656442302587L129.18042513676485,71.99829489214827L129.50137069107427,73.55782080054573L129.8223162453837,78.03320346888772L130.1432617996931,81.13284444854234L130.30373457684783,80.41363936363226L130.46420735400253,77.02427176838559L130.94562568546667,78.85125491815147L131.5875167940855,79.40117598541777L131.74798957124023,75.99237409923012L131.90846234839492,74.8675879798122L132.06893512554964,73.50772290336485L132.22940790270434,72.2075458567167L132.55035345701376,73.12805265436019L132.71082623416848,73.68568612569615L133.19224456563262,75.4532846565118L133.35271734278732,78.77340911052977L133.67366289709673,79.22073127044665L133.99460845140615,78.9407972118686L134.15508122856087,81.03210903796746L134.636499560025,78.13312848860214L134.9574451143344,78.7113874375617L135.11791789148913,80.46830775311402L135.27839066864385,81.670307445415L135.59933622295327,81.49657796038704L135.759809000108,83.88079462710664L135.9202817772627,83.7084508834488L136.08075455441738,84.44814587371792L136.2412273315721,83.58511709189297L136.40170010872683,80.65659072500571L136.56217288588152,77.19396884762232L136.72264566303625,76.59316036865597L136.88311844019097,73.15371426202715L137.52500954880978,77.77700860215269L137.6854823259645,76.46547116840526L138.00642788027392,73.86803893694834L138.32737343458336,77.56954387016218L138.48784621173806,80.52033742448258L138.64831898889275,81.06623774336994L138.80879176604748,81.92294674190771L138.96926454320217,79.14618074834321L139.1297373203569,79.4026413065737L139.29021009751162,75.84904763221542L139.4506828746663,72.918604229793L139.61115565182104,74.54708489535207L139.93210120613045,74.70798003949409L140.09257398328515,74.47191956585424L140.25304676043987,74.30066160368767L140.41351953759457,75.54841400920533L140.5739923147493,75.6142349583741L140.8949378690587,76.29785435240042L141.05541064621343,73.87212382164162L141.21588342336813,72.13703148754765L141.53682897767754,71.33598163951913L141.69730175483227,71.84740996311149L141.857774531987,73.75722335481343L142.01824730914169,74.2240748662354L142.1787200862964,74.81003287125858L142.3391928634511,76.73631851702683L142.49966564060583,74.24630771733261L142.66013841776052,76.16221015497125L142.82061119491524,75.22265166243066L143.30202952637939,75.73209506081562L143.6229750806888,73.27723751888799L143.94392063499822,75.73984184938337L144.42533896646233,73.04479240894791L144.58581174361706,72.49062930364336L144.74628452077175,68.27736140377611L144.90675729792648,65.52605606747984L145.0672300750812,60.44781376330628L145.2277028522359,57.90252669586629L145.3881756293906,55.68408652292597L145.54864840654534,53.93670245318009L145.70912118370003,54.27920319374997L145.86959396085473,55.26736534946059L146.03006673800945,55.63939052201409L146.19053951516415,54.79423005515859L146.3510122923189,55.4553218878407L146.83243062378298,52.8627525110203L146.99290340093773,52.40350428423648L147.47432173240185,53.63699736721366L147.63479450955654,52.46145944621361L147.955740063866,53.2534418871052L148.11621284102068,51.26112247496535L148.2766856181754,49.78962560343565L148.4371583953301,49.31239336105879L148.59763117248482,53.55038199178845L148.75810394963955,53.151598301584535L149.2395222811037,51.97950397265785L149.39999505825838,53.24008558045872L149.56046783541308,53.41048914464604L150.20235894403194,50.354801640746295L150.36283172118664,51.225535259163024L150.68377727549608,50.53418681136624L150.84425005265078,53.495275663143126L151.00472282980547,53.53453697921872L151.1651956069602,54.02199396025938L151.48614116126961,50.679282468342755L151.96755949273373,52.890395391341244L152.12803226988845,53.749875218914724L152.44897782419787,51.63174082707405L152.6094506013526,48.95683424328333L152.7699233785073,51.28772625482593L152.930396155662,47.508437693770645L153.09086893281673,47.37541172752891L153.25134170997143,47.95740314178865L153.41181448712612,49.207325353885885L153.57228726428085,48.80128356896259L154.053705595745,45.05498309159691L154.21417837289968,41.45728143917783L154.53512392720913,38.52994180319287L154.85606948151852,35.88113135710632L155.01654225867324,35.9328644016194L155.17701503582796,35.806603873381974L155.33748781298266,35.832173937672216L155.65843336729208,37.566572829213435L155.81890614444677,36.960410014761436L155.97937892160152,36.372575825239785L156.13985169875622,32.363652290083365L156.3003244759109,29.714997497865834L156.46079725306564,29.676680788142793L156.62127003022036,30.412363750308497L156.78174280737505,29.563267815298413L157.26316113883917,29.182618800506997L157.42363391599392,27.84901810435259L157.90505224745803,26.082733688861307L158.06552502461275,27.15987057933603L158.22599780176748,26.425778420242175L158.54694335607687,25.480062525362882L158.8678889103863,25.01322642910581L159.028361687541,23.982858409314154L159.1888344646957,26.388349300860767L159.34930724185043,27.83711305153292L159.50978001900515,28.770096553498096L159.67025279615987,32.21186852691618L159.83072557331457,35.1093474083226L159.99119835046926,37.36293134278084L160.3121439047787,38.91720753965723L160.4726166819334,39.73627840638711L160.63308945908813,43.00631780084439L160.95403501339752,45.2697597050157L161.43545334486166,44.45639497498808L161.59592612201638,45.122535355596284L161.7563988991711,46.58111293233943L161.9168716763258,45.10342893326334L162.07734445348052,44.67326737156194L162.3982900077899,46.5196081589216L162.55876278494466,48.09062109951298L162.71923556209936,48.999487394801164L163.04018111640877,51.572383561346825L163.2006538935635,53.46691780845666L163.52159944787292,54.715877295267084L164.00301777933706,53.762948386405185L164.32396333364645,53.49250301821905L164.48443611080117,52.56286468125267L164.64490888795586,51.51977775009074L165.12632721942,51.56597990479863L165.2867999965747,50.07428763037464L165.60774555088415,51.28126313329053L165.76821832803884,53.213132846126584L166.08916388234826,53.973136977577994L166.24963665950298,53.547006231905875L166.4101094366577,52.400612593258785L166.7310549909671,54.061548692702836L166.89152776812185,54.17000919357577L167.37294609958596,51.4091604647441L167.53341887674065,52.91711899890363L167.8543644310501,50.728617264678014L168.0148372082048,51.103337042828116L168.1753099853595,51.14708575311098L168.3357827625142,52.0241276786699L168.65672831682363,50.478613549718254L168.81720109397835,48.18155859559411L168.97767387113305,47.19603231368622L169.1381466482878,46.5527930442389L169.4590922025972,46.132214453070766L169.7800377569066,43.14805702220034L170.10098331121603,45.59296592396266L170.26145608837075,44.78970986470854L170.42192886552544,45.52779600868381L170.5824016426802,44.56679952353275L170.7428744198349,44.90415183309855L171.38476552845373,46.262964686727464L171.54523830560845,44.19236674496453L171.70571108276314,45.60289918695867L171.86618385991784,44.86673862640046L172.34760219138198,43.70014510251014L172.5080749685367,43.17970941129626L172.6685477456914,44.85118426371381L172.82902052284612,44.728200493508425L172.98949330000085,45.25432941143038L173.31043885431023,45.74063287313258L173.47091163146496,44.700795798008066L173.63138440861968,46.39894735744151L173.79185718577438,46.36983735210931L174.1128027400838,46.92352905199651L174.43374829439324,47.124567398635065L174.59422107154793,48.08233752055476L174.75469384870263,48.61559053631988L174.91516662585735,48.822195782057506L175.07563940301208,50.49083605701071L175.3965849573215,48.78078398127953L175.5570577344762,49.199142707226855L175.71753051163088,49.1665829554032L176.03847606594033,48.58894927481618L176.19894884309502,48.99118441571549L176.51989439740447,48.64517294122967L176.68036717455917,47.672295532631615L177.32225828317803,48.523806535135925L177.48273106033272,47.89870233528882L177.80367661464214,47.92821917275879L177.96414939179687,50.13419518152478L178.12462216895156,51.09697929911445L178.28509494610628,51.79774082110038L178.44556772326098,52.39971792700572L178.60604050041567,53.22001805672828L178.76651327757043,52.944232736237716L179.08745883187981,54.59041084845243L179.24793160903454,55.65346187099873L179.40840438618926,57.05187925791949L179.88982271765337,57.53338628595043L180.05029549480807,57.93254494506211L180.21076827196282,56.6876487415775L180.37124104911751,55.79064044656355L180.69218660342693,54.00364875169365L181.65502326635522,55.04742237416443L181.8154960435099,54.917068908893576L181.9759688206646,54.39389796387116L182.13644159781933,56.245891032276774L182.29691437497402,55.29479400820693L182.93880548359286,54.24468970425824L183.42022381505703,52.274810284306454L183.58069659221172,52.4425661648281L183.90164214652117,52.53748482546382L184.38306047798528,52.54324989738655L184.54353325513998,52.55888403520447L184.86447880944942,52.998445494974376L185.02495158660412,52.94691389004373L185.1854243637588,53.802865356342345L185.34589714091356,54.77754092451593L185.66684269522295,57.13461779124822L185.82731547237768,57.70218865667809L185.98778824953237,59.83734650680336L186.1482610266871,62.93631569432929L186.30873380384182,63.66552059802939L186.4692065809965,64.79663419221036L186.6296793581512,65.56935367024441L186.79015213530596,64.81231187501434L186.95062491246065,66.33444518947732L187.27157046677007,65.00341273390879L187.43204324392477,67.24980962457165L187.7529887982342,67.6639695082465L188.0739343525436,69.67728043295618L188.23440712969833,68.95070780949384L188.55535268400774,69.04803746309271L188.87629823831716,71.01337278552795L189.03677101547188,72.03490076749343L189.1972437926266,72.96759535022433L189.3577165697813,72.47016235299269L189.83913490124544,74.03851110107671L189.99960767840014,74.84134796515467L190.16008045555486,76.05536564899411L190.32055323270956,75.81151591150581L190.641498787019,77.08772360700996L190.8019715641737,76.82253439670933L191.12291711848312,76.64398025662214L191.28338989563784,77.26083242434491L192.0857537814114,77.51052899389715L192.2462265585661,77.94927732385649L192.5671721128755,76.94796006962743L192.72764489003023,77.30744570677152L193.04859044433965,76.75180530951454L193.20906322149435,76.25543868872889L193.36953599864904,76.03586591300703L193.5300087758038,76.72095918076337L193.85095433011318,77.40696769116907L194.0114271072679,76.12893369808091L194.17189988442263,75.23575630111858L194.49284543873205,75.3240484890882L194.65331821588674,74.45196689438062L194.81379099304144,74.7791913440519L194.9742637701962,73.59157202530133L195.4556821016603,73.24003260478084L195.77662765596975,74.9650009634979L196.25804598743383,75.55355543303165L196.57899154174328,75.58756486813085L196.739464318898,76.17372428235043L196.8999370960527,75.72524608422586L197.0604098732074,76.33772704117754L197.38135542751684,77.37978189015774L197.70230098182626,76.35258072747348L197.86277375898098,75.80813552429723L198.02324653613567,76.25719019195203L198.3441920904451,75.34731810601839L198.5046648675998,76.48575780607047L198.66513764475454,76.87457125839867L198.82561042190923,77.01452480844803L198.98608319906393,76.74512647778883L199.46750153052807,75.745924338293L199.6279743076828,75.70486631154691L199.7884470848375,75.71417373325738L200.59081097061105,77.14491830043724L200.75128374776574,77.08853292919774L200.91175652492046,79.08637259210938L201.0722293020752,77.2295858927363L201.39317485638458,78.73430165185252L201.55364763353933,80.38239017466793L201.71412041069402,81.3467275417582L201.87459318784872,80.91818832775525L202.03506596500344,81.93174650649962L202.83742985077697,83.49983709886891L202.99790262793172,83.87226479139424L203.15837540508642,84.27461378799676L203.3188481822411,85.79267524165138L203.47932095939584,86.11774989303592L203.63979373655053,86.3495503289441L203.96073929085998,88.47790951639311L204.12121206801467,88.3582413872945L204.28168484516937,87.96856914888062L204.4421576223241,89.19004202280523L204.6026303994788,88.32301717102523L204.7631031766335,87.39651607812128L204.92357595378823,89.8309760619944L205.08404873094292,90.8101003803685L205.24452150809768,90.8539614043463L205.56546706240707,92.86315813428203L205.72593983956176,93.08988066647998L205.88641261671648,92.32193992342215L206.0468853938712,92.09734488277391L206.2073581710259,93.2781495755861L206.36783094818063,93.97900933478543L206.52830372533532,95.21586270348443L206.84924927964477,96.99438669915084L207.17019483395416,98.48616875026973L207.4911403882636,99.83428362714564L207.65161316541833,101.26343650990701L207.81208594257302,101.42698196000728L208.1330314968824,101.9533103029615L208.45397705119186,102.79477224178184L208.61444982834658,101.78443949638798L208.935395382656,102.72773203003318L209.25634093696542,102.87987907894006L209.4168137141201,102.5978229704992L209.57728649127483,103.38122707750837L209.89823204558425,103.82892693758689L210.3796503770484,103.45813480959168L210.54012315420312,101.55837789258189L211.02154148566723,101.73512127103551L211.34248703997665,102.69380252479804L211.82390537144076,101.84683965675772L212.3053237029049,102.81810777769202L212.46579648005962,102.89168338011562L212.62626925721435,103.17764737016196L212.78674203436904,103.1389635269553L212.94721481152376,104.47535907765719L213.10768758867846,103.82573157034773L213.26816036583315,104.01092224127174L213.4286331429879,104.14976144765572L213.5891059201426,103.82522087871774L213.7495786972973,104.32899496667987L214.07052425160674,105.89799805190867L214.23099702876144,106.54858725367531L214.39146980591616,107.91887340216016L214.8728881373803,107.9325501801931L215.033360914535,108.4211275568824L215.3543064688444,110.27354139658846L215.51477924599914,110.67284196603444L215.67525202315383,110.607963394247L215.83572480030855,110.86850446637762L216.15667035461794,110.50333301505724L216.63808868608209,110.0823203206788L216.7985614632368,109.86560803375924L216.9590342403915,109.68838562225824L217.11950701754623,110.13170425174584L217.27997979470095,110.36394318795021L217.44045257185564,112.04567179736358L217.60092534901034,112.29342554531857L217.7613981261651,111.99577294101151L217.92187090331979,111.39599586583935L218.08234368047448,111.21091543926109L218.2428164576292,111.9254774159894L218.4032892347839,112.42002974461715L218.56376201193865,111.60303576186661L218.72423478909334,111.05182873079477L219.04518034340273,109.77571128793069L219.20565312055749,111.09766786414313L219.36612589771218,112.74116593034225L219.5265986748669,113.81046228172197L221.131326446414,114.58246417999486L221.61274477787813,115.05228046728978L221.77321755503283,115.58090696830406L221.93369033218755,116.33810912714257L222.09416310934225,116.12017268987609L222.4151086636517,113.94424346847623L222.5755814408064,114.18559269460455L222.73605421796108,114.67743898821811L222.89652699511583,114.96012563700307L223.05699977227053,115.05514214183663L223.37794532657995,114.3519665496946L223.53841810373464,114.19675767246619L223.69889088088937,114.37442528014455L223.8593636580441,114.99032051664875L224.01983643519878,114.9871389984601L224.18030921235348,115.81712575261334L224.3407819895082,116.03340864080275L224.50125476666292,115.44787045114906L224.66172754381762,115.82346177864261L224.82220032097234,117.1528794846157L224.98267309812704,117.80658033074018L225.30361865243648,118.50282883451708L225.46409142959118,117.48540814684537L225.7850369839006,117.27750355830474L225.94550976105532,116.99684685693005L226.10598253821001,114.51484530447156L226.42692809251943,114.13178248932768L226.58740086967416,113.83355903185259L226.74787364682888,114.2277709471977L226.90834642398357,114.10487010013192L227.06881920113827,114.74426155964252L227.229291978293,114.1847674670608L227.87118308691183,113.34489420381927L228.19212864122127,113.01956656867833L228.6735469726854,112.88237889900365L228.8340197498401,112.05287195042742L229.15496530414953,113.03003239626965L229.31543808130422,114.13499752596982L229.47591085845892,111.89296778114732L229.79685641276836,111.88914315846135L229.95732918992306,111.04733402781736L230.11780196707778,112.22315764521635L230.2782747442325,112.33825874962368L230.43874752138723,112.74737297729183L230.59922029854192,113.20216096313794L230.75969307569662,113.73510262429073L230.9201658528513,113.60740928706142L231.08063863000606,112.78427910668556L231.56205696147018,112.87258171926963L231.7225297386249,113.94461442219128L231.88300251577962,113.84032431712437L232.203948070089,113.35946343303394L232.3644208472437,113.3090616488817L232.52489362439846,111.63273555904884L232.68536640155315,111.06393257829562L232.84583917870788,112.0845238220486L233.32725751017202,112.61138300284068L233.4877302873267,113.56745995425253L233.6482030644814,112.47099928667637L233.80867584163613,113.72664071316979L233.96914861879085,113.00234687819054L234.12962139594555,112.35419690564464L234.29009417310027,111.58579008717341L234.61103972740966,112.49458419378405L234.7715125045644,112.54167618860491L234.9319852817191,112.9402702827229L235.0924580588738,112.81563898879725L235.25293083602853,111.86689576477129L235.41340361318325,111.11514436712655L235.57387639033794,109.85526400961425L235.73434916749267,109.06538030774615L236.2157674989568,108.44116096654868L236.3762402761115,106.68568821933056L236.69718583042092,105.13196340683142L237.33907693903976,102.91944282621228L237.49954971619445,101.36859079077743L237.8204952705039,100.27964405049153L237.9809680476586,99.79977284734586L238.46238637912273,98.51527929558594L238.78333193343215,96.22475568894652L238.94380471058685,94.74181183525604L239.1042774877416,91.43988516624464L239.425223042051,91.79995897737764L239.5856958192057,88.5165996915568L239.7461685963604,90.9993809660392L239.90664137351513,88.18522102140108L240.22758692782455,89.51428672343L240.38805970497924,90.63901685591755L240.54853248213396,91.53484662686662L240.7090052592887,90.8789211023002L240.86947803644338,91.37515583861317L241.1904235907528,90.07619236872424L241.35089636790755,91.70040015929652L241.51136914506225,91.95534592368206L241.83231469937164,94.49519993886241L241.99278747652636,95.27441390277579L242.4742058079905,94.81438733000617L242.79515136229995,96.1664585403069L242.95562413945464,98.14773433260474L243.27656969376403,99.36391293276837L243.43704247091875,100.48940355599039L243.59751524807348,99.64016244601478L243.7579880252282,101.53487558995973L243.9184608023829,101.54092285728707L244.0789335795376,102.76617653356965L244.23940635669229,103.94812190579455L244.72082468815645,105.30922489894397L244.88129746531115,104.5031901757557L245.04177024246587,106.18232545164365L245.2022430196206,105.085058084565L245.3627157967753,104.99094287035314L245.52318857392999,105.21385153711306L245.6836613510847,105.84437381673582L246.00460690539413,107.4926669680766L246.16507968254885,110.27988842462638L246.32555245970354,111.83492223243371L246.48602523685827,114.30335222425752L246.646498014013,114.21487366510856L246.80697079116769,114.58785235448617L247.28838912263183,115.34293117904062L247.60933467694124,116.27853032003665L247.76980745409594,115.41769000678921L247.93028023125063,117.07267178511947L248.0907530084054,117.72631145453752L248.25122578556008,118.49286800562817L248.41169856271478,119.09092981630205L248.5721713398695,120.68192634095847L248.73264411702422,122.04506040902075L248.89311689417892,122.52176387213498L249.05358967133364,122.7464304149478L249.53500800279778,124.6952841413019L249.69548077995248,125.34582326706575L250.17689911141662,126.72344879187962L250.3373718885713,126.23797901319946L250.65831744288073,128.14790049334636L250.81879022003542,128.70082333312277L250.97926299719018,128.3070852374401L251.30020855149957,128.2544978144136L251.4606813286543,126.99301024633048L251.621154105809,127.21906451829433L251.94209966011843,127.33652512637883L252.10257243727312,128.58250509302147L252.26304521442782,127.86546084463349L252.58399076873727,127.49007435486014L252.74446354589196,128.18791429717186L252.90493632304668,127.0614202281553L253.2258818773561,126.44921657294297L253.38635465451082,126.53180300319909L253.54682743166552,125.6552667424254L253.86777298597497,124.81519273822785L254.02824576312966,123.89787002670884L254.34919131743908,124.13711394575907L254.50966409459377,123.99983495109458L254.67013687174853,124.48742511449987L254.83060964890322,124.87577796911933L254.99108242605791,124.34162200984254L255.1515552032126,125.31285759432116L255.47250075752206,124.31012453672973L255.63297353467678,124.84282382396245L256.1143918661409,123.65267307445396L256.4353374204503,122.32528011462557L256.9167557519145,123.72740594465516L257.5586468605333,124.1358567295898L258.3610107463069,124.34461185966957L258.842429077771,124.32269558963414L259.0029018549257,124.64938504129049L259.1633746320804,124.96072660211877L259.3238474092351,125.13975981708505L259.4843201863898,124.97070503050334L259.6447929635445,124.03163412602984L259.96573851785394,124.16424672172819L260.12621129500866,124.47096462395663L260.44715684931805,125.23008496129242L260.60762962647283,125.79712268528351L260.9285751807822,125.52600781178486L261.0890479579369,126.87431973288503L261.24952073509166,126.50937207094942L261.40999351224633,126.64815693230045L261.7309390665558,126.7964474994069L261.89141184371044,126.40067605127446L262.0518846208652,127.22961080700708L262.2123573980199,128.45707473613783L262.3728301751746,128.68917074101967L262.5333029523293,129.150845160216L262.69377572948406,129.5050211481593L262.8542485066387,129.4511972746756L263.01472128379345,129.53460087478624L263.33566683810284,128.3315482941893L263.6566123924123,128.64463483268244L263.817085169567,127.99620569797791L264.1380307238764,128.019617981429L264.61944905534057,127.14830196026698L264.94039460965,126.64267474833208L265.5822857182688,126.65856405621207L265.7427584954235,126.54512741944991L265.90323127257824,124.27796520223309L266.06370404973296,123.63200050692929L266.5451223811971,123.76236778524485L266.7055951583518,124.31930373198428L266.8660679355065,123.60932584979064L267.34748626697063,123.85782893576211L267.50795904412536,125.11506982074326L267.8289045984348,125.17959921172933L267.98937737558947,125.36904434146301L268.1498501527442,124.64722572766532L268.6312684842083,124.06094638886496L268.79174126136303,123.49878727512105L269.27315959282714,123.54285245547133L269.43363236998186,124.57832563702449L269.5941051471366,125.43141731430347L269.7545779242913,125.61679647291481L269.915050701446,126.95616867173429L270.0755234786007,126.19443740755116L270.2359962557554,125.47565731376744L270.5569418100648,124.78732826513443L270.71741458721954,125.31649088630256L270.87788736437426,125.87008772671335L271.038360141529,125.65806193698579L271.1988329186837,125.62658806416019L271.3593056958384,126.42737610686507L271.51977847299315,127.3271394612228L271.6802512501478,127.87810495067788L271.84072402730254,126.63580544960575L272.4826151359214,127.50311205632872L272.80356069023077,128.0665742254604" fill="none"></path></g></g></g></g><g opacity="0.2"><g><g><g><path style="fill: none;" stroke="rgb(0, 119, 187)" stroke-width="2px" d="M32.7362860667838,167.20306342407974L33.05723162109322,154.27421091611316L33.21770439824793,153.49422827067835L33.53864995255735,142.47740377117648L33.859595506866775,138.82705019566805L34.020068284021484,138.37196248904024L34.18054106117619,135.7004939682598L34.3410138383309,127.78078601681108L34.50148661548562,128.98394011322486L34.66195939264033,126.56991272155962L34.822432169795036,107.04080749240998L34.982904946949745,113.11820875974436L35.14337772410446,109.31976644804918L35.30385050125917,98.8268957273815L35.46432327841388,103.38739255281703L35.785268832723304,84.56313789571807L36.10621438703272,71.6404388172795L36.26668716418743,58.116227017291024L37.06905104996098,78.01783037338298L37.22952382711569,66.77534357528388L37.38999660427041,52.82290337189606L37.55046938142512,77.44583773950937L37.710942158579826,59.54388114656793L38.03188771288925,78.30999035363413L38.51330604435338,75.66993078509404L38.67377882150809,74.63741776601671L38.99472437581751,65.749871401207L39.15519715297222,83.73368658909551L39.31566993012694,74.79014094544505L39.47614270728164,39.62933058878912L39.797088261591064,52.52194818327227L40.11803381590049,66.9682416759357L40.2785065930552,69.30150987370044L40.759924924519325,62.31478113540702L40.920397701674034,45.48269380561506L41.08087047882875,49.02560724427072L41.24134325598346,55.38828553955932L41.40181603313817,57.36173380968489L41.883234364602295,49.77894257205121L42.04370714175701,50.403589498602585L42.36465269606643,58.100543008743514L42.525125473221145,56.239081600543685L42.685598250375854,42.73561807137048L42.84607102753056,41.07228276667163L43.00654380468528,51.12979067289298L43.16701658183998,43.50109359368664L43.32748935899469,44.92716879592854L43.648434913304115,53.997987654354574L43.80890769045883,58.708979617735736L43.96938046761354,43.138688904012405L44.12985324476825,51.28343781703067L44.45079879907767,64.16468713686194L44.77174435338709,47.30475221247518L44.9322171305418,58.163559741073115L45.253162684851226,58.15952470531704L45.413635462005935,68.18665873368764L45.73458101631535,51.762624628514644L45.89505379347006,68.81946929779767L46.05552657062477,64.16323686314092L46.21599934777949,61.30934379104072L46.376472124934196,96.37216710548111L46.53694490208891,72.7609390073508L46.85789045639832,74.04037282318802L47.01836323355304,87.70468223420286L47.17883601070775,70.19112414823378L47.33930878786246,69.31815293422476L48.14167267363601,56.965867562624815L48.30214545079072,73.51519829984065L48.62309100510014,66.25546722932056L48.94403655940957,57.35794438480093L49.10450933656428,63.21390405941772L49.26498211371899,67.01077913983374L49.74640044518312,52.27964721005917L50.38829155380196,29.77917673740651L50.86970988526609,24.141658694140823L51.190655439575515,37.2673727020109L51.351128216730224,23.923018234940855L51.51160099388493,46.67340361784197L52.153492102503776,8.248763947780706L52.313964879658485,32.94397808632882L52.4744376568132,44.653078758411105L52.63491043396791,51.76844911491037L52.955855988277335,62.746646918864734L53.11632876543204,28.60241996186653L53.59774709689617,47.91138767507191L54.079165428360305,46.964499284314L54.239638205515014,41.27674796982417L54.56058375982443,55.68784893324116L54.88152931413386,42.47939914873791L55.042002091288566,34.369141019617174L55.20247486844328,20.56838307339019L55.36294764559799,30.74069651868863L55.5234204227527,29.161313349227658L55.6838931999074,22.6999696578863L56.00483875421683,29.310176929237148L56.16531153137154,26.162521558339176L56.32578430852625,43.214465705935844L56.48625708568096,39.077583308230736L56.807202639990386,68.99308109711106L56.96767541714509,35.61954596952232L57.128148194299804,27.901750622519604L57.44909374860922,19.673377055426272L57.60956652576394,43.884000943304024L57.77003930291865,32.6668003692763L58.090984857228065,16.554867508018535L58.251457634382774,11.592007443167857L58.5724031886922,26.427676038414187L58.73287596584691,33.48274307793288L59.05382152015633,35.78711106307951L59.21429429731104,18.700453912224816L59.37476707446575,42.10595366557461L59.69571262877517,27.28375858102679L60.33760373739402,37.23476493479952L60.49807651454873,44.90569538825275L60.65854929170343,22.599093763984524L60.819022068858146,28.9710818809016L61.139967623167564,53.8551707801013L61.30044040032228,23.063684272211752L61.621385954631705,30.025009828875657L61.942331508941116,43.2720439118116L62.10280428609583,24.570705800447193L62.26327706325054,36.05011352408462L62.42374984040525,38.37093743766252L62.744695394714675,48.84366806681728L62.905168171869384,48.06305823647692L64.02847761195235,39.84502371752376L64.6703687205712,28.681471575418072L65.15178705203533,23.984058384537775L65.31225982919004,47.294951169102454L65.47273260634476,44.02046702214991L65.63320538349946,38.24497414753823L66.27509649211831,21.204784234535328L66.43556926927302,47.86652275576673L66.59604204642773,40.04051827596643L66.75651482358244,29.16369928341387L67.23793315504656,42.430791587572024L67.39840593220129,53.19734299430361L67.558878709356,59.38107622562734L67.7193514865107,60.48414973953472L67.87982426366541,49.89815741107043L68.04029704082012,48.1263907542135L68.36124259512954,51.367167732908094L68.52171537228425,67.00839320564755L68.68218814943896,72.4573639694245L69.00313370374839,45.27783094676481L69.1636064809031,54.01243191278572L69.32407925805781,71.67681261786322L69.48455203521252,65.96244176313913L69.64502481236723,56.2259706582754L69.80549758952193,54.513021957410594L70.28691592098608,44.0225137794175L70.44738869814078,39.025326671250674L70.7683342524502,42.55187774752157L71.41022536106904,43.32206665943106L71.57069813822376,53.40861512734032L71.89164369253317,39.305311369698735L72.05211646968789,32.4618907274028L72.2125892468426,49.4447948284253L72.37306202399732,48.41989574638335L72.53353480115202,56.31610984833928L72.69400757830672,64.05328506272694L73.17542590977087,52.48825271077012L73.65684424123499,76.57176712445376L73.8173170183897,69.44210455434893L73.97778979554441,51.866798725556166L74.13826257269912,47.40568658515601L74.45920812700854,55.54476305660414L75.10109923562739,50.64769161821114L75.4220447899368,43.21588089238942L75.74299034424624,54.784445362602284L75.90346312140093,53.29952881285662L76.06393589855566,69.71021806064505L76.22440867571036,57.250343431305694L76.38488145286506,42.91001348632344L76.70582700717449,65.82104007533944L76.8662997843292,62.62846130635721L77.18724533863863,74.15703798743964L77.50819089294804,79.95254230025027L77.82913644725745,61.385775555289776L78.63150033303101,59.178564213695836L78.95244588734043,73.81517104497603L79.11291866449515,68.80211279616867L79.43386421880457,71.69509308420159L79.59433699595928,64.55323184078202L79.754809773114,69.7797259374518L79.9152825502687,55.221960196118495L80.07575532742341,45.86005736697628L80.23622810457813,77.84522440906967L80.39670088173283,69.61830111569734L80.55717365888755,56.63042159010347L80.71764643604226,58.19307982874941L80.87811921319697,63.132992820691655L81.5200103218158,70.04730143898045L81.68048309897053,72.01620006009412L82.00142865327994,71.97396668584724L82.48284698474407,75.59362767415897L83.12473809336292,82.58966623408087L83.28521087051762,65.45307990165323L83.44568364767234,58.20440132037804L83.60615642482705,65.39708062281245L83.92710197913647,69.33452699236534L84.08757475629118,76.7069349744042L84.2480475334459,68.81281441273912L84.4085203106006,73.19157673644797L84.56899308775532,76.83772861167998L84.72946586491003,77.767821897088L85.21088419637415,85.2107552866895L85.37135697352886,75.45041314420799L85.6923025278383,60.33967206795576L86.01324808214771,75.46421413606932L86.33419363645712,86.28748995850222L86.65513919076655,84.76508851137046L86.97608474507597,93.10476473867438L87.13655752223069,92.15174777186954L87.29703029938538,83.3647732113104L87.45750307654009,85.08722471377466L87.61797585369482,105.51109619789403L87.77844863084951,90.5711833310713L87.93892140800423,94.52878148789287L88.09939418515894,88.66766983283972L88.25986696231365,98.46566061328875L88.58081251662307,100.96223664949412L88.90175807093249,105.3702149712281L89.06223084808721,107.07974266351711L89.38317640239663,104.00796350846699L89.70412195670606,89.92370628916964L89.86459473386076,94.88430322527014L90.02506751101546,105.05928915077226L90.18554028817019,106.54241040200036L90.34601306532488,98.04129765718616L90.5064858424796,95.74982424282523L90.66695861963431,111.82962886286005L90.82743139678902,96.57608845598828L90.98790417394373,101.64944417389832L91.14837695109844,91.98337567116116L91.30884972825315,90.98902590330718L91.62979528256258,101.66778896689367L91.79026805971728,104.41600503733017L92.11121361402671,90.09003748048835L92.43215916833613,87.62767153004097L92.59263194549084,83.21288627842284L92.75310472264555,94.15129512109561L92.91357749980025,90.43020853835883L93.07405027695498,95.49978067926281L93.3949958312644,101.57001244828278L93.5554686084191,90.74305831064619L93.87641416272852,87.82204914380335L94.03688693988323,86.4307220320869L94.19735971703794,89.99653576062775L94.35783249419265,87.95648600901538L94.51830527134737,80.20783725817348L94.83925082565678,90.25499442049883L94.9997236028115,88.23670462257974L95.1601963799662,75.6705389643964L95.32066915712092,93.7702766360423L96.12303304289448,93.33528223790415L96.28350582004917,74.58974586531602L96.76492415151331,76.49869204212352L96.92539692866802,68.08377116978575L97.24634248297744,52.63251985874442L97.40681526013215,64.25977363163545L97.72776081444157,62.16346144667648L98.048706368751,94.63421287868448L98.85107025452454,54.0637411935448L99.01154303167927,67.73672300749622L99.4929613631434,58.8475860198957L99.6534341402981,83.34156883177405L99.81390691745281,78.35972070735822L99.97437969460752,74.85045595818144L100.13485247176223,82.86824744183116L100.29532524891694,89.96473500056757L100.61627080322636,84.16986810644885L100.93721635753579,100.10117756278235L101.2581619118452,74.30424077012341L101.57910746615464,80.70934541962983L102.06052579761875,79.94208044667401L102.22099857477347,107.84830586536833L102.7024169062376,89.7491705251469L102.86288968339231,93.73773904336579L103.02336246054703,93.74857516112813L103.18383523770173,81.62335704079263L103.50478079201116,79.26905987407305L103.66525356916586,83.67743585150473L104.14667190063,70.21099523736295L104.3071446777847,53.477187343681884L104.62809023209412,72.38883853610619L105.10950856355825,86.01144088188582L105.59092689502239,87.2515418709182L105.7513996721771,70.12175662049681L105.91187244933182,87.57432133989222L106.07234522648652,102.1827472475369L106.23281800364123,74.04694583795587L106.55376355795065,84.01789345539267L106.71423633510537,78.06975952920023L106.87470911226008,86.7062740390812L107.0351818894148,79.75167354201075L107.1956546665695,94.19681500272642L107.3561274437242,91.81007380937687L107.51660022087891,101.0810245934261L107.83754577518835,92.81429479513845L108.15849132949776,83.32655148130799L108.31896410665247,75.85405706888483L108.8003824381166,81.39586289444095L108.96085521527132,76.61090112340973L109.60274632389016,77.30371091484918L110.08416465535429,79.68421827034948L110.244637432509,86.70205771910999L110.56558298681841,82.03484881762114L110.72605576397314,70.63167987826182L111.04700131828254,63.44848583379312L111.20747409543726,67.93363275239247L111.36794687259197,69.40209337370683L111.84936520405611,66.16138656954713L112.00983798121081,78.585694405454L112.33078353552024,67.75535434650904L112.97267464413908,79.21651669107553L113.4540929756032,89.81759069666288L113.61456575275791,84.97937814940735L113.77503852991263,68.76772727407345L113.93551130706733,79.05348370289654L114.09598408422205,79.99105057627015L114.25645686137676,78.39508867294187L114.41692963853149,98.5100460066055L114.73787519284089,85.31960768605691L114.89834796999561,85.40050138114927L115.0588207471503,91.48894928985064L115.21929352430503,91.90490884540034L115.37976630145974,80.79457239225152L115.54023907861445,71.9831829414292L115.70071185576916,83.0849756449554L116.342602964388,83.31208383136521L116.5030757415427,79.52775829693836L117.46591240447097,100.03614916045264L117.7868579587804,103.72495545714085L117.9473307359351,87.9334219785488L118.10780351308982,93.20483947330283L118.26827629024453,98.38548035930108L118.42874906739924,85.17527036354772L118.58922184455395,105.82067115855327L118.74969462170866,97.96640388482675L118.91016739886336,88.65751791679256L119.07064017601807,95.0988618656908L119.2311129531728,100.73438578259007L119.39158573032749,104.06011488364473L119.55205850748222,96.33775819187426L119.71253128463692,96.99315326046249L119.87300406179162,114.57760517030235L120.03347683894634,95.29281258436592L120.19394961610105,77.00746911581868L120.35442239325577,91.04038781496743L120.67536794756519,80.47163503057399L120.8358407247199,85.37915662678743L120.9963135018746,94.69962724095608L121.31725905618403,96.75451890669731L121.63820461049345,106.31480514596844L121.95915016480286,97.79303184850758L122.11962294195759,92.16592302791695L122.60104127342171,101.59805302284853L122.76151405057642,86.39982184522447L122.92198682773113,98.9931275047758L123.24293238204056,89.20418923932735L123.40340515919526,85.73581870035663L123.56387793634997,100.26287723479845L123.88482349065939,86.24712205730779L124.20576904496882,99.7217906356652L124.36624182212353,87.68454799056785L124.68718737643295,91.87390924461349L124.84766015358765,104.56744753149677L125.00813293074236,95.1614867902006L125.16860570789709,89.56341853129787L125.32907848505178,103.46143838287989L125.4895512622065,98.78636993348357L125.65002403936121,89.99227850551121L125.81049681651594,88.13146621175909L125.97096959367063,92.16081198262592L126.29191514798006,86.75595176190411L126.45238792513476,80.57986755488321L126.61286070228948,89.01837876669921L127.09427903375361,73.25202040249833L127.25475181090832,73.76878567741494L127.41522458806303,80.42186374170454L127.73617014237246,73.0357190944613L127.89664291952715,65.85672382633008L128.05711569668188,66.37120842886281L128.21758847383657,46.26840298549064L128.538534028146,57.335523620904155L128.85947958245544,78.78585557046672L129.01995235961013,58.6683719535471L129.18042513676485,90.24521676863776L129.50137069107427,79.79592443413564L129.8223162453837,95.93473414225562L130.1432617996931,93.53140836716082L130.30373457684783,77.5368190239919L130.46420735400253,63.46680138739894L130.94562568546667,86.15918751721497L131.5875167940855,81.60086025448307L131.74798957124023,62.3571665544795L131.90846234839492,70.36844350214042L132.06893512554964,68.06826259757545L132.22940790270434,67.0068376701242L132.55035345701376,76.81007984493404L132.71082623416848,75.91622001103994L133.19224456563262,82.52367877977433L133.35271734278732,92.05390692660168L133.67366289709673,81.01001991011407L133.99460845140615,77.8210609775565L134.15508122856087,89.39735634236288L134.636499560025,66.53720629114082L134.9574451143344,81.02442323339987L135.11791789148913,87.49598901532329L135.27839066864385,86.47830621461901L135.59933622295327,80.80166002027524L135.759809000108,93.41766129398499L135.9202817772627,83.01907590881748L136.08075455441738,87.40692583479438L136.2412273315721,80.13300196459315L136.40170010872683,68.94248525745665L136.56217288588152,63.34348133808876L136.72264566303625,74.18992645279056L136.88311844019097,59.39592983551199L137.52500954880978,96.27018596265485L137.6854823259645,71.21932143341549L138.00642788027392,63.478310011120605L138.32737343458336,92.37556360301751L138.48784621173806,92.3235116417642L138.64831898889275,83.24983901891939L138.80879176604748,85.34978273605881L138.96926454320217,68.03911677408523L139.1297373203569,80.42848353949567L139.29021009751162,61.63467293478236L139.4506828746663,61.196830620103334L139.61115565182104,81.06100755758825L139.93210120613045,75.35156061606214L140.09257398328515,73.52767767129494L140.25304676043987,73.61562975502147L140.41351953759457,80.53942363127598L140.5739923147493,75.87751875504912L140.8949378690587,79.03233192850567L141.05541064621343,64.16920169860641L141.21588342336813,65.1966621511718L141.53682897767754,68.13178224740507L141.69730175483227,73.893123257481L141.857774531987,81.39647692162123L142.01824730914169,76.09148091192318L142.1787200862964,77.15386489135126L142.3391928634511,84.44146110009987L142.49966564060583,64.28626451855573L142.66013841776052,83.82581990552579L142.82061119491524,71.46441769226831L143.30202952637939,77.76986865435556L143.6229750806888,63.457807351177436L143.94392063499822,85.59025917136482L144.42533896646233,62.26459464720615L144.58581174361706,70.2739768824251L144.74628452077175,51.424289804307065L144.90675729792648,54.52083472229481L145.0672300750812,40.13484454661197L145.2277028522359,47.72137842610634L145.3881756293906,46.81032583116464L145.54864840654534,46.9471661741966L145.70912118370003,55.64920615602939L145.86959396085473,59.22001397230313L146.03006673800945,57.12749121222812L146.19053951516415,51.41358818773663L146.3510122923189,58.099689218569054L146.83243062378298,42.49247500373874L146.99290340093773,50.56651137710132L147.47432173240185,58.570969699122294L147.63479450955654,47.759307762213396L147.955740063866,56.42137165067156L148.11621284102068,43.29184482640587L148.2766856181754,43.9036381173169L148.4371583953301,47.40346439155123L148.59763117248482,70.50233651470708L148.75810394963955,51.55646354076898L149.2395222811037,47.291126656951064L149.39999505825838,58.28241201166206L149.56046783541308,54.092103401395434L150.20235894403194,38.13205162514733L150.36283172118664,54.70846973283001L150.68377727549608,47.768793020179125L150.84425005265078,65.33963107025068L151.00472282980547,53.69158224352111L151.1651956069602,55.97182188442203L151.48614116126961,37.308436500676315L151.96755949273373,61.73484708333524L152.12803226988845,57.18779452920869L152.44897782419787,43.1592032597114L152.6094506013526,38.25720790812041L152.7699233785073,60.61129430099631L152.930396155662,32.391283449549476L153.09086893281673,46.8433078625621L153.25134170997143,50.28536879882763L153.41181448712612,54.207014202274834L153.57228726428085,47.17711642926938L154.053705595745,30.069781182134307L154.21417837289968,27.066474829501338L154.53512392720913,26.820583259253134L154.85606948151852,25.28588957276013L155.01654225867324,36.139796579671724L155.17701503582796,35.301561760432335L155.33748781298266,35.93445419483307L155.65843336729208,44.50416839537836L155.81890614444677,34.53575875695337L155.97937892160152,34.02123906715319L156.13985169875622,16.327958149457572L156.3003244759109,19.12037832899573L156.46079725306564,29.5234139492507L156.62127003022036,33.355095598971275L156.78174280737505,26.166884075258054L157.26316113883917,27.660022741341436L157.42363391599392,22.514615319734958L157.90505224745803,19.01759602689617L158.06552502461275,31.468418141234928L158.22599780176748,23.489409783866765L158.54694335607687,21.69719894584573L158.8678889103863,23.14588204407746L159.028361687541,19.861386330147525L159.1888344646957,36.0103128670472L159.34930724185043,33.63216805422146L159.50978001900515,32.50203056135886L159.67025279615987,45.978956420588496L159.83072557331457,46.69926293394828L159.99119835046926,46.37726708061384L160.3121439047787,45.13431232716266L160.4726166819334,43.01256187330671L160.63308945908813,56.086475378673505L160.95403501339752,54.323527321700865L161.43545334486166,41.20293605487761L161.59592612201638,47.78709687802912L161.7563988991711,52.415423239312005L161.9168716763258,39.192692936959L162.07734445348052,42.95262112475639L162.3982900077899,53.90497130836027L162.55876278494466,54.37467286187852L162.71923556209936,52.63495257595389L163.04018111640877,61.8639682275295L163.2006538935635,61.04505479689601L163.52159944787292,59.71171524250883L164.00301777933706,49.95123275095752L164.32396333364645,52.41072154547449L164.48443611080117,48.8443113333871L164.64490888795586,47.34743002544301L165.12632721942,51.75078852363017L165.2867999965747,44.107518532678704L165.60774555088415,56.10916514495402L165.76821832803884,60.94061169747074L166.08916388234826,57.013153503383634L166.24963665950298,51.84248324921741L166.4101094366577,47.815038038670444L166.7310549909671,60.70529309047904L166.89152776812185,54.60385119706753L167.37294609958596,40.36576554941737L167.53341887674065,58.948953135541686L167.8543644310501,41.97461032777555L168.0148372082048,52.60221615542855L168.1753099853595,51.32208059424242L168.3357827625142,55.53229538090568L168.65672831682363,44.296557033911675L168.81720109397835,38.993338779097485L168.97767387113305,43.253927186054625L169.1381466482878,43.97983596644965L169.4590922025972,44.44990008839818L169.7800377569066,31.211427298718583L170.10098331121603,55.37260153101181L170.26145608837075,41.576685627692086L170.42192886552544,48.480140584584845L170.5824016426802,40.72281358292846L170.7428744198349,46.25356107136179L171.38476552845373,51.69821610124311L171.54523830560845,35.90997497791291L171.70571108276314,51.245028954935194L171.86618385991784,41.922096384167546L172.34760219138198,39.03377100694888L172.5080749685367,41.0979666464407L172.6685477456914,51.53708367338402L172.82902052284612,44.236265412686905L172.98949330000085,47.35884508311815L173.31043885431023,47.68584671994129L173.47091163146496,40.54144749750994L173.63138440861968,53.191553595175336L173.79185718577438,46.25339733078037L174.1128027400838,49.13829585154533L174.43374829439324,47.928720785189306L174.59422107154793,51.91341800823354L174.75469384870263,50.74860259938036L174.91516662585735,49.64861676500804L175.07563940301208,57.165397156823545L175.3965849573215,41.940575678354776L175.5570577344762,50.87257761101616L175.71753051163088,49.03634394810861L176.03847606594033,46.27841455246801L176.19894884309502,50.600124979312774L176.51989439740447,47.261127043286365L176.68036717455917,43.78078589823931L177.32225828317803,51.9298505451532L177.48273106033272,45.39828553590037L177.80367661464214,48.04628652263864L177.96414939179687,58.95809921658879L178.12462216895156,54.948115769473155L178.28509494610628,54.60078690904409L178.44556772326098,54.80762635062702L178.60604050041567,56.50121857561851L178.76651327757043,51.841091454275464L179.08745883187981,61.17512329731126L179.24793160903454,59.90566596118397L179.40840438618926,62.645548805602495L179.88982271765337,59.45941439807418L180.05029549480807,59.529179581508856L180.21076827196282,51.70806392763909L180.37124104911751,52.20260726650777L180.69218660342693,46.85568197221405L181.65502326635522,59.22251686404748L181.8154960435099,54.3956550478101L181.9759688206646,52.30121418378148L182.13644159781933,63.65386330589922L182.29691437497402,51.49040591192757L182.93880548359286,50.044272488463456L183.42022381505703,44.39529260449935L183.58069659221172,53.113589686914565L183.90164214652117,52.91715946800673L184.38306047798528,52.56631018507742L184.54353325513998,52.621420586476276L184.86447880944942,54.756691334054L185.02495158660412,52.74078747032108L185.1854243637588,57.226671221536755L185.34589714091356,58.6762431972104L185.66684269522295,66.56292525817734L185.82731547237768,59.97247211839751L185.98778824953237,68.37797790730447L186.1482610266871,75.332192444433L186.30873380384182,66.58234021282973L186.4692065809965,69.32108856893424L186.6296793581512,68.66023158238056L186.79015213530596,61.784144694094195L186.95062491246065,72.4229784473293L187.27157046677007,59.67928291163469L187.43204324392477,76.23539718722304L187.7529887982342,69.32060904294583L188.0739343525436,77.73052413179494L188.23440712969833,66.04441731564434L188.55535268400774,69.43735607748815L188.87629823831716,78.8747140752689L189.03677101547188,76.1210126953553L189.1972437926266,76.69837368114786L189.3577165697813,70.48043036406617L189.83913490124544,80.31190609341267L189.99960767840014,78.0526954214666L190.16008045555486,80.91143638435197L190.32055323270956,74.8361169615526L190.641498787019,82.19255438902653L190.8019715641737,75.76177755550687L191.12291711848312,75.92976369627335L191.28338989563784,79.72824109523599L192.0857537814114,78.50931527210611L192.2462265585661,79.70427064369377L192.5671721128755,72.94269105271121L192.72764489003023,78.74538825534788L193.04859044433965,74.52924372048658L193.20906322149435,74.26997220558636L193.36953599864904,75.15757481011958L193.5300087758038,79.46133225178878L193.85095433011318,80.15100173279197L194.0114271072679,71.01679772572818L194.17189988442263,71.66304671326932L194.49284543873205,75.6772172409666L194.65331821588674,70.96364051555038L194.81379099304144,76.08808914273693L194.9742637701962,68.84109475029905L195.4556821016603,71.83387492269878L195.77662765596975,81.86487439836614L196.25804598743383,77.90777331116666L196.57899154174328,75.7236026085277L196.739464318898,78.51836193922877L196.8999370960527,73.93133329172761L197.0604098732074,78.78765086898429L197.38135542751684,81.54800128607855L197.70230098182626,72.24377607673651L197.86277375898098,73.63035471159216L198.02324653613567,78.05340886257129L198.3441920904451,71.7078297622838L198.5046648675998,81.03951660627874L198.66513764475454,78.42982506771152L198.82561042190923,77.57433900864547L198.98608319906393,75.66753315515203L199.46750153052807,71.74911578030967L199.6279743076828,75.54063420456255L199.7884470848375,75.75140342009922L200.59081097061105,82.86789656915671L200.75128374776574,76.86299144423973L200.91175652492046,87.07773124375598L201.0722293020752,69.80243909524395L201.39317485638458,84.75316468831737L201.55364763353933,86.97474426592967L201.71412041069402,85.20407701011932L201.87459318784872,79.20403147174335L202.03506596500344,85.98597922147721L202.83742985077697,89.77219946834603L202.99790262793172,85.36197556149565L203.15837540508642,85.88400977440676L203.3188481822411,91.86492105626988L203.47932095939584,87.41804849857415L203.63979373655053,87.27675207257678L203.96073929085998,96.99134626618913L204.12121206801467,87.87956887090003L204.28168484516937,86.40988019522511L204.4421576223241,94.0759335185036L204.6026303994788,84.85491776390523L204.7631031766335,83.69051170650556L204.92357595378823,99.56881599748685L205.08404873094292,94.72659765386479L205.24452150809768,91.02940550025741L205.56546706240707,100.89994505402504L205.72593983956176,93.99677079527183L205.88641261671648,89.25017695119072L206.0468853938712,91.19896472018101L206.2073581710259,98.00136834683477L206.36783094818063,96.7824483715828L206.52830372533532,100.16327617828048L206.84924927964477,104.10848268181641L207.17019483395416,104.45329695474533L207.4911403882636,105.2267431346492L207.65161316541833,106.98004804095261L207.81208594257302,102.08116376040833L208.1330314968824,104.05862367477836L208.45397705119186,106.16061999706326L208.61444982834658,97.74310851481252L208.935395382656,106.50090216461399L209.25634093696542,103.48846727456765L209.4168137141201,101.4695985367357L209.57728649127483,106.5148435055451L209.89823204558425,105.61972637790095L210.3796503770484,101.97496629761089L210.54012315420312,93.9593502245427L211.02154148566723,102.44209478484991L211.34248703997665,106.5285275398483L211.82390537144076,98.45898818459646L212.3053237029049,106.7031802614292L212.46579648005962,103.18598578981002L212.62626925721435,104.3215033303474L212.78674203436904,102.9842281541286L212.94721481152376,109.82094128046478L213.10768758867846,101.2272215411098L213.26816036583315,104.7516849249678L213.4286331429879,104.70511827319159L213.5891059201426,102.52705860296578L213.7495786972973,106.34409131852843L214.07052425160674,112.17401039282382L214.23099702876144,109.15094406074192L214.39146980591616,113.40001799609949L214.8728881373803,107.98725729232486L215.033360914535,110.37543706363961L215.3543064688444,117.68319675541275L215.51477924599914,112.2700442438183L215.67525202315383,110.3484491070972L215.83572480030855,111.91066875490007L216.15667035461794,109.04264720977571L216.63808868608209,108.39826954316496L216.7985614632368,108.99875888608106L216.9590342403915,108.97949597625426L217.11950701754623,111.90497876969621L217.27997979470095,111.29289893276776L217.44045257185564,118.77258623501695L217.60092534901034,113.28444053713865L217.7613981261651,110.80516252378322L217.92187090331979,108.99688756515073L218.08234368047448,110.47059373294799L218.2428164576292,114.78372532290265L218.4032892347839,114.39823905912814L218.56376201193865,108.33505983086442L218.72423478909334,108.84700060650746L219.04518034340273,104.67124151647431L219.20565312055749,116.38549416899295L219.36612589771218,119.31515819513868L219.5265986748669,118.0876476872408L221.131326446414,117.67047177308635L221.61274477787813,116.93154561646955L221.77321755503283,117.6954129723612L221.93369033218755,119.36691776249663L222.09416310934225,115.24842694081015L222.4151086636517,105.24052658287681L222.5755814408064,115.15098959911788L222.73605421796108,116.64482416267225L222.89652699511583,116.0908722321428L223.05699977227053,115.43520816117086L223.37794532657995,111.53926418112646L223.53841810373464,113.57592216355256L223.69889088088937,115.08509571085787L223.8593636580441,117.45390146266558L224.01983643519878,114.97441292570548L224.18030921235348,119.1370727692262L224.3407819895082,116.89854019356048L224.50125476666292,113.10571769253427L224.66172754381762,117.32582708861676L224.82220032097234,122.47055030850808L224.98267309812704,120.42138371523814L225.30361865243648,121.28782284962467L225.46409142959118,113.41572539615865L225.7850369839006,116.44588520414216L225.94550976105532,115.87422005143137L226.10598253821001,104.58683909463755L226.42692809251943,112.59953122875206L226.58740086967416,112.64066520195234L226.74787364682888,115.80461860857808L226.90834642398357,113.61326671186887L227.06881920113827,117.301827397685L227.229291978293,111.94679109673379L227.87118308691183,109.98540115085316L228.19212864122127,111.71825602811458L228.6735469726854,112.33362822030492L228.8340197498401,108.73484415612242L229.15496530414953,116.93867417963864L229.31543808130422,118.55485804477054L229.47591085845892,102.92484880185738L229.79685641276836,111.87384466771752L229.95732918992306,107.68009750524135L230.11780196707778,116.92645211481226L230.2782747442325,112.7986631672531L230.43874752138723,114.38382988796442L230.59922029854192,115.02131290652243L230.75969307569662,115.86686926890181L230.9201658528513,113.09663593814415L231.08063863000606,109.49175838518221L231.56205696147018,113.22579216960585L231.7225297386249,118.23274523387794L231.88300251577962,113.42316389685678L232.203948070089,111.4360198966722L232.3644208472437,113.10745451227275L232.52489362439846,104.92743119971736L232.68536640155315,108.78872065528283L232.84583917870788,116.16688879706045L233.32725751017202,114.718819726009L233.4877302873267,117.39176775990002L233.6482030644814,108.08515661637179L233.80867584163613,118.74920641914335L233.96914861879085,110.10517153827357L234.12962139594555,109.761597015461L234.29009417310027,108.51216281328848L234.61103972740966,116.12976062022668L234.7715125045644,112.73004416788828L234.9319852817191,114.53464665919496L235.0924580588738,112.31711381309455L235.25293083602853,108.07192286866743L235.41340361318325,108.10813877654765L235.57387639033794,104.8157425795649L235.73434916749267,105.90584550027378L236.2157674989568,105.94428360175881L236.3762402761115,99.66379723045802L236.69718583042092,98.91706415683493L237.33907693903976,94.06936050373575L237.49954971619445,95.16518264903803L237.8204952705039,95.92385708934793L237.9809680476586,97.88028803476314L238.46238637912273,93.37730508854636L238.78333193343215,87.06266126238874L238.94380471058685,88.81003642049413L239.1042774877416,78.23217849019893L239.425223042051,93.24025422190974L239.5856958192057,75.38316254827346L239.7461685963604,100.93050606396885L239.90664137351513,76.92858124284855L240.22758692782455,94.83054953154581L240.38805970497924,95.13793738586769L240.54853248213396,95.11816571066296L240.7090052592887,88.25521900403439L240.86947803644338,93.36009478386504L241.1904235907528,84.88033848916848L241.35089636790755,98.19723132158563L241.51136914506225,92.97512898122426L241.83231469937164,104.65461599958373L241.99278747652636,98.39126975842936L242.4742058079905,92.97428103892769L242.79515136229995,101.57474338150982L242.95562413945464,106.07283750179606L243.27656969376403,104.2286273334229L243.43704247091875,104.9913660488784L243.59751524807348,96.24319800611245L243.7579880252282,109.11372816573956L243.9184608023829,101.56511192659642L244.0789335795376,107.66719123869981L244.23940635669229,108.67590339469425L244.72082468815645,110.75363687154157L244.88129746531115,101.27905128300264L245.04177024246587,112.89886655519551L245.2022430196206,100.69598861625045L245.3627157967753,104.61448201350558L245.52318857392999,106.10548620415278L245.6836613510847,108.36646293522689L246.00460690539413,114.08583957343964L246.16507968254885,121.42877425082551L246.32555245970354,118.05505746366313L246.48602523685827,124.1770721915527L246.646498014013,113.86095942851254L246.80697079116769,116.07976711199674L247.28838912263183,118.36324647725834L247.60933467694124,120.02092688402078L247.76980745409594,111.97432875379948L247.93028023125063,123.69259889844048L248.0907530084054,120.34087013220974L248.25122578556008,121.55909420999077L248.41169856271478,121.48317705899755L248.5721713398695,127.0459124395841L248.73264411702422,127.49759668126981L248.89311689417892,124.42857772459197L249.05358967133364,123.64509658619907L249.53500800279778,132.49069904671833L249.69548077995248,127.94797977012115L250.17689911141662,132.23395089113515L250.3373718885713,124.29609989847889L250.65831744288073,135.78758641393395L250.81879022003542,130.91251469222837L250.97926299719018,126.73213285470948L251.30020855149957,128.0441481223075L251.4606813286543,121.947059973998L251.621154105809,128.12328160614973L251.94209966011843,127.80636755871677L252.10257243727312,133.566424959592L252.26304521442782,124.99728385108162L252.58399076873727,125.98852839576679L252.74446354589196,130.97927406641867L252.90493632304668,122.55544395208906L253.2258818773561,124.00040195209377L253.38635465451082,126.86214872422354L253.54682743166552,122.14912169933064L253.86777298597497,121.45489672143762L254.02824576312966,120.22857918063286L254.34919131743908,125.0940896219599L254.50966409459377,123.4507189724367L254.67013687174853,126.43778576812096L254.83060964890322,126.42918938759718L254.99108242605791,122.20499817273534L255.1515552032126,129.19779993223554L255.47250075752206,120.29919230636408L255.63297353467678,126.97362097289343L256.1143918661409,118.89207007641991L256.4353374204503,117.01570827531212L256.9167557519145,129.33590926477342L257.5586468605333,125.76965986932846L258.3610107463069,125.17963237998859L258.842429077771,124.23503050949242L259.0029018549257,125.95614284791591L259.1633746320804,126.20609284543181L259.3238474092351,125.85589267695022L259.4843201863898,124.29448588417645L259.6447929635445,120.27535050813582L259.96573851785394,124.69469710452168L260.12621129500866,125.6978362328704L260.44715684931805,128.2665663106356L260.60762962647283,128.0652735812478L260.9285751807822,124.44154831779045L261.0890479579369,132.26756741728553L261.24952073509166,125.04958142320706L261.40999351224633,127.20329637770456L261.7309390665558,127.3896097678327L261.89141184371044,124.81759025874462L262.0518846208652,130.54534982993758L262.2123573980199,133.3669304526607L262.3728301751746,129.61755476054714L262.5333029523293,130.99754283700122L262.69377572948406,130.92172509993244L262.8542485066387,129.23590178074087L263.01472128379345,129.86821527522878L263.33566683810284,123.51933797180155L263.6566123924123,129.89698098665505L263.817085169567,125.40248915915973L264.1380307238764,128.1132671152334L264.61944905534057,123.66303787561881L264.94039460965,124.62016590059253L265.5822857182688,126.7221212877321L265.7427584954235,126.09138087240125L265.90323127257824,115.20931633336579L266.06370404973296,121.04814172571407L266.5451223811971,124.28383689850718L266.7055951583518,126.54704751894187L266.8660679355065,120.76941432101611L267.34748626697063,124.85184127964797L267.50795904412536,130.14403336066783L267.8289045984348,125.43771677567362L267.98937737558947,126.1268248603977L268.1498501527442,121.75995127247447L268.6312684842083,121.71582903366354L268.79174126136303,121.25015082014554L269.27315959282714,123.71911317687241L269.43363236998186,128.72021836323714L269.5941051471366,128.84378402341943L269.7545779242913,126.35831310736009L269.915050701446,132.3136574670123L270.0755234786007,123.14751235081857L270.2359962557554,122.60053693863262L270.5569418100648,122.03401207060237L270.71741458721954,127.433141370975L270.87788736437426,128.08447508835656L271.038360141529,124.80995877807553L271.1988329186837,125.50069257285784L271.3593056958384,129.6305282776846L271.51977847299315,130.92619287865367L271.6802512501478,130.0819669084982L271.84072402730254,121.66660744531738L272.4826151359214,130.97233848322054L272.80356069023077,130.32042290198723" fill="none"></path></g></g></g></g></g></g><g transform="translate(41, 176)" clip-path="url(#clip_1)"><clipPath id="clip_1"><rect width="288" height="23"></rect></clipPath><g><g><line x1="0" y1="0" x2="0" y2="5" style="visibility: inherit;" fill="rgb(0, 0, 0)" stroke="rgb(204, 204, 204)" stroke-width="1px"></line><line x1="32.09455543094211" y1="0" x2="32.09455543094211" y2="5" style="visibility: inherit;" fill="rgb(0, 0, 0)" stroke="rgb(204, 204, 204)" stroke-width="1px"></line><line x1="64.18911086188422" y1="0" x2="64.18911086188422" y2="5" style="visibility: inherit;" fill="rgb(0, 0, 0)" stroke="rgb(204, 204, 204)" stroke-width="1px"></line><line x1="96.28366629282633" y1="0" x2="96.28366629282633" y2="5" style="visibility: inherit;" fill="rgb(0, 0, 0)" stroke="rgb(204, 204, 204)" stroke-width="1px"></line><line x1="128.37822172376843" y1="0" x2="128.37822172376843" y2="5" style="visibility: inherit;" fill="rgb(0, 0, 0)" stroke="rgb(204, 204, 204)" stroke-width="1px"></line><line x1="160.47277715471057" y1="0" x2="160.47277715471057" y2="5" style="visibility: inherit;" fill="rgb(0, 0, 0)" stroke="rgb(204, 204, 204)" stroke-width="1px"></line><line x1="192.56733258565265" y1="0" x2="192.56733258565265" y2="5" style="visibility: inherit;" fill="rgb(0, 0, 0)" stroke="rgb(204, 204, 204)" stroke-width="1px"></line><line x1="224.6618880165948" y1="0" x2="224.6618880165948" y2="5" style="visibility: inherit;" fill="rgb(0, 0, 0)" stroke="rgb(204, 204, 204)" stroke-width="1px"></line><line x1="256.75644344753687" y1="0" x2="256.75644344753687" y2="5" style="visibility: inherit;" fill="rgb(0, 0, 0)" stroke="rgb(204, 204, 204)" stroke-width="1px"></line><line x1="288.850998878479" y1="0" x2="288.850998878479" y2="5" style="visibility: inherit;" fill="rgb(0, 0, 0)" stroke="rgb(204, 204, 204)" stroke-width="1px"></line></g><g transform="translate(0, 8)"><text style="text-anchor: middle; visibility: hidden; font-family: Roboto, sans-serif; font-size: 12px; font-weight: 200;" x="0" y="0" dx="0em" dy="0.95em" fill="rgb(33, 33, 33)" stroke="none" stroke-width="1px">-200k</text><text style="text-anchor: middle; visibility: inherit; font-family: Roboto, sans-serif; font-size: 12px; font-weight: 200;" x="32.09455543094211" y="0" dx="0em" dy="0.95em" fill="rgb(33, 33, 33)" stroke="none" stroke-width="1px">0</text><text style="text-anchor: middle; visibility: hidden; font-family: Roboto, sans-serif; font-size: 12px; font-weight: 200;" x="64.18911086188422" y="0" dx="0em" dy="0.95em" fill="rgb(33, 33, 33)" stroke="none" stroke-width="1px">200k</text><text style="text-anchor: middle; visibility: inherit; font-family: Roboto, sans-serif; font-size: 12px; font-weight: 200;" x="96.28366629282633" y="0" dx="0em" dy="0.95em" fill="rgb(33, 33, 33)" stroke="none" stroke-width="1px">400k</text><text style="text-anchor: middle; visibility: hidden; font-family: Roboto, sans-serif; font-size: 12px; font-weight: 200;" x="128.37822172376843" y="0" dx="0em" dy="0.95em" fill="rgb(33, 33, 33)" stroke="none" stroke-width="1px">600k</text><text style="text-anchor: middle; visibility: inherit; font-family: Roboto, sans-serif; font-size: 12px; font-weight: 200;" x="160.47277715471057" y="0" dx="0em" dy="0.95em" fill="rgb(33, 33, 33)" stroke="none" stroke-width="1px">800k</text><text style="text-anchor: middle; visibility: hidden; font-family: Roboto, sans-serif; font-size: 12px; font-weight: 200;" x="192.56733258565265" y="0" dx="0em" dy="0.95em" fill="rgb(33, 33, 33)" stroke="none" stroke-width="1px">1M</text><text style="text-anchor: middle; visibility: inherit; font-family: Roboto, sans-serif; font-size: 12px; font-weight: 200;" x="224.6618880165948" y="0" dx="0em" dy="0.95em" fill="rgb(33, 33, 33)" stroke="none" stroke-width="1px">1.2M</text><text style="text-anchor: middle; visibility: hidden; font-family: Roboto, sans-serif; font-size: 12px; font-weight: 200;" x="256.75644344753687" y="0" dx="0em" dy="0.95em" fill="rgb(33, 33, 33)" stroke="none" stroke-width="1px">1.4M</text><text style="text-anchor: middle; visibility: hidden; font-family: Roboto, sans-serif; font-size: 12px; font-weight: 200;" x="288.850998878479" y="0" dx="0em" dy="0.95em" fill="rgb(33, 33, 33)" stroke="none" stroke-width="1px">1.6M</text></g><line x1="0" y1="0" x2="288.850998878479" y2="0" fill="rgb(0, 0, 0)" stroke="rgb(204, 204, 204)" stroke-width="1px"></line></g></g></g></g></svg>