<svg viewBox="0 0 330 200" xmlns="http://www.w3.org/2000/svg"><g><g><g><g><g><line x1="41.149001121520996" y1="176.5999994277954" x2="36.149001121520996" y2="176.5999994277954" style="visibility: inherit;" fill="rgb(0, 0, 0)" stroke="rgb(204, 204, 204)" stroke-width="1px"></line><line x1="41.149001121520996" y1="160.54545402526855" x2="36.149001121520996" y2="160.54545402526855" style="visibility: inherit;" fill="rgb(0, 0, 0)" stroke="rgb(204, 204, 204)" stroke-width="1px"></line><line x1="41.149001121520996" y1="144.4909086227417" x2="36.149001121520996" y2="144.4909086227417" style="visibility: inherit;" fill="rgb(0, 0, 0)" stroke="rgb(204, 204, 204)" stroke-width="1px"></line><line x1="41.149001121520996" y1="128.43636322021484" x2="36.149001121520996" y2="128.43636322021484" style="visibility: inherit;" fill="rgb(0, 0, 0)" stroke="rgb(204, 204, 204)" stroke-width="1px"></line><line x1="41.149001121520996" y1="112.38181781768799" x2="36.149001121520996" y2="112.38181781768799" style="visibility: inherit;" fill="rgb(0, 0, 0)" stroke="rgb(204, 204, 204)" stroke-width="1px"></line><line x1="41.149001121520996" y1="96.32727241516112" x2="36.149001121520996" y2="96.32727241516112" style="visibility: inherit;" fill="rgb(0, 0, 0)" stroke="rgb(204, 204, 204)" stroke-width="1px"></line><line x1="41.149001121520996" y1="80.27272701263429" x2="36.149001121520996" y2="80.27272701263429" style="visibility: inherit;" fill="rgb(0, 0, 0)" stroke="rgb(204, 204, 204)" stroke-width="1px"></line><line x1="41.149001121520996" y1="64.21818161010745" x2="36.149001121520996" y2="64.21818161010745" style="visibility: inherit;" fill="rgb(0, 0, 0)" stroke="rgb(204, 204, 204)" stroke-width="1px"></line><line x1="41.149001121520996" y1="48.16363620758056" x2="36.149001121520996" y2="48.16363620758056" style="visibility: inherit;" fill="rgb(0, 0, 0)" stroke="rgb(204, 204, 204)" stroke-width="1px"></line><line x1="41.149001121520996" y1="32.109090805053725" x2="36.149001121520996" y2="32.109090805053725" style="visibility: inherit;" fill="rgb(0, 0, 0)" stroke="rgb(204, 204, 204)" stroke-width="1px"></line><line x1="41.149001121520996" y1="16.054545402526863" x2="36.149001121520996" y2="16.054545402526863" style="visibility: inherit;" fill="rgb(0, 0, 0)" stroke="rgb(204, 204, 204)" stroke-width="1px"></line><line x1="41.149001121520996" y1="0" x2="36.149001121520996" y2="0" style="visibility: inherit;" fill="rgb(0, 0, 0)" stroke="rgb(204, 204, 204)" stroke-width="1px"></line></g><g transform="translate(31.149001121520996, 0)"><text style="text-anchor: end; visibility: hidden; font-family: Roboto, sans-serif; font-size: 12px; font-weight: 200;" x="0" y="176.5999994277954" dx="0em" dy="0.3em" fill="rgb(33, 33, 33)" stroke="none" stroke-width="1px">0</text><text style="text-anchor: end; visibility: inherit; font-family: Roboto, sans-serif; font-size: 12px; font-weight: 200;" x="0" y="160.54545402526855" dx="0em" dy="0.3em" fill="rgb(33, 33, 33)" stroke="none" stroke-width="1px">0.1</text><text style="text-anchor: end; visibility: hidden; font-family: Roboto, sans-serif; font-size: 12px; font-weight: 200;" x="0" y="144.4909086227417" dx="0em" dy="0.3em" fill="rgb(33, 33, 33)" stroke="none" stroke-width="1px">0.2</text><text style="text-anchor: end; visibility: inherit; font-family: Roboto, sans-serif; font-size: 12px; font-weight: 200;" x="0" y="128.43636322021484" dx="0em" dy="0.3em" fill="rgb(33, 33, 33)" stroke="none" stroke-width="1px">0.3</text><text style="text-anchor: end; visibility: hidden; font-family: Roboto, sans-serif; font-size: 12px; font-weight: 200;" x="0" y="112.38181781768799" dx="0em" dy="0.3em" fill="rgb(33, 33, 33)" stroke="none" stroke-width="1px">0.4</text><text style="text-anchor: end; visibility: inherit; font-family: Roboto, sans-serif; font-size: 12px; font-weight: 200;" x="0" y="96.32727241516112" dx="0em" dy="0.3em" fill="rgb(33, 33, 33)" stroke="none" stroke-width="1px">0.5</text><text style="text-anchor: end; visibility: hidden; font-family: Roboto, sans-serif; font-size: 12px; font-weight: 200;" x="0" y="80.27272701263429" dx="0em" dy="0.3em" fill="rgb(33, 33, 33)" stroke="none" stroke-width="1px">0.6</text><text style="text-anchor: end; visibility: inherit; font-family: Roboto, sans-serif; font-size: 12px; font-weight: 200;" x="0" y="64.21818161010745" dx="0em" dy="0.3em" fill="rgb(33, 33, 33)" stroke="none" stroke-width="1px">0.7</text><text style="text-anchor: end; visibility: hidden; font-family: Roboto, sans-serif; font-size: 12px; font-weight: 200;" x="0" y="48.16363620758056" dx="0em" dy="0.3em" fill="rgb(33, 33, 33)" stroke="none" stroke-width="1px">0.8</text><text style="text-anchor: end; visibility: inherit; font-family: Roboto, sans-serif; font-size: 12px; font-weight: 200;" x="0" y="32.109090805053725" dx="0em" dy="0.3em" fill="rgb(33, 33, 33)" stroke="none" stroke-width="1px">0.9</text><text style="text-anchor: end; visibility: hidden; font-family: Roboto, sans-serif; font-size: 12px; font-weight: 200;" x="0" y="16.054545402526863" dx="0em" dy="0.3em" fill="rgb(33, 33, 33)" stroke="none" stroke-width="1px">1</text><text style="text-anchor: end; visibility: hidden; font-family: Roboto, sans-serif; font-size: 12px; font-weight: 200;" x="0" y="0" dx="0em" dy="0.3em" fill="rgb(33, 33, 33)" stroke="none" stroke-width="1px">1.1</text></g><line x1="41.149001121520996" y1="0" x2="41.149001121520996" y2="176.5999994277954" fill="rgb(0, 0, 0)" stroke="rgb(204, 204, 204)" stroke-width="1px"></line></g></g><g transform="translate(41, 0)" clip-path="url(#clip_0)"><clipPath id="clip_0"><rect width="288" height="176"></rect></clipPath><g><g><g><line x1="0" y1="0" x2="0" y2="176.5999994277954" fill="rgb(0, 0, 0)" stroke="rgb(66, 66, 66)" stroke-width="1px" opacity="0.25"></line><line x1="24.07091657320658" y1="0" x2="24.07091657320658" y2="176.5999994277954" fill="rgb(0, 0, 0)" stroke="rgb(66, 66, 66)" stroke-width="1px" opacity="0.25"></line><line x1="48.14183314641316" y1="0" x2="48.14183314641316" y2="176.5999994277954" fill="rgb(0, 0, 0)" stroke="rgb(66, 66, 66)" stroke-width="1px" opacity="0.25"></line><line x1="72.21274971961975" y1="0" x2="72.21274971961975" y2="176.5999994277954" fill="rgb(0, 0, 0)" stroke="rgb(66, 66, 66)" stroke-width="1px" opacity="0.25"></line><line x1="96.28366629282633" y1="0" x2="96.28366629282633" y2="176.5999994277954" fill="rgb(0, 0, 0)" stroke="rgb(66, 66, 66)" stroke-width="1px" opacity="0.25"></line><line x1="120.35458286603293" y1="0" x2="120.35458286603293" y2="176.5999994277954" fill="rgb(0, 0, 0)" stroke="rgb(66, 66, 66)" stroke-width="1px" opacity="0.25"></line><line x1="144.4254994392395" y1="0" x2="144.4254994392395" y2="176.5999994277954" fill="rgb(0, 0, 0)" stroke="rgb(66, 66, 66)" stroke-width="1px" opacity="0.25"></line><line x1="168.4964160124461" y1="0" x2="168.4964160124461" y2="176.5999994277954" fill="rgb(0, 0, 0)" stroke="rgb(66, 66, 66)" stroke-width="1px" opacity="0.25"></line><line x1="192.56733258565265" y1="0" x2="192.56733258565265" y2="176.5999994277954" fill="rgb(0, 0, 0)" stroke="rgb(66, 66, 66)" stroke-width="1px" opacity="0.25"></line><line x1="216.63824915885925" y1="0" x2="216.63824915885925" y2="176.5999994277954" fill="rgb(0, 0, 0)" stroke="rgb(66, 66, 66)" stroke-width="1px" opacity="0.25"></line><line x1="240.70916573206586" y1="0" x2="240.70916573206586" y2="176.5999994277954" fill="rgb(0, 0, 0)" stroke="rgb(66, 66, 66)" stroke-width="1px" opacity="0.25"></line><line x1="264.7800823052724" y1="0" x2="264.7800823052724" y2="176.5999994277954" fill="rgb(0, 0, 0)" stroke="rgb(66, 66, 66)" stroke-width="1px" opacity="0.25"></line><line x1="288.850998878479" y1="0" x2="288.850998878479" y2="176.5999994277954" fill="rgb(0, 0, 0)" stroke="rgb(66, 66, 66)" stroke-width="1px" opacity="0.25"></line></g><g><line x1="0" y1="176.5999994277954" x2="288.850998878479" y2="176.5999994277954" fill="rgb(0, 0, 0)" stroke="rgb(66, 66, 66)" stroke-width="1px" opacity="0.25"></line><line x1="0" y1="160.54545402526855" x2="288.850998878479" y2="160.54545402526855" fill="rgb(0, 0, 0)" stroke="rgb(66, 66, 66)" stroke-width="1px" opacity="0.25"></line><line x1="0" y1="144.4909086227417" x2="288.850998878479" y2="144.4909086227417" fill="rgb(0, 0, 0)" stroke="rgb(66, 66, 66)" stroke-width="1px" opacity="0.25"></line><line x1="0" y1="128.43636322021484" x2="288.850998878479" y2="128.43636322021484" fill="rgb(0, 0, 0)" stroke="rgb(66, 66, 66)" stroke-width="1px" opacity="0.25"></line><line x1="0" y1="112.38181781768799" x2="288.850998878479" y2="112.38181781768799" fill="rgb(0, 0, 0)" stroke="rgb(66, 66, 66)" stroke-width="1px" opacity="0.25"></line><line x1="0" y1="96.32727241516112" x2="288.850998878479" y2="96.32727241516112" fill="rgb(0, 0, 0)" stroke="rgb(66, 66, 66)" stroke-width="1px" opacity="0.25"></line><line x1="0" y1="80.27272701263429" x2="288.850998878479" y2="80.27272701263429" fill="rgb(0, 0, 0)" stroke="rgb(66, 66, 66)" stroke-width="1px" opacity="0.25"></line><line x1="0" y1="64.21818161010745" x2="288.850998878479" y2="64.21818161010745" fill="rgb(0, 0, 0)" stroke="rgb(66, 66, 66)" stroke-width="1px" opacity="0.25"></line><line x1="0" y1="48.16363620758056" x2="288.850998878479" y2="48.16363620758056" fill="rgb(0, 0, 0)" stroke="rgb(66, 66, 66)" stroke-width="1px" opacity="0.25"></line><line x1="0" y1="32.109090805053725" x2="288.850998878479" y2="32.109090805053725" fill="rgb(0, 0, 0)" stroke="rgb(66, 66, 66)" stroke-width="1px" opacity="0.25"></line><line x1="0" y1="16.054545402526863" x2="288.850998878479" y2="16.054545402526863" fill="rgb(0, 0, 0)" stroke="rgb(66, 66, 66)" stroke-width="1px" opacity="0.25"></line><line x1="0" y1="0" x2="288.850998878479" y2="0" fill="rgb(0, 0, 0)" stroke="rgb(66, 66, 66)" stroke-width="1px" opacity="0.25"></line></g></g></g><g><g><line x1="0" y1="176.5999994277954" x2="288.850998878479" y2="176.5999994277954" fill="rgb(0, 0, 0)" stroke="rgb(153, 153, 153)" stroke-width="1.5px"></line></g></g><g><g><line x1="24.07091657320658" y1="0" x2="24.07091657320658" y2="176.5999994277954" fill="rgb(0, 0, 0)" stroke="rgb(153, 153, 153)" stroke-width="1.5px"></line></g></g><g><g><g><g><g><path style="fill: none;" stroke="rgb(0, 119, 187)" stroke-width="2px" d="M28.880285704533257,140.39976944244094L33.694469019174576,122.6217142310362L38.508652333815895,117.49303074671553L43.32283564845721,117.26235812471782L48.13701896309853,118.68899682939221L52.95120227773984,123.1335269713122L57.765385592381165,129.38763733548492L62.57956890702248,134.771877189662L67.39375222166379,139.01163749593545L72.20793553630511,142.8122448501824L77.02211885094643,145.86649251090205L81.83630216558774,148.77339185290785L86.65048548022905,151.16094339866433L91.46466879487038,152.75222282474968L96.27885210951169,154.41999476584706L101.093035424153,155.84322381796756L105.90721873879431,157.13771301913937L110.72140205343565,158.28811070281617L115.53558536807697,159.3167788042999L120.34976868271828,160.2941307588188L125.1639519973596,160.96520090227276L129.97813531200092,161.4370376294703L134.79231862664224,161.91538177992038L139.60650194128354,162.833653182352L144.42068525592487,163.2353137062472L149.2348685705662,163.70501365567378L154.0490518852075,164.34479885723223L158.86323519984882,164.92186461336726L163.6774185144901,165.28930645160023L168.49160182913147,165.7603850187141L173.30578514377277,166.04506265227667L178.1199684584141,166.32141579189255L182.9341517730554,166.38232851526436L187.74833508769672,166.71557846356708L192.56251840233801,166.8081046002772L197.37670171697934,167.18620161774368L202.19088503162064,167.1939275236279L207.005068346262,167.3559497288557L211.8192516609033,167.5839745292145L216.63343497554462,167.72727639283858L221.44761829018594,167.9823399398827L226.26180160482724,167.95787647754386L231.07598491946857,168.13044289621L235.89016823410986,168.2727176963432L240.70435154875122,168.3854793325507L245.51853486339252,168.36711439258488L250.33271817803384,168.3683896568804L255.14690149267514,168.36614523145477L259.96108480731647,168.4922894589075L264.77526812195777,168.72763017509777" fill="none"></path></g><g><path style="fill: none;" stroke="rgb(204, 51, 17)" stroke-width="2px" d="M28.880285704533257,160.99336428578425L33.694469019174576,150.57111346906993L38.508652333815895,145.32597300407966L43.32283564845721,140.54862580660992L48.13701896309853,137.06839881214262L52.95120227773984,134.38158756233176L57.765385592381165,131.35024497389412L62.57956890702248,128.22339202465778L67.39375222166379,123.64601488970762L72.20793553630511,120.00131949202944L77.02211885094643,115.78057500330397L81.83630216558774,110.23382322531359L86.65048548022905,106.15299639267667L91.46466879487038,100.63991028437404L96.27885210951169,95.97805978894145L101.093035424153,91.39673794898837L105.90721873879431,86.81802219171651L110.72140205343565,83.17896726669672L115.53558536807697,79.72312214291397L120.34976868271828,76.21365866047431L125.1639519973596,72.6658804061629L129.97813531200092,69.33301753528384L134.79231862664224,65.97173381020501L139.60650194128354,63.647368215958004L144.42068525592487,60.142453265659945L149.2348685705662,57.65591611592658L154.0490518852075,55.2406485827869L158.86323519984882,53.133245258849946L163.6774185144901,50.458660482090636L168.49160182913147,47.51325821078299L173.30578514377277,45.56079693233005L178.1199684584141,43.88146316947902L182.9341517730554,42.09981836938501L187.74833508769672,39.97076607114394L192.56251840233801,36.78794991976856L197.37670171697934,35.72767370258319L202.19088503162064,34.168631832915544L207.005068346262,33.45729629788184L211.8192516609033,32.17786212541501L216.63343497554462,31.12250041757099L221.44761829018594,30.0850262730951L226.26180160482724,27.1844108717441L231.07598491946857,25.861758138262353L235.89016823410986,24.28981350599535L240.70435154875122,23.62503024156968L245.51853486339252,21.841978912506963L250.33271817803384,19.827402113120474L255.14690149267514,19.633123529153565L259.96108480731647,16.25507378822281L264.77526812195777,15.64594473551017" fill="none"></path></g></g></g></g><g opacity="0.2"><g><g><g><path style="fill: none;" stroke="rgb(0, 119, 187)" stroke-width="2px" d="M28.880285704533257,140.39976944244094L33.694469019174576,108.39927006191239L38.508652333815895,110.1077265292938L43.32283564845721,116.81208516657824L48.13701896309853,122.05814679435129L52.95120227773984,135.08611299137476L57.765385592381165,147.84616876295308L62.57956890702248,151.79220885490344L67.39375222166379,153.12542374316612L72.20793553630511,155.9742387307417L77.02211885094643,156.77169377211314L81.83630216558774,159.4021862123968L86.65048548022905,160.05486441007176L91.46466879487038,158.76741448268672L96.27885210951169,160.7976849875622L101.093035424153,161.3358383442997L105.90721873879431,162.1699232967259L110.72140205343565,162.78608282593268L115.53558536807697,163.35732786177834L120.34976868271828,164.14719807259763L125.1639519973596,163.61853382810907L129.97813531200092,163.30697683555817L134.79231862664224,163.81464015432462L139.60650194128354,166.48505672161335L144.42068525592487,164.83436864904596L149.2348685705662,165.5767155484259L154.0490518852075,166.89620513497425L158.86323519984882,167.22454660036976L163.6774185144901,166.75623086100921L168.49160182913147,167.64178345207014L173.30578514377277,167.18236353116353L178.1199684584141,167.42573360278314L182.9341517730554,166.6257863686258L187.74833508769672,168.04773336778405L192.56251840233801,167.17802148181732L197.37670171697934,168.69797619012326L202.19088503162064,167.2248211183656L207.005068346262,168.00387029628948L211.8192516609033,168.4958842950569L216.63343497554462,168.30038860691053L221.44761829018594,169.00245851301625L226.26180160482724,167.8600330337945L231.07598491946857,168.8206498495652L235.89016823410986,168.8417781659913L240.70435154875122,168.83650132007097L245.51853486339252,168.2936578323455L250.33271817803384,168.3734905363166L255.14690149267514,168.35716778001404L259.96108480731647,168.99685511627732L264.77526812195777,169.66897624538424" fill="none"></path></g><g><path style="fill: none;" stroke="rgb(204, 51, 17)" stroke-width="2px" d="M28.880285704533257,160.99336428578425L33.694469019174576,142.23331281569847L38.508652333815895,137.77297073449367L43.32283564845721,131.22324407714905L48.13701896309853,128.84949474200857L52.95120227773984,127.15599980444047L57.765385592381165,122.40346770615709L62.57956890702248,118.33897459419126L67.39375222166379,108.40833214616772L72.20793553630511,107.37926884343047L77.02211885094643,100.71039300278677L81.83630216558774,89.9526655121921L86.65048548022905,90.95141820048502L91.46466879487038,79.7999063073653L96.27885210951169,78.15077921948023L101.093035424153,73.7162143182784L105.90721873879431,69.01867672708626L110.72140205343565,68.95052449470349L115.53558536807697,66.14876153277045L120.34976868271828,62.37811152664257L125.1639519973596,58.63837978263609L129.97813531200092,56.12452698859137L134.79231862664224,52.625806494906804L139.60650194128354,54.404788369850856L144.42068525592487,46.18899943601412L149.2348685705662,47.747343004014986L154.0490518852075,45.60877724304908L158.86323519984882,44.72401351742726L163.6774185144901,39.78101497245098L168.49160182913147,35.74988028256975L173.30578514377277,37.76061993848521L178.1199684584141,37.17078064448891L182.9341517730554,34.97888542675959L187.74833508769672,31.459954667027223L192.56251840233801,24.063140832354655L197.37670171697934,31.488289230364124L202.19088503162064,27.93448810629549L207.005068346262,30.612692850799938L211.8192516609033,27.06118834787312L216.63343497554462,26.90175499435873L221.44761829018594,25.935681311062588L226.26180160482724,15.583183051682914L231.07598491946857,20.57159727973818L235.89016823410986,18.002462900959493L240.70435154875122,20.966041960841498L245.51853486339252,14.710084247610459L250.33271817803384,11.769375706598803L255.14690149267514,18.856030856071946L259.96108480731647,2.74317615660585L264.77526812195777,13.209471993561484" fill="none"></path></g></g></g></g></g></g><g transform="translate(41, 176)" clip-path="url(#clip_1)"><clipPath id="clip_1"><rect width="288" height="23"></rect></clipPath><g><g><line x1="0" y1="0" x2="0" y2="5" style="visibility: inherit;" fill="rgb(0, 0, 0)" stroke="rgb(204, 204, 204)" stroke-width="1px"></line><line x1="24.07091657320658" y1="0" x2="24.07091657320658" y2="5" style="visibility: inherit;" fill="rgb(0, 0, 0)" stroke="rgb(204, 204, 204)" stroke-width="1px"></line><line x1="48.14183314641316" y1="0" x2="48.14183314641316" y2="5" style="visibility: inherit;" fill="rgb(0, 0, 0)" stroke="rgb(204, 204, 204)" stroke-width="1px"></line><line x1="72.21274971961975" y1="0" x2="72.21274971961975" y2="5" style="visibility: inherit;" fill="rgb(0, 0, 0)" stroke="rgb(204, 204, 204)" stroke-width="1px"></line><line x1="96.28366629282633" y1="0" x2="96.28366629282633" y2="5" style="visibility: inherit;" fill="rgb(0, 0, 0)" stroke="rgb(204, 204, 204)" stroke-width="1px"></line><line x1="120.35458286603293" y1="0" x2="120.35458286603293" y2="5" style="visibility: inherit;" fill="rgb(0, 0, 0)" stroke="rgb(204, 204, 204)" stroke-width="1px"></line><line x1="144.4254994392395" y1="0" x2="144.4254994392395" y2="5" style="visibility: inherit;" fill="rgb(0, 0, 0)" stroke="rgb(204, 204, 204)" stroke-width="1px"></line><line x1="168.4964160124461" y1="0" x2="168.4964160124461" y2="5" style="visibility: inherit;" fill="rgb(0, 0, 0)" stroke="rgb(204, 204, 204)" stroke-width="1px"></line><line x1="192.56733258565265" y1="0" x2="192.56733258565265" y2="5" style="visibility: inherit;" fill="rgb(0, 0, 0)" stroke="rgb(204, 204, 204)" stroke-width="1px"></line><line x1="216.63824915885925" y1="0" x2="216.63824915885925" y2="5" style="visibility: inherit;" fill="rgb(0, 0, 0)" stroke="rgb(204, 204, 204)" stroke-width="1px"></line><line x1="240.70916573206586" y1="0" x2="240.70916573206586" y2="5" style="visibility: inherit;" fill="rgb(0, 0, 0)" stroke="rgb(204, 204, 204)" stroke-width="1px"></line><line x1="264.7800823052724" y1="0" x2="264.7800823052724" y2="5" style="visibility: inherit;" fill="rgb(0, 0, 0)" stroke="rgb(204, 204, 204)" stroke-width="1px"></line><line x1="288.850998878479" y1="0" x2="288.850998878479" y2="5" style="visibility: inherit;" fill="rgb(0, 0, 0)" stroke="rgb(204, 204, 204)" stroke-width="1px"></line></g><g transform="translate(0, 8)"><text style="text-anchor: middle; visibility: hidden; font-family: Roboto, sans-serif; font-size: 12px; font-weight: 200;" x="0" y="0" dx="0em" dy="0.95em" fill="rgb(33, 33, 33)" stroke="none" stroke-width="1px">-5k</text><text style="text-anchor: middle; visibility: inherit; font-family: Roboto, sans-serif; font-size: 12px; font-weight: 200;" x="24.07091657320658" y="0" dx="0em" dy="0.95em" fill="rgb(33, 33, 33)" stroke="none" stroke-width="1px">0</text><text style="text-anchor: middle; visibility: hidden; font-family: Roboto, sans-serif; font-size: 12px; font-weight: 200;" x="48.14183314641316" y="0" dx="0em" dy="0.95em" fill="rgb(33, 33, 33)" stroke="none" stroke-width="1px">5k</text><text style="text-anchor: middle; visibility: inherit; font-family: Roboto, sans-serif; font-size: 12px; font-weight: 200;" x="72.21274971961975" y="0" dx="0em" dy="0.95em" fill="rgb(33, 33, 33)" stroke="none" stroke-width="1px">10k</text><text style="text-anchor: middle; visibility: hidden; font-family: Roboto, sans-serif; font-size: 12px; font-weight: 200;" x="96.28366629282633" y="0" dx="0em" dy="0.95em" fill="rgb(33, 33, 33)" stroke="none" stroke-width="1px">15k</text><text style="text-anchor: middle; visibility: inherit; font-family: Roboto, sans-serif; font-size: 12px; font-weight: 200;" x="120.35458286603293" y="0" dx="0em" dy="0.95em" fill="rgb(33, 33, 33)" stroke="none" stroke-width="1px">20k</text><text style="text-anchor: middle; visibility: hidden; font-family: Roboto, sans-serif; font-size: 12px; font-weight: 200;" x="144.4254994392395" y="0" dx="0em" dy="0.95em" fill="rgb(33, 33, 33)" stroke="none" stroke-width="1px">25k</text><text style="text-anchor: middle; visibility: inherit; font-family: Roboto, sans-serif; font-size: 12px; font-weight: 200;" x="168.4964160124461" y="0" dx="0em" dy="0.95em" fill="rgb(33, 33, 33)" stroke="none" stroke-width="1px">30k</text><text style="text-anchor: middle; visibility: hidden; font-family: Roboto, sans-serif; font-size: 12px; font-weight: 200;" x="192.56733258565265" y="0" dx="0em" dy="0.95em" fill="rgb(33, 33, 33)" stroke="none" stroke-width="1px">35k</text><text style="text-anchor: middle; visibility: inherit; font-family: Roboto, sans-serif; font-size: 12px; font-weight: 200;" x="216.63824915885925" y="0" dx="0em" dy="0.95em" fill="rgb(33, 33, 33)" stroke="none" stroke-width="1px">40k</text><text style="text-anchor: middle; visibility: hidden; font-family: Roboto, sans-serif; font-size: 12px; font-weight: 200;" x="240.70916573206586" y="0" dx="0em" dy="0.95em" fill="rgb(33, 33, 33)" stroke="none" stroke-width="1px">45k</text><text style="text-anchor: middle; visibility: inherit; font-family: Roboto, sans-serif; font-size: 12px; font-weight: 200;" x="264.7800823052724" y="0" dx="0em" dy="0.95em" fill="rgb(33, 33, 33)" stroke="none" stroke-width="1px">50k</text><text style="text-anchor: middle; visibility: hidden; font-family: Roboto, sans-serif; font-size: 12px; font-weight: 200;" x="288.850998878479" y="0" dx="0em" dy="0.95em" fill="rgb(33, 33, 33)" stroke="none" stroke-width="1px">55k</text></g><line x1="0" y1="0" x2="288.850998878479" y2="0" fill="rgb(0, 0, 0)" stroke="rgb(204, 204, 204)" stroke-width="1px"></line></g></g></g></g></svg>