<svg viewBox="0 0 330 200" xmlns="http://www.w3.org/2000/svg"><g><g><g><g><g><line x1="30.766000747680664" y1="176.5999994277954" x2="25.766000747680664" y2="176.5999994277954" style="visibility: inherit;" fill="rgb(0, 0, 0)" stroke="rgb(204, 204, 204)" stroke-width="1px"></line><line x1="30.766000747680664" y1="163.98571375438146" x2="25.766000747680664" y2="163.98571375438146" style="visibility: inherit;" fill="rgb(0, 0, 0)" stroke="rgb(204, 204, 204)" stroke-width="1px"></line><line x1="30.766000747680664" y1="151.37142808096752" x2="25.766000747680664" y2="151.37142808096752" style="visibility: inherit;" fill="rgb(0, 0, 0)" stroke="rgb(204, 204, 204)" stroke-width="1px"></line><line x1="30.766000747680664" y1="138.75714240755354" x2="25.766000747680664" y2="138.75714240755354" style="visibility: inherit;" fill="rgb(0, 0, 0)" stroke="rgb(204, 204, 204)" stroke-width="1px"></line><line x1="30.766000747680664" y1="126.14285673413958" x2="25.766000747680664" y2="126.14285673413958" style="visibility: inherit;" fill="rgb(0, 0, 0)" stroke="rgb(204, 204, 204)" stroke-width="1px"></line><line x1="30.766000747680664" y1="113.52857106072561" x2="25.766000747680664" y2="113.52857106072561" style="visibility: inherit;" fill="rgb(0, 0, 0)" stroke="rgb(204, 204, 204)" stroke-width="1px"></line><line x1="30.766000747680664" y1="100.91428538731165" x2="25.766000747680664" y2="100.91428538731165" style="visibility: inherit;" fill="rgb(0, 0, 0)" stroke="rgb(204, 204, 204)" stroke-width="1px"></line><line x1="30.766000747680664" y1="88.2999997138977" x2="25.766000747680664" y2="88.2999997138977" style="visibility: inherit;" fill="rgb(0, 0, 0)" stroke="rgb(204, 204, 204)" stroke-width="1px"></line><line x1="30.766000747680664" y1="75.68571404048376" x2="25.766000747680664" y2="75.68571404048376" style="visibility: inherit;" fill="rgb(0, 0, 0)" stroke="rgb(204, 204, 204)" stroke-width="1px"></line><line x1="30.766000747680664" y1="63.07142836706978" x2="25.766000747680664" y2="63.07142836706978" style="visibility: inherit;" fill="rgb(0, 0, 0)" stroke="rgb(204, 204, 204)" stroke-width="1px"></line><line x1="30.766000747680664" y1="50.457142693655825" x2="25.766000747680664" y2="50.457142693655825" style="visibility: inherit;" fill="rgb(0, 0, 0)" stroke="rgb(204, 204, 204)" stroke-width="1px"></line><line x1="30.766000747680664" y1="37.84285702024188" x2="25.766000747680664" y2="37.84285702024188" style="visibility: inherit;" fill="rgb(0, 0, 0)" stroke="rgb(204, 204, 204)" stroke-width="1px"></line><line x1="30.766000747680664" y1="25.228571346827923" x2="25.766000747680664" y2="25.228571346827923" style="visibility: inherit;" fill="rgb(0, 0, 0)" stroke="rgb(204, 204, 204)" stroke-width="1px"></line><line x1="30.766000747680664" y1="12.614285673413953" x2="25.766000747680664" y2="12.614285673413953" style="visibility: inherit;" fill="rgb(0, 0, 0)" stroke="rgb(204, 204, 204)" stroke-width="1px"></line><line x1="30.766000747680664" y1="0" x2="25.766000747680664" y2="0" style="visibility: inherit;" fill="rgb(0, 0, 0)" stroke="rgb(204, 204, 204)" stroke-width="1px"></line></g><g transform="translate(20.766000747680664, 0)"><text style="text-anchor: end; visibility: hidden; font-family: Roboto, sans-serif; font-size: 12px; font-weight: 200;" x="0" y="176.5999994277954" dx="0em" dy="0.3em" fill="rgb(33, 33, 33)" stroke="none" stroke-width="1px">-7</text><text style="text-anchor: end; visibility: inherit; font-family: Roboto, sans-serif; font-size: 12px; font-weight: 200;" x="0" y="163.98571375438146" dx="0em" dy="0.3em" fill="rgb(33, 33, 33)" stroke="none" stroke-width="1px">-6</text><text style="text-anchor: end; visibility: hidden; font-family: Roboto, sans-serif; font-size: 12px; font-weight: 200;" x="0" y="151.37142808096752" dx="0em" dy="0.3em" fill="rgb(33, 33, 33)" stroke="none" stroke-width="1px">-5</text><text style="text-anchor: end; visibility: inherit; font-family: Roboto, sans-serif; font-size: 12px; font-weight: 200;" x="0" y="138.75714240755354" dx="0em" dy="0.3em" fill="rgb(33, 33, 33)" stroke="none" stroke-width="1px">-4</text><text style="text-anchor: end; visibility: hidden; font-family: Roboto, sans-serif; font-size: 12px; font-weight: 200;" x="0" y="126.14285673413958" dx="0em" dy="0.3em" fill="rgb(33, 33, 33)" stroke="none" stroke-width="1px">-3</text><text style="text-anchor: end; visibility: inherit; font-family: Roboto, sans-serif; font-size: 12px; font-weight: 200;" x="0" y="113.52857106072561" dx="0em" dy="0.3em" fill="rgb(33, 33, 33)" stroke="none" stroke-width="1px">-2</text><text style="text-anchor: end; visibility: hidden; font-family: Roboto, sans-serif; font-size: 12px; font-weight: 200;" x="0" y="100.91428538731165" dx="0em" dy="0.3em" fill="rgb(33, 33, 33)" stroke="none" stroke-width="1px">-1</text><text style="text-anchor: end; visibility: inherit; font-family: Roboto, sans-serif; font-size: 12px; font-weight: 200;" x="0" y="88.2999997138977" dx="0em" dy="0.3em" fill="rgb(33, 33, 33)" stroke="none" stroke-width="1px">0</text><text style="text-anchor: end; visibility: hidden; font-family: Roboto, sans-serif; font-size: 12px; font-weight: 200;" x="0" y="75.68571404048376" dx="0em" dy="0.3em" fill="rgb(33, 33, 33)" stroke="none" stroke-width="1px">1</text><text style="text-anchor: end; visibility: inherit; font-family: Roboto, sans-serif; font-size: 12px; font-weight: 200;" x="0" y="63.07142836706978" dx="0em" dy="0.3em" fill="rgb(33, 33, 33)" stroke="none" stroke-width="1px">2</text><text style="text-anchor: end; visibility: hidden; font-family: Roboto, sans-serif; font-size: 12px; font-weight: 200;" x="0" y="50.457142693655825" dx="0em" dy="0.3em" fill="rgb(33, 33, 33)" stroke="none" stroke-width="1px">3</text><text style="text-anchor: end; visibility: inherit; font-family: Roboto, sans-serif; font-size: 12px; font-weight: 200;" x="0" y="37.84285702024188" dx="0em" dy="0.3em" fill="rgb(33, 33, 33)" stroke="none" stroke-width="1px">4</text><text style="text-anchor: end; visibility: hidden; font-family: Roboto, sans-serif; font-size: 12px; font-weight: 200;" x="0" y="25.228571346827923" dx="0em" dy="0.3em" fill="rgb(33, 33, 33)" stroke="none" stroke-width="1px">5</text><text style="text-anchor: end; visibility: inherit; font-family: Roboto, sans-serif; font-size: 12px; font-weight: 200;" x="0" y="12.614285673413953" dx="0em" dy="0.3em" fill="rgb(33, 33, 33)" stroke="none" stroke-width="1px">6</text><text style="text-anchor: end; visibility: hidden; font-family: Roboto, sans-serif; font-size: 12px; font-weight: 200;" x="0" y="0" dx="0em" dy="0.3em" fill="rgb(33, 33, 33)" stroke="none" stroke-width="1px">7</text></g><line x1="30.766000747680664" y1="0" x2="30.766000747680664" y2="176.5999994277954" fill="rgb(0, 0, 0)" stroke="rgb(204, 204, 204)" stroke-width="1px"></line></g></g><g transform="translate(30, 0)" clip-path="url(#clip_0)"><clipPath id="clip_0"><rect width="299" height="176"></rect></clipPath><g><g><g><line x1="0" y1="0" x2="0" y2="176.5999994277954" fill="rgb(0, 0, 0)" stroke="rgb(66, 66, 66)" stroke-width="1px" opacity="0.25"></line><line x1="24.936166604359943" y1="0" x2="24.936166604359943" y2="176.5999994277954" fill="rgb(0, 0, 0)" stroke="rgb(66, 66, 66)" stroke-width="1px" opacity="0.25"></line><line x1="49.87233320871989" y1="0" x2="49.87233320871989" y2="176.5999994277954" fill="rgb(0, 0, 0)" stroke="rgb(66, 66, 66)" stroke-width="1px" opacity="0.25"></line><line x1="74.80849981307983" y1="0" x2="74.80849981307983" y2="176.5999994277954" fill="rgb(0, 0, 0)" stroke="rgb(66, 66, 66)" stroke-width="1px" opacity="0.25"></line><line x1="99.74466641743977" y1="0" x2="99.74466641743977" y2="176.5999994277954" fill="rgb(0, 0, 0)" stroke="rgb(66, 66, 66)" stroke-width="1px" opacity="0.25"></line><line x1="124.68083302179973" y1="0" x2="124.68083302179973" y2="176.5999994277954" fill="rgb(0, 0, 0)" stroke="rgb(66, 66, 66)" stroke-width="1px" opacity="0.25"></line><line x1="149.61699962615967" y1="0" x2="149.61699962615967" y2="176.5999994277954" fill="rgb(0, 0, 0)" stroke="rgb(66, 66, 66)" stroke-width="1px" opacity="0.25"></line><line x1="174.55316623051962" y1="0" x2="174.55316623051962" y2="176.5999994277954" fill="rgb(0, 0, 0)" stroke="rgb(66, 66, 66)" stroke-width="1px" opacity="0.25"></line><line x1="199.48933283487955" y1="0" x2="199.48933283487955" y2="176.5999994277954" fill="rgb(0, 0, 0)" stroke="rgb(66, 66, 66)" stroke-width="1px" opacity="0.25"></line><line x1="224.4254994392395" y1="0" x2="224.4254994392395" y2="176.5999994277954" fill="rgb(0, 0, 0)" stroke="rgb(66, 66, 66)" stroke-width="1px" opacity="0.25"></line><line x1="249.36166604359946" y1="0" x2="249.36166604359946" y2="176.5999994277954" fill="rgb(0, 0, 0)" stroke="rgb(66, 66, 66)" stroke-width="1px" opacity="0.25"></line><line x1="274.29783264795935" y1="0" x2="274.29783264795935" y2="176.5999994277954" fill="rgb(0, 0, 0)" stroke="rgb(66, 66, 66)" stroke-width="1px" opacity="0.25"></line><line x1="299.23399925231934" y1="0" x2="299.23399925231934" y2="176.5999994277954" fill="rgb(0, 0, 0)" stroke="rgb(66, 66, 66)" stroke-width="1px" opacity="0.25"></line></g><g><line x1="0" y1="176.5999994277954" x2="299.23399925231934" y2="176.5999994277954" fill="rgb(0, 0, 0)" stroke="rgb(66, 66, 66)" stroke-width="1px" opacity="0.25"></line><line x1="0" y1="163.98571375438146" x2="299.23399925231934" y2="163.98571375438146" fill="rgb(0, 0, 0)" stroke="rgb(66, 66, 66)" stroke-width="1px" opacity="0.25"></line><line x1="0" y1="151.37142808096752" x2="299.23399925231934" y2="151.37142808096752" fill="rgb(0, 0, 0)" stroke="rgb(66, 66, 66)" stroke-width="1px" opacity="0.25"></line><line x1="0" y1="138.75714240755354" x2="299.23399925231934" y2="138.75714240755354" fill="rgb(0, 0, 0)" stroke="rgb(66, 66, 66)" stroke-width="1px" opacity="0.25"></line><line x1="0" y1="126.14285673413958" x2="299.23399925231934" y2="126.14285673413958" fill="rgb(0, 0, 0)" stroke="rgb(66, 66, 66)" stroke-width="1px" opacity="0.25"></line><line x1="0" y1="113.52857106072561" x2="299.23399925231934" y2="113.52857106072561" fill="rgb(0, 0, 0)" stroke="rgb(66, 66, 66)" stroke-width="1px" opacity="0.25"></line><line x1="0" y1="100.91428538731165" x2="299.23399925231934" y2="100.91428538731165" fill="rgb(0, 0, 0)" stroke="rgb(66, 66, 66)" stroke-width="1px" opacity="0.25"></line><line x1="0" y1="88.2999997138977" x2="299.23399925231934" y2="88.2999997138977" fill="rgb(0, 0, 0)" stroke="rgb(66, 66, 66)" stroke-width="1px" opacity="0.25"></line><line x1="0" y1="75.68571404048376" x2="299.23399925231934" y2="75.68571404048376" fill="rgb(0, 0, 0)" stroke="rgb(66, 66, 66)" stroke-width="1px" opacity="0.25"></line><line x1="0" y1="63.07142836706978" x2="299.23399925231934" y2="63.07142836706978" fill="rgb(0, 0, 0)" stroke="rgb(66, 66, 66)" stroke-width="1px" opacity="0.25"></line><line x1="0" y1="50.457142693655825" x2="299.23399925231934" y2="50.457142693655825" fill="rgb(0, 0, 0)" stroke="rgb(66, 66, 66)" stroke-width="1px" opacity="0.25"></line><line x1="0" y1="37.84285702024188" x2="299.23399925231934" y2="37.84285702024188" fill="rgb(0, 0, 0)" stroke="rgb(66, 66, 66)" stroke-width="1px" opacity="0.25"></line><line x1="0" y1="25.228571346827923" x2="299.23399925231934" y2="25.228571346827923" fill="rgb(0, 0, 0)" stroke="rgb(66, 66, 66)" stroke-width="1px" opacity="0.25"></line><line x1="0" y1="12.614285673413953" x2="299.23399925231934" y2="12.614285673413953" fill="rgb(0, 0, 0)" stroke="rgb(66, 66, 66)" stroke-width="1px" opacity="0.25"></line><line x1="0" y1="0" x2="299.23399925231934" y2="0" fill="rgb(0, 0, 0)" stroke="rgb(66, 66, 66)" stroke-width="1px" opacity="0.25"></line></g></g></g><g><g><line x1="0" y1="88.2999997138977" x2="299.23399925231934" y2="88.2999997138977" fill="rgb(0, 0, 0)" stroke="rgb(153, 153, 153)" stroke-width="1.5px"></line></g></g><g><g><line x1="24.936166604359943" y1="0" x2="24.936166604359943" y2="176.5999994277954" fill="rgb(0, 0, 0)" stroke="rgb(153, 153, 153)" stroke-width="1.5px"></line></g></g><g><g><g><g><g><path style="fill: none;" stroke="rgb(0, 119, 187)" stroke-width="2px" d="M29.91841269191106,54.707493972630594L34.90564601278305,42.48570650276652L39.89287933365504,33.11933712747692L44.880112654527025,32.38120309359711L49.86734597539901,36.60846997788132L54.854579296271005,42.3896046476105L59.841812617143,48.19438072775021L64.82904593801499,53.35398435332357L69.81627925888698,57.78004510494518L74.80351257975896,61.590406135521675L79.79074590063095,64.91254811979645L84.77797922150293,67.6633269392002L89.76521254237493,70.0539493009963L94.75244586324692,72.05052962133584L99.7396791841189,73.74831712736253L104.72691250499089,75.30456778749425L109.71414582586287,76.55091386518585L114.70137914673488,77.59150044486428L119.68861246760687,78.5014313199582L124.67584578847885,79.31403116184045L129.66307910935083,79.95248404757642L134.65031243022284,80.46380040690974L139.63754575109482,80.89466749860291L144.6247790719668,81.30239253933281L149.6120123928388,81.58725852086123L154.59924571371081,81.75242230818964L159.58647903458277,81.82140974132155L164.57371235545477,81.95478761540835L169.56094567632675,82.0382906090074L174.54817899719876,82.09520301663397L179.5354123180707,82.02298774770209L184.52264563894272,81.97228814543762L189.5098789598147,82.01658027527233L194.4971122806867,81.94231958763648L199.4843456015587,81.92881269760471L204.47157892243067,81.89358696116082L209.45881224330265,81.92435540840005L214.44604556417465,81.90765142137022L219.43327888504663,81.94334504512896L224.42051220591864,81.93859132929937L229.40774552679065,81.95298532242597L234.3949788476626,81.98652320992721L239.3822121685346,82.01956358735045L244.3694454894066,82.04241282557493L249.3566788102786,82.1053020842386L254.34391213115055,82.19307603475984L259.33114545202255,82.29386861281047L264.3183787728945,82.33184389335487L269.3056120937665,82.40984668083172L274.2928454146385,82.47988849566745" fill="none"></path></g><g><path style="fill: none;" stroke="rgb(204, 51, 17)" stroke-width="2px" d="M29.91841269191106,74.85538789132627L34.90564601278305,69.46522422319673L39.89287933365504,72.0348432331849L44.880112654527025,77.02184250387859L49.86734597539901,82.7069727336751L54.854579296271005,88.35843113696414L59.841812617143,93.67083208986536L64.82904593801499,98.68029527349942L69.81627925888698,103.3710933569681L74.80351257975896,107.80226693484836L79.79074590063095,111.8359680654271L84.77797922150293,115.66511812374969L89.76521254237493,119.33207211012974L94.75244586324692,122.7055282046116L99.7396791841189,125.89127109319926L104.72691250499089,128.7806239173874L109.71414582586287,131.4998710836396L114.70137914673488,134.04144815992038L119.68861246760687,136.44500484384136L124.67584578847885,138.72304231987036L129.66307910935083,140.7919401974083L134.65031243022284,142.61780622606082L139.63754575109482,144.33174807682806L144.6247790719668,145.84132229996874L149.6120123928388,147.10507339704836L154.59924571371081,148.31162490566166L159.58647903458277,149.41588888093037L164.57371235545477,150.58734224523138L169.56094567632675,151.72144946452093L174.54817899719876,152.7249660031279L179.5354123180707,153.75929846002265L184.52264563894272,154.67131207754366L189.5098789598147,155.59155775948796L194.4971122806867,156.41385574588566L199.4843456015587,157.27415106831094L204.47157892243067,158.08761440339447L209.45881224330265,158.8140163664693L214.44604556417465,159.59919400957585L219.43327888504663,160.28767884593967L224.42051220591864,161.0467079748449L229.40774552679065,161.69682347633335L234.3949788476626,162.29060458016914L239.3822121685346,162.8528305259994L244.3694454894066,163.43445862747586L249.3566788102786,163.94728800861427L254.34391213115055,164.4843492650781L259.33114545202255,164.96637848420193L264.3183787728945,165.50339814797266L269.3056120937665,165.97482030138923L274.2928454146385,166.4694926038495" fill="none"></path></g><g><path style="fill: none;" stroke="rgb(255, 112, 67)" stroke-width="2px" d="M29.91841269191106,76.41309790631034L34.90564601278305,70.17445518996445L39.89287933365504,71.65437778892988L44.880112654527025,76.25612653139166L49.86734597539901,81.72912822144252L54.854579296271005,87.26357484588087L59.841812617143,92.5746879232445L64.82904593801499,97.67620440396145L69.81627925888698,102.5390427023981L74.80351257975896,107.11429109970285L79.79074590063095,111.31387756007692L84.77797922150293,115.18652982597078L89.76521254237493,118.92327887954849L94.75244586324692,122.42393399568344L99.7396791841189,125.6294310950122L104.72691250499089,128.6495467923033L109.71414582586287,131.50498359702232L114.70137914673488,134.13636134343733L119.68861246760687,136.6483124398772L124.67584578847885,138.97004309499874L129.66307910935083,141.17518363114004L134.65031243022284,143.21528448758423L139.63754575109482,145.08229147662018L144.6247790719668,146.79881272141887L149.6120123928388,148.37410933957358L154.59924571371081,149.9355237558972L159.58647903458277,151.41892311981601L164.57371235545477,152.7721721304696L169.56094567632675,153.9824748981953L174.54817899719876,155.01505161627367L179.5354123180707,156.0108349498797L184.52264563894272,156.90768154371676L189.5098789598147,157.72669237927212L194.4971122806867,158.45023635738048L199.4843456015587,159.09288151669912L204.47157892243067,159.6216656597633L209.45881224330265,160.09062869692545L214.44604556417465,160.57681211131072L219.43327888504663,160.9941839906632L224.42051220591864,161.36103010804223L229.40774552679065,161.59176719258238L234.3949788476626,161.72875842535797L239.3822121685346,161.81139234506915L244.3694454894066,161.97223943950485L249.3566788102786,162.1643829770862L254.34391213115055,162.3437446809634L259.33114545202255,162.57206795367352L264.3183787728945,162.88222743684233L269.3056120937665,163.2505179416784L274.2928454146385,163.52394133400824" fill="none"></path></g><g><path style="fill: none;" stroke="rgb(51, 187, 238)" stroke-width="2px" d="M29.91841269191106,41.001450930306646L34.90564601278305,29.29579382290067L39.89287933365504,23.442644882181828L44.880112654527025,17.076967131583515L49.86734597539901,22.686883065088942L54.854579296271005,33.47235397634026L59.841812617143,43.83601868574088L64.82904593801499,52.06948902640661L69.81627925888698,58.505930152523305L74.80351257975896,63.57156149812191L79.79074590063095,67.40941034408213L84.77797922150293,70.61560125869225L89.76521254237493,73.27655672520129L94.75244586324692,75.53879709028818L99.7396791841189,77.4761050138521L104.72691250499089,79.05467943103756L109.71414582586287,80.36220559206224L114.70137914673488,81.42413774134032L119.68861246760687,82.31861917024371L124.67584578847885,83.02691460079743L129.66307910935083,83.62297692056235L134.65031243022284,84.1129918053738L139.63754575109482,84.46851631109725L144.6247790719668,84.67330699349974L149.6120123928388,84.75192954403344L154.59924571371081,84.7528082933276L159.58647903458277,84.6976901466701L164.57371235545477,84.67834544697452L169.56094567632675,84.65986523910681L174.54817899719876,84.65190243123324L179.5354123180707,84.67127119396524L184.52264563894272,84.78611045066332L189.5098789598147,84.96838471081801L194.4971122806867,85.14496900945122L199.4843456015587,85.31492160859204L204.47157892243067,85.47004247115048L209.45881224330265,85.60120515059312L214.44604556417465,85.66364208779676L219.43327888504663,85.62108658718515L224.42051220591864,85.53239411173632L229.40774552679065,85.42719049784542L234.3949788476626,85.36692456238137L239.3822121685346,85.28301387036517L244.3694454894066,85.16245048979228L249.3566788102786,85.00745163045305L254.34391213115055,84.85048191832338L259.33114545202255,84.72862140650484L264.3183787728945,84.59649269055292L269.3056120937665,84.55056024813234L274.2928454146385,84.55271329007314" fill="none"></path></g></g></g></g><g opacity="0.2"><g><g><g><path style="fill: none;" stroke="rgb(0, 119, 187)" stroke-width="2px" d="M29.91841269191106,54.707493972630594L34.90564601278305,32.70827652687528L39.89287933365504,19.631765227059827L44.880112654527025,30.940365459463784L49.86734597539901,46.591583451806876L54.854579296271005,57.93669449221979L59.841812617143,65.3267361653005L64.82904593801499,69.66420963058565L69.81627925888698,72.51400902106846L74.80351257975896,74.7861782562928L79.79074590063095,76.77426693938274L84.77797922150293,77.7212818113857L89.76521254237493,78.9593094770766L94.75244586324692,79.59779824709356L99.7396791841189,80.24078921477027L104.72691250499089,81.31054761886284L109.71414582586287,81.3959720826756L114.70137914673488,81.66011905692828L119.68861246760687,82.07558739073379L124.67584578847885,82.51758733775215L129.66307910935083,82.47685214805458L134.65031243022284,82.49020160020035L139.63754575109482,82.60541891342322L144.6247790719668,82.92366556691961L149.6120123928388,82.72134148072172L154.59924571371081,82.41058157291621L159.58647903458277,82.0965254669577L164.57371235545477,82.48700916010962L169.56094567632675,82.37165651028377L174.54817899719876,82.32250037639962L179.5354123180707,81.73448426466598L184.52264563894272,81.76969057819605L189.5098789598147,82.19360842724876L194.4971122806867,81.64546511030358L199.4843456015587,81.87481253270522L204.47157892243067,81.75274117241051L209.45881224330265,82.04738925762899L214.44604556417465,81.84085281966279L219.43327888504663,82.08608988706149L224.42051220591864,81.91957962536712L229.40774552679065,82.01055364177284L234.3949788476626,82.12066049449247L239.3822121685346,82.1517138539855L244.3694454894066,82.13380355831866L249.3566788102786,82.35684542282559L254.34391213115055,82.54415654446584L259.33114545202255,82.69702487657793L264.3183787728945,82.4837407811472L269.3056120937665,82.721850872658L274.2928454146385,82.76005075665938" fill="none"></path></g><g><path style="fill: none;" stroke="rgb(204, 51, 17)" stroke-width="2px" d="M29.91841269191106,74.85538789132627L34.90564601278305,65.1530932886931L39.89287933365504,75.73509460756787L44.880112654527025,86.75646508027269L49.86734597539901,96.1329762843625L54.854579296271005,103.55678519176136L59.841812617143,109.34997975988084L64.82904593801499,114.51590571424192L69.81627925888698,118.98634438449317L74.80351257975896,123.14799304638257L79.79074590063095,126.23831114397456L84.77797922150293,129.66603241528236L89.76521254237493,132.99192341901394L94.75244586324692,135.45752174220405L99.7396791841189,138.07380083169278L104.72691250499089,139.93139495469137L109.71414582586287,142.07069973553183L114.70137914673488,143.97883155357016L119.68861246760687,145.88603706774802L124.67584578847885,147.70387230426567L129.66307910935083,148.97212063340618L134.65031243022284,149.85390777398388L139.63754575109482,151.13692884521168L144.6247790719668,151.8439753789577L149.6120123928388,152.13620620207263L154.59924571371081,153.11959804922157L159.58647903458277,153.81959504969137L164.57371235545477,155.26182610068682L169.56094567632675,156.24910361208185L174.54817899719876,156.73282069103954L179.5354123180707,157.89150652135248L184.52264563894272,158.3157536894725L189.5098789598147,159.26962411228735L194.4971122806867,159.70096291840449L199.4843456015587,160.71358747180116L204.47157892243067,161.34014782400382L209.45881224330265,161.71868129511094L214.44604556417465,162.73908920692006L219.43327888504663,163.0410462205705L224.42051220591864,164.08232002908196L229.40774552679065,164.29693982159728L234.3949788476626,164.6654764289629L239.3822121685346,165.1015429937448L244.3694454894066,165.7608126991522L249.3566788102786,165.9984938488185L254.34391213115055,166.63250072166616L259.33114545202255,166.89442817562966L264.3183787728945,167.6514169233622L269.3056120937665,167.8604668627941L274.2928454146385,168.4481465126953" fill="none"></path></g><g><path style="fill: none;" stroke="rgb(255, 112, 67)" stroke-width="2px" d="M29.91841269191106,76.41309790631034L34.90564601278305,65.18354101688774L39.89287933365504,73.78546633144006L44.880112654527025,85.23874007667706L49.86734597539901,94.65416901266666L54.854579296271005,102.14725146405043L59.841812617143,108.25003452648942L64.82904593801499,113.80280813060187L69.81627925888698,118.7270003559069L74.80351257975896,122.95896690923432L79.79074590063095,126.30851475117007L84.77797922150293,129.34650570308264L89.76521254237493,132.84312533523703L94.75244586324692,135.6567522592184L99.7396791841189,137.887502478965L104.72691250499089,140.30496608368858L109.71414582586287,142.60523721265554L114.70137914673488,144.4248588923328L119.68861246760687,146.5151116732864L124.67584578847885,148.1231270554751L129.66307910935083,149.89405161791336L134.65031243022284,151.30042147659418L139.63754575109482,152.49521511258718L144.6247790719668,153.62436748864576L149.6120123928388,154.6455393003918L154.59924571371081,156.1575859936541L159.58647903458277,157.33458737757286L164.57371235545477,158.17208035172914L169.56094567632675,158.81432170499923L174.54817899719876,159.13896714827237L179.5354123180707,159.98903740406735L184.52264563894272,160.49151514368072L189.5098789598147,161.0001401725503L194.4971122806867,161.34257786789766L199.4843456015587,161.66215871473858L204.47157892243067,161.73594423069343L209.45881224330265,161.96587209674794L214.44604556417465,162.52104088712878L219.43327888504663,162.66332476908136L224.42051220591864,162.82817076649386L229.40774552679065,162.51459284986592L234.3949788476626,162.27666508683416L239.3822121685346,162.14189990504818L244.3694454894066,162.61558403050358L249.3566788102786,162.93291528225467L254.34391213115055,163.06116024725617L259.33114545202255,163.48532922089447L264.3183787728945,164.12283078557954L269.3056120937665,164.7236471084118L274.2928454146385,164.61761539118245" fill="none"></path></g><g><path style="fill: none;" stroke="rgb(51, 187, 238)" stroke-width="2px" d="M29.91841269191106,41.001450930306646L34.90564601278305,19.931268136975884L39.89287933365504,15.01411040754672L44.880112654527025,4.651164162415558L49.86734597539901,35.93526053365538L54.854579296271005,62.477505188550275L59.841812617143,74.42358743701888L64.82904593801499,78.09663487232237L69.81627925888698,79.93227213522448L74.80351257975896,81.11449676014897L79.79074590063095,81.11246219988388L84.77797922150293,82.33872610729414L89.76521254237493,83.18894072213229L94.75244586324692,84.09028663338835L99.7396791841189,84.88452189394118L104.72691250499089,85.14681250112272L109.71414582586287,85.44509587787178L114.70137914673488,85.576215993817L119.68861246760687,85.83209070617889L124.67584578847885,85.81926587133724L129.66307910935083,85.97973767696031L134.65031243022284,86.05497298627479L139.63754575109482,85.88012110268059L144.6247790719668,85.4876342398368L149.6120123928388,85.06493460817856L154.59924571371081,84.75631001122039L159.58647903458277,84.4778838975463L164.57371235545477,84.6011537386476L169.56094567632675,84.58608739131877L174.54817899719876,84.62010048713239L179.5354123180707,84.74865033542568L184.52264563894272,85.24501255229103L189.5098789598147,85.69690410124856L194.4971122806867,85.85085850959973L199.4843456015587,85.99438730033239L204.47157892243067,86.09027422339446L209.45881224330265,86.12568560947156L214.44604556417465,85.91332499838879L219.43327888504663,85.45089993846537L224.42051220591864,85.17768315620172L229.40774552679065,85.00643197811732L234.3949788476626,85.12588645481907L239.3822121685346,84.94739965562935L244.3694454894066,84.6802297879747L249.3566788102786,84.38748994885846L254.34391213115055,84.2226304177857L259.33114545202255,84.24119634410705L264.3183787728945,84.06799255958938L269.3056120937665,84.3668345757608L274.2928454146385,84.56132530419012" fill="none"></path></g></g></g></g></g></g><g transform="translate(30, 176)" clip-path="url(#clip_1)"><clipPath id="clip_1"><rect width="299" height="23"></rect></clipPath><g><g><line x1="0" y1="0" x2="0" y2="5" style="visibility: inherit;" fill="rgb(0, 0, 0)" stroke="rgb(204, 204, 204)" stroke-width="1px"></line><line x1="24.936166604359943" y1="0" x2="24.936166604359943" y2="5" style="visibility: inherit;" fill="rgb(0, 0, 0)" stroke="rgb(204, 204, 204)" stroke-width="1px"></line><line x1="49.87233320871989" y1="0" x2="49.87233320871989" y2="5" style="visibility: inherit;" fill="rgb(0, 0, 0)" stroke="rgb(204, 204, 204)" stroke-width="1px"></line><line x1="74.80849981307983" y1="0" x2="74.80849981307983" y2="5" style="visibility: inherit;" fill="rgb(0, 0, 0)" stroke="rgb(204, 204, 204)" stroke-width="1px"></line><line x1="99.74466641743977" y1="0" x2="99.74466641743977" y2="5" style="visibility: inherit;" fill="rgb(0, 0, 0)" stroke="rgb(204, 204, 204)" stroke-width="1px"></line><line x1="124.68083302179973" y1="0" x2="124.68083302179973" y2="5" style="visibility: inherit;" fill="rgb(0, 0, 0)" stroke="rgb(204, 204, 204)" stroke-width="1px"></line><line x1="149.61699962615967" y1="0" x2="149.61699962615967" y2="5" style="visibility: inherit;" fill="rgb(0, 0, 0)" stroke="rgb(204, 204, 204)" stroke-width="1px"></line><line x1="174.55316623051962" y1="0" x2="174.55316623051962" y2="5" style="visibility: inherit;" fill="rgb(0, 0, 0)" stroke="rgb(204, 204, 204)" stroke-width="1px"></line><line x1="199.48933283487955" y1="0" x2="199.48933283487955" y2="5" style="visibility: inherit;" fill="rgb(0, 0, 0)" stroke="rgb(204, 204, 204)" stroke-width="1px"></line><line x1="224.4254994392395" y1="0" x2="224.4254994392395" y2="5" style="visibility: inherit;" fill="rgb(0, 0, 0)" stroke="rgb(204, 204, 204)" stroke-width="1px"></line><line x1="249.36166604359946" y1="0" x2="249.36166604359946" y2="5" style="visibility: inherit;" fill="rgb(0, 0, 0)" stroke="rgb(204, 204, 204)" stroke-width="1px"></line><line x1="274.29783264795935" y1="0" x2="274.29783264795935" y2="5" style="visibility: inherit;" fill="rgb(0, 0, 0)" stroke="rgb(204, 204, 204)" stroke-width="1px"></line><line x1="299.23399925231934" y1="0" x2="299.23399925231934" y2="5" style="visibility: inherit;" fill="rgb(0, 0, 0)" stroke="rgb(204, 204, 204)" stroke-width="1px"></line></g><g transform="translate(0, 8)"><text style="text-anchor: middle; visibility: hidden; font-family: Roboto, sans-serif; font-size: 12px; font-weight: 200;" x="0" y="0" dx="0em" dy="0.95em" fill="rgb(33, 33, 33)" stroke="none" stroke-width="1px">-5k</text><text style="text-anchor: middle; visibility: inherit; font-family: Roboto, sans-serif; font-size: 12px; font-weight: 200;" x="24.936166604359943" y="0" dx="0em" dy="0.95em" fill="rgb(33, 33, 33)" stroke="none" stroke-width="1px">0</text><text style="text-anchor: middle; visibility: hidden; font-family: Roboto, sans-serif; font-size: 12px; font-weight: 200;" x="49.87233320871989" y="0" dx="0em" dy="0.95em" fill="rgb(33, 33, 33)" stroke="none" stroke-width="1px">5k</text><text style="text-anchor: middle; visibility: inherit; font-family: Roboto, sans-serif; font-size: 12px; font-weight: 200;" x="74.80849981307983" y="0" dx="0em" dy="0.95em" fill="rgb(33, 33, 33)" stroke="none" stroke-width="1px">10k</text><text style="text-anchor: middle; visibility: hidden; font-family: Roboto, sans-serif; font-size: 12px; font-weight: 200;" x="99.74466641743977" y="0" dx="0em" dy="0.95em" fill="rgb(33, 33, 33)" stroke="none" stroke-width="1px">15k</text><text style="text-anchor: middle; visibility: inherit; font-family: Roboto, sans-serif; font-size: 12px; font-weight: 200;" x="124.68083302179973" y="0" dx="0em" dy="0.95em" fill="rgb(33, 33, 33)" stroke="none" stroke-width="1px">20k</text><text style="text-anchor: middle; visibility: hidden; font-family: Roboto, sans-serif; font-size: 12px; font-weight: 200;" x="149.61699962615967" y="0" dx="0em" dy="0.95em" fill="rgb(33, 33, 33)" stroke="none" stroke-width="1px">25k</text><text style="text-anchor: middle; visibility: inherit; font-family: Roboto, sans-serif; font-size: 12px; font-weight: 200;" x="174.55316623051962" y="0" dx="0em" dy="0.95em" fill="rgb(33, 33, 33)" stroke="none" stroke-width="1px">30k</text><text style="text-anchor: middle; visibility: hidden; font-family: Roboto, sans-serif; font-size: 12px; font-weight: 200;" x="199.48933283487955" y="0" dx="0em" dy="0.95em" fill="rgb(33, 33, 33)" stroke="none" stroke-width="1px">35k</text><text style="text-anchor: middle; visibility: inherit; font-family: Roboto, sans-serif; font-size: 12px; font-weight: 200;" x="224.4254994392395" y="0" dx="0em" dy="0.95em" fill="rgb(33, 33, 33)" stroke="none" stroke-width="1px">40k</text><text style="text-anchor: middle; visibility: hidden; font-family: Roboto, sans-serif; font-size: 12px; font-weight: 200;" x="249.36166604359946" y="0" dx="0em" dy="0.95em" fill="rgb(33, 33, 33)" stroke="none" stroke-width="1px">45k</text><text style="text-anchor: middle; visibility: inherit; font-family: Roboto, sans-serif; font-size: 12px; font-weight: 200;" x="274.29783264795935" y="0" dx="0em" dy="0.95em" fill="rgb(33, 33, 33)" stroke="none" stroke-width="1px">50k</text><text style="text-anchor: middle; visibility: hidden; font-family: Roboto, sans-serif; font-size: 12px; font-weight: 200;" x="299.23399925231934" y="0" dx="0em" dy="0.95em" fill="rgb(33, 33, 33)" stroke="none" stroke-width="1px">55k</text></g><line x1="0" y1="0" x2="299.23399925231934" y2="0" fill="rgb(0, 0, 0)" stroke="rgb(204, 204, 204)" stroke-width="1px"></line></g></g></g></g></svg>