<svg viewBox="0 0 330 200" xmlns="http://www.w3.org/2000/svg"><g><g><g><g><g><line x1="41.149001121520996" y1="176.5999994277954" x2="36.149001121520996" y2="176.5999994277954" style="visibility: inherit;" fill="rgb(0, 0, 0)" stroke="rgb(204, 204, 204)" stroke-width="1px"></line><line x1="41.149001121520996" y1="161.88333280881244" x2="36.149001121520996" y2="161.88333280881244" style="visibility: inherit;" fill="rgb(0, 0, 0)" stroke="rgb(204, 204, 204)" stroke-width="1px"></line><line x1="41.149001121520996" y1="147.16666618982953" x2="36.149001121520996" y2="147.16666618982953" style="visibility: inherit;" fill="rgb(0, 0, 0)" stroke="rgb(204, 204, 204)" stroke-width="1px"></line><line x1="41.149001121520996" y1="132.44999957084656" x2="36.149001121520996" y2="132.44999957084656" style="visibility: inherit;" fill="rgb(0, 0, 0)" stroke="rgb(204, 204, 204)" stroke-width="1px"></line><line x1="41.149001121520996" y1="117.73333295186362" x2="36.149001121520996" y2="117.73333295186362" style="visibility: inherit;" fill="rgb(0, 0, 0)" stroke="rgb(204, 204, 204)" stroke-width="1px"></line><line x1="41.149001121520996" y1="103.01666633288065" x2="36.149001121520996" y2="103.01666633288065" style="visibility: inherit;" fill="rgb(0, 0, 0)" stroke="rgb(204, 204, 204)" stroke-width="1px"></line><line x1="41.149001121520996" y1="88.2999997138977" x2="36.149001121520996" y2="88.2999997138977" style="visibility: inherit;" fill="rgb(0, 0, 0)" stroke="rgb(204, 204, 204)" stroke-width="1px"></line><line x1="41.149001121520996" y1="73.58333309491475" x2="36.149001121520996" y2="73.58333309491475" style="visibility: inherit;" fill="rgb(0, 0, 0)" stroke="rgb(204, 204, 204)" stroke-width="1px"></line><line x1="41.149001121520996" y1="58.86666647593181" x2="36.149001121520996" y2="58.86666647593181" style="visibility: inherit;" fill="rgb(0, 0, 0)" stroke="rgb(204, 204, 204)" stroke-width="1px"></line><line x1="41.149001121520996" y1="44.14999985694885" x2="36.149001121520996" y2="44.14999985694885" style="visibility: inherit;" fill="rgb(0, 0, 0)" stroke="rgb(204, 204, 204)" stroke-width="1px"></line><line x1="41.149001121520996" y1="29.433333237965893" x2="36.149001121520996" y2="29.433333237965893" style="visibility: inherit;" fill="rgb(0, 0, 0)" stroke="rgb(204, 204, 204)" stroke-width="1px"></line><line x1="41.149001121520996" y1="14.716666618982957" x2="36.149001121520996" y2="14.716666618982957" style="visibility: inherit;" fill="rgb(0, 0, 0)" stroke="rgb(204, 204, 204)" stroke-width="1px"></line><line x1="41.149001121520996" y1="0" x2="36.149001121520996" y2="0" style="visibility: inherit;" fill="rgb(0, 0, 0)" stroke="rgb(204, 204, 204)" stroke-width="1px"></line></g><g transform="translate(31.149001121520996, 0)"><text style="text-anchor: end; visibility: hidden; font-family: Roboto, sans-serif; font-size: 12px; font-weight: 200;" x="0" y="176.5999994277954" dx="0em" dy="0.3em" fill="rgb(33, 33, 33)" stroke="none" stroke-width="1px">-13</text><text style="text-anchor: end; visibility: inherit; font-family: Roboto, sans-serif; font-size: 12px; font-weight: 200;" x="0" y="161.88333280881244" dx="0em" dy="0.3em" fill="rgb(33, 33, 33)" stroke="none" stroke-width="1px">-12</text><text style="text-anchor: end; visibility: hidden; font-family: Roboto, sans-serif; font-size: 12px; font-weight: 200;" x="0" y="147.16666618982953" dx="0em" dy="0.3em" fill="rgb(33, 33, 33)" stroke="none" stroke-width="1px">-11</text><text style="text-anchor: end; visibility: inherit; font-family: Roboto, sans-serif; font-size: 12px; font-weight: 200;" x="0" y="132.44999957084656" dx="0em" dy="0.3em" fill="rgb(33, 33, 33)" stroke="none" stroke-width="1px">-10</text><text style="text-anchor: end; visibility: hidden; font-family: Roboto, sans-serif; font-size: 12px; font-weight: 200;" x="0" y="117.73333295186362" dx="0em" dy="0.3em" fill="rgb(33, 33, 33)" stroke="none" stroke-width="1px">-9</text><text style="text-anchor: end; visibility: inherit; font-family: Roboto, sans-serif; font-size: 12px; font-weight: 200;" x="0" y="103.01666633288065" dx="0em" dy="0.3em" fill="rgb(33, 33, 33)" stroke="none" stroke-width="1px">-8</text><text style="text-anchor: end; visibility: hidden; font-family: Roboto, sans-serif; font-size: 12px; font-weight: 200;" x="0" y="88.2999997138977" dx="0em" dy="0.3em" fill="rgb(33, 33, 33)" stroke="none" stroke-width="1px">-7</text><text style="text-anchor: end; visibility: inherit; font-family: Roboto, sans-serif; font-size: 12px; font-weight: 200;" x="0" y="73.58333309491475" dx="0em" dy="0.3em" fill="rgb(33, 33, 33)" stroke="none" stroke-width="1px">-6</text><text style="text-anchor: end; visibility: hidden; font-family: Roboto, sans-serif; font-size: 12px; font-weight: 200;" x="0" y="58.86666647593181" dx="0em" dy="0.3em" fill="rgb(33, 33, 33)" stroke="none" stroke-width="1px">-5</text><text style="text-anchor: end; visibility: inherit; font-family: Roboto, sans-serif; font-size: 12px; font-weight: 200;" x="0" y="44.14999985694885" dx="0em" dy="0.3em" fill="rgb(33, 33, 33)" stroke="none" stroke-width="1px">-4</text><text style="text-anchor: end; visibility: hidden; font-family: Roboto, sans-serif; font-size: 12px; font-weight: 200;" x="0" y="29.433333237965893" dx="0em" dy="0.3em" fill="rgb(33, 33, 33)" stroke="none" stroke-width="1px">-3</text><text style="text-anchor: end; visibility: inherit; font-family: Roboto, sans-serif; font-size: 12px; font-weight: 200;" x="0" y="14.716666618982957" dx="0em" dy="0.3em" fill="rgb(33, 33, 33)" stroke="none" stroke-width="1px">-2</text><text style="text-anchor: end; visibility: hidden; font-family: Roboto, sans-serif; font-size: 12px; font-weight: 200;" x="0" y="0" dx="0em" dy="0.3em" fill="rgb(33, 33, 33)" stroke="none" stroke-width="1px">-1</text></g><line x1="41.149001121520996" y1="0" x2="41.149001121520996" y2="176.5999994277954" fill="rgb(0, 0, 0)" stroke="rgb(204, 204, 204)" stroke-width="1px"></line></g></g><g transform="translate(41, 0)" clip-path="url(#clip_0)"><clipPath id="clip_0"><rect width="288" height="176"></rect></clipPath><g><g><g><line x1="0" y1="0" x2="0" y2="176.5999994277954" fill="rgb(0, 0, 0)" stroke="rgb(66, 66, 66)" stroke-width="1px" opacity="0.25"></line><line x1="36.106374859809875" y1="0" x2="36.106374859809875" y2="176.5999994277954" fill="rgb(0, 0, 0)" stroke="rgb(66, 66, 66)" stroke-width="1px" opacity="0.25"></line><line x1="72.21274971961975" y1="0" x2="72.21274971961975" y2="176.5999994277954" fill="rgb(0, 0, 0)" stroke="rgb(66, 66, 66)" stroke-width="1px" opacity="0.25"></line><line x1="108.31912457942963" y1="0" x2="108.31912457942963" y2="176.5999994277954" fill="rgb(0, 0, 0)" stroke="rgb(66, 66, 66)" stroke-width="1px" opacity="0.25"></line><line x1="144.4254994392395" y1="0" x2="144.4254994392395" y2="176.5999994277954" fill="rgb(0, 0, 0)" stroke="rgb(66, 66, 66)" stroke-width="1px" opacity="0.25"></line><line x1="180.53187429904938" y1="0" x2="180.53187429904938" y2="176.5999994277954" fill="rgb(0, 0, 0)" stroke="rgb(66, 66, 66)" stroke-width="1px" opacity="0.25"></line><line x1="216.63824915885925" y1="0" x2="216.63824915885925" y2="176.5999994277954" fill="rgb(0, 0, 0)" stroke="rgb(66, 66, 66)" stroke-width="1px" opacity="0.25"></line><line x1="252.74462401866913" y1="0" x2="252.74462401866913" y2="176.5999994277954" fill="rgb(0, 0, 0)" stroke="rgb(66, 66, 66)" stroke-width="1px" opacity="0.25"></line><line x1="288.850998878479" y1="0" x2="288.850998878479" y2="176.5999994277954" fill="rgb(0, 0, 0)" stroke="rgb(66, 66, 66)" stroke-width="1px" opacity="0.25"></line></g><g><line x1="0" y1="176.5999994277954" x2="288.850998878479" y2="176.5999994277954" fill="rgb(0, 0, 0)" stroke="rgb(66, 66, 66)" stroke-width="1px" opacity="0.25"></line><line x1="0" y1="161.88333280881244" x2="288.850998878479" y2="161.88333280881244" fill="rgb(0, 0, 0)" stroke="rgb(66, 66, 66)" stroke-width="1px" opacity="0.25"></line><line x1="0" y1="147.16666618982953" x2="288.850998878479" y2="147.16666618982953" fill="rgb(0, 0, 0)" stroke="rgb(66, 66, 66)" stroke-width="1px" opacity="0.25"></line><line x1="0" y1="132.44999957084656" x2="288.850998878479" y2="132.44999957084656" fill="rgb(0, 0, 0)" stroke="rgb(66, 66, 66)" stroke-width="1px" opacity="0.25"></line><line x1="0" y1="117.73333295186362" x2="288.850998878479" y2="117.73333295186362" fill="rgb(0, 0, 0)" stroke="rgb(66, 66, 66)" stroke-width="1px" opacity="0.25"></line><line x1="0" y1="103.01666633288065" x2="288.850998878479" y2="103.01666633288065" fill="rgb(0, 0, 0)" stroke="rgb(66, 66, 66)" stroke-width="1px" opacity="0.25"></line><line x1="0" y1="88.2999997138977" x2="288.850998878479" y2="88.2999997138977" fill="rgb(0, 0, 0)" stroke="rgb(66, 66, 66)" stroke-width="1px" opacity="0.25"></line><line x1="0" y1="73.58333309491475" x2="288.850998878479" y2="73.58333309491475" fill="rgb(0, 0, 0)" stroke="rgb(66, 66, 66)" stroke-width="1px" opacity="0.25"></line><line x1="0" y1="58.86666647593181" x2="288.850998878479" y2="58.86666647593181" fill="rgb(0, 0, 0)" stroke="rgb(66, 66, 66)" stroke-width="1px" opacity="0.25"></line><line x1="0" y1="44.14999985694885" x2="288.850998878479" y2="44.14999985694885" fill="rgb(0, 0, 0)" stroke="rgb(66, 66, 66)" stroke-width="1px" opacity="0.25"></line><line x1="0" y1="29.433333237965893" x2="288.850998878479" y2="29.433333237965893" fill="rgb(0, 0, 0)" stroke="rgb(66, 66, 66)" stroke-width="1px" opacity="0.25"></line><line x1="0" y1="14.716666618982957" x2="288.850998878479" y2="14.716666618982957" fill="rgb(0, 0, 0)" stroke="rgb(66, 66, 66)" stroke-width="1px" opacity="0.25"></line><line x1="0" y1="0" x2="288.850998878479" y2="0" fill="rgb(0, 0, 0)" stroke="rgb(66, 66, 66)" stroke-width="1px" opacity="0.25"></line></g></g></g><g><g><line x1="0" y1="-14.716666618982938" x2="288.850998878479" y2="-14.716666618982938" fill="rgb(0, 0, 0)" stroke="rgb(153, 153, 153)" stroke-width="1.5px"></line></g></g><g><g><line x1="36.106374859809875" y1="0" x2="36.106374859809875" y2="176.5999994277954" fill="rgb(0, 0, 0)" stroke="rgb(153, 153, 153)" stroke-width="1.5px"></line></g></g><g><g><g><g><g><path style="fill: none;" stroke="rgb(255, 112, 67)" stroke-width="2px" d="M36.53957914537787,80.9244876782656L36.61179189509749,84.20927968467619L36.97285564369559,89.5925900279308L37.18949389285445,92.42132150754227L37.26170664257407,94.28428899334772L37.47834489173293,95.33096440521727L37.62277039117217,96.51641318427335L37.91162139005065,97.99501588515211L38.77817438668609,102.62823877719006L39.06702538556457,107.38090579439945L39.211450885003806,111.62392470099623L39.35587638444304,115.51829857572969L39.42808913416267,118.74311676095613L39.572514633601905,121.77239844308578L40.00579113191962,125.41556410177239L40.07800388163924,128.7337751934884L40.150216631358866,131.7855740821924L40.222429381078484,134.32134714500282L40.2946421307981,136.54788746557097L40.87234412855506,139.89390740647534L41.08898237771392,142.8060117392856L41.30562062687278,145.81606460051987L41.3778333765924,148.23443437601853L41.45004612631202,150.5787735061592L41.52225887603164,152.60661399300477L41.88332262462974,154.70273197017966L42.461024622386695,156.8521579066356L42.53323737210632,158.76375463072338L42.96651387042403,160.6491849535591L43.544215868180984,161.7886922851056L43.760854117339846,162.52531189760361L43.833066867059465,163.24590834989746L44.33855611509681,163.59765306230645L44.55519436425566,164.04544799668813L44.699619863694906,164.6556366013022L45.27732186145186,165.25583153951283L45.49396011061072,165.52761613224962L45.56617286033034,165.80198388359258L46.21608760780692,165.77646001439064L46.360513107246156,165.7301389854519L46.43272585696578,165.51068136651048L46.5049386066854,165.6176956521553L47.010427854722735,165.50187514453108L47.371491603320834,165.15878028872294L47.51591710276008,165.15178600156582L47.588129852479696,164.81679116477832L47.87698085135818,164.59276927997553L48.238044599956275,164.64805728267945L48.310257349675894,164.6056762848177L48.526895598834756,164.31367455666805L48.96017209715247,164.0964760540618L49.03238484687209,163.76687311414543L49.176810346311335,163.5096591784749L49.39344859547019,163.24950873811468L49.537874094909434,163.04894255559407L49.61008684462905,162.8053608822108L49.75451234406829,162.53335417798118L49.89893784350753,162.55299855032615L49.97115059322715,162.2628759804676L50.476639841264486,162.37553491497465L51.05434183902145,162.7093924938128L51.126554588741065,162.92079626497627L51.198767338460684,162.9037768969458L51.487618337339164,162.82430396848758L52.209745834535354,162.68041225166036L52.28195858425498,162.86360255091577L52.42638408369422,162.91900924163906L52.7152350825727,162.9170418387298L52.93187333173155,163.15873220228306L53.00408608145118,163.6520104866941L53.076298831170796,164.0795393322336L53.29293708032965,164.25377786479834L54.15949007696509,163.43439358216014L54.59276657528281,162.32076994438603L54.80940482444167,161.5038125690956L54.95383032388091,160.9425683068026L55.026043073600526,160.50945199998617L55.17046857303977,159.70421678475955L55.45931957191825,158.58681084458345L55.74817057079673,157.2275812081132L55.89259607023597,156.10306114319485L56.253659818834066,155.1140315105981L57.264638314908744,153.69142224961362L57.62570206350684,153.15757969994013L57.69791481322646,152.53891233834977L57.98676581210494,152.17363011464548L58.05897856182456,151.98991943046292L58.34782956070304,151.71073644527783L58.42004231042266,151.349954634014L58.5644678098619,151.3730416628942L58.78110605902076,151.12133651927164L59.142169807618856,150.67077420987644L59.21438255733848,150.39409030144387L59.2865953070581,150.4633443449366L59.6476590556562,150.1748727096757L59.71987180537582,149.91550348902248L59.792084555095435,149.60696239623L60.0087228042543,149.447611904241L60.65863755173088,149.94510591854143L60.80306305117011,150.686167589186L61.23633954948782,151.912608766349L61.66961604780555,152.86412559842964L61.741828797525166,153.87020889309525L62.17510529584288,155.05809375420444L62.391743545001745,155.59252770041118L62.68059454388022,156.73771614192682L62.9694455427587,157.79814854583495L63.11387104219794,158.5410867035767L63.40272204107642,159.04088686843144L63.47493479079604,159.60782098882697L63.54714754051566,159.90217033528876L63.691573039954896,159.93850009640366L64.052636788553,160.04342819147314L64.4137005371511,159.95961984536734L64.48591328687071,159.84149172104674L64.55812603659034,159.61160850888356L65.64131728238463,157.91805962594816L66.14680653042197,156.89561202853665L66.5800830287397,156.64353297900453L66.6522957784593,156.4711381343904L66.79672127789856,156.26076845491772L66.94114677733779,156.1292553955468L67.22999777621627,156.1980974434428L67.87991252369285,155.79939446935816L68.02433802313209,156.1885549007036L68.09655077285171,156.44885232400915L68.31318902201056,156.35441345877365L68.74646552032829,156.52008311979142L69.32416751808525,156.5088199986941L69.39638026780486,156.30990036852037L69.61301851696372,156.27508867737072L69.68523126668335,156.02387377990192L70.33514601415992,155.02630019074584L70.40735876387953,154.17572831147348L71.20169901079535,153.8443442074221L71.41833725995421,153.9124873694208L71.49055000967383,153.83865267470927L71.63497550911308,154.01957621429486L71.77940100855231,153.91054427893783L72.790379504627,154.58427173811L73.15144325322508,154.5961952297537L73.29586875266433,154.7217521781086L73.5125070018232,154.46849281812354L73.65693250126243,154.46208490873863L74.01799624986053,153.7024672449455L74.09020899958016,153.15126642147737L74.52348549789787,152.90963231858066L74.66791099733709,152.82180297616304L74.74012374705673,152.99706616489576L74.88454924649596,153.16030238426941L74.95676199621558,153.1447402594474L75.17340024537444,153.20673170619918L75.31782574481367,152.73492806938137L75.67888949341177,152.06518295928532L75.7511022431314,151.3808610646269L76.40101699060797,150.31243622283446L76.54544249004721,149.34620304837014L76.8342934889257,148.6613473036741L76.90650623864532,147.8258004475222L76.97871898836493,147.6268446359096L77.2675699872434,146.93143426081795L77.55642098612189,146.55064615627677L77.62863373584152,146.18013862627217L77.84527198500037,146.03768149690623L77.9896974844396,145.87450940954986L78.06191023415923,145.58975898877588L78.13412298387884,145.26860406490422L78.20633573359848,145.14954782402964L78.27854848331809,144.91524777997694L78.35076123303772,144.52988467955473L78.49518673247695,144.01300741171534L78.56739948219656,143.40256778273363L78.92846323079468,142.95287102034607L79.00067598051429,142.5200647265988L79.28952697939276,142.48938896103036L79.50616522855164,142.27230065276805L79.65059072799087,142.06858407730044L80.08386722630858,141.70803020347657L80.22829272574783,141.38821066637826L80.58935647434592,140.96471087983312L80.87820747322439,139.90037372740667L80.95042022294403,139.02221241937542L81.09484572238327,138.17507330541568L81.9613987190187,137.3216646277576L82.46688796705604,136.35780446396208L82.53910071677566,135.7837355500964L82.6835262162149,135.30802589406323L82.75573896593451,134.81374173894108L82.82795171565414,134.6772977463203L82.90016446537375,134.17418271336146L83.044589964813,133.90245952926776L83.26122821397186,133.9370693158321L83.55007921285033,133.5761446057798L83.62229196256995,133.29842223971536L83.91114296144843,133.39097713583737L84.12778121060728,134.02435700749615L84.41663220948577,134.38118494019037L84.63327045864463,134.5512943858965L84.70548320836424,134.57323043004953L84.77769595808387,134.59740935542823L84.84990870780348,135.03453237871582L84.9221214575231,134.9981641901679L85.06654695696236,134.81506179808255L85.13875970668197,134.45527736816814L85.21097245640159,133.99520783184423L85.42761070556044,133.51389331045698L85.49982345528007,133.11940181491403L85.57203620499968,132.71625325479042L85.71646170443891,132.34159472726955L85.86088720387816,131.57029783778566L85.93309995359779,131.02341240523558L86.43858920163511,129.82874047662176L86.65522745079399,128.93718175635797L86.94407844967246,127.7183497121288L87.16071669883131,126.6974095797983L87.30514219827056,125.99251848952713L87.4495676977098,124.88137898028931L87.73841869658827,123.97047186668368L88.02726969546676,122.74589010529786L88.24390794462562,121.78724056589752L88.31612069434523,120.75469347793708L88.38833344406486,119.90399647600904L88.46054619378447,119.3704769809085L88.89382269210219,118.6167378756538L89.32709919041991,117.74029607786052L89.47152468985915,117.07119275320005L89.54373743957878,116.2698335200082L89.83258843845725,115.74756565592746L90.04922668761611,115.38739553460135L90.12143943733574,114.60950574459305L90.33807768649459,114.13297449136313L90.41029043621421,113.79573488724712L90.48250318593382,113.55750490276561L90.62692868537306,113.12914152116528L90.77135418481231,112.67000599967295L91.20463068313002,112.17291960463828L91.4212689322889,111.68909300165619L91.49348168200851,111.11390501916094L91.71011993116737,110.82233070785448L91.78233268088698,110.65620863982754L91.8545454306066,110.17581791656532L91.99897093004586,109.96494310442233L92.07118367976547,109.33059591798532L92.50446017808318,109.11546247419848L92.79331117696167,108.95111140876489L92.86552392668128,108.50394900773279L93.00994942612051,108.55286367469577L93.15437492555975,107.93398002254523L93.29880042499899,107.13877029888475L93.37101317471861,106.57245144500267L93.44322592443824,106.04082053169203L93.51543867415786,105.58529022537648L93.58765142387747,105.30037372835233L93.80428967303634,105.11509542001944L93.94871517247557,104.84382032293601L94.09314067191482,103.97358339424399L94.30977892107367,103.61648983528636L94.45420442051291,103.04801441950227L94.52641717023253,103.01045117008988L94.59862991995215,102.56975743777343L95.03190641826987,102.60423606418907L95.1041191679895,102.5712176404828L95.24854466742873,102.17548976279899L95.46518291658758,101.58539659696238L95.75403391546607,101.07655622197451L95.97067216462493,100.36442258740901L96.18731041378378,99.51614382861096L96.25952316350342,99.07894087045766L96.40394866294265,98.53777465304606L96.54837416238189,97.820860774822L96.69279966182113,97.28456849092652L97.05386341041923,96.84782528940731L97.27050165957809,96.36348509760195L97.41492715901732,95.87844788481192L98.49811840481162,95.21495639882053L98.7869694036901,94.93787643393424L98.93139490312933,94.47687940380766L99.00360765284897,94.08241895229776L99.29245865172744,93.88483363310667L99.43688415116668,93.63819107981796L99.50909690088629,93.67130635041788L99.72573515004517,93.66893297371695L99.8701606494844,93.51912600168167L100.01458614892364,93.62046775103961L100.23122439808249,93.43737753488355L100.37564989752174,93.89324427169936L100.44786264724137,93.99735013980755L100.5922881466806,94.07183635110978L100.88113914555908,93.98834365398666L101.16999014443756,93.86339866620773L101.67547939247488,94.02380283183606L101.7476921421945,94.21059137633544L101.81990489191413,94.22962389120572L101.89211764163375,94.08250813409164L102.03654314107298,94.40224287766304L102.25318139023184,94.37700832661628L102.32539413995146,94.51703055241926L102.39760688967108,94.52916891755534L102.61424513882994,94.58431762100427L102.68645788854957,94.75065255372469L102.75867063826918,94.69003316964684L102.8308833879888,95.00824451887763L103.40858538574577,94.51542953887055L103.48079813546538,94.34661886215598L103.69743638462424,94.40048016870331L104.20292563266158,94.60979163473081L104.41956388182044,95.11250666543461L104.9972658795774,95.4321183497017L105.06947862929701,95.63800482970524L105.21390412873625,95.7637797782614L105.28611687845589,95.60529851241077L105.3583296281755,95.29426183743713L105.57496787733436,95.19203411829315L105.64718062705397,94.69408888127708L105.7916061264932,94.4826229164691L105.93603162593246,94.22457549967754L106.29709537453056,93.80372348536554L106.36930812425017,93.23853393945024L106.65815912312866,92.82412216758085L106.73037187284828,92.19530675397577L106.80258462256789,91.58733366899894L106.87479737228752,91.33318940328574L107.09143562144637,91.19306054541921L107.16364837116599,90.84043704777812L107.2358611208856,90.56270450922601L107.45249937004448,90.74322908174713L107.52471211976409,90.70135640199636L108.10241411752105,90.92305356827946L108.39126511639952,90.95802155605499L108.53569061583876,90.9777209651214L108.680116115278,90.63435669612143L108.75232886499764,90.5697116987488L108.96896711415648,90.3812900929257L109.18560536331535,89.89227926982014L109.25781811303496,89.97805674940554L109.33003086275458,89.84555430561224L109.40224361247421,89.95608570241L109.61888186163307,89.90106284261117L110.19658385939003,89.72954303884306L110.34100935882927,89.87443303655117L110.4854348582685,89.48235719062485L110.62986035770774,89.78090196322975L110.70207310742735,89.68154283834562L110.91871135658621,89.626803289912L111.06313685602545,89.45717046473149L111.20756235546469,89.25367279690373L111.5686261040628,89.09134202504389L112.07411535210012,88.67831333484729L112.14632810181976,88.36094424966988L112.36296635097861,88.36504986951648L112.50739185041785,88.3110649274715L112.94066834873557,88.08011939177942L113.0128810984552,87.73365416852009L113.15730659789443,87.65058896388544L113.30173209733367,87.19803089526013L113.59058309621216,87.39383830894423L113.87943409509063,87.61027855757902L114.02385959452987,87.66540139927703L114.38492334312797,87.88761808057933L114.45713609284759,87.90573313082496L114.5293488425672,87.88419335433777L115.03483809060455,87.84180396239061L115.10705084032416,87.5877170386398L115.54032733864187,87.69326457532158L115.82917833752036,87.89524775758612L115.90139108723999,88.10868626722664L115.9736038369596,88.3919268543648L116.62351858443618,88.8678340081354L116.76794408387542,89.4124284980414L116.98458233303427,89.87339920281197L117.41785883135199,90.45927332172128L117.49007158107162,90.77689105370659L117.7789225799501,91.14386378564386L117.99556082910895,91.82977095386516L118.06777357882858,92.1758649119712L118.13998632854819,92.55798503889989L118.35662457770705,92.75071136719848L119.15096482462287,92.71984498831856L119.36760307378174,92.94963141504246L119.58424132294058,92.85132383890367L119.65645407266021,93.14861118233279L119.72866682237982,93.59043702650537L119.94530507153868,93.77383533050467L120.01751782125831,93.5357336662657L120.08973057097792,93.21471226158481L121.17292181677223,93.21111994698413L121.38956006593108,93.28156585284545L121.53398556537032,93.48072915952271L121.60619831508994,93.72835059767941L121.75062381452918,94.02968290996945L121.82283656424879,94.1501327692357L122.03947481340767,94.24814877567204L122.25611306256651,94.42991463580445L122.32832581228614,94.54536560449449L122.47275131172537,94.5471829840617L122.61717681116463,94.37834574739303L122.76160231060386,94.37539495838276L122.9060278100431,94.46259387558023L123.12266605920195,94.18507607806497L123.26709155864118,93.86328628285804L123.41151705808043,93.75941878487899L123.55594255751967,93.47552596887601L123.70036805695891,93.0056836138582L123.84479355639814,92.24359856312398L124.56692105359434,91.77644798544107L124.85577205247283,92.0615274603157L125.1446230513513,92.13819509515696L125.21683580107093,92.22184610861507L125.28904855079054,92.41548388401057L125.43347405022979,92.46477160488537L125.65011229938865,92.66651828776298L125.8667505485475,92.69125072737033L126.01117604798674,92.39389128957323L126.22781429714561,91.9683149283236L126.66109079546332,91.46500541017167L126.80551629490257,90.56901116651645L126.94994179434181,89.99358517910586L127.02215454406142,89.26234121120439L127.23879279322028,88.86183208212283L127.3110055429399,88.54395807956705L127.38321829265952,87.98110425460048L127.59985654181838,87.66042935009362L128.17755853957533,87.57978189818536L128.53862228817346,87.79510454339515L128.68304778761268,87.89866459688886L129.11632428593038,88.16234820561858L129.40517528480888,88.47502290535769L129.4773880345285,88.84533515265429L129.5496007842481,88.72093212204852L129.62181353396772,88.82051590540215L130.05509003228545,88.87996845556515L130.2717282814443,88.93392620280527L130.77721752948165,88.6276695320472L130.9216430289209,88.34269839433124L131.13828127807975,88.47206144373469L131.21049402779937,88.54694032189288L131.42713227695822,88.54867855943195L131.49934502667784,88.62292294809347L131.86040877527594,88.8661210042925L131.93262152499557,89.29955637299248L132.0048342747152,89.29400043299984L132.22147252387404,89.62712326363189L132.4381107730329,90.12388382597541L132.51032352275251,90.69372093250539L132.58253627247214,91.19207147416928L132.65474902219177,91.59957705700795L132.7269617719114,91.98610425263853L133.1602382702291,92.83252189814695L133.5935147685468,93.41786772291995L134.02679126686454,94.39580518774282L134.315642265743,95.28842461674306L134.46006776518226,95.85038036481497L134.82113151378036,96.31274620192681L135.10998251265883,96.96124019606656L135.61547176069618,97.79584886818915L135.7598972601354,98.78883547632421L135.97653550929428,99.8703143990226L136.12096100873353,100.7544053638616L136.19317375845313,101.61957364621261L136.409812007612,102.60324978077705L136.4820247573316,103.4066452133692L136.62645025677085,103.68893672731302L136.69866300649048,103.94311764358153L136.91530125564933,104.08845891303915L138.14291800088284,103.76107448413512L138.2151307506025,103.66262588861767L138.2873435003221,103.60260361301889L138.35955625004172,103.53485552031066L138.6484072489202,103.49630035346136L138.86504549807904,103.37690016742513L139.15389649695754,103.19248011081838L139.22610924667717,102.99112861821794L139.29832199639677,102.78328592106952L139.58717299527524,102.13046785362907L139.6593857449949,101.84368826196616L139.7315984947145,101.47453305476644L139.87602399415374,101.30117223064236L140.02044949359296,100.64545444017529L140.1648749930322,100.37462150152244L140.30930049247146,100.40064114809468L140.8870024902284,100.76663698152328L141.2480662388265,101.25352378035056L141.32027898854614,101.41263899344895L141.9701937360227,101.99618072693806L142.04240648574233,102.4135270317262L142.83674673265816,102.66334901766763L143.19781048125625,102.24114023143238L143.4144487304151,101.34021413902227L143.48666148013473,100.60837726763769L143.70329972929358,100.08282278841753L143.84772522873283,99.46617120549405L143.91993797845245,98.86774392429045L144.49763997620943,98.11589824794042L144.56985272592902,97.5903982722931L144.64206547564865,97.23477640493059L144.71427822536825,97.21153168697576L144.93091647452712,96.99203604366191L145.07534197396637,96.81359044289438L145.147554723686,96.59532475924999L145.2197674734056,96.72802474598889L145.79746947116254,96.83045706408677L146.15853321976064,97.4500381001574L146.2307459694803,97.50626297409059L146.44738421863912,97.57396117716188L146.95287346667646,97.89484612927536L147.0972989661157,98.2099238655955L147.8194264633119,97.819362751413L148.18049021191,97.28430760398541L148.2527029616296,97.112434222162L148.39712846106886,97.02392716649004L148.46934121078849,97.16865558840807L148.9026177091062,97.80916841056892L148.97483045882583,98.39989906319559L149.40810695714353,98.78089599283298L149.48031970686318,99.27401391836882L150.13023445433976,100.23652059305225L150.41908545321823,101.33785920974566L150.56351095265745,102.28180087239738L150.85236195153593,103.00015467642342L151.50227669901253,103.57790013634674L151.64670219845175,103.9707724847601L151.86334044761063,104.46511015019988L152.00776594704985,105.14097246113236L152.0799786967695,105.4656707054553L152.44104244536757,105.59037419804923L152.65768069452645,106.06868369614384L153.01874444312455,106.44997832958683L153.16316994256377,106.65376902438598L153.45202094144224,106.4957165923537L153.5964464408815,106.4214002912428L153.66865919060112,106.48148255308267L153.74087194032072,106.75328162166643L153.88529743975997,106.79208177354069L154.0297229391992,106.46452440779869L154.39078668779732,105.69178474104696L154.60742493695616,104.73154828969362L154.75185043639542,104.09743459496829L154.9684886855543,103.32509301742469L155.1851269347131,102.68029659333459L155.47397793359158,102.07845494759424L155.69061618275046,101.25643443762448L155.97946718162893,100.48968118949986L156.05167993134856,100.0583309833699L156.12389268106816,99.55170763566264L156.6293819291055,99.09004477107462L156.77380742854476,98.52176125205204L156.91823292798398,97.89852608185811L157.13487117714286,97.2572590813683L157.20708392686248,96.61812499989401L157.6403604251802,95.77132731832117L157.71257317489983,95.2185149365522L158.0014241737783,94.86852349215451L158.29027517265678,94.26911690618579L158.50691342181565,93.89459098698266L158.57912617153525,93.4321190154865L158.65133892125488,93.38033944579585L158.72355167097447,93.2462054050212L158.86797717041372,92.77719897071796L159.0846154195726,92.64074162587198L159.59010466760992,92.45935492566964L159.66231741732958,92.40992994731856L160.02338116592765,92.47292759152559L160.16780666536687,92.51444020728366L160.24001941508652,92.77303687104401L160.31223216480612,92.9801387605639L160.9621469122827,93.20614651284183L161.2509979111612,93.0379593142675L161.3232106608808,92.56937455886822L161.39542341060044,92.53310870981917L161.46763616032004,92.69718407030616L161.61206165975926,92.62994305534825L161.9731254083574,92.91526306926627L162.04533815807702,93.03168753811221L162.18976365751624,92.9586594285365L162.26197640723586,93.1056237695867L162.3341891569555,93.56386734647641L162.55082740611437,93.82578004731413L162.6952529055536,94.3208363555373L162.76746565527318,94.45862788580173L162.83967840499284,94.76419192787458L163.4895931524694,95.26382584020023L163.70623140162826,95.82126006165683L164.35614614910483,96.61960149717943L164.78942264742255,97.77006314249984L164.86163539714215,98.58431873757037L165.2949118954599,99.30053781754019L165.3671246451795,99.90614564372974L165.43933739489913,100.4316868145724L165.58376289433838,100.58478284313647L166.01703939265607,101.05972109189852L166.4503158909738,101.16271245057429L166.52252864069342,101.48183792746947L167.10023063845037,101.95438182711108L167.17244338817,101.92321239200298L167.38908163732887,102.21268121606673L167.60571988648772,102.83867365214749L167.8945708853662,103.21982001902774L168.03899638480542,103.89185659529018L168.32784738368392,104.49793409763006L168.76112388200164,104.83212856611566L169.04997488088011,105.2676896940497L169.12218763059974,105.50028324627795L169.3388258797586,105.57272306022541L169.4832513791978,105.34545472480244L169.6998896283567,105.26179458190288L169.98874062723516,105.15222280622238L170.13316612667444,105.0004483166413L170.27759162611366,104.71949393736166L170.34980437583326,104.54682520165755L170.4220171255529,104.31326407357189L170.92750637359023,104.5138179014257L171.07193187302948,104.7605447648259L171.14414462274908,104.75585727884477L171.57742112106683,104.40325704571444L171.64963387078643,104.00415380483064L171.72184662050606,103.73622634024548L171.8662721199453,103.50366846281105L172.01069761938453,103.20626359494017L172.87725061601995,103.01539874373945L173.52716536349652,102.39818372210513L173.81601636237502,101.64927253434193L174.1770801109731,101.12895800775497L174.24929286069275,100.6028748184412L174.61035660929085,100.20243607409616L174.68256935901044,99.78032077510666L174.75478210873007,99.39457020744223L175.04363310760854,98.5811411667786L175.1158458573282,97.96598344088945L175.5491223556459,97.21322482713131L175.83797335452437,97.03306443083076L175.910186104244,96.41414784215313L175.98239885396362,96.01466105877292L176.12682435340284,95.64126600918858L176.19903710312246,95.15871374047452L176.5601008517206,95.04649436412768L176.7767391008794,94.75589618608858L176.92116460031866,94.40195254121934L177.13780284947754,94.28118290254594L177.35444109863639,94.09146663617105L177.57107934779523,93.97655209577579L177.7155048472345,93.7982496459192L178.1487813455522,93.67059415970463L178.2209940952718,93.42213902360278L178.36541959471106,93.53209514954558L178.50984509415028,93.36392159446723L179.1597598416269,93.81451065371854L179.2319725913465,94.25695979277597L179.30418534106613,94.35759464703834L179.37639809078573,94.62250436624603L180.38737658686043,94.92688709132736L180.6762275857389,95.30066948843096L180.96507858461737,95.77865450498565L181.037291334337,96.11100246089138L181.25392958349588,96.79794768381483L181.32614233321547,97.32623817110105L181.54278058237435,97.85759337132305L181.68720608181357,98.09067579357445L181.83163158125282,98.34948325590109L182.19269532985092,98.1783291839453L182.40933357900977,98.4262571106145L182.553759078449,98.53909458816996L182.62597182816864,98.65756631229522L182.77039732760787,98.61765630329386L182.98703557676674,98.67550538555658L183.20367382592556,98.47482362120685L183.34809932536484,97.99249287999731L183.5647375745237,97.83422395254185L183.78137582368254,97.94643520865311L183.85358857340216,97.82562446924966L184.070226822561,98.24891023463906L184.2868650717199,98.19080992094162L184.86456706947683,97.54309530742215L184.93677981919646,96.91164086493657L185.0812053186357,96.32619623954533L185.4422690672338,95.69775277628263L185.80333281583188,95.09482245362885L185.87554556555153,94.51228439808321L185.94775831527113,94.21165954285024L186.09218381471035,93.54687599978567L186.16439656443,92.9778524513712L186.30882206386923,92.65009583082913L186.45324756330848,92.30913225039978L186.66988581246733,92.02340716691592L186.74209856218698,91.62894432408804L187.03094956106546,91.61785995321489L187.39201330966353,91.71024167894375L187.53643880910275,91.51824592240062L187.9697153074205,91.58333422023816L188.0419280571401,91.56633767778055L188.11414080685972,91.47243130259771L188.18635355657938,91.38369093919245L188.25856630629897,91.28230605740816L188.47520455545785,91.10558394470485L188.61963005489707,90.95388498395087L188.83626830405592,90.689169065006L188.90848105377555,90.494843122714L189.12511930293442,90.40770569953824L189.26954480237364,90.38787160992406L189.4139703018129,90.76007513012718L189.4861830515325,90.94813970986178L189.55839580125212,91.08028143400644L189.8472468001306,91.08413086196914L190.13609779900906,91.18307864343146L190.20831054872872,90.94627321828587L190.28052329844834,90.64377068501105L190.56937429732682,89.97488713823148L190.64158704704641,89.43111093876772L190.78601254648567,88.72503662771899L190.8582252962053,88.0159783341197L191.0026507956445,87.11036693389777L191.07486354536417,86.4779608384005L191.14707629508376,85.80103184840578L191.291501794523,84.91434783797871L191.36371454424264,83.92006815864919L191.50814004368186,82.78206356378702L191.72477829284074,81.67028142861936L191.86920379227996,80.75710725438836L191.94141654199956,80.28918067342492L192.3746930403173,79.17676049258861L192.4469057900369,78.07199483379426L192.51911853975653,77.5574589547195L192.807969538635,76.70720853161315L192.95239503807426,75.86911268264826L193.09682053751348,75.11550163548502L193.38567153639195,74.22139549542194L193.8911607844293,73.12512741950074L194.10779903358818,72.36692265680156L194.2522245330274,71.41601801790867L194.39665003246665,70.61325274294285L194.46886278218628,70.01147649346346L194.75771378106475,69.15186527649776L194.902139280504,68.32669035417226L194.9743520302236,67.78042263407491L195.04656477994322,67.28768285984232L195.2632030291021,66.81118473197661L195.3354157788217,66.37802339009002L195.55205402798057,65.97476802955852L195.62426677770017,65.84127569171282L195.84090502685905,65.56246438755555L196.05754327601792,65.79103058095613L196.3463942748964,65.64988349762575L196.7796707732141,65.11019237958544L196.85188352293372,64.70287145121988L197.06852177209257,64.29614697801297L197.1407345218122,63.781627379054044L197.28516002125144,63.50897692783525L197.42958552069067,63.075148467558115L197.50179827041032,62.67018609409089L197.64622376984954,62.49768231491044L197.71843651956914,62.079482198192444L197.8628620190084,61.78514053425319L197.93507476872801,61.631021944888346L198.00728751844764,61.63312896724164L198.07950026816727,61.499206506924956L198.2239257676065,61.258755167763134L198.36835126704574,60.88363995871506L198.44056401676536,60.967168114368455L198.72941501564384,60.495917568201115L198.80162776536346,60.302944235048734L198.9460532648027,60.3859463711838L199.16269151396153,60.098967367774016L199.3071170134008,59.817457816210315L199.52375526255966,59.504272360570035L200.3903082591951,59.40258944738824L200.67915925807358,59.049374337269654L200.89579750723243,58.42736662042994L201.2568612558305,57.53768409261231L201.40128675526978,56.9326945902836L201.61792500442863,56.217166321029126L202.05120150274632,55.36373399113793L202.12341425246595,54.782474539580264L202.2678397519052,54.6067376390688L202.48447800106408,53.89166990276029L202.7011162502229,53.325151081025446L202.77332899994255,52.8499082371362L202.84554174966217,52.405240406350934L203.49545649713875,51.32082920984145L203.56766924685834,50.393357164932404L203.639881996578,49.62537003939417L203.7120947462976,48.909002704864086L203.85652024573682,48.43905698258146L204.00094574517607,47.661279614494916L204.21758399433494,47.11935844029824L204.57864774293304,46.4484792942781L204.72307324237227,45.730951639452826L204.79528599209192,45.39416224998096L204.86749874181152,44.91608851301925L204.93971149153114,44.38640264750911L205.5174134892881,43.19689750073018L206.16732823676466,41.18940171793173L206.5283919853628,39.34726988703025L207.10609398311973,37.31347338955253L207.17830673283936,35.79372603796088L207.3949449819982,34.15461711686292L207.6837959808767,32.71306499087166L207.90043423003553,31.44525283569344L208.189285228914,30.379672544516175L208.40592347807288,29.434692310013872L208.62256172723175,28.47995068201216L208.69477447695135,27.65998476966881L208.76698722667098,27.071890463900797L208.91141272611023,26.539490904464987L209.48911472386717,26.218061139364895L209.6335402233064,25.57014341230645L209.77796572274568,25.039984821531025L209.9223912221849,24.486977503371065L210.28345497078297,23.860423844861646L210.6445187193811,23.384174982145225L211.22222071713807,22.811220469238933L211.29443346685767,22.31709170546278L211.3666462165773,21.970369823199643L211.65549721545577,21.70598653601433L211.87213546461464,21.291252347993886L212.0887737137735,21.084261986931942L212.66647571153047,20.639850832573984L212.8109012109697,20.33950505808763L213.09975220984816,20.00286687242613L213.17196495956776,19.900481191780813L213.2441777092874,20.020474608572744L213.31639045900704,19.855239723667594L213.46081595844626,19.510935249136946L213.6052414578855,19.40619333086399L213.8218797070444,19.56723102927165L214.0385179562032,19.771159869999074L214.11073070592286,19.80181763118422L214.25515620536208,20.03095383674187L214.39958170480134,20.075007050665175L214.90507095283866,20.027555949891568L215.19392195171713,19.846804627427566L215.33834745115638,19.696480836136242L215.4827729505956,19.61374763563462L215.62719845003485,19.627796533188434L215.69941119975448,19.417039211858047L215.84383669919373,19.16443584002329L216.06047494835258,19.04523768920261L216.20490044779183,18.744662863955103L216.42153869695068,18.533825780169444L216.5659641963899,18.320438794274136L216.78260244554878,18.05060556979227L216.8548151952684,17.867176467213486L216.927027944988,17.586362631010534L217.64915544218422,17.483172454014028L217.72136819190382,17.574469301658137L217.86579369134307,17.722748617825886L217.9380064410627,17.882598908261546L218.0102191907823,17.988029605153987L218.08243194050192,17.82768959441982L218.2990701896608,17.5159448608766L218.3712829393804,17.44425134699407L218.51570843881964,17.304295494361842L218.73234668797852,17.14766472079972L218.87677218741774,17.080051288826947L219.02119768685696,16.95784001699675L219.16562318629622,16.90998895317993L219.8155379337728,16.927251948235817L219.8877506834924,16.958578609933948L220.10438893265126,17.1713771707335L220.24881443209054,17.335571184937894L220.39323993152976,17.5652107446297L220.537665430969,17.655622541267956L220.68209093040824,17.661033542109156L220.75430368012783,17.655169491589625L220.9709419292867,17.953971184894467L221.40421842760443,18.2581345079146L221.47643117732406,18.485118710173825L221.76528217620253,18.74451419277451L221.9819204253614,18.943588582308042L222.19855867452023,18.975081318263932L222.3429841739595,19.1289082364601L222.4151969236791,19.3643360432614L222.70404792255758,19.58654241400341L222.99289892143608,19.77988625734218L223.20953717059493,20.032230951415954L223.28174992031455,20.185386632338137L223.35396267003415,20.273148817728337L223.4261754197538,20.321812176848425L223.64281366891262,20.3695476630369L223.93166466779113,20.268624861006746L224.07609016723038,20.252994552851884L224.36494116610885,20.261978450656095L224.43715391582847,20.349266993492947L224.58157941526773,20.334835053250067L224.65379216498732,20.45946318600631L225.01485591358542,20.636522590745308L225.2314941627443,20.72278907334806L225.3037069124639,20.879059381346323L225.44813241190315,21.004333870033275L225.59255791134237,21.383537938393648L225.73698341078165,21.760537437776172L225.80919616050124,22.084987971077794L226.02583440966012,22.39745157608062L226.09804715937972,22.70632485943198L226.24247265881894,22.932111479867526L226.45911090797782,23.234708328323716L226.53132365769744,23.466291907141503L226.6757491571367,23.499536868286036L227.1090256554544,23.67228604275866L227.32566390461326,23.772101315243603L227.5423021537721,23.882079461059075L227.61451490349174,23.843775884726647L227.9033659023702,23.982824171709893L228.3366424006879,24.055522946735874L229.275408147043,23.76991937619063L229.56425914592148,23.520252932907717L229.7086846453607,23.27820242850776L230.0697483939588,23.143010395096184L230.28638664311765,22.842536438052353L230.4308121425569,22.62196263139878L230.7196631414354,22.471193079807787L231.08072689003347,22.49535803018956L231.36957788891198,22.457871774832057L231.65842888779045,22.492088961241993L231.87506713694933,22.56887189863939L232.52498188442587,22.68438807830373L232.9582583827436,22.74163094863997L233.6803858799398,22.779852009103823L233.75259862965942,22.762801400646303L233.824811379379,22.763606341887012L234.0414496285379,22.983449577292365L234.11366237825752,23.229915537242064L234.47472612685561,23.170575117352946L234.61915162629484,23.273168217318638L234.90800262517334,23.51193260926162L234.98021537489294,23.558995801145226L235.0524281246126,23.690853562503467L235.1246408743322,23.79626608832843L235.1968536240518,23.809135274875686L235.2690663737714,23.768695838880063L235.34127912349106,23.83321602502459L235.918981121248,23.709414783844164L236.13561937040686,23.719421509389324L236.56889586872458,23.580964214569637L236.85774686760308,23.456830831563014L237.57987436479925,23.244256811885425L237.65208711451888,23.20031456849901L237.7242998642385,23.01101047823706L238.22978911227582,23.051677012737404L238.59085286087395,23.159800144083203L238.80749111003277,23.0553902304872L238.95191660947205,23.152306291640524L239.02412935919165,23.156033775239838L239.09634210891127,23.147007495709243L239.1685548586309,23.210928012063707L239.45740585750937,23.233718123524543L240.03510785526635,23.486053162825574L240.10732060498594,23.542840255602478L240.32395885414482,23.553848618716014L240.46838435358404,23.6303428585786L240.54059710330367,23.66660313298686L240.68502260274292,23.66555910794758L241.04608635134102,23.619862009507486L241.55157559937834,23.66348715780936L241.69600109881756,23.723871158795514L241.91263934797644,23.923821319005707L242.0570648474157,24.00046883586389L242.4181285960138,24.114280208428212L242.63476684517266,24.1812376869072L242.85140509433148,24.36936965604661L243.50131984180808,24.566181301694844L243.5735325915277,24.853877361947287L243.79017084068659,25.207542093297775L244.0068090898454,25.59183187133465L244.15123458928466,25.83194035022844L244.22344733900428,26.026035528531988L244.656723837322,26.267276178158188L244.87336208648085,26.65847175943342L244.94557483620048,26.97873479702612L245.0900003356397,27.262142771586923L245.30663858479858,27.43537650678099L245.4510640842378,27.67862670848594L245.59548958367705,27.904021560994867L245.81212783283593,28.094373103236368L245.88434058255555,28.234155550620645L245.95655333227515,28.524925169002223L246.4620425803125,28.880127355212988L246.8231063289106,29.29367199939098L246.96753182834982,29.67159903811545L247.03974457806945,29.88032783955416L247.11195732778907,30.150443587648926L247.40080832666754,30.532139667516677L247.47302107638717,31.024385352725087L247.83408482498524,31.254763654516278L247.9062975747049,31.45746044503416L248.19514857358337,31.777025674910785L248.41178682274222,32.150467920857956L248.48399957246184,32.61198944605281L248.6284250719011,33.16910950955201L249.1339143199384,32.92793791461118L249.20612706965804,32.79101535589696L249.56719081825614,32.75506583493609L250.43374381489156,33.409100232157336L250.79480756348968,34.28047133671346L250.9392330629289,34.49460882587879L251.01144581264853,34.64911131435999L251.22808406180738,35.37977355759289L251.300296811527,35.869092648478976L251.9502115590036,35.42809057140578L252.3834880573213,35.22752344049762L252.67233905619977,36.332317301550404L252.7445518059194,36.73309264632821" fill="none"></path></g></g></g></g><g opacity="0.2"><g><g><g><path style="fill: none;" stroke="rgb(255, 112, 67)" stroke-width="2px" d="M36.53957914537787,80.9244876782656L36.61179189509749,86.83711328980462L36.97285564369559,97.34455692221741L37.18949389285445,97.94300535574385L37.26170664257407,98.6838730078259L37.47834489173293,98.14576765684978L37.62277039117217,100.01517516155013L37.91162139005065,102.66908484412599L38.77817438668609,118.05182709590713L39.06702538556457,123.84000518727544L39.211450885003806,126.7736375833691L39.35587638444304,129.75769740023338L39.42808913416267,130.7559582288318L39.572514633601905,133.22337908494228L40.00579113191962,139.34731425593662L40.07800388163924,141.53962286547147L40.150216631358866,143.64916762855916L40.222429381078484,144.23603726382908L40.2946421307981,145.29360960931496L40.87234412855506,153.08510225285727L41.08898237771392,154.32013196216843L41.30562062687278,157.745224695898L41.3778333765924,157.8365358006945L41.45004612631202,159.90077588405842L41.52225887603164,160.67967111659635L41.88332262462974,163.0555282395847L42.461024622386695,165.42387668734006L42.53323737210632,166.39165369798303L42.96651387042403,168.17631843435242L43.544215868180984,166.33966840253788L43.760854117339846,165.46814278394754L43.833066867059465,166.12543958243123L44.33855611509681,165.00351718845286L44.55519436425566,165.8354924391802L44.699619863694906,167.09515341023712L45.27732186145186,167.65563742038904L45.49396011061072,166.61440170662513L45.56617286033034,166.8991699692014L46.21608760780692,165.67438574198394L46.360513107246156,165.54488565530124L46.43272585696578,164.6329675744293L46.5049386066854,166.0457072758913L47.010427854722735,165.0386325257109L47.371491603320834,163.78649426479404L47.51591710276008,165.1238103761582L47.588129852479696,163.47687018196035L47.87698085135818,163.69671296485808L48.238044599956275,164.86920312867687L48.310257349675894,164.43615607388188L48.526895598834756,163.14568848200906L48.96017209715247,163.22769444347938L49.03238484687209,162.44847640808098L49.176810346311335,162.48081283375745L49.39344859547019,162.2089145808797L49.537874094909434,162.24668251555653L49.61008684462905,161.83103874541376L49.75451234406829,161.44533143185436L49.89893784350753,162.63157580451121L49.97115059322715,161.1023884798558L50.476639841264486,162.8261697897562L51.05434183902145,164.0448207626244L51.126554588741065,163.76641031290904L51.198767338460684,162.83569949159397L51.487618337339164,162.50641250408466L52.209745834535354,162.1048457456405L52.28195858425498,163.59636337996795L52.42638408369422,163.1406359154971L52.7152350825727,162.9091722296219L52.93187333173155,164.12549340793186L53.00408608145118,165.62512321849243L53.076298831170796,165.78965443299126L53.29293708032965,164.95073190331L54.15949007696509,160.1568567967724L54.59276657528281,157.86627576858012L54.80940482444167,158.23598328818503L54.95383032388091,158.69759137867953L55.026043073600526,158.776986847452L55.17046857303977,156.4832760350037L55.45931957191825,154.1171872072718L55.74817057079673,151.79066278230977L55.89259607023597,151.60498096299563L56.253659818834066,151.15791303612997L57.264638314908744,148.0009852700221L57.62570206350684,151.0222095205632L57.69791481322646,150.0642429098976L57.98676581210494,150.7125012282877L58.05897856182456,151.2550766971362L58.34782956070304,150.59400450867548L58.42004231042266,149.90682739323643L58.5644678098619,151.46538977819608L58.78110605902076,150.11451594669148L59.142169807618856,148.86852497503082L59.21438255733848,149.2873546690575L59.2865953070581,150.74036051863828L59.6476590556562,149.0209861695289L59.71987180537582,148.87802660705466L59.792084555095435,148.37279802567372L60.0087228042543,148.81020993653874L60.65863755173088,151.93508197510965L60.80306305117011,153.65041427100954L61.23633954948782,156.81837347400182L61.66961604780555,156.6701929261319L61.741828797525166,157.89454207123305L62.17510529584288,159.8096331981456L62.391743545001745,157.73026348505982L62.68059454388022,161.3184699076835L62.9694455427587,162.039878161241L63.11387104219794,161.5128393344168L63.40272204107642,161.04008752778208L63.47493479079604,161.87555747034685L63.54714754051566,161.07956772111015L63.691573039954896,160.08381914086073L64.052636788553,160.46314057174533L64.4137005371511,159.6243864609478L64.48591328687071,159.36897922376875L64.55812603659034,158.69207566023732L65.64131728238463,151.14386409424537L66.14680653042197,152.80582163890926L66.5800830287397,155.63521678088L66.6522957784593,155.7815587559358L66.79672127789856,155.41928973702903L66.94114677733779,155.603203158064L67.22999777621627,156.47346563502634L67.87991252369285,154.20458257302153L68.02433802313209,157.745196626084L68.09655077285171,157.49004201723056L68.31318902201056,155.97665799783198L68.74646552032829,157.18276176386217L69.32416751808525,156.46376751430483L69.39638026780486,155.5142218478258L69.61301851696372,156.13584191277232L69.68523126668335,155.01901419002684L70.33514601415992,151.03600583412225L70.40735876387953,150.7734407943846L71.20169901079535,152.5188077912166L71.41833725995421,154.18506001741565L71.49055000967383,153.54331389586315L71.63497550911308,154.7432703726372L71.77940100855231,153.47441653750997L72.790379504627,157.27918157479854L73.15144325322508,154.64388919632853L73.29586875266433,155.22397997152825L73.5125070018232,153.45545537818316L73.65693250126243,154.43645327119907L74.01799624986053,150.66399658977298L74.09020899958016,150.9464631276049L74.52348549789787,151.9430959069939L74.66791099733709,152.47048560649256L74.74012374705673,153.69811891982653L74.88454924649596,153.81324726176405L74.95676199621558,153.08249176015943L75.17340024537444,153.45469749320637L75.31782574481367,150.84771352211027L75.67888949341177,149.38620251890097L75.7511022431314,148.64357348599327L76.40101699060797,146.0387368556647L76.54544249004721,145.48127035051294L76.8342934889257,145.92192432488986L76.90650623864532,144.4836130229146L76.97871898836493,146.8310213894593L77.2675699872434,144.14979276045148L77.55642098612189,145.027493738112L77.62863373584152,144.69810850625385L77.84527198500037,145.46785297944234L77.9896974844396,145.22182106012434L78.06191023415923,144.45075730567993L78.13412298387884,143.98398436941767L78.20633573359848,144.6733228605313L78.27854848331809,143.97804760376613L78.35076123303772,142.98843227786597L78.49518673247695,141.94549834035774L78.56739948219656,140.96080926680673L78.92846323079468,141.15408397079574L79.00067598051429,140.78883955160973L79.28952697939276,142.36668589875666L79.50616522855164,141.40394741971863L79.65059072799087,141.25371777543L80.08386722630858,140.2658147081811L80.22829272574783,140.10893251798507L80.58935647434592,139.27071173365266L80.87820747322439,135.64302511770092L80.95042022294403,135.50956718725052L81.09484572238327,134.78651684957663L81.9613987190187,133.90802991712536L82.46688796705604,132.5023638087801L82.53910071677566,133.4874598946335L82.6835262162149,133.4051872699306L82.75573896593451,132.83660511845255L82.82795171565414,134.13152177583726L82.90016446537375,132.16172258152588L83.044589964813,132.8155667928931L83.26122821397186,134.07550846208954L83.55007921285033,132.13244576557054L83.62229196256995,132.18753277545775L83.91114296144843,133.76119672032536L84.12778121060728,136.55787649413122L84.41663220948577,135.80849667096726L84.63327045864463,135.23173216872124L84.70548320836424,134.66097460666168L84.77769595808387,134.69412505694282L84.84990870780348,136.78302447186644L84.9221214575231,134.85269143597617L85.06654695696236,134.08265222974114L85.13875970668197,133.0161396485105L85.21097245640159,132.1549296865487L85.42761070556044,131.58863522490802L85.49982345528007,131.54143583274222L85.57203620499968,131.10365901429577L85.71646170443891,130.84296061718615L85.86088720387816,128.4851102798501L85.93309995359779,128.83587067503518L86.43858920163511,125.05005276216639L86.65522745079399,125.37094687530308L86.94407844967246,122.84302153521199L87.16071669883131,122.61364905047648L87.30514219827056,123.17295412844229L87.4495676977098,120.43682094333795L87.73841869658827,120.32684341226118L88.02726969546676,117.8475630597546L88.24390794462562,117.95264240829616L88.31612069434523,116.62450512609539L88.38833344406486,116.50120846829682L88.46054619378447,117.2363990005064L88.89382269210219,115.60178145463496L89.32709919041991,114.23452888668749L89.47152468985915,114.39477945455815L89.54373743957878,113.06439658724094L89.83258843845725,113.65849419960432L90.04922668761611,113.94671504929707L90.12143943733574,111.49794658455986L90.33807768649459,112.22684947844346L90.41029043621421,112.44677647078302L90.48250318593382,112.60458496483957L90.62692868537306,111.41568799476394L90.77135418481231,110.83346391370364L91.20463068313002,110.18457402449954L91.4212689322889,109.75378658972795L91.49348168200851,108.81315308917974L91.71011993116737,109.6560334626287L91.78233268088698,109.99172036771984L91.8545454306066,108.25425502351627L91.99897093004586,109.12144385585052L92.07118367976547,106.79320717223723L92.50446017808318,108.25492869905119L92.79331117696167,108.2937071470304L92.86552392668128,106.71529940360438L93.00994942612051,108.74852234254772L93.15437492555975,105.458445413943L93.29880042499899,103.95793140424288L93.37101317471861,104.30717602947439L93.44322592443824,103.91429687844939L93.51543867415786,103.7631690001142L93.58765142387747,104.16070774025579L93.80428967303634,104.37398218668795L93.94871517247557,103.75871993460228L94.09314067191482,100.49263567947585L94.30977892107367,102.18811559945584L94.45420442051291,100.77411275636587L94.52641717023253,102.86019817244048L94.59862991995215,100.8069825085075L95.03190641826987,102.74215056985156L95.1041191679895,102.43914394565786L95.24854466742873,100.59257825206362L95.46518291658758,99.22502393361614L95.75403391546607,99.04119472202305L95.97067216462493,97.51588804914692L96.18731041378378,96.12302879341874L96.25952316350342,97.33012903784439L96.40394866294265,96.37310978339977L96.54837416238189,94.95320526192572L96.69279966182113,95.13939935534452L97.05386341041923,95.10085248333044L97.27050165957809,94.42612433038053L97.41492715901732,93.93829903365182L98.49811840481162,92.56099045485487L98.7869694036901,93.8295565743891L98.93139490312933,92.63289128330132L99.00360765284897,92.50457714625827L99.29245865172744,93.09449235634233L99.43688415116668,92.65162086666297L99.50909690088629,93.8037674328177L99.72573515004517,93.65943946691314L99.8701606494844,92.91989811354051L100.01458614892364,94.02583474847134L100.23122439808249,92.7050166702594L100.37564989752174,95.71671121896267L100.44786264724137,94.41377361224022L100.5922881466806,94.36978119631883L100.88113914555908,93.65437286549422L101.16999014443756,93.363618715092L101.67547939247488,94.66541949434927L101.7476921421945,94.95774555433297L101.81990489191413,94.30575395068684L101.89211764163375,93.4940451056352L102.03654314107298,95.68118185194876L102.25318139023184,94.27607012242913L102.32539413995146,95.07711945563128L102.39760688967108,94.57772237809948L102.61424513882994,94.8049124348L102.68645788854957,95.41599228460632L102.75867063826918,94.44755563333538L102.8308833879888,96.28108991580089L103.40858538574577,92.54416961884218L103.48079813546538,93.67137615529762L103.69743638462424,94.61592539489263L104.20292563266158,95.44703749884084L104.41956388182044,97.12336678824985L104.9972658795774,96.71056508677009L105.06947862929701,96.46155074971935L105.21390412873625,96.26687957248603L105.28611687845589,94.97137344900827L105.3583296281755,94.05011513754266L105.57496787733436,94.78312324171722L105.64718062705397,92.70230793321272L105.7916061264932,93.6367590572373L105.93603162593246,93.19238583251135L106.29709537453056,92.12031542811755L106.36930812425017,90.97777575578903L106.65815912312866,91.16647508010337L106.73037187284828,89.68004509955529L106.80258462256789,89.15544132909167L106.87479737228752,90.31661234043301L107.09143562144637,90.63254511395311L107.16364837116599,89.42994305721379L107.2358611208856,89.4517743550175L107.45249937004448,91.46532737183168L107.52471211976409,90.53386568299334L108.10241411752105,91.80984223341173L108.39126511639952,91.09789350715712L108.53569061583876,91.05651860138707L108.680116115278,89.26089962012165L108.75232886499764,90.31113170925823L108.96896711415648,89.62760366963334L109.18560536331535,87.93623597739781L109.25781811303496,90.32116666774724L109.33003086275458,89.31554453043907L109.40224361247421,90.398211289601L109.61888186163307,89.68097140341581L110.19658385939003,89.0434638237706L110.34100935882927,90.4539930273836L110.4854348582685,87.91405380691965L110.62986035770774,90.97508105364932L110.70207310742735,89.28410633880915L110.91871135658621,89.40784509617751L111.06313685602545,88.77863916400955L111.20756235546469,88.43968212559264L111.5686261040628,88.44201893760442L112.07411535210012,87.02619857406084L112.14632810181976,87.09146790896034L112.36296635097861,88.38147234890289L112.50739185041785,88.09512515929164L112.94066834873557,87.15633724901097L113.0128810984552,86.34779327548279L113.15730659789443,87.31832814534687L113.30173209733367,85.38779862075891L113.59058309621216,88.17706796368059L113.87943409509063,88.47603955211821L114.02385959452987,87.88589276606903L114.38492334312797,88.7764848057885L114.45713609284759,87.97819333180746L114.5293488425672,87.79803424838902L115.03483809060455,87.67224639460194L115.10705084032416,86.57136934363655L115.54032733864187,88.11545472204875L115.82917833752036,88.7031804866443L115.90139108723999,88.9624403057887L115.9736038369596,89.5248892029175L116.62351858443618,90.77146262321776L116.76794408387542,91.59080645766525L116.98458233303427,91.71728202189422L117.41785883135199,92.80276979735865L117.49007158107162,92.04736198164778L117.7789225799501,92.611754713393L117.99556082910895,94.57339962675039L118.06777357882858,93.5602407443952L118.13998632854819,94.08646554661473L118.35662457770705,93.52161668039275L119.15096482462287,92.59637947279899L119.36760307378174,93.86877712193811L119.58424132294058,92.45809353434834L119.65645407266021,94.33776055604935L119.72866682237982,95.35774040319563L119.94530507153868,94.50742854650198L120.01751782125831,92.58332700930978L120.08973057097792,91.93062664286128L121.17292181677223,93.19675068858137L121.38956006593108,93.56334947629077L121.53398556537032,94.27738238623155L121.60619831508994,94.71883635030613L121.75062381452918,95.2350121591297L121.82283656424879,94.6319322063006L122.03947481340767,94.64021280141742L122.25611306256651,95.15697807633401L122.32832581228614,95.00716947925471L122.47275131172537,94.55445250233058L122.61717681116463,93.70299680071824L122.76160231060386,94.36359180234169L122.9060278100431,94.81138954437017L123.12266605920195,93.07500488800386L123.26709155864118,92.57612710203026L123.41151705808043,93.34394879296283L123.55594255751967,92.33995470486408L123.70036805695891,91.12631419378684L123.84479355639814,89.19525836018724L124.56692105359434,89.9078456747093L124.85577205247283,93.20184535981426L125.1446230513513,92.4448656345219L125.21683580107093,92.55645016244762L125.28904855079054,93.19003498559258L125.43347405022979,92.66192248838456L125.65011229938865,93.4735050192734L125.8667505485475,92.79018048579971L126.01117604798674,91.20445353838485L126.22781429714561,90.26600948332512L126.66109079546332,89.45176733756401L126.80551629490257,86.98503419189542L126.94994179434181,87.69188122946366L127.02215454406142,86.3373653395984L127.23879279322028,87.25979556579664L127.3110055429399,87.27246206934394L127.38321829265952,85.72968895473416L127.59985654181838,86.37772973206609L128.17755853957533,87.25719209055228L128.53862228817346,88.65639512423434L128.68304778761268,88.31290481086364L129.11632428593038,89.21708264053746L129.40517528480888,89.725721704314L129.4773880345285,90.32658414184061L129.5496007842481,88.22331999962539L129.62181353396772,89.21885103881664L130.05509003228545,89.11777865621718L130.2717282814443,89.14975719176573L130.77721752948165,87.40264284901502L130.9216430289209,87.20281384346742L131.13828127807975,88.98951364134857L131.21049402779937,88.8464558345255L131.42713227695822,88.55563150958838L131.49934502667784,88.91990050273947L131.86040877527594,89.83891322908866L131.93262152499557,91.03329784779257L132.0048342747152,89.27177667302931L132.22147252387404,90.95961458615997L132.4381107730329,92.11092607534951L132.51032352275251,92.97306935862528L132.58253627247214,93.18547364082485L132.65474902219177,93.22959938836254L132.7269617719114,93.53221303516088L133.1602382702291,96.21819248018062L133.5935147685468,95.75925102201188L134.02679126686454,98.3075550470345L134.315642265743,98.85890233274401L134.46006776518226,98.09820335710256L134.82113151378036,98.16220955037409L135.10998251265883,99.5552161726255L135.61547176069618,101.13428355667949L135.7598972601354,102.76078190886437L135.97653550929428,104.19623008981617L136.12096100873353,104.29076922321755L136.19317375845313,105.08024677561662L136.409812007612,106.53795431903495L136.4820247573316,106.62022694373786L136.62645025677085,104.8181027830883L136.69866300649048,104.95984130865546L136.91530125564933,104.66982399086956L138.14291800088284,102.4515367685191L138.2151307506025,103.26883150654785L138.2873435003221,103.36251451062358L138.35955625004172,103.26386314947777L138.6484072489202,103.34207968606415L138.86504549807904,102.89929942328015L139.15389649695754,102.4547998843914L139.22610924667717,102.18572264781616L139.29832199639677,101.9519151324757L139.58717299527524,99.5191955838674L139.6593857449949,100.69656989531441L139.7315984947145,99.99791222596764L139.87602399415374,100.60772893414597L140.02044949359296,98.02258327830705L140.1648749930322,99.29128974691105L140.30930049247146,100.5047197343836L140.8870024902284,102.23062031523762L141.2480662388265,103.20107097565983L141.32027898854614,102.04909984584233L141.9701937360227,104.33034766089449L142.04240648574233,104.08291225087873L142.83674673265816,103.66263696143338L143.19781048125625,100.55230508649129L143.4144487304151,97.73650976938188L143.48666148013473,97.68102978209927L143.70329972929358,97.98060487153694L143.84772522873283,96.9995648738001L143.91993797845245,96.47403479947596L144.49763997620943,95.10851554254023L144.56985272592902,95.48839836970396L144.64206547564865,95.81228893548038L144.71427822536825,97.1185528151565L144.93091647452712,96.11405347040656L145.07534197396637,96.09980803982424L145.147554723686,95.72226202467232L145.2197674734056,97.2588246929445L145.79746947116254,97.24018633647822L146.15853321976064,99.92836224443997L146.2307459694803,97.7311624698234L146.44738421863912,97.8447539894469L146.95287346667646,99.17838593772944L147.0972989661157,99.47023481087592L147.8194264633119,96.2571182946831L148.18049021191,95.14408701427507L148.2527029616296,96.42494069486818L148.39712846106886,96.6698989438024L148.46934121078849,97.74756927608027L148.9026177091062,100.37121969921233L148.97483045882583,100.76282167370235L149.40810695714353,100.30488371138253L149.48031970686318,101.2464856205122L150.13023445433976,104.08654729178593L150.41908545321823,105.74321367651928L150.56351095265745,106.0575675230044L150.85236195153593,105.87356989252757L151.50227669901253,105.88888197604015L151.64670219845175,105.54226187841346L151.86334044761063,106.44246081195911L152.00776594704985,107.84442170486227L152.0799786967695,106.76446368274705L152.44104244536757,106.08918816842501L152.65768069452645,107.98192168852219L153.01874444312455,107.97515686335896L153.16316994256377,107.46893180358256L153.45202094144224,105.8635068642246L153.5964464408815,106.12413508679933L153.66865919060112,106.72181160044201L153.74087194032072,107.84047789600154L153.88529743975997,106.94728238103775L154.0297229391992,105.15429494483064L154.39078668779732,102.60082607404024L154.60742493695616,100.89060248428027L154.75185043639542,101.56097981606709L154.9684886855543,100.23572670725022L155.1851269347131,100.1011108969742L155.47397793359158,99.67108836463288L155.69061618275046,97.96835239774546L155.97946718162893,97.42266819700146L156.05167993134856,98.33293015885008L156.12389268106816,97.52521424483356L156.6293819291055,97.24339331272259L156.77380742854476,96.24862717596162L156.91823292798398,95.40558540108239L157.13487117714286,94.6921910794091L157.20708392686248,94.06158867399688L157.6403604251802,92.38413659202968L157.71257317489983,93.0072654094763L158.0014241737783,93.46855771456379L158.29027517265678,91.87149056231101L158.50691342181565,92.39648731016999L158.57912617153525,91.5822311295019L158.65133892125488,93.17322116703338L158.72355167097447,92.70966924192248L158.86797717041372,90.90117323350509L159.0846154195726,92.09491224648801L159.59010466760992,91.73380812486039L159.66231741732958,92.2122300339141L160.02338116592765,92.7249181683537L160.16780666536687,92.68049067031598L160.24001941508652,93.80742352608536L160.31223216480612,93.80854631864358L160.9621469122827,94.11017752195346L161.2509979111612,92.36521051997033L161.3232106608808,90.69503553727102L161.39542341060044,92.38804531362294L161.46763616032004,93.35348551225414L161.61206165975926,92.36097899551658L161.9731254083574,94.05654312493843L162.04533815807702,93.49738541349586L162.18976365751624,92.66654699023368L162.26197640723586,93.6934811337874L162.3341891569555,95.39684165403534L162.55082740611437,94.87343085066482L162.6952529055536,96.30106158843009L162.76746565527318,95.00979400685955L162.83967840499284,95.98644809616587L163.4895931524694,97.26236148950287L163.70623140162826,98.0509969474833L164.35614614910483,99.81296723926982L164.78942264742255,102.3719097237815L164.86163539714215,101.84134111785238L165.2949118954599,102.1654141374195L165.3671246451795,102.32857694848803L165.43933739489913,102.53385149794295L165.58376289433838,101.1971669573928L166.01703939265607,102.95947408694678L166.4503158909738,101.57467788527728L166.52252864069342,102.75833983505026L167.10023063845037,103.84455742567752L167.17244338817,101.79853465157058L167.38908163732887,103.37055651232177L167.60571988648772,105.34264339647052L167.8945708853662,104.74440548654874L168.03899638480542,106.58000290033996L168.32784738368392,106.92224410698964L168.76112388200164,106.16890644005798L169.04997488088011,107.00993420578592L169.12218763059974,106.43065745519093L169.3388258797586,105.86248231601522L169.4832513791978,104.43638138311053L169.6998896283567,104.92715401030455L169.98874062723516,104.71393570350028L170.13316612667444,104.3933503583171L170.27759162611366,103.59567642024308L170.34980437583326,103.85615025884104L170.4220171255529,103.37901956122928L170.92750637359023,105.31603321284092L171.07193187302948,105.7474522184265L171.14414462274908,104.73710733492035L171.57742112106683,102.99285611319308L171.64963387078643,102.40774084129541L171.72184662050606,102.66451648190477L171.8662721199453,102.57343695307338L172.01069761938453,102.01664412345656L172.87725061601995,102.25193933893664L173.52716536349652,99.92932363556793L173.81601636237502,98.65362778328907L174.1770801109731,99.04769990140719L174.24929286069275,98.49854206118619L174.61035660929085,98.60068109671593L174.68256935901044,98.09185957914869L174.75478210873007,97.85156793678456L175.04363310760854,95.32742500412394L175.1158458573282,95.50535253733293L175.5491223556459,94.20219037209884L175.83797335452437,96.31242284562848L175.910186104244,93.93848148744254L175.98239885396362,94.41671392525203L176.12682435340284,94.14768581085119L176.19903710312246,93.22850466561829L176.5601008517206,94.59761685874028L176.7767391008794,93.5935034739322L176.92116460031866,92.98617796174241L177.13780284947754,93.79810434785222L177.35444109863639,93.33260157067141L177.57107934779523,93.51689393419477L177.7155048472345,93.08503984649289L178.1487813455522,93.15997221484648L178.2209940952718,92.42831847919527L178.36541959471106,93.97191965331675L178.50984509415028,92.69122737415387L179.1597598416269,95.61686689072374L179.2319725913465,96.02675634900564L179.30418534106613,94.76013406408785L179.37639809078573,95.68214324307675L180.38737658686043,96.14441799165266L180.6762275857389,96.79579907684527L180.96507858461737,97.69059457120454L181.037291334337,97.44039428451421L181.25392958349588,99.54572857550863L181.32614233321547,99.43940012024606L181.54278058237435,99.98301417221089L181.68720608181357,99.02300548258003L181.83163158125282,99.38471310520768L182.19269532985092,97.49371289612225L182.40933357900977,99.41796881729121L182.553759078449,98.9904444983919L182.62597182816864,99.13145320879622L182.77039732760787,98.45801626728826L182.98703557676674,98.90690171460753L183.20367382592556,97.67209656380803L183.34809932536484,96.06316991515914L183.5647375745237,97.20114824271991L183.78137582368254,98.39528023309822L183.85358857340216,97.34238151163586L184.070226822561,99.94205329619663L184.2868650717199,97.95840866615183L184.86456706947683,94.95223685334426L184.93677981919646,94.38582309499427L185.0812053186357,93.98441773798035L185.4422690672338,93.18397892323173L185.80333281583188,92.68310116301382L185.87554556555153,92.18213217590053L185.94775831527113,93.00916012191828L186.09218381471035,90.88774182752749L186.16439656443,90.70175825771332L186.30882206386923,91.33906934866084L186.45324756330848,90.94527792868232L186.66988581246733,90.8805068329805L186.74209856218698,90.05109295277657L187.03094956106546,91.57352246972229L187.39201330966353,92.07976858185916L187.53643880910275,90.75026289622804L187.9697153074205,91.84368741158832L188.0419280571401,91.49835150795005L188.11414080685972,91.09680580186637L188.18635355657938,91.02872948557135L188.25856630629897,90.87676653027097L188.47520455545785,90.39869549389172L188.61963005489707,90.34708914093494L188.83626830405592,89.63030538922655L188.90848105377555,89.71753935354604L189.12511930293442,90.05915600683522L189.26954480237364,90.30853525146736L189.4139703018129,92.24888921093967L189.4861830515325,91.70039802880012L189.55839580125212,91.608848330585L189.8472468001306,91.09952857382004L190.13609779900906,91.57886976928077L190.20831054872872,89.99905151770349L190.28052329844834,89.43376055191172L190.56937429732682,87.29935295111311L190.64158704704641,87.25600614091267L190.78601254648567,85.90073938352411L190.8582252962053,85.17974515972242L191.0026507956445,83.4879213330101L191.07486354536417,83.9483364564115L191.14707629508376,83.09331588842686L191.291501794523,81.36761179627054L191.36371454424264,79.94294944133105L191.50814004368186,78.23004518433834L191.72477829284074,77.22315288794869L191.86920379227996,77.10441055746439L191.94141654199956,78.4174743495712L192.3746930403173,74.72707976924335L192.4469057900369,73.65293219861685L192.51911853975653,75.4993154384204L192.807969538635,73.30620683918782L192.95239503807426,72.51672928678875L193.09682053751348,72.10105744683206L193.38567153639195,70.64497093516964L193.8911607844293,68.74005511581588L194.10779903358818,69.33410360600483L194.2522245330274,67.61239946233714L194.39665003246665,67.40219164307958L194.46886278218628,67.60437149554593L194.75771378106475,65.71342040863492L194.902139280504,65.02599066487024L194.9743520302236,65.59535175368553L195.04656477994322,65.31672376291199L195.2632030291021,64.90519222051371L195.3354157788217,64.6453780225437L195.55205402798057,64.36174658743262L195.62426677770017,65.30730634033L195.84090502685905,64.44721917092643L196.05754327601792,66.70529535455849L196.3463942748964,65.08529516430424L196.7796707732141,62.951427907424275L196.85188352293372,63.073587737757634L197.06852177209257,62.6692490851854L197.1407345218122,61.72354898321824L197.28516002125144,62.41837512296013L197.42958552069067,61.339834626449644L197.50179827041032,61.05033660022191L197.64622376984954,61.80766719818871L197.71843651956914,60.40668173132049L197.8628620190084,60.607773878496076L197.93507476872801,61.014547587428936L198.00728751844764,61.64155705665489L198.07950026816727,60.96351666565825L198.2239257676065,60.29694981111584L198.36835126704574,59.383179122522805L198.44056401676536,61.301280736982065L198.72941501564384,58.610915383531804L198.80162776536346,59.53105090243919L198.9460532648027,60.71795491572402L199.16269151396153,58.95105135413485L199.3071170134008,58.69141960995553L199.52375526255966,58.251530538008936L200.3903082591951,58.99585779466095L200.67915925807358,57.63651389679539L200.89579750723243,55.93933575307112L201.2568612558305,53.97895398134172L201.40128675526978,54.512736580968706L201.61792500442863,53.35505324401133L202.05120150274632,51.95000467157308L202.12341425246595,52.45743673334955L202.2678397519052,53.903790037022986L202.48447800106408,51.031398957526264L202.7011162502229,51.059075794086155L202.77332899994255,50.948936861579156L202.84554174966217,50.6265690832098L203.49545649713875,46.98318442380355L203.56766924685834,46.6834689852961L203.639881996578,46.55342153724132L203.7120947462976,46.04353336674376L203.85652024573682,46.559274093450995L204.00094574517607,44.55017014214873L204.21758399433494,44.95167374351149L204.57864774293304,43.76496271019761L204.72307324237227,42.86084102015171L204.79528599209192,44.047004692093466L204.86749874181152,43.00379356517243L204.93971149153114,42.26765918546862L205.5174134892881,38.43887691361452L206.16732823676466,33.159418586737885L206.5283919853628,31.978742563424372L207.10609398311973,29.178287399641533L207.17830673283936,29.71473663159428L207.3949449819982,27.598181432471222L207.6837959808767,26.94685648690653L207.90043423003553,26.374004214980527L208.189285228914,26.117351379807236L208.40592347807288,25.65477137200453L208.62256172723175,24.660984170005246L208.69477447695135,24.38012112029553L208.76698722667098,24.719513240828746L208.91141272611023,24.409892666721827L209.48911472386717,24.932342078964382L209.6335402233064,22.978472504072613L209.77796572274568,22.919350458429324L209.9223912221849,22.274948230731344L210.28345497078297,21.35420921082391L210.6445187193811,21.479179531279545L211.22222071713807,20.519402417613822L211.29443346685767,20.34057665035824L211.3666462165773,20.58348229414696L211.65549721545577,20.648453387273197L211.87213546461464,19.63231559591202L212.0887737137735,20.25630054268429L212.66647571153047,18.862206215142077L212.8109012109697,19.1381219601422L213.09975220984816,18.65631412978014L213.17196495956776,19.490938469199534L213.2441777092874,20.500448275740506L213.31639045900704,19.194300184046938L213.46081595844626,18.133717351014344L213.6052414578855,18.987225657772125L213.8218797070444,20.211381822902354L214.0385179562032,20.586875232908813L214.11073070592286,19.924448675924793L214.25515620536208,20.94749865897245L214.39958170480134,20.25121990635837L214.90507095283866,19.837751546797175L215.19392195171713,19.12379933757153L215.33834745115638,19.095185670970864L215.4827729505956,19.28281483362815L215.62719845003485,19.683992123403687L215.69941119975448,18.57400992653653L215.84383669919373,18.15402235268424L216.06047494835258,18.568445085919905L216.20490044779183,17.54236356296508L216.42153869695068,17.69047744502683L216.5659641963899,17.466890850692835L216.78260244554878,16.971272671864778L216.8548151952684,17.133460056898354L216.927027944988,16.46310728619874L217.64915544218422,17.07041174602807L217.72136819190382,17.939656692234554L217.86579369134307,18.315865882496848L217.9380064410627,18.52200007000415L218.0102191907823,18.40975239272376L218.08243194050192,17.18632955148313L218.2990701896608,16.26896592670381L218.3712829393804,17.157477291463852L218.51570843881964,16.74447208383292L218.73234668797852,16.521141626551252L218.87677218741774,16.809597560935902L219.02119768685696,16.46899492967584L219.16562318629622,16.71858469791266L219.8155379337728,16.996303928459394L219.8877506834924,17.083885256726603L220.10438893265126,18.02257141393169L220.24881443209054,17.99234724175534L220.39323993152976,18.483768983397066L220.537665430969,18.01726972782087L220.68209093040824,17.682677545474007L220.75430368012783,17.63171328951147L220.9709419292867,19.149177958113842L221.40421842760443,19.47478779999501L221.47643117732406,19.393055519210748L221.76528217620253,19.78209612317737L221.9819204253614,19.739886140442128L222.19855867452023,19.101052262087524L222.3429841739595,19.744215909244712L222.4151969236791,20.306047270466525L222.70404792255758,20.475367896971477L222.99289892143608,20.553261630697364L223.20953717059493,21.041609727710988L223.28174992031455,20.7980093560269L223.35396267003415,20.624197559289087L223.4261754197538,20.51646561332875L223.64281366891262,20.56048960779084L223.93166466779113,19.864933652886123L224.07609016723038,20.19047332023241L224.36494116610885,20.297914041872968L224.43715391582847,20.69842116484033L224.58157941526773,20.27710729227863L224.65379216498732,20.957975717031264L225.01485591358542,21.344760209701224L225.2314941627443,21.067855003759178L225.3037069124639,21.504140613339256L225.44813241190315,21.505431824781216L225.59255791134237,22.900354211835076L225.73698341078165,23.268535435306195L225.80919616050124,23.38279010428438L226.02583440966012,23.647305996091916L226.09804715937972,23.9418179928374L226.24247265881894,23.83525796160968L226.45911090797782,24.445095722148494L226.53132365769744,24.392626222412606L226.6757491571367,23.63251671286423L227.1090256554544,24.363282740649094L227.32566390461326,24.1713624051834L227.5423021537721,24.321992044320893L227.61451490349174,23.690561579397002L227.9033659023702,24.539017319642834L228.3366424006879,24.346318046839883L229.275408147043,22.627505094009575L229.56425914592148,22.521587159776107L229.7086846453607,22.310000410907993L230.0697483939588,22.602242261449828L230.28638664311765,21.64064060987703L230.4308121425569,21.739667404784484L230.7196631414354,21.86811487344381L231.08072689003347,22.592017831716635L231.36957788891198,22.307926753402047L231.65842888779045,22.62895770688176L231.87506713694933,22.87600364822889L232.52498188442587,23.146452796961217L232.9582583827436,22.97060242998491L233.6803858799398,22.932736250959238L233.75259862965942,22.69459896681617L233.824811379379,22.76682610684985L234.0414496285379,23.862822518913777L234.11366237825752,24.21577937704087L234.47472612685561,22.933213437796486L234.61915162629484,23.68354061718144L234.90800262517334,24.46699017703361L234.98021537489294,23.747248568679662L235.0524281246126,24.21828460793638L235.1246408743322,24.217916191628216L235.1968536240518,23.8606120210648L235.2690663737714,23.606938094897487L235.34127912349106,24.091296769602717L235.918981121248,23.214209819122505L236.13561937040686,23.759448411569974L236.56889586872458,23.027135035290826L236.85774686760308,22.96029729953658L237.57987436479925,22.393960733174946L237.65208711451888,23.02454559495345L237.7242998642385,22.253794117189283L238.22978911227582,23.214343150738785L238.59085286087395,23.592292669466314L238.80749111003277,22.637750576103258L238.95191660947205,23.53997053625369L239.02412935919165,23.170943709637186L239.09634210891127,23.110902377586854L239.1685548586309,23.466610077481572L239.45740585750937,23.32487856936791L240.03510785526635,24.49539332002961L240.10732060498594,23.769988626710187L240.32395885414482,23.597882071170158L240.46838435358404,23.936319818028903L240.54059710330367,23.811644230619823L240.68502260274292,23.661383007790494L241.04608635134102,23.437073615747135L241.55157559937834,23.83798775101684L241.69600109881756,23.965407162740064L241.91263934797644,24.723621959846458L242.0570648474157,24.307058903296696L242.4181285960138,24.56952569868548L242.63476684517266,24.449067600823174L242.85140509433148,25.12189753260435L243.50131984180808,25.35342788428768L243.5735325915277,26.004661602957025L243.79017084068659,26.62220101869981L244.0068090898454,27.128990983482073L244.15123458928466,26.792374265803677L244.22344733900428,26.802416241746176L244.656723837322,27.232238776663053L244.87336208648085,28.223254084534243L244.94557483620048,28.25978694739705L245.0900003356397,28.39577466983012L245.30663858479858,28.12831144755728L245.4510640842378,28.651627515305687L245.59548958367705,28.805600971030618L245.81212783283593,28.855779272202415L245.88434058255555,28.79328534015774L245.95655333227515,29.68800364252861L246.4620425803125,30.300936100055992L246.8231063289106,30.94785057610296L246.96753182834982,31.18330719301331L247.03974457806945,30.71524304530909L247.11195732778907,31.230906580027966L247.40080832666754,32.05892398698762L247.47302107638717,32.993368093558715L247.83408482498524,32.17627686168113L247.9062975747049,32.26824760710559L248.19514857358337,33.055286594417296L248.41178682274222,33.64423690464663L248.48399957246184,34.45807554683215L248.6284250719011,35.39758976354891L249.1339143199384,31.963251534847814L249.20612706965804,32.24332512104006L249.56719081825614,32.61126775109254L250.43374381489156,36.025237821042325L250.79480756348968,37.76595575493798L250.9392330629289,35.35115878254014L251.01144581264853,35.26712126828478L251.22808406180738,38.30242253052444L251.300296811527,37.82636901202322L251.9502115590036,33.664082263113016L252.3834880573213,34.425254916864944L252.67233905619977,40.75149274576167L252.7445518059194,38.33619402543938" fill="none"></path></g></g></g></g></g></g><g transform="translate(41, 176)" clip-path="url(#clip_1)"><clipPath id="clip_1"><rect width="288" height="23"></rect></clipPath><g><g><line x1="0" y1="0" x2="0" y2="5" style="visibility: inherit;" fill="rgb(0, 0, 0)" stroke="rgb(204, 204, 204)" stroke-width="1px"></line><line x1="36.106374859809875" y1="0" x2="36.106374859809875" y2="5" style="visibility: inherit;" fill="rgb(0, 0, 0)" stroke="rgb(204, 204, 204)" stroke-width="1px"></line><line x1="72.21274971961975" y1="0" x2="72.21274971961975" y2="5" style="visibility: inherit;" fill="rgb(0, 0, 0)" stroke="rgb(204, 204, 204)" stroke-width="1px"></line><line x1="108.31912457942963" y1="0" x2="108.31912457942963" y2="5" style="visibility: inherit;" fill="rgb(0, 0, 0)" stroke="rgb(204, 204, 204)" stroke-width="1px"></line><line x1="144.4254994392395" y1="0" x2="144.4254994392395" y2="5" style="visibility: inherit;" fill="rgb(0, 0, 0)" stroke="rgb(204, 204, 204)" stroke-width="1px"></line><line x1="180.53187429904938" y1="0" x2="180.53187429904938" y2="5" style="visibility: inherit;" fill="rgb(0, 0, 0)" stroke="rgb(204, 204, 204)" stroke-width="1px"></line><line x1="216.63824915885925" y1="0" x2="216.63824915885925" y2="5" style="visibility: inherit;" fill="rgb(0, 0, 0)" stroke="rgb(204, 204, 204)" stroke-width="1px"></line><line x1="252.74462401866913" y1="0" x2="252.74462401866913" y2="5" style="visibility: inherit;" fill="rgb(0, 0, 0)" stroke="rgb(204, 204, 204)" stroke-width="1px"></line><line x1="288.850998878479" y1="0" x2="288.850998878479" y2="5" style="visibility: inherit;" fill="rgb(0, 0, 0)" stroke="rgb(204, 204, 204)" stroke-width="1px"></line></g><g transform="translate(0, 8)"><text style="text-anchor: middle; visibility: hidden; font-family: Roboto, sans-serif; font-size: 12px; font-weight: 200;" x="0" y="0" dx="0em" dy="0.95em" fill="rgb(33, 33, 33)" stroke="none" stroke-width="1px">-500k</text><text style="text-anchor: middle; visibility: inherit; font-family: Roboto, sans-serif; font-size: 12px; font-weight: 200;" x="36.106374859809875" y="0" dx="0em" dy="0.95em" fill="rgb(33, 33, 33)" stroke="none" stroke-width="1px">0</text><text style="text-anchor: middle; visibility: inherit; font-family: Roboto, sans-serif; font-size: 12px; font-weight: 200;" x="72.21274971961975" y="0" dx="0em" dy="0.95em" fill="rgb(33, 33, 33)" stroke="none" stroke-width="1px">500k</text><text style="text-anchor: middle; visibility: inherit; font-family: Roboto, sans-serif; font-size: 12px; font-weight: 200;" x="108.31912457942963" y="0" dx="0em" dy="0.95em" fill="rgb(33, 33, 33)" stroke="none" stroke-width="1px">1M</text><text style="text-anchor: middle; visibility: inherit; font-family: Roboto, sans-serif; font-size: 12px; font-weight: 200;" x="144.4254994392395" y="0" dx="0em" dy="0.95em" fill="rgb(33, 33, 33)" stroke="none" stroke-width="1px">1.5M</text><text style="text-anchor: middle; visibility: inherit; font-family: Roboto, sans-serif; font-size: 12px; font-weight: 200;" x="180.53187429904938" y="0" dx="0em" dy="0.95em" fill="rgb(33, 33, 33)" stroke="none" stroke-width="1px">2M</text><text style="text-anchor: middle; visibility: inherit; font-family: Roboto, sans-serif; font-size: 12px; font-weight: 200;" x="216.63824915885925" y="0" dx="0em" dy="0.95em" fill="rgb(33, 33, 33)" stroke="none" stroke-width="1px">2.5M</text><text style="text-anchor: middle; visibility: inherit; font-family: Roboto, sans-serif; font-size: 12px; font-weight: 200;" x="252.74462401866913" y="0" dx="0em" dy="0.95em" fill="rgb(33, 33, 33)" stroke="none" stroke-width="1px">3M</text><text style="text-anchor: middle; visibility: hidden; font-family: Roboto, sans-serif; font-size: 12px; font-weight: 200;" x="288.850998878479" y="0" dx="0em" dy="0.95em" fill="rgb(33, 33, 33)" stroke="none" stroke-width="1px">3.5M</text></g><line x1="0" y1="0" x2="288.850998878479" y2="0" fill="rgb(0, 0, 0)" stroke="rgb(204, 204, 204)" stroke-width="1px"></line></g></g></g></g></svg>