<svg viewBox="0 0 330 200" xmlns="http://www.w3.org/2000/svg"><g><g><g><g><g><line x1="41.149001121520996" y1="176.5999994277954" x2="36.149001121520996" y2="176.5999994277954" style="visibility: inherit;" fill="rgb(0, 0, 0)" stroke="rgb(204, 204, 204)" stroke-width="1px"></line><line x1="41.149001121520996" y1="161.88333280881244" x2="36.149001121520996" y2="161.88333280881244" style="visibility: inherit;" fill="rgb(0, 0, 0)" stroke="rgb(204, 204, 204)" stroke-width="1px"></line><line x1="41.149001121520996" y1="147.16666618982953" x2="36.149001121520996" y2="147.16666618982953" style="visibility: inherit;" fill="rgb(0, 0, 0)" stroke="rgb(204, 204, 204)" stroke-width="1px"></line><line x1="41.149001121520996" y1="132.44999957084656" x2="36.149001121520996" y2="132.44999957084656" style="visibility: inherit;" fill="rgb(0, 0, 0)" stroke="rgb(204, 204, 204)" stroke-width="1px"></line><line x1="41.149001121520996" y1="117.73333295186362" x2="36.149001121520996" y2="117.73333295186362" style="visibility: inherit;" fill="rgb(0, 0, 0)" stroke="rgb(204, 204, 204)" stroke-width="1px"></line><line x1="41.149001121520996" y1="103.01666633288065" x2="36.149001121520996" y2="103.01666633288065" style="visibility: inherit;" fill="rgb(0, 0, 0)" stroke="rgb(204, 204, 204)" stroke-width="1px"></line><line x1="41.149001121520996" y1="88.2999997138977" x2="36.149001121520996" y2="88.2999997138977" style="visibility: inherit;" fill="rgb(0, 0, 0)" stroke="rgb(204, 204, 204)" stroke-width="1px"></line><line x1="41.149001121520996" y1="73.58333309491475" x2="36.149001121520996" y2="73.58333309491475" style="visibility: inherit;" fill="rgb(0, 0, 0)" stroke="rgb(204, 204, 204)" stroke-width="1px"></line><line x1="41.149001121520996" y1="58.86666647593181" x2="36.149001121520996" y2="58.86666647593181" style="visibility: inherit;" fill="rgb(0, 0, 0)" stroke="rgb(204, 204, 204)" stroke-width="1px"></line><line x1="41.149001121520996" y1="44.14999985694885" x2="36.149001121520996" y2="44.14999985694885" style="visibility: inherit;" fill="rgb(0, 0, 0)" stroke="rgb(204, 204, 204)" stroke-width="1px"></line><line x1="41.149001121520996" y1="29.433333237965893" x2="36.149001121520996" y2="29.433333237965893" style="visibility: inherit;" fill="rgb(0, 0, 0)" stroke="rgb(204, 204, 204)" stroke-width="1px"></line><line x1="41.149001121520996" y1="14.716666618982957" x2="36.149001121520996" y2="14.716666618982957" style="visibility: inherit;" fill="rgb(0, 0, 0)" stroke="rgb(204, 204, 204)" stroke-width="1px"></line><line x1="41.149001121520996" y1="0" x2="36.149001121520996" y2="0" style="visibility: inherit;" fill="rgb(0, 0, 0)" stroke="rgb(204, 204, 204)" stroke-width="1px"></line></g><g transform="translate(31.149001121520996, 0)"><text style="text-anchor: end; visibility: hidden; font-family: Roboto, sans-serif; font-size: 12px; font-weight: 200;" x="0" y="176.5999994277954" dx="0em" dy="0.3em" fill="rgb(33, 33, 33)" stroke="none" stroke-width="1px">-55</text><text style="text-anchor: end; visibility: inherit; font-family: Roboto, sans-serif; font-size: 12px; font-weight: 200;" x="0" y="161.88333280881244" dx="0em" dy="0.3em" fill="rgb(33, 33, 33)" stroke="none" stroke-width="1px">-50</text><text style="text-anchor: end; visibility: hidden; font-family: Roboto, sans-serif; font-size: 12px; font-weight: 200;" x="0" y="147.16666618982953" dx="0em" dy="0.3em" fill="rgb(33, 33, 33)" stroke="none" stroke-width="1px">-45</text><text style="text-anchor: end; visibility: inherit; font-family: Roboto, sans-serif; font-size: 12px; font-weight: 200;" x="0" y="132.44999957084656" dx="0em" dy="0.3em" fill="rgb(33, 33, 33)" stroke="none" stroke-width="1px">-40</text><text style="text-anchor: end; visibility: hidden; font-family: Roboto, sans-serif; font-size: 12px; font-weight: 200;" x="0" y="117.73333295186362" dx="0em" dy="0.3em" fill="rgb(33, 33, 33)" stroke="none" stroke-width="1px">-35</text><text style="text-anchor: end; visibility: inherit; font-family: Roboto, sans-serif; font-size: 12px; font-weight: 200;" x="0" y="103.01666633288065" dx="0em" dy="0.3em" fill="rgb(33, 33, 33)" stroke="none" stroke-width="1px">-30</text><text style="text-anchor: end; visibility: hidden; font-family: Roboto, sans-serif; font-size: 12px; font-weight: 200;" x="0" y="88.2999997138977" dx="0em" dy="0.3em" fill="rgb(33, 33, 33)" stroke="none" stroke-width="1px">-25</text><text style="text-anchor: end; visibility: inherit; font-family: Roboto, sans-serif; font-size: 12px; font-weight: 200;" x="0" y="73.58333309491475" dx="0em" dy="0.3em" fill="rgb(33, 33, 33)" stroke="none" stroke-width="1px">-20</text><text style="text-anchor: end; visibility: hidden; font-family: Roboto, sans-serif; font-size: 12px; font-weight: 200;" x="0" y="58.86666647593181" dx="0em" dy="0.3em" fill="rgb(33, 33, 33)" stroke="none" stroke-width="1px">-15</text><text style="text-anchor: end; visibility: inherit; font-family: Roboto, sans-serif; font-size: 12px; font-weight: 200;" x="0" y="44.14999985694885" dx="0em" dy="0.3em" fill="rgb(33, 33, 33)" stroke="none" stroke-width="1px">-10</text><text style="text-anchor: end; visibility: hidden; font-family: Roboto, sans-serif; font-size: 12px; font-weight: 200;" x="0" y="29.433333237965893" dx="0em" dy="0.3em" fill="rgb(33, 33, 33)" stroke="none" stroke-width="1px">-5</text><text style="text-anchor: end; visibility: inherit; font-family: Roboto, sans-serif; font-size: 12px; font-weight: 200;" x="0" y="14.716666618982957" dx="0em" dy="0.3em" fill="rgb(33, 33, 33)" stroke="none" stroke-width="1px">0</text><text style="text-anchor: end; visibility: hidden; font-family: Roboto, sans-serif; font-size: 12px; font-weight: 200;" x="0" y="0" dx="0em" dy="0.3em" fill="rgb(33, 33, 33)" stroke="none" stroke-width="1px">5</text></g><line x1="41.149001121520996" y1="0" x2="41.149001121520996" y2="176.5999994277954" fill="rgb(0, 0, 0)" stroke="rgb(204, 204, 204)" stroke-width="1px"></line></g></g><g transform="translate(41, 0)" clip-path="url(#clip_0)"><clipPath id="clip_0"><rect width="288" height="176"></rect></clipPath><g><g><g><line x1="0" y1="0" x2="0" y2="176.5999994277954" fill="rgb(0, 0, 0)" stroke="rgb(66, 66, 66)" stroke-width="1px" opacity="0.25"></line><line x1="24.07091657320658" y1="0" x2="24.07091657320658" y2="176.5999994277954" fill="rgb(0, 0, 0)" stroke="rgb(66, 66, 66)" stroke-width="1px" opacity="0.25"></line><line x1="48.14183314641316" y1="0" x2="48.14183314641316" y2="176.5999994277954" fill="rgb(0, 0, 0)" stroke="rgb(66, 66, 66)" stroke-width="1px" opacity="0.25"></line><line x1="72.21274971961975" y1="0" x2="72.21274971961975" y2="176.5999994277954" fill="rgb(0, 0, 0)" stroke="rgb(66, 66, 66)" stroke-width="1px" opacity="0.25"></line><line x1="96.28366629282633" y1="0" x2="96.28366629282633" y2="176.5999994277954" fill="rgb(0, 0, 0)" stroke="rgb(66, 66, 66)" stroke-width="1px" opacity="0.25"></line><line x1="120.35458286603293" y1="0" x2="120.35458286603293" y2="176.5999994277954" fill="rgb(0, 0, 0)" stroke="rgb(66, 66, 66)" stroke-width="1px" opacity="0.25"></line><line x1="144.4254994392395" y1="0" x2="144.4254994392395" y2="176.5999994277954" fill="rgb(0, 0, 0)" stroke="rgb(66, 66, 66)" stroke-width="1px" opacity="0.25"></line><line x1="168.4964160124461" y1="0" x2="168.4964160124461" y2="176.5999994277954" fill="rgb(0, 0, 0)" stroke="rgb(66, 66, 66)" stroke-width="1px" opacity="0.25"></line><line x1="192.56733258565265" y1="0" x2="192.56733258565265" y2="176.5999994277954" fill="rgb(0, 0, 0)" stroke="rgb(66, 66, 66)" stroke-width="1px" opacity="0.25"></line><line x1="216.63824915885925" y1="0" x2="216.63824915885925" y2="176.5999994277954" fill="rgb(0, 0, 0)" stroke="rgb(66, 66, 66)" stroke-width="1px" opacity="0.25"></line><line x1="240.70916573206586" y1="0" x2="240.70916573206586" y2="176.5999994277954" fill="rgb(0, 0, 0)" stroke="rgb(66, 66, 66)" stroke-width="1px" opacity="0.25"></line><line x1="264.7800823052724" y1="0" x2="264.7800823052724" y2="176.5999994277954" fill="rgb(0, 0, 0)" stroke="rgb(66, 66, 66)" stroke-width="1px" opacity="0.25"></line><line x1="288.850998878479" y1="0" x2="288.850998878479" y2="176.5999994277954" fill="rgb(0, 0, 0)" stroke="rgb(66, 66, 66)" stroke-width="1px" opacity="0.25"></line></g><g><line x1="0" y1="176.5999994277954" x2="288.850998878479" y2="176.5999994277954" fill="rgb(0, 0, 0)" stroke="rgb(66, 66, 66)" stroke-width="1px" opacity="0.25"></line><line x1="0" y1="161.88333280881244" x2="288.850998878479" y2="161.88333280881244" fill="rgb(0, 0, 0)" stroke="rgb(66, 66, 66)" stroke-width="1px" opacity="0.25"></line><line x1="0" y1="147.16666618982953" x2="288.850998878479" y2="147.16666618982953" fill="rgb(0, 0, 0)" stroke="rgb(66, 66, 66)" stroke-width="1px" opacity="0.25"></line><line x1="0" y1="132.44999957084656" x2="288.850998878479" y2="132.44999957084656" fill="rgb(0, 0, 0)" stroke="rgb(66, 66, 66)" stroke-width="1px" opacity="0.25"></line><line x1="0" y1="117.73333295186362" x2="288.850998878479" y2="117.73333295186362" fill="rgb(0, 0, 0)" stroke="rgb(66, 66, 66)" stroke-width="1px" opacity="0.25"></line><line x1="0" y1="103.01666633288065" x2="288.850998878479" y2="103.01666633288065" fill="rgb(0, 0, 0)" stroke="rgb(66, 66, 66)" stroke-width="1px" opacity="0.25"></line><line x1="0" y1="88.2999997138977" x2="288.850998878479" y2="88.2999997138977" fill="rgb(0, 0, 0)" stroke="rgb(66, 66, 66)" stroke-width="1px" opacity="0.25"></line><line x1="0" y1="73.58333309491475" x2="288.850998878479" y2="73.58333309491475" fill="rgb(0, 0, 0)" stroke="rgb(66, 66, 66)" stroke-width="1px" opacity="0.25"></line><line x1="0" y1="58.86666647593181" x2="288.850998878479" y2="58.86666647593181" fill="rgb(0, 0, 0)" stroke="rgb(66, 66, 66)" stroke-width="1px" opacity="0.25"></line><line x1="0" y1="44.14999985694885" x2="288.850998878479" y2="44.14999985694885" fill="rgb(0, 0, 0)" stroke="rgb(66, 66, 66)" stroke-width="1px" opacity="0.25"></line><line x1="0" y1="29.433333237965893" x2="288.850998878479" y2="29.433333237965893" fill="rgb(0, 0, 0)" stroke="rgb(66, 66, 66)" stroke-width="1px" opacity="0.25"></line><line x1="0" y1="14.716666618982957" x2="288.850998878479" y2="14.716666618982957" fill="rgb(0, 0, 0)" stroke="rgb(66, 66, 66)" stroke-width="1px" opacity="0.25"></line><line x1="0" y1="0" x2="288.850998878479" y2="0" fill="rgb(0, 0, 0)" stroke="rgb(66, 66, 66)" stroke-width="1px" opacity="0.25"></line></g></g></g><g><g><line x1="0" y1="14.716666618982957" x2="288.850998878479" y2="14.716666618982957" fill="rgb(0, 0, 0)" stroke="rgb(153, 153, 153)" stroke-width="1.5px"></line></g></g><g><g><line x1="24.07091657320658" y1="0" x2="24.07091657320658" y2="176.5999994277954" fill="rgb(0, 0, 0)" stroke="rgb(153, 153, 153)" stroke-width="1.5px"></line></g></g><g><g><g><g><g><path style="fill: none;" stroke="rgb(0, 119, 187)" stroke-width="2px" d="M28.8850998878479,161.88333280881244L33.69928320248922,161.88333280881247L38.51346651713053,151.0267754669398L43.32764983177185,107.84245674181545L48.14183314641316,80.13963959437598L52.95601646105448,64.79979740186059L57.7701997756958,53.61485138359363L62.58438309033712,44.97422445123479L67.39856640497844,38.66450308321508L72.21274971961975,33.95827507002356L77.02693303426106,31.03629011271303L81.84111634890239,28.79572852347867L86.6552996635437,27.061933058395987L91.46948297818501,25.710789163084254L96.28366629282633,24.041912957640797L101.09784960746765,22.72856283515458L105.91203292210896,22.293725249495164L110.72621623675029,21.94944484857009L115.5403995513916,21.676285896800394L120.35458286603293,21.459192453765727L125.16876618067424,20.692280436715695L129.98294949531555,20.674358764084428L134.79713280995688,20.66006931456091L139.61131612459818,21.240128019509616L144.4254994392395,21.11228609579037L149.23968275388083,21.010186954226544L154.05386606852213,20.928618997478534L158.86804938316345,19.68382073175758L163.68223269780478,20.457587249171816L168.4964160124461,20.486772582345164L173.3105993270874,21.09935805922213L178.12478264172873,21.00007444010583L182.93896595637003,20.920675880584074L187.75314927101135,20.85717515909141L192.56733258565265,21.395291731362327L197.38151590029398,20.64799086064805L202.1956992149353,20.639057022476685L207.00988252957663,21.220699738521777L211.82406584421793,21.097205925203408L216.63824915885925,20.409673339962602L221.45243247350058,19.85968017522103L226.26661578814188,18.830989952687464L231.0807991027832,19.18548274099421L235.89498241742453,19.469068285976267L240.70916573206586,19.695931163368165L245.52334904670715,19.877417907899837L250.33753236134848,19.433921952012902L255.15171567598978,19.667809430790594L259.9658989906311,19.854917536067862L264.7800823052724,20.593277885159868" fill="none"></path></g><g><path style="fill: none;" stroke="rgb(204, 51, 17)" stroke-width="2px" d="M28.8850998878479,132.44999957084656L33.69928320248922,80.12407381446276L38.51346651713053,58.14289598647362L43.32764983177185,43.4321136804131L48.14183314641316,40.1433681072781L52.95601646105448,35.644739237442984L57.7701997756958,34.817677227473766L62.58438309033712,32.109041419976386L67.39856640497844,34.89056255441988L72.21274971961975,32.348871346216306L77.02693303426106,30.42299924087303L81.84111634890239,29.57835592912006L86.6552996635437,32.66222204746717L91.46948297818501,31.37098857198915L96.28366629282633,30.359191391964767L101.09784960746765,28.351508517864055L105.91203292210896,29.175085430017155L110.72621623675029,32.225010888028315L115.5403995513916,32.85305982662513L120.35458286603293,33.3522025623508L125.16876618067424,30.778692260238802L129.98294949531555,29.321535204955993L134.79713280995688,28.75186540986535L139.61131612459818,28.297345903041315L144.4254994392395,27.343606916488792L149.23968275388083,27.76281917208343L154.05386606852213,30.458105446634317L158.86804938316345,31.432368833881572L163.68223269780478,31.621521078378983L168.4964160124461,34.13032257992234L173.3105993270874,34.95774414443627L178.12478264172873,32.084585618157746L182.93896595637003,30.964958829574783L187.75314927101135,30.658478307165726L192.56733258565265,31.002255410645578L197.38151590029398,28.921795834098962L202.1956992149353,29.024129882310206L207.00988252957663,27.92840965173426L211.82406584421793,29.99573785707441L216.63824915885925,31.060731824751077L221.45243247350058,30.735217492772996L226.26661578814188,32.24096873123839L231.0807991027832,29.91328322423917L235.89498241742453,30.405986717073556L240.70916573206586,30.21144754787616L245.52334904670715,30.644506440553464L250.33753236134848,29.22489889763469L255.15171567598978,27.500547317097755L259.9658989906311,27.887111397805025L264.7800823052724,29.373710312804555" fill="none"></path></g><g><path style="fill: none;" stroke="rgb(255, 112, 67)" stroke-width="2px" d="M28.8850998878479,161.88333280881244L33.69928320248922,121.00370331163762L38.51346651713053,88.2999997138977L43.32764983177185,67.36165289827157L48.14183314641316,54.327685053227874L52.95601646105448,45.186510681358094L57.7701997756958,41.19980172696792L62.58438309033712,39.0794364276755L67.39856640497844,37.53106333603683L72.21274971961975,35.057224196686455L77.02693303426106,33.82674898947184L81.84111634890239,30.35480930151826L86.6552996635437,28.291058176595406L91.46948297818501,27.914275444297957L96.28366629282633,29.449433919559077L101.09784960746765,27.628972351207036L105.91203292210896,27.395930221558245L110.72621623675029,33.80554278748699L115.5403995513916,32.32104027697327L120.35458286603293,31.736762606259525L125.16876618067424,31.86593480056501L129.98294949531555,31.375797916178232L134.79713280995688,30.39283593236862L139.61131612459818,29.608565114504998L144.4254994392395,30.755183871906656L149.23968275388083,29.309109925271983L154.05386606852213,28.153827957893522L158.86804938316345,29.5898399946723L163.68223269780478,30.7376481198942L168.4964160124461,31.65525441459969L173.3105993270874,32.38893010600295L178.12478264172873,31.797342028031707L182.93896595637003,32.50232043268609L187.75314927101135,33.65510752051754L192.56733258565265,32.81041001399083L197.38151590029398,35.07906420295859L202.1956992149353,32.771985728625694L207.00988252957663,33.281694422366336L211.82406584421793,32.51189428049879L216.63824915885925,32.48484514130421L221.45243247350058,30.697019316866935L226.26661578814188,29.266827104270273L231.0807991027832,30.477544057654146L235.89498241742453,30.26869052264845L240.70916573206586,31.278996400257828L245.52334904670715,30.321163727442656L250.33753236134848,31.3209588292857L255.15171567598978,29.766065706227753L259.9658989906311,30.876872359546933L264.7800823052724,32.354185614428026" fill="none"></path></g><g><path style="fill: none;" stroke="rgb(51, 187, 238)" stroke-width="2px" d="M28.8850998878479,161.88333280881244L33.69928320248922,161.88333280881247L38.51346651713053,161.88333280881247L43.32764983177185,159.8892045406576L48.14183314641316,121.08153221120386L52.95601646105448,93.84635381741762L57.7701997756958,74.56562011872114L62.58438309033712,61.59746782712151L67.39856640497844,52.12761937068526L72.21274971961975,43.74539425147707L77.02693303426106,38.68204354023786L81.84111634890239,35.43159932460714L86.6552996635437,32.91633463934105L91.46948297818501,30.34044556523442L96.28366629282633,28.322005561367707L101.09784960746765,25.52212823229131L105.91203292210896,25.117934264903006L110.72621623675029,24.198450111270954L115.5403995513916,23.46891300459835L120.35458286603293,22.889112411269583L125.16876618067424,21.239407409832943L129.98294949531555,20.518204377315865L134.79713280995688,20.535331254405815L139.61131612459818,21.140455942142516L144.4254994392395,21.032624029581513L149.23968275388083,20.946505599997757L154.05386606852213,20.877704783145624L158.86804938316345,21.412531650204826L163.68223269780478,20.071283162453437L168.4964160124461,20.177825075778337L173.3105993270874,20.263011078068303L178.12478264172873,19.741996060385624L182.93896595637003,19.325332745113553L187.75314927101135,20.17002782545563L192.56733258565265,19.078912975394807L197.38151590029398,19.97275376631106L202.1956992149353,19.51008288537669L207.00988252957663,20.31756733433459L211.82406584421793,20.37473001856293L216.63824915885925,20.42045674629024L221.45243247350058,21.045765209307923L226.26661578814188,20.368554545290333L231.0807991027832,21.00422021547058L235.89498241742453,20.9240384601817L240.70916573206586,20.859894627602653L245.52334904670715,21.397267744876906L250.33753236134848,20.649793347912343L255.15171567598978,21.22918091717899L259.9658989906311,21.692686321030465L264.7800823052724,20.297462467320702" fill="none"></path></g></g></g></g><g opacity="0.2"><g><g><g><path style="fill: none;" stroke="rgb(0, 119, 187)" stroke-width="2px" d="M28.8850998878479,161.88333280881244L33.69928320248922,161.88333280881244L38.51346651713053,135.39333289464312L43.32764983177185,23.546666590372716L48.14183314641316,14.716666618982957L52.95601646105448,23.546666590372716L57.7701997756958,20.603333266576136L62.58438309033712,17.659999942779535L67.39856640497844,17.659999942779535L72.21274971961975,17.659999942779535L77.02693303426106,20.603333266576136L81.84111634890239,20.603333266576136L86.6552996635437,20.603333266576136L91.46948297818501,20.603333266576136L96.28366629282633,17.659999942779535L101.09784960746765,17.659999942779535L105.91203292210896,20.603333266576136L110.72621623675029,20.603333266576136L115.5403995513916,20.603333266576136L120.35458286603293,20.603333266576136L125.16876618067424,17.659999942779535L129.98294949531555,20.603333266576136L134.79713280995688,20.603333266576136L139.61131612459818,23.546666590372716L144.4254994392395,20.603333266576136L149.23968275388083,20.603333266576136L154.05386606852213,20.603333266576136L158.86804938316345,14.716666618982957L163.68223269780478,23.546666590372716L168.4964160124461,20.603333266576136L173.3105993270874,23.546666590372716L178.12478264172873,20.603333266576136L182.93896595637003,20.603333266576136L187.75314927101135,20.603333266576136L192.56733258565265,23.546666590372716L197.38151590029398,17.659999942779535L202.1956992149353,20.603333266576136L207.00988252957663,23.546666590372716L211.82406584421793,20.603333266576136L216.63824915885925,17.659999942779535L221.45243247350058,17.659999942779535L226.26661578814188,14.716666618982957L231.0807991027832,20.603333266576136L235.89498241742453,20.603333266576136L240.70916573206586,20.603333266576136L245.52334904670715,20.603333266576136L250.33753236134848,17.659999942779535L255.15171567598978,20.603333266576136L259.9658989906311,20.603333266576136L264.7800823052724,23.546666590372716" fill="none"></path></g><g><path style="fill: none;" stroke="rgb(204, 51, 17)" stroke-width="2px" d="M28.8850998878479,132.44999957084656L33.69928320248922,38.26333320935567L38.51346651713053,26.489999914169317L43.32764983177185,14.716666618982957L48.14183314641316,32.3766665617625L52.95601646105448,23.546666590372716L57.7701997756958,32.3766665617625L62.58438309033712,23.546666590372716L67.39856640497844,44.14999985694885L72.21274971961975,23.546666590372716L77.02693303426106,23.546666590372716L81.84111634890239,26.489999914169317L86.6552996635437,44.14999985694885L91.46948297818501,26.489999914169317L96.28366629282633,26.489999914169317L101.09784960746765,20.603333266576136L105.91203292210896,32.3766665617625L110.72621623675029,44.14999985694885L115.5403995513916,35.31999988555907L120.35458286603293,35.31999988555907L125.16876618067424,20.603333266576136L129.98294949531555,23.546666590372716L134.79713280995688,26.489999914169317L139.61131612459818,26.489999914169317L144.4254994392395,23.546666590372716L149.23968275388083,29.433333237965893L154.05386606852213,41.20666653315225L158.86804938316345,35.31999988555907L163.68223269780478,32.3766665617625L168.4964160124461,44.14999985694885L173.3105993270874,38.26333320935567L178.12478264172873,20.603333266576136L182.93896595637003,26.489999914169317L187.75314927101135,29.433333237965893L192.56733258565265,32.3766665617625L197.38151590029398,20.603333266576136L202.1956992149353,29.433333237965893L207.00988252957663,23.546666590372716L211.82406584421793,38.26333320935567L216.63824915885925,35.31999988555907L221.45243247350058,29.433333237965893L226.26661578814188,38.26333320935567L231.0807991027832,20.603333266576136L235.89498241742453,32.3766665617625L240.70916573206586,29.433333237965893L245.52334904670715,32.3766665617625L250.33753236134848,23.546666590372716L255.15171567598978,20.603333266576136L259.9658989906311,29.433333237965893L264.7800823052724,35.31999988555907" fill="none"></path></g><g><path style="fill: none;" stroke="rgb(255, 112, 67)" stroke-width="2px" d="M28.8850998878479,161.88333280881244L33.69928320248922,88.2999997138977L38.51346651713053,41.20666653315225L43.32764983177185,26.489999914169317L48.14183314641316,23.546666590372716L52.95601646105448,20.603333266576136L57.7701997756958,29.433333237965893L62.58438309033712,32.3766665617625L67.39856640497844,32.3766665617625L72.21274971961975,26.489999914169317L77.02693303426106,29.433333237965893L81.84111634890239,17.659999942779535L86.6552996635437,20.603333266576136L91.46948297818501,26.489999914169317L96.28366629282633,35.31999988555907L101.09784960746765,20.603333266576136L105.91203292210896,26.489999914169317L110.72621623675029,58.86666647593181L115.5403995513916,26.489999914169317L120.35458286603293,29.433333237965893L125.16876618067424,32.3766665617625L129.98294949531555,29.433333237965893L134.79713280995688,26.489999914169317L139.61131612459818,26.489999914169317L144.4254994392395,35.31999988555907L149.23968275388083,23.546666590372716L154.05386606852213,23.546666590372716L158.86804938316345,35.31999988555907L163.68223269780478,35.31999988555907L168.4964160124461,35.31999988555907L173.3105993270874,35.31999988555907L178.12478264172873,29.433333237965893L182.93896595637003,35.31999988555907L187.75314927101135,38.26333320935567L192.56733258565265,29.433333237965893L197.38151590029398,44.14999985694885L202.1956992149353,23.546666590372716L207.00988252957663,35.31999988555907L211.82406584421793,29.433333237965893L216.63824915885925,32.3766665617625L221.45243247350058,23.546666590372716L226.26661578814188,23.546666590372716L231.0807991027832,35.31999988555907L235.89498241742453,29.433333237965893L240.70916573206586,35.31999988555907L245.52334904670715,26.489999914169317L250.33753236134848,35.31999988555907L255.15171567598978,23.546666590372716L259.9658989906311,35.31999988555907L264.7800823052724,38.26333320935567" fill="none"></path></g><g><path style="fill: none;" stroke="rgb(51, 187, 238)" stroke-width="2px" d="M28.8850998878479,161.88333280881244L33.69928320248922,161.88333280881244L38.51346651713053,161.88333280881244L43.32764983177185,155.99666616121928L48.14183314641316,29.433333237965893L52.95601646105448,20.603333266576136L57.7701997756958,17.659999942779535L62.58438309033712,20.603333266576136L67.39856640497844,20.603333266576136L72.21274971961975,14.716666618982957L77.02693303426106,20.603333266576136L81.84111634890239,23.546666590372716L86.6552996635437,23.546666590372716L91.46948297818501,20.603333266576136L96.28366629282633,20.603333266576136L101.09784960746765,14.716666618982957L105.91203292210896,23.546666590372716L110.72621623675029,20.603333266576136L115.5403995513916,20.603333266576136L120.35458286603293,20.603333266576136L125.16876618067424,14.716666618982957L129.98294949531555,17.659999942779535L134.79713280995688,20.603333266576136L139.61131612459818,23.546666590372716L144.4254994392395,20.603333266576136L149.23968275388083,20.603333266576136L154.05386606852213,20.603333266576136L158.86804938316345,23.546666590372716L163.68223269780478,14.716666618982957L168.4964160124461,20.603333266576136L173.3105993270874,20.603333266576136L178.12478264172873,17.659999942779535L182.93896595637003,17.659999942779535L187.75314927101135,23.546666590372716L192.56733258565265,14.716666618982957L197.38151590029398,23.546666590372716L202.1956992149353,17.659999942779535L207.00988252957663,23.546666590372716L211.82406584421793,20.603333266576136L216.63824915885925,20.603333266576136L221.45243247350058,23.546666590372716L226.26661578814188,17.659999942779535L231.0807991027832,23.546666590372716L235.89498241742453,20.603333266576136L240.70916573206586,20.603333266576136L245.52334904670715,23.546666590372716L250.33753236134848,17.659999942779535L255.15171567598978,23.546666590372716L259.9658989906311,23.546666590372716L264.7800823052724,14.716666618982957" fill="none"></path></g></g></g></g></g></g><g transform="translate(41, 176)" clip-path="url(#clip_1)"><clipPath id="clip_1"><rect width="288" height="23"></rect></clipPath><g><g><line x1="0" y1="0" x2="0" y2="5" style="visibility: inherit;" fill="rgb(0, 0, 0)" stroke="rgb(204, 204, 204)" stroke-width="1px"></line><line x1="24.07091657320658" y1="0" x2="24.07091657320658" y2="5" style="visibility: inherit;" fill="rgb(0, 0, 0)" stroke="rgb(204, 204, 204)" stroke-width="1px"></line><line x1="48.14183314641316" y1="0" x2="48.14183314641316" y2="5" style="visibility: inherit;" fill="rgb(0, 0, 0)" stroke="rgb(204, 204, 204)" stroke-width="1px"></line><line x1="72.21274971961975" y1="0" x2="72.21274971961975" y2="5" style="visibility: inherit;" fill="rgb(0, 0, 0)" stroke="rgb(204, 204, 204)" stroke-width="1px"></line><line x1="96.28366629282633" y1="0" x2="96.28366629282633" y2="5" style="visibility: inherit;" fill="rgb(0, 0, 0)" stroke="rgb(204, 204, 204)" stroke-width="1px"></line><line x1="120.35458286603293" y1="0" x2="120.35458286603293" y2="5" style="visibility: inherit;" fill="rgb(0, 0, 0)" stroke="rgb(204, 204, 204)" stroke-width="1px"></line><line x1="144.4254994392395" y1="0" x2="144.4254994392395" y2="5" style="visibility: inherit;" fill="rgb(0, 0, 0)" stroke="rgb(204, 204, 204)" stroke-width="1px"></line><line x1="168.4964160124461" y1="0" x2="168.4964160124461" y2="5" style="visibility: inherit;" fill="rgb(0, 0, 0)" stroke="rgb(204, 204, 204)" stroke-width="1px"></line><line x1="192.56733258565265" y1="0" x2="192.56733258565265" y2="5" style="visibility: inherit;" fill="rgb(0, 0, 0)" stroke="rgb(204, 204, 204)" stroke-width="1px"></line><line x1="216.63824915885925" y1="0" x2="216.63824915885925" y2="5" style="visibility: inherit;" fill="rgb(0, 0, 0)" stroke="rgb(204, 204, 204)" stroke-width="1px"></line><line x1="240.70916573206586" y1="0" x2="240.70916573206586" y2="5" style="visibility: inherit;" fill="rgb(0, 0, 0)" stroke="rgb(204, 204, 204)" stroke-width="1px"></line><line x1="264.7800823052724" y1="0" x2="264.7800823052724" y2="5" style="visibility: inherit;" fill="rgb(0, 0, 0)" stroke="rgb(204, 204, 204)" stroke-width="1px"></line><line x1="288.850998878479" y1="0" x2="288.850998878479" y2="5" style="visibility: inherit;" fill="rgb(0, 0, 0)" stroke="rgb(204, 204, 204)" stroke-width="1px"></line></g><g transform="translate(0, 8)"><text style="text-anchor: middle; visibility: hidden; font-family: Roboto, sans-serif; font-size: 12px; font-weight: 200;" x="0" y="0" dx="0em" dy="0.95em" fill="rgb(33, 33, 33)" stroke="none" stroke-width="1px">-5k</text><text style="text-anchor: middle; visibility: inherit; font-family: Roboto, sans-serif; font-size: 12px; font-weight: 200;" x="24.07091657320658" y="0" dx="0em" dy="0.95em" fill="rgb(33, 33, 33)" stroke="none" stroke-width="1px">0</text><text style="text-anchor: middle; visibility: hidden; font-family: Roboto, sans-serif; font-size: 12px; font-weight: 200;" x="48.14183314641316" y="0" dx="0em" dy="0.95em" fill="rgb(33, 33, 33)" stroke="none" stroke-width="1px">5k</text><text style="text-anchor: middle; visibility: inherit; font-family: Roboto, sans-serif; font-size: 12px; font-weight: 200;" x="72.21274971961975" y="0" dx="0em" dy="0.95em" fill="rgb(33, 33, 33)" stroke="none" stroke-width="1px">10k</text><text style="text-anchor: middle; visibility: hidden; font-family: Roboto, sans-serif; font-size: 12px; font-weight: 200;" x="96.28366629282633" y="0" dx="0em" dy="0.95em" fill="rgb(33, 33, 33)" stroke="none" stroke-width="1px">15k</text><text style="text-anchor: middle; visibility: inherit; font-family: Roboto, sans-serif; font-size: 12px; font-weight: 200;" x="120.35458286603293" y="0" dx="0em" dy="0.95em" fill="rgb(33, 33, 33)" stroke="none" stroke-width="1px">20k</text><text style="text-anchor: middle; visibility: hidden; font-family: Roboto, sans-serif; font-size: 12px; font-weight: 200;" x="144.4254994392395" y="0" dx="0em" dy="0.95em" fill="rgb(33, 33, 33)" stroke="none" stroke-width="1px">25k</text><text style="text-anchor: middle; visibility: inherit; font-family: Roboto, sans-serif; font-size: 12px; font-weight: 200;" x="168.4964160124461" y="0" dx="0em" dy="0.95em" fill="rgb(33, 33, 33)" stroke="none" stroke-width="1px">30k</text><text style="text-anchor: middle; visibility: hidden; font-family: Roboto, sans-serif; font-size: 12px; font-weight: 200;" x="192.56733258565265" y="0" dx="0em" dy="0.95em" fill="rgb(33, 33, 33)" stroke="none" stroke-width="1px">35k</text><text style="text-anchor: middle; visibility: inherit; font-family: Roboto, sans-serif; font-size: 12px; font-weight: 200;" x="216.63824915885925" y="0" dx="0em" dy="0.95em" fill="rgb(33, 33, 33)" stroke="none" stroke-width="1px">40k</text><text style="text-anchor: middle; visibility: hidden; font-family: Roboto, sans-serif; font-size: 12px; font-weight: 200;" x="240.70916573206586" y="0" dx="0em" dy="0.95em" fill="rgb(33, 33, 33)" stroke="none" stroke-width="1px">45k</text><text style="text-anchor: middle; visibility: inherit; font-family: Roboto, sans-serif; font-size: 12px; font-weight: 200;" x="264.7800823052724" y="0" dx="0em" dy="0.95em" fill="rgb(33, 33, 33)" stroke="none" stroke-width="1px">50k</text><text style="text-anchor: middle; visibility: hidden; font-family: Roboto, sans-serif; font-size: 12px; font-weight: 200;" x="288.850998878479" y="0" dx="0em" dy="0.95em" fill="rgb(33, 33, 33)" stroke="none" stroke-width="1px">55k</text></g><line x1="0" y1="0" x2="288.850998878479" y2="0" fill="rgb(0, 0, 0)" stroke="rgb(204, 204, 204)" stroke-width="1px"></line></g></g></g></g></svg>