<svg viewBox="0 0 330 200" xmlns="http://www.w3.org/2000/svg"><g><g><g><g><g><line x1="20.383000373840332" y1="176.5999994277954" x2="15.383000373840332" y2="176.5999994277954" style="visibility: inherit;" fill="rgb(0, 0, 0)" stroke="rgb(204, 204, 204)" stroke-width="1px"></line><line x1="20.383000373840332" y1="156.97777726915146" x2="15.383000373840332" y2="156.97777726915146" style="visibility: inherit;" fill="rgb(0, 0, 0)" stroke="rgb(204, 204, 204)" stroke-width="1px"></line><line x1="20.383000373840332" y1="137.35555511050754" x2="15.383000373840332" y2="137.35555511050754" style="visibility: inherit;" fill="rgb(0, 0, 0)" stroke="rgb(204, 204, 204)" stroke-width="1px"></line><line x1="20.383000373840332" y1="117.73333295186362" x2="15.383000373840332" y2="117.73333295186362" style="visibility: inherit;" fill="rgb(0, 0, 0)" stroke="rgb(204, 204, 204)" stroke-width="1px"></line><line x1="20.383000373840332" y1="98.11111079321968" x2="15.383000373840332" y2="98.11111079321968" style="visibility: inherit;" fill="rgb(0, 0, 0)" stroke="rgb(204, 204, 204)" stroke-width="1px"></line><line x1="20.383000373840332" y1="78.48888863457573" x2="15.383000373840332" y2="78.48888863457573" style="visibility: inherit;" fill="rgb(0, 0, 0)" stroke="rgb(204, 204, 204)" stroke-width="1px"></line><line x1="20.383000373840332" y1="58.86666647593181" x2="15.383000373840332" y2="58.86666647593181" style="visibility: inherit;" fill="rgb(0, 0, 0)" stroke="rgb(204, 204, 204)" stroke-width="1px"></line><line x1="20.383000373840332" y1="39.244444317287865" x2="15.383000373840332" y2="39.244444317287865" style="visibility: inherit;" fill="rgb(0, 0, 0)" stroke="rgb(204, 204, 204)" stroke-width="1px"></line><line x1="20.383000373840332" y1="19.622222158643943" x2="15.383000373840332" y2="19.622222158643943" style="visibility: inherit;" fill="rgb(0, 0, 0)" stroke="rgb(204, 204, 204)" stroke-width="1px"></line><line x1="20.383000373840332" y1="0" x2="15.383000373840332" y2="0" style="visibility: inherit;" fill="rgb(0, 0, 0)" stroke="rgb(204, 204, 204)" stroke-width="1px"></line></g><g transform="translate(10.383000373840332, 0)"><text style="text-anchor: end; visibility: hidden; font-family: Roboto, sans-serif; font-size: 12px; font-weight: 200;" x="0" y="176.5999994277954" dx="0em" dy="0.3em" fill="rgb(33, 33, 33)" stroke="none" stroke-width="1px">0</text><text style="text-anchor: end; visibility: inherit; font-family: Roboto, sans-serif; font-size: 12px; font-weight: 200;" x="0" y="156.97777726915146" dx="0em" dy="0.3em" fill="rgb(33, 33, 33)" stroke="none" stroke-width="1px">1</text><text style="text-anchor: end; visibility: hidden; font-family: Roboto, sans-serif; font-size: 12px; font-weight: 200;" x="0" y="137.35555511050754" dx="0em" dy="0.3em" fill="rgb(33, 33, 33)" stroke="none" stroke-width="1px">2</text><text style="text-anchor: end; visibility: inherit; font-family: Roboto, sans-serif; font-size: 12px; font-weight: 200;" x="0" y="117.73333295186362" dx="0em" dy="0.3em" fill="rgb(33, 33, 33)" stroke="none" stroke-width="1px">3</text><text style="text-anchor: end; visibility: hidden; font-family: Roboto, sans-serif; font-size: 12px; font-weight: 200;" x="0" y="98.11111079321968" dx="0em" dy="0.3em" fill="rgb(33, 33, 33)" stroke="none" stroke-width="1px">4</text><text style="text-anchor: end; visibility: inherit; font-family: Roboto, sans-serif; font-size: 12px; font-weight: 200;" x="0" y="78.48888863457573" dx="0em" dy="0.3em" fill="rgb(33, 33, 33)" stroke="none" stroke-width="1px">5</text><text style="text-anchor: end; visibility: hidden; font-family: Roboto, sans-serif; font-size: 12px; font-weight: 200;" x="0" y="58.86666647593181" dx="0em" dy="0.3em" fill="rgb(33, 33, 33)" stroke="none" stroke-width="1px">6</text><text style="text-anchor: end; visibility: inherit; font-family: Roboto, sans-serif; font-size: 12px; font-weight: 200;" x="0" y="39.244444317287865" dx="0em" dy="0.3em" fill="rgb(33, 33, 33)" stroke="none" stroke-width="1px">7</text><text style="text-anchor: end; visibility: hidden; font-family: Roboto, sans-serif; font-size: 12px; font-weight: 200;" x="0" y="19.622222158643943" dx="0em" dy="0.3em" fill="rgb(33, 33, 33)" stroke="none" stroke-width="1px">8</text><text style="text-anchor: end; visibility: hidden; font-family: Roboto, sans-serif; font-size: 12px; font-weight: 200;" x="0" y="0" dx="0em" dy="0.3em" fill="rgb(33, 33, 33)" stroke="none" stroke-width="1px">9</text></g><line x1="20.383000373840332" y1="0" x2="20.383000373840332" y2="176.5999994277954" fill="rgb(0, 0, 0)" stroke="rgb(204, 204, 204)" stroke-width="1px"></line></g></g><g transform="translate(20, 0)" clip-path="url(#clip_0)"><clipPath id="clip_0"><rect width="309" height="176"></rect></clipPath><g><g><g><line x1="0" y1="0" x2="0" y2="176.5999994277954" fill="rgb(0, 0, 0)" stroke="rgb(66, 66, 66)" stroke-width="1px" opacity="0.25"></line><line x1="38.70212495326996" y1="0" x2="38.70212495326996" y2="176.5999994277954" fill="rgb(0, 0, 0)" stroke="rgb(66, 66, 66)" stroke-width="1px" opacity="0.25"></line><line x1="77.40424990653992" y1="0" x2="77.40424990653992" y2="176.5999994277954" fill="rgb(0, 0, 0)" stroke="rgb(66, 66, 66)" stroke-width="1px" opacity="0.25"></line><line x1="116.10637485980988" y1="0" x2="116.10637485980988" y2="176.5999994277954" fill="rgb(0, 0, 0)" stroke="rgb(66, 66, 66)" stroke-width="1px" opacity="0.25"></line><line x1="154.80849981307983" y1="0" x2="154.80849981307983" y2="176.5999994277954" fill="rgb(0, 0, 0)" stroke="rgb(66, 66, 66)" stroke-width="1px" opacity="0.25"></line><line x1="193.5106247663498" y1="0" x2="193.5106247663498" y2="176.5999994277954" fill="rgb(0, 0, 0)" stroke="rgb(66, 66, 66)" stroke-width="1px" opacity="0.25"></line><line x1="232.21274971961975" y1="0" x2="232.21274971961975" y2="176.5999994277954" fill="rgb(0, 0, 0)" stroke="rgb(66, 66, 66)" stroke-width="1px" opacity="0.25"></line><line x1="270.9148746728897" y1="0" x2="270.9148746728897" y2="176.5999994277954" fill="rgb(0, 0, 0)" stroke="rgb(66, 66, 66)" stroke-width="1px" opacity="0.25"></line><line x1="309.61699962615967" y1="0" x2="309.61699962615967" y2="176.5999994277954" fill="rgb(0, 0, 0)" stroke="rgb(66, 66, 66)" stroke-width="1px" opacity="0.25"></line></g><g><line x1="0" y1="176.5999994277954" x2="309.61699962615967" y2="176.5999994277954" fill="rgb(0, 0, 0)" stroke="rgb(66, 66, 66)" stroke-width="1px" opacity="0.25"></line><line x1="0" y1="156.97777726915146" x2="309.61699962615967" y2="156.97777726915146" fill="rgb(0, 0, 0)" stroke="rgb(66, 66, 66)" stroke-width="1px" opacity="0.25"></line><line x1="0" y1="137.35555511050754" x2="309.61699962615967" y2="137.35555511050754" fill="rgb(0, 0, 0)" stroke="rgb(66, 66, 66)" stroke-width="1px" opacity="0.25"></line><line x1="0" y1="117.73333295186362" x2="309.61699962615967" y2="117.73333295186362" fill="rgb(0, 0, 0)" stroke="rgb(66, 66, 66)" stroke-width="1px" opacity="0.25"></line><line x1="0" y1="98.11111079321968" x2="309.61699962615967" y2="98.11111079321968" fill="rgb(0, 0, 0)" stroke="rgb(66, 66, 66)" stroke-width="1px" opacity="0.25"></line><line x1="0" y1="78.48888863457573" x2="309.61699962615967" y2="78.48888863457573" fill="rgb(0, 0, 0)" stroke="rgb(66, 66, 66)" stroke-width="1px" opacity="0.25"></line><line x1="0" y1="58.86666647593181" x2="309.61699962615967" y2="58.86666647593181" fill="rgb(0, 0, 0)" stroke="rgb(66, 66, 66)" stroke-width="1px" opacity="0.25"></line><line x1="0" y1="39.244444317287865" x2="309.61699962615967" y2="39.244444317287865" fill="rgb(0, 0, 0)" stroke="rgb(66, 66, 66)" stroke-width="1px" opacity="0.25"></line><line x1="0" y1="19.622222158643943" x2="309.61699962615967" y2="19.622222158643943" fill="rgb(0, 0, 0)" stroke="rgb(66, 66, 66)" stroke-width="1px" opacity="0.25"></line><line x1="0" y1="0" x2="309.61699962615967" y2="0" fill="rgb(0, 0, 0)" stroke="rgb(66, 66, 66)" stroke-width="1px" opacity="0.25"></line></g></g></g><g><g><line x1="0" y1="176.5999994277954" x2="309.61699962615967" y2="176.5999994277954" fill="rgb(0, 0, 0)" stroke="rgb(153, 153, 153)" stroke-width="1.5px"></line></g></g><g><g><line x1="38.70212495326996" y1="0" x2="38.70212495326996" y2="176.5999994277954" fill="rgb(0, 0, 0)" stroke="rgb(153, 153, 153)" stroke-width="1.5px"></line></g></g><g><g><g><g><g><path style="fill: none;" stroke="rgb(255, 112, 67)" stroke-width="2px" d="M39.16647304845929,157.09414770035656L39.24387729836583,155.65519027284898L39.63089854789853,151.89415177648775L39.86311129761815,148.86940894596054L39.94051554752469,147.68500915930116L40.17272829724431,146.3268894313195L40.32753679705739,144.2419260948968L40.63715379668355,141.1821008293545L41.56600479556203,135.25857695216692L41.87562179518819,130.50857062319866L42.03043029500127,125.5982971911796L42.185238794814346,121.59014176598541L42.26264304472089,118.40619870310718L42.41745154453397,115.03843508626035L42.88187704397321,111.17315304005584L42.95928129387975,107.02457366540987L43.03668554378629,105.8828303338574L43.11408979369283,103.77027007221712L43.19149404359937,101.62364196672353L43.810728042851686,98.349321175083L44.04294079257131,96.24589009298928L44.27515354229093,92.96569482564944L44.352557792197466,91.56675809962388L44.42996204210401,90.45226715330348L44.50736629201055,88.6210834229727L44.894387541543246,87.02131923937694L45.51362154079557,85.0927788413751L45.59102579070211,83.28898014353912L46.05545129014134,81.30854990796438L46.67468528939366,79.44924815689836L46.90689803911328,79.62944254814359L46.98430228901982,79.37371055940287L47.5261320383656,78.14282588672802L47.75834478808522,77.92754463394829L47.9131532878983,78.1408970420244L48.53238728715062,78.35077031769221L48.76460003687024,79.94808155707997L48.84200428677678,79.86283406864672L49.53864253593564,79.92816280155873L49.693451035748716,80.59546273076046L49.77085528565526,81.99432843073212L49.8482595355618,83.33977161631154L50.39008928490758,83.25901526292138L50.777110534440276,84.92877197181696L50.93191903425336,84.77610970682896L51.0093232841599,84.989508723654L51.318940283786056,85.55644734312718L51.70596153331876,87.67754884737668L51.7833657832253,88.56735404565454L52.01557853294492,88.56919383829997L52.48000403238416,89.01287320452748L52.5574082822907,89.9859702205109L52.71221678210378,91.84155863339949L52.944429531823396,93.35016934163477L53.09923803163648,93.27482805598567L53.17664228154302,93.87903750431367L53.3314507813561,94.42902721632716L53.486259281169175,94.81528889809405L53.56366353107572,95.66333200144973L54.1054932804215,97.65552690046867L54.72472727967382,98.70349907420152L54.80213152958036,100.35890148414593L54.8795357794869,99.76736950547847L55.18915277911306,101.26090081500574L55.963195278178446,101.9769684092089L56.04059952808499,103.09072320903462L56.19540802789807,104.49534944430499L56.505025027524226,106.29122798535218L56.73723777724385,107.98595404887604L56.81464202715039,108.73405407887405L56.89204627705693,108.61243844183784L57.12425902677655,108.60705961778804L58.05311002565503,111.51120589846192L58.51753552509427,113.50233340625661L58.74974827481389,115.68092048488082L58.90455677462697,117.45569332174854L58.98196102453351,119.218999081925L59.13676952434659,119.80018625684602L59.44638652397275,121.79771886133821L59.756003523598906,123.77934046371708L59.910812023411985,124.7491537207001L60.297833272944686,126.4073330856501L61.381492771636246,128.69753715200392L61.76851402116895,130.69816466211194L61.84591827107549,132.2657538722725L62.15553527070165,133.32044066938354L62.23293952060819,134.7449260205561L62.54255652023435,136.26695990190547L62.619960770140885,137.06355944390293L62.77476926995397,137.36815470553134L63.006982019673586,138.01896111081402L63.39400326920629,138.85299401211992L63.47140751911283,139.66604816257194L63.548811769019366,140.2910691199604L63.93583301855207,141.40225649494775L64.01323726845861,141.4748477845496L64.09064151836515,142.04252407830674L64.32285426808477,142.66042768270998L65.01949251724363,143.49992881109955L65.1743010170567,143.11940197628087L65.63872651649594,143.20229388326484L66.10315201593518,143.10910256234644L66.18055626584172,142.84077328759753L66.64498176528096,142.18067607190807L66.87719451500058,142.18329181601297L67.18681151462674,142.038899280182L67.4964285142529,142.25292580302946L67.65123701406598,142.18038314294543L67.96085401369214,141.72182411435193L68.03825826359868,142.20905010326402L68.11566251350521,141.80025872225528L68.2704710133183,141.2790653108288L68.657492262851,141.2801866012169L69.0445135123837,141.32411044784908L69.12191776229024,141.50510448893945L69.19932201219677,141.36426129500074L70.36038576079488,142.16117362267727L70.90221551014066,142.85801500170487L71.3666410095799,143.51238276354874L71.44404525948644,143.28740193352726L71.59885375929952,143.76754678005352L71.7536622591126,144.0431957500183L72.06327925873876,144.0358731817752L72.75991750789761,144.33971967681467L72.9147260077107,144.80472150027907L72.99213025761723,145.09553008652426L73.22434300733686,145.2633689012302L73.6887685067761,145.16701040842432L74.30800250602842,145.1515831710045L74.38540675593495,145.62279538777395L74.61761950565457,145.88019149638185L74.69502375556112,146.23925307773607L75.39166200471998,146.42924745491786L75.46906625462651,146.73013741346813L76.32051300359845,146.67452290400573L76.55272575331807,146.88849767550576L76.63013000322461,146.55305945553397L76.7849385030377,146.4808733708923L76.93974700285077,146.2271059748758L78.02340650154234,146.48460682930354L78.41042775107503,146.66794534854893L78.5652362508881,146.56938610564592L78.79744900060774,146.5597172356465L78.95225750042081,146.3833606854246L79.33927874995351,146.3629213769478L79.41668299986006,146.04437405576576L79.8811084992993,145.63245003464266L80.03591699911236,145.80603697005992L80.11332124901891,145.6962524106221L80.26812974883198,145.4053237528775L80.34553399873852,145.27555727832794L80.57774674845815,145.2236157113869L80.73255524827123,145.28184783946372L81.11957649780392,144.72002126010506L81.19698074771047,144.95784611650137L81.89361899686932,145.2803148253478L82.0484274966824,144.87019406868242L82.35804449630857,145.18596192019572L82.4354487462151,145.12955374825182L82.51285299612164,145.0782443663428L82.8224699957478,144.2859396349283L83.13208699537395,144.5058415803975L83.2094912452805,144.01819647751202L83.44170399500013,143.89577004730904L83.5965124948132,143.71483862686696L83.67391674471975,143.44676314893803L83.75132099462628,143.24143294141405L83.82872524453283,143.44596542953695L83.90612949443936,143.22186869383384L83.9835337443459,143.32667934268946L84.13834224415899,143.21652474611275L84.21574649406551,143.5735331142146L84.60276774359822,142.57860051001924L84.68017199350476,142.63017240120757L84.98978899313092,141.83128260492805L85.22200174285055,140.96218402207353L85.37681024266362,140.68879867000973L85.84123574210287,140.0761539410081L85.99604424191595,138.85164901878562L86.38306549144863,138.110396163567L86.69268249107479,136.87135120498354L86.77008674098134,136.29639806435722L86.92489524079443,136.53425627291685L87.8537462396729,135.9566523777878L88.39557598901868,135.73483470555564L88.47298023892523,135.65972404511132L88.6277887387383,135.1014477803753L88.70519298864484,135.04317919428098L88.78259723855139,134.58761239890976L88.86000148845791,134.03575178540083L89.014809988271,133.64887592462506L89.24702273799062,133.04272969948326L89.55663973761679,132.70136642623942L89.63404398752331,132.4860668762759L89.94366098714947,132.6778590395283L90.1758737368691,132.6392980496575L90.48549073649525,132.51668435763878L90.71770348621487,131.69536061255914L90.79510773612141,131.76833572388142L90.87251198602796,131.46424562703245L90.9499162359345,132.08143030484064L91.02732048584103,131.74722707202048L91.18212898565412,131.93977996647737L91.25953323556065,131.7609694925008L91.3369374854672,131.61447788280768L91.56915023518681,131.24873200644203L91.64655448509336,131.41477548084845L91.72395873499988,131.93683846426345L91.87876723481297,131.78495513282434L92.03357573462606,130.87324203577163L92.11097998453259,130.98329560182006L92.65280973387837,131.2729760918856L92.885022483598,131.36515924027333L93.19463948322415,131.25538625100438L93.42685223294377,131.76941835456708L93.58166073275684,131.4058245418656L93.73646923256993,131.54724614680634L94.04608623219609,132.1881866921832L94.35570323182225,132.58187539863061L94.58791598154188,132.87748906895476L94.6653202314484,133.6530205488251L94.74272448135495,133.49763537273716L94.82012873126149,133.18637197865954L95.28455423070072,133.75305602203076L95.74897973013996,133.74626696014494L95.90378822995305,133.6125407546328L95.9811924798596,133.18476298577474L96.29080947948576,133.06651543020024L96.52302222920537,132.58612773406028L96.60042647911192,132.75705908171386L96.83263922883152,132.2737906239089L96.91004347873807,131.7519682421447L96.98744772864461,131.55969012692444L97.14225622845768,131.3270288839525L97.29706472827077,131.29093117384494L97.76149022771001,131.12161785521974L97.99370297742963,130.87021079887035L98.07110722733617,130.29348952287853L98.30331997705579,130.07247057634228L98.38072422696233,130.30250398088333L98.45812847686888,129.33613522692204L98.61293697668195,129.4330463297479L98.69034122658849,129.5618119790816L99.15476672602773,129.74447914526993L99.46438372565389,129.41919345208828L99.54178797556042,129.6227961173027L99.6965964753735,129.76541465077992L99.85140497518658,130.0201532803846L100.00621347499965,130.60637481467873L100.0836177249062,130.435125433157L100.16102197481274,130.5439753934669L100.23842622471929,130.41158497168226L100.31583047462581,130.87872069313283L100.54804322434545,130.78665000544507L100.70285172415852,130.37412156198027L100.8576602239716,130.355458540205L101.08987297369121,130.00020969839102L101.2446814735043,129.90880907775212L101.32208572341085,130.00148013038643L101.39948997331737,129.62390723406048L101.86391547275662,129.1825758567583L101.94131972266317,129.27604348399612L102.09612822247625,129.02234462288175L102.32834097219586,129.11053593659952L102.63795797182202,128.87856937465213L102.87017072154164,129.00467117566754L103.10238347126126,129.3609009070496L103.17978772116781,129.52204160864503L103.33459622098088,129.59505407108995L103.48940472079397,129.1353757422315L103.64421322060704,128.67075292325953L104.03123447013974,128.8730552293138L104.26344721985937,128.75428220838586L104.41825571967244,128.94080589693587L105.57931946827054,128.67650128424722L105.8889364678967,128.34383061724674L106.04374496770977,128.5458078213552L106.12114921761632,128.434086905406L106.43076621724249,127.83283278800008L106.58557471705556,127.78754505251705L106.6629789669621,127.8415246965596L106.89519171668172,128.04683030059468L107.05000021649481,127.66235109005756L107.20480871630788,127.8164852843968L107.4370214660275,127.72523446727779L107.59182996584057,127.44528723887639L107.66923421574712,126.89527798253452L107.82404271556021,126.80585787546008L108.13365971518637,127.14678150738028L108.44327671481253,126.92243675588477L108.98510646415829,126.85745024052825L109.06251071406483,126.87526784856838L109.13991496397138,127.05291070807135L109.21731921387791,127.16964707687676L109.37212771369099,127.18162996880893L109.60434046341062,126.83042280000149L109.68174471331714,126.93721628191508L109.7591489632237,126.86418573974285L109.9913617129433,126.8808920343773L110.06876596284985,126.93301680485476L110.14617021275639,127.12557596501841L110.22357446266294,126.99227541467059L110.84280846191525,126.71257708607433L110.92021271182179,126.18354048322443L111.15242546154141,125.34599045469955L111.69425521088719,124.81255779545576L111.92646796060681,125.02927846920865L112.54570195985913,125.0558517525458L112.62310620976567,124.96453919732933L112.77791470957875,124.89778146978443L112.8553189594853,125.14961112300048L112.93272320939182,125.71940039467118L113.16493595911146,126.07487006353159L113.24234020901798,126.53288286076587L113.39714870883107,126.56744707967168L113.55195720864415,126.68929607212793L113.93897845817686,126.50981134745669L114.01638270808338,127.13428291641044L114.32599970770954,127.61255331146043L114.40340395761609,127.74742544953119L114.48080820752263,127.83458050313531L114.55821245742918,127.98931678456356L114.79042520714879,128.59711080475557L114.86782945705534,128.4543398522505L114.94523370696187,128.73226774780633L115.1774464566815,128.7879679997427L115.25485070658803,129.18203200447218L115.87408470584035,128.87279253700206L116.1837017054665,129.04389475494563L116.33851020527959,129.19204468828258L116.49331870509266,129.06014353239203L116.57072295499921,129.15058639984557L116.80293570471882,129.17896090930324L117.03514845443846,129.63954025796704L117.11255270434499,130.06493306224124L117.18995695425153,130.26054928604205L117.26736120415806,130.04129318585416L117.4995739538777,129.88836380573784L118.11880795313002,130.01652187100493L118.27361645294309,130.18942121812537L118.42842495275617,129.60606203638977L118.58323345256926,129.58272430317834L118.66063770247578,129.94966599280116L118.8928504521954,130.06083011436226L119.04765895200848,130.25975204193438L119.20246745182156,130.21996723343526L119.58948870135427,130.22833442455945L120.13131845070004,130.4249316967918L120.20872270060659,131.08705353950748L120.4409354503262,131.0593434551376L120.59574395013928,130.85581257703478L121.06016944957852,130.9261909532325L121.13757369948506,130.86724367639263L121.29238219929815,130.77653273158774L121.44719069911123,130.87755051222462L121.75680769873739,130.71348274412787L122.06642469836355,130.5170560356091L122.22123319817662,130.09114807149328L122.60825444770931,129.73729719085557L122.68565869761586,129.3356776620123L122.7630629475224,128.88116738020827L123.30489269686818,129.0225949900902L123.38229694677472,129.2087925114562L123.84672244621396,129.35139271568815L124.15633944584012,129.42698822848055L124.23374369574667,129.55466845162576L124.31114794565319,129.47378902220933L125.00778619481207,129.56088048292304L125.16259469462514,129.43210380947207L125.39480744434475,129.34760106263806L125.859232943784,129.27717317056604L125.93663719369054,128.91899146914503L126.2462541933167,128.46111264192754L126.47846694303631,127.9387339292785L126.55587119294286,127.75811538878831L126.6332754428494,126.81023628250318L126.86548819256902,126.90899611225521L127.71693494154096,126.90719285300052L127.94914769126058,126.72716821789241L128.1813604409802,126.55522091624132L128.25876469088675,126.3535329066373L128.33616894079327,126.64629688478298L128.5683816905129,126.98864889688315L128.64578594041944,126.96500170656299L128.72319019032597,127.05119698662514L129.88425393892408,127.11967415251671L130.1164666886437,127.3932872191648L130.27127518845677,126.85565969563048L130.34867943836332,126.78371259664445L130.5034879381764,126.77556901794247L130.5808921880829,126.62711071977186L130.81310493780256,126.57614578118388L131.04531768752216,126.25988357690991L131.1227219374287,126.00246123873696L131.2775304372418,126.55821929006571L131.43233893705488,127.0836256262594L131.58714743686795,127.10098231739336L131.74195593668102,127.03451782785355L131.97416868640065,127.55813787262122L132.12897718621372,127.83975567630567L132.28378568602682,127.87496581745044L132.4385941858399,127.79931865911314L132.59340268565296,127.83550424850061L132.74821118546603,128.20616808547885L133.52225368453145,128.60354557565856L133.8318706841576,128.7931666467058L134.14148768378377,128.68989134848084L134.21889193369032,128.9622410415188L134.29629618359684,129.32576008999567L134.45110468340994,129.46178995368356L134.68331743312956,129.42419140277806L134.91553018284915,129.59641451821074L135.07033868266225,130.19586004766066L135.30255143238188,130.54981153905447L135.76697693182112,130.83809079491402L135.9217854316342,131.0494461436423L136.07659393144726,131.22384965236944L136.1539981813538,130.9956382476673L136.38621093107344,131.27183842054876L136.46361518097996,131.3144934866472L136.5410194308865,131.26961224116744L136.77323218060613,131.5638119995395L137.39246617985845,132.01834465624182L137.77948742939117,131.894063146754L137.93429592920424,131.46397927341252L138.39872142864346,131.30657643754188L138.70833842826963,131.2393996111514L138.78574267817618,131.15926597529784L138.8631469280827,131.275067860859L138.94055117798925,131.61811643696106L139.4049766774285,131.80314732643237L139.6371894271481,131.92854308965914L140.17901917649388,132.35687044687538L140.33382767630695,132.74887625860035L140.56604042602658,132.77874467889717L140.64344467593313,132.53974689423416L140.87565742565275,132.9244514254613L140.9530616755593,133.0675528434791L141.34008292509196,133.04247741253096L141.4174871749985,133.00203089755718L141.49489142490506,132.55797185297521L141.72710417462469,132.4961982648539L141.9593169243443,132.54342095682347L142.03672117425086,132.5579797602953L142.11412542415738,131.98783873978928L142.19152967406393,131.96142518503504L142.26893392397045,132.13338378444857L142.7333594234097,131.92542809607835L143.19778492284894,131.31757309054942L143.66221042228818,130.7286040927151L143.97182742191433,130.53317084051636L144.12663592172743,130.21828780085892L144.51365717126012,129.7330407483646L144.8232741708863,129.8807379594963L145.36510392023206,129.6154442922237L145.51991242004513,129.36684210744525L145.75212516976475,129.55066701007007L145.90693366957785,129.02494027468524L145.98433791948437,129.1194961120846L146.216550669204,129.11228991913367L146.29395491911055,129.0711326720172L146.44876341892362,128.95193055849063L146.52616766883017,128.99189063376636L146.75838041854976,128.93990749440948L148.07425266696094,128.65431476851316L148.1516569168675,128.90333899997063L148.22906116677402,128.73937709727628L148.30646541668057,128.83953184758673L148.61608241630674,128.31468098256397L148.84829516602633,128.21104042852872L149.1579121656525,128.51107977879L149.23531641555905,129.16092586444367L149.31272066546558,129.45539744860346L149.62233766509175,129.78737113535604L149.6997419149983,129.72469325942092L149.77714616490482,129.8867849506677L149.9319546647179,130.20892272569137L150.086763164531,129.82952957138602L150.24157166434406,129.54267822516607L150.39638016415714,129.513891639668L151.01561416340945,129.20541575485598L151.40263541294217,128.4520965409742L151.4800396628487,127.77739250706881L152.17667791200756,126.39847751344925L152.2540821619141,126.47007471786556L153.10552891088605,126.01059656308665L153.49255016041874,126.13758919058802L153.72476291013837,126.7752456289395L153.80216716004492,127.03199579697203L154.03437990976454,127.00911723374628L154.1891884095776,127.05293475276964L154.26659265948413,127.98588504112921L154.88582665873648,128.91250774571668L154.96323090864303,129.5483691385474L155.04063515854955,129.51750496726604L155.11803940845607,130.06905603394736L155.3502521581757,130.97102732827057L155.5050606579888,131.07080558763374L155.58246490789534,131.0846379338364L155.65986915780186,131.34134088140016L156.27910315705418,131.46437073247853L156.66612440658687,131.8024341003611L156.74352865649345,131.18065955960572L156.97574140621305,130.87898383895808L157.5175711555588,131.17460570415784L157.67237965537188,131.4614772844418L158.4464221544373,132.22898680142876L158.83344340397,132.41258124443286L158.91084765387652,133.0532310248024L159.06565615368962,133.70168079449735L159.14306040359617,134.00748803102118L159.6074859030354,133.97029698190138L159.68489015294193,133.81109925989034L160.14931565238118,133.74989695547177L160.22671990228773,133.96396891756757L160.9233581514466,134.08964110938086L161.23297515107274,133.37470211308658L161.3877836508858,132.77042665396073L161.69740065051198,132.39191628065743L162.39403889967085,132.65191055879944L162.54884739948392,132.5937760752031L162.78106014920354,132.52147981458484L162.9358686490166,132.3502922190365L163.01327289892316,131.85025629210497L163.40029414845586,131.61762469306342L163.63250689817548,131.48673648052207L164.01952814770817,131.5607408019794L164.17433664752124,131.4701328550846L164.48395364714742,131.48670921026743L164.63876214696052,131.39320395005342L164.71616639686704,131.48616366328824L164.79357064677356,131.1074865079589L164.94837914658666,131.4141453543063L165.10318764639973,131.99026115394014L165.49020889593245,132.16765990062456L165.72242164565205,132.7233251486914L165.87723014546515,133.02164636455421L166.10944289518477,133.23658060181037L166.34165564490436,133.14251691438443L166.65127264453054,133.750312138929L166.88348539425016,133.61561222141816L167.1931023938763,133.54742698244456L167.27050664378285,134.1382178490044L167.34791089368937,135.09240223556205L167.88974064303517,135.6355224054592L168.04454914284827,136.3910062205602L168.1993576426613,136.63392190428073L168.43157039238096,137.4253943636231L168.50897464228748,137.9454018586828L168.97340014172676,138.33403230084045L169.05080439163328,138.62453270680248L169.36042139125942,138.71182846748147L169.6700383908856,138.85069015203138L169.90225114060522,138.83662368452846L169.97965539051177,139.32533413046957L170.0570596404183,139.84536515263767L170.1344638903248,139.82138066605575L170.2892723901379,139.99389587119776L170.52148513985753,140.07403369289838L171.0633148892033,139.7202251216951L171.14071913910988,140.06615636357714L171.52774038864254,140.47285430343058L171.6825488884556,140.93095527333804L171.7599531383622,141.06730895436334L171.8373573882687,140.98019606322222L172.53399563742755,141.14909589411755L172.84361263705372,141.34890124160304L172.92101688696025,141.20689864654435L172.99842113686682,140.82388998143836L173.07582538677335,140.81682983763775L173.23063388658642,140.59517889024863L173.61765513611914,140.59018667332273L173.69505938602566,140.59875975548977L173.84986788583873,140.54781452117552L173.9272721357453,140.71725492505612L174.00467638565183,141.0701635133721L174.23688913537146,140.8211264667004L174.39169763518453,140.87233991994407L174.46910188509105,140.69093179195045L174.54650613499763,140.47887235034895L175.24314438415647,140.1672317718541L175.4753571338761,139.60485152788246L176.17199538303495,139.36967205285833L176.63642088247417,138.80535741074067L176.71382513238072,138.25055264206324L177.17825063181996,137.50125498298092L177.25565488172649,136.94966278926233L177.33305913163304,136.64112182787724L177.48786763144614,137.05444055733216L177.95229313088535,137.2696743372329L178.4167186303246,137.04840022931918L178.49412288023115,137.7008303782898L179.11335687948346,138.19986999710903L179.19076112938998,138.06983131513073L179.4229738791096,137.60894788907424L179.65518662882926,137.39675562386225L179.9648036284554,137.23000528178588L180.11961212826847,137.3210620006065L180.42922912789462,136.92472745285406L180.8936546273339,136.29546079421831L181.20327162696003,135.96767093662322L181.28067587686658,135.47547242141619L181.5128886265862,135.6670225628646L181.66769712639928,135.60278992108388L181.8999098761189,135.69666603053835L182.20952687574504,135.80898562008565L182.36433537555814,135.83120520367734L182.5191438753712,136.24267778882228L182.59654812527774,136.46237141892658L182.6739523751843,136.4305893465503L183.21578212453008,136.59682437833592L183.37059062434315,137.19929969103615L183.4479948742497,137.47174673313413L183.91242037368895,137.5506811279153L183.9898246235955,137.99777270515307L184.06722887350202,138.0437788694839L184.22203737331512,138.39744241049897L184.37684587312816,138.71505443411323L185.30569687200665,139.48872800507255L186.00233512116552,139.9823660193251L186.31195212079166,140.0709332413146L186.69897337032435,140.44305003982305L186.77637762023093,140.80913651599232L187.16339886976363,140.8654426615173L187.24080311967015,141.41128674267614L187.31820736957667,141.19924615124566L187.62782436920284,141.8978443683635L187.7052286191094,142.23969836848116L188.16965411854864,142.2728960080042L188.47927111817478,142.73805572276913L188.55667536808133,142.9670232329371L188.63407961798788,143.37415505869504L188.78888811780095,143.3336453523827L188.86629236770747,143.4138621018656L189.2533136172402,143.46455590896036L189.4855263669598,143.49581048961232L189.6403348667729,143.07424165948456L189.8725476164925,143.20037945821414L190.1047603662121,142.88359449148516L190.33697311593176,142.9018855920007L190.49178161574486,142.72450410307067L190.95620711518407,142.7645755157987L191.0336113650906,142.6430042150527L191.1884198649037,142.67174368052676L191.34322836471677,142.58682553145727L192.03986661387563,142.48914683384393L192.11727086378218,142.45218603546755L192.1946751136887,142.70614544139613L192.27207936359522,142.50470765033413L193.3557388622868,142.44096622153262L193.66535586191299,141.43539917267253L193.97497286153913,140.9930232099261L194.05237711144565,140.71243845462897L194.2845898611653,140.3994482816112L194.36199411107182,139.870137629849L194.59420686079145,139.76553318949678L194.74901536060452,139.4982290779056L194.90382386041762,139.25086575246775L195.2908451099503,138.73261383761567L195.52305785966993,138.7359292629769L195.677866359483,138.34029012428007L195.75527060938956,138.20359731633172L195.91007910920263,137.8621885145141L196.14229185892225,137.90754205002676L196.37450460864184,137.38817495807828L196.52931310845494,137.20213142907366L196.76152585817456,136.8253781374973L196.99373860789416,137.1864521190551L197.07114285780074,137.07922751618315L197.30335560752033,137.34138440578678L197.53556835723995,137.05308217902868L198.15480235649227,136.91079762233014L198.23220660639882,136.44009129800443L198.3870151062119,136.23319142201512L198.77403635574458,136.50533465692362L199.16105760527728,137.10267476538618L199.23846185518386,137.01954682525778L199.31586610509038,137.10529140140656L199.47067460490345,136.99031047905814L199.54807885481,137.02078966116392L199.70288735462307,137.13381841497977L199.85769585443617,137.2662160821607L200.08990860415577,137.93300979996204L200.16731285406235,137.93380040553203L200.4769298536885,138.0830957708277L200.86395110322118,138.09836825828785L201.01875960303425,138.20354364764097L201.4831851024735,137.80182729201346L201.56058935238002,138.16412212837588L201.63799360228657,137.89969940421895L201.71539785219312,138.3775787793163L201.79280210209967,137.73736211408496L202.0250148518193,137.62452305447414L202.17982335163236,137.6421760309714L202.412036101352,137.2200022764089L202.4894403512585,137.21171025820777L202.72165310097813,137.75554908682142L202.8764616007912,137.41477797727228L203.0312701006043,137.082245136085L203.10867435051082,136.56802650380308L203.18607860041737,136.62721395912374L203.49569560004352,136.5844663702071L203.8053125996697,136.2919427369039L203.88271684957624,136.41761229760513L203.9601210994828,136.60810608593L204.26973809910893,137.26044836247516L204.34714234901548,137.69262368972653L204.50195084882856,138.07584791325328L204.5793550987351,138.6703782037232L204.73416359854815,138.82799670681848L204.81156784845473,139.01187602830302L204.88897209836125,139.5138549154016L205.04378059817432,140.29808058278618L205.1211848480809,140.61711187124402L205.27599334789394,141.7404595234888L205.5082060976136,142.22068174761378L205.66301459742664,142.56487267344377L205.7404188473332,142.98694118551944L206.20484434677243,143.33477925585274L206.28224859667895,143.4478364011414L206.3596528465855,143.5697769164604L206.66926984621165,143.75937539480748L206.82407834602475,144.11606580634935L206.97888684583782,144.3097875027375L207.28850384546396,144.46317985102L207.83033359480976,144.63614758540035L208.06254634452938,144.4124712307165L208.21735484434245,144.7014263436201L208.37216334415555,144.8837784309655L208.44956759406207,145.27808216481804L208.75918459368825,145.4339201897504L208.91399309350135,145.86888322193232L208.99139734340787,146.078901272183L209.0688015933144,146.2424699216833L209.30101434303404,146.15505209664636L209.37841859294056,146.3431814138565L209.61063134266018,146.35766556665087L209.68803559256673,146.4333872676416L209.92024834228636,146.75947886995803L210.15246109200598,146.85136064387484L210.46207809163215,146.6084851081254L210.92650359107137,146.86856806773844L211.0039078409779,146.98874223397212L211.2361205906975,147.42121173862003L211.31352484060406,147.48245463485975L211.46833334041716,147.58678157261087L211.6231418402302,147.5530974969113L211.70054609013678,147.1728340846059L211.85535458994985,147.09486418392015L211.93275883985638,146.96317874658342L212.08756733966948,147.0961328249292L212.164971589576,147.33434795686773L212.24237583948255,147.37382259304846L212.3197800893891,147.5194139331654L212.47458858920217,147.68878971579022L212.62939708901527,147.55779038206617L212.7068013389218,147.73707942033522L213.01641833854796,147.65083828703584L213.0938225884545,147.7429974571252L213.2486310882676,147.7262623324421L213.48084383798718,147.75846288537062L213.63565233780028,147.98377397427265L213.8678650875199,147.99633330899522L214.7967160863984,148.22942866459445L215.10633308602453,148.41317609532712L215.33854583574413,148.53051219967654L215.72556708527682,148.57719666155768L215.88037558508992,148.58600471555383L216.11258833480954,148.31962122969145L216.57701383424876,148.57265019248706L216.6544180841553,148.55753277240038L216.8092265839684,148.7243132579308L217.04143933368803,148.64605241922305L217.27365208340763,148.91001591692648L217.3510563333142,148.95511025733214L217.42846058322073,149.12578844068616L218.12509883237956,149.3209566651359L218.2025030822861,149.07767416617028L218.27990733219266,149.05133231562243L218.35731158209921,149.0551867012974L218.51212008191226,149.17200909598412L218.66692858172536,149.1299524995807L218.89914133144498,149.34103763806888L219.28616258097767,149.33945414276718L219.44097108079075,149.0876970050913L219.51837533069732,149.1167954610187L219.59577958060385,149.33354728976832L219.67318383051037,149.17987366659835L220.29241782976268,149.22637632868248L220.98905607892155,149.80308215389107L221.37607732845427,150.36980265026696L221.9953113277066,151.2378965136499L222.0727155776131,151.81743647630475L222.30492832733276,152.19545598169526L222.6145453269589,152.69512518612487L222.8467580766785,153.27276890183805L223.15637507630467,153.58077732098246L223.3885878260243,153.76996888668276L223.6208005757439,154.18854162196465L223.69820482565046,154.4118251066993L223.77560907555699,154.43353602051428L223.9304175753701,154.75287513179478L224.5496515746224,154.9267919155233L224.70446007443547,155.23156671814687L224.85926857424857,155.62543608989483L225.01407707406162,155.89848440947887L225.4010983235943,156.00271494527607L225.78811957312703,156.0835309859369L226.40735357237935,156.3351561474763L226.4847578222859,156.53133306783076L226.56216207219242,156.6556918658204L226.8717790718186,156.87500051904297L227.10399182153822,156.93730082854873L227.33620457125784,156.92852054451936L227.95543857051015,157.1156535830187L228.11024707032323,157.0393449127468L228.41986406994937,156.98295148385284L228.49726831985592,157.1851987014069L228.57467256976247,157.26105044776097L228.65207681966902,157.17912502636534L228.80688531948206,157.1817714134788L228.96169381929516,157.01974280078238L229.1939065690148,157.1956588998679L229.4261193187344,157.1707978882642L229.50352356864096,157.30714145298418L229.65833206845403,157.41527456250196L229.81314056826713,157.53954009601858L230.35497031761287,157.55950723013964L230.66458731723904,157.50035488736657L230.81939581705214,157.480142605551L230.97420431686518,157.401173354912L231.12901281667828,157.607298345997L231.20641706658483,157.7426852686422L231.3612255663979,157.7540367571394L231.59343831611753,157.8829879831971L231.7482468159306,158.0534388577173L231.98045956565025,158.07216458100973L232.1352680654633,157.92343849592976L232.36748081518294,158.04650176228117L232.44488506508947,158.12233816366435L232.522289314996,157.9325950709852L233.2963318140614,158.17838705566717L233.37373606396795,158.1906520235615L233.52854456378103,158.14196323078252L233.60594881368758,158.22330117379258L233.6833530635941,158.34681358260087L233.76075731350062,158.3572038296035L233.99297006322027,158.4570224511242L234.0703743131268,158.428840844899L234.2251828129399,158.32574408264165L234.4573955626595,158.23325183104674L234.61220406247259,158.42384175696208L234.76701256228566,158.3994149231668L234.92182106209873,158.45844811676L235.6184593112576,158.74112614241233L235.69586356116412,158.54594229287133L235.92807631088374,158.62126568265214L236.08288481069684,159.02021898013317L236.2376933105099,158.98772462629216L236.392501810323,159.0421837796384L236.54731031013608,159.06020172373823L236.6247145600426,158.96529257460645L236.85692730976223,159.20523978395718L237.3213528092015,159.2218763004545L237.39875705910802,159.26354491452162L237.7083740587342,159.17107978840218L237.94058680845382,159.25319199324102L238.1727995581734,159.33464038458166L238.3276080579865,159.3905014396117L238.40501230789303,159.3473507130802L238.7146293075192,159.528013091721L239.02424630714535,159.62442969610848L239.25645905686497,159.673410359712L239.33386330677152,159.75872201586753L239.41126755667804,159.79971040530884L239.48867180658462,159.8774900111787L239.7208845563042,159.84493526730924L240.03050155593036,159.80359365752318L240.18531005574346,159.80201166005563L240.49492705536963,159.92808968530713L240.57233130527615,159.97329410882224L240.72713980508925,159.9357598832645L240.80454405499577,160.03196105268452L241.19156530452847,160.20634973939298L241.4237780542481,160.17638076606062L241.50118230415464,160.16333456945821L241.65599080396774,160.10025103869734L241.81079930378078,160.0065494492289L241.96560780359388,160.10421893696983L242.04301205350043,159.82904492504005L242.27522480322006,159.64710920011962L242.35262905312658,159.60106506975816L242.50743755293965,159.50370539870357L242.73965030265927,159.61657333396155L242.8170545525658,159.58930521953022L242.9718630523789,159.4173759360186L243.4362885518181,159.4176459391251L243.66850130153776,159.399169316837L243.90071405125738,159.32746500937148L243.9781183011639,159.4888147702002L244.28773530079008,159.64544299602423L244.7521608002293,159.74643080209006L245.75841604901433,159.6441621178276L246.0680330486405,159.6634130033938L246.22284154845357,159.7568987881378L246.60986279798627,159.6139622665831L246.8420755477059,159.6869507537617L246.996884047519,159.71571104789342L247.30650104714513,159.66465076336962L247.69352229667783,159.6336674379501L248.003139296304,159.7907378508621L248.31275629593014,159.85696219801926L248.5449690456498,159.78249840467996L249.24160729480863,159.83228151730032L249.70603279424785,159.93294511867256L250.48007529331326,160.17816838178436L250.5574795432198,160.28786623462875L250.63488379312633,160.41030430421577L250.86709654284596,160.44032744751945L250.9445007927525,160.4973191047854L251.33152204228523,160.56136669586795L251.48633054209827,160.56105759630162L251.79594754172444,160.79781802469506L251.87335179163097,160.53495663618799L251.95075604153755,160.50856574193475L252.02816029144407,160.5174063250038L252.1055645413506,160.55786900473447L252.18296879125714,160.52222575539022L252.2603730411637,160.69563487132885L252.879607040416,160.71313916378713L253.1118197901356,160.8077410919694L253.57624528957487,160.85773945649143L253.88586228920104,160.9417017924712L254.6599047882664,160.80824430341548L254.73730903817295,160.79708105760608L254.8147132880795,160.6294881767275L255.35654303742527,160.77203978331787L255.743564286958,160.62959267574357L255.97577703667758,160.7744059262355L256.1305855364907,160.8044506140945L256.2079897863972,160.71312410732787L256.2853940363037,160.6826249268998L256.3627982862103,160.8236384231295L256.67241528583645,160.96537305815815L257.2916492850888,160.984216252732L257.3690535349953,161.01203239869076L257.60126628471494,160.85223268917292L257.75607478452804,160.75742805168747L257.83347903443456,160.83167012819123L257.98828753424766,161.01312256839736L258.3753087837803,161.12673264618584L258.9171385331261,161.04165595694843L259.0719470329392,161.0738672323754L259.3041597826588,161.02383722885745L259.4589682824719,161.28160330922833L259.8459895320046,161.22311502094541L260.0782022817242,160.99217190803526L260.3104150314438,160.86024948587328L261.0070532806027,160.77109122024706L261.0844575305092,160.6654392018358L261.3166702802289,160.7078937296846L261.54888302994846,160.58654403045261L261.70369152976156,160.43719617224625L261.7810957796681,160.451038040128L262.2455212791073,160.25407421353995L262.47773402882694,160.07141575604697L262.5551382787335,159.79692502908978L262.70994677854657,159.69333329284538L262.9421595282662,159.60772169349846L263.0969680280793,159.45157576508635L263.25177652789233,159.63557527804835L263.483989277612,159.32029031798274L263.56139352751853,158.99121211153815L263.63879777742505,158.77804948599032L264.1806275267708,158.29448224725655L264.56764877630354,157.155630655124L264.7224572761166,156.6486910774623L264.79986152602316,156.53320679095373L264.8772657759297,154.84595568988956L265.18688277555583,153.16935527487556L265.2642870254624,150.1196805693138L265.6513082749951,150.25806947504472L265.72871252490165,148.9025075524827L266.0383295245278,141.21887609817358L266.2705422742474,129.63709917066888L266.34794652415394,129.2292917473636L266.50275502396704,124.75658411917179L267.0445847733128,116.89547621331795L267.1219890232193,114.19982829324022L267.50901027275205,112.89175563907392L268.43786127163054,106.56475452446996L268.82488252116326,96.9349523451659L268.9796910209763,92.47682880333383L269.0570952708828,59.31702499085025L269.28930802060245,53.698783076184554L269.36671227050897,46.46655181731968L270.0633505196679,39.17678243586229L270.5277760191071,29.200900531939677L270.8373930187333,26.047147584104078L270.9147972686398,35.8370346135493" fill="none"></path></g></g></g></g><g opacity="0.2"><g><g><g><path style="fill: none;" stroke="rgb(255, 112, 67)" stroke-width="2px" d="M39.16647304845929,157.09414770035656L39.24387729836583,154.50402433084292L39.63089854789853,146.47825634172756L39.86311129761815,142.96511094077147L39.94051554752469,144.88793062312635L40.17272829724431,142.67452520925298L40.32753679705739,138.0883152646588L40.63715379668355,131.50956723729834L41.56600479556203,115.53969102616588L41.87562179518819,114.05868553716468L42.03043029500127,108.0661498435973L42.185238794814346,106.9347117826881L42.26264304472089,106.54562205654706L42.41745154453397,102.30795967013788L42.88187704397321,96.39201246394751L42.95928129387975,91.01411680825645L43.03668554378629,101.44440587871085L43.11408979369283,95.51031153779836L43.19149404359937,93.19181040132526L43.810728042851686,85.44078975120415L44.04294079257131,87.92916940173457L44.27515354229093,79.96593160150694L44.352557792197466,86.01230051993818L44.42996204210401,86.0206185414736L44.50736629201055,81.33093858433797L44.894387541543246,80.64643745782931L45.51362154079557,77.401931872181L45.59102579070211,76.09123062274875L46.05545129014134,73.40215180243811L46.67468528939366,72.02354967304807L46.90689803911328,80.34932783371737L46.98430228901982,78.35179566321817L47.5261320383656,73.22318802526392L47.75834478808522,77.06696542564805L47.9131532878983,78.99387394423577L48.53238728715062,79.18992288150407L48.76460003687024,86.33525308609826L48.84200428677678,79.52193264096704L49.53864253593564,80.18942346021883L49.693451035748716,83.26421895069355L49.77085528565526,87.58904746603851L49.8482595355618,88.72097207038959L50.39008928490758,82.93601732932385L50.777110534440276,91.60734425638722L50.93191903425336,84.16549389377414L51.0093232841599,85.84306761160182L51.318940283786056,87.8241228013093L51.70596153331876,96.16171835365375L51.7833657832253,92.12649546549002L52.01557853294492,88.5765528775897L52.48000403238416,90.78756533982343L52.5574082822907,93.87831384122941L52.71221678210378,99.26384448631629L52.944429531823396,99.3845680778356L53.09923803163648,92.97346467517181L53.17664228154302,96.29586399454601L53.3314507813561,96.62897783335794L53.486259281169175,96.36033100059663L53.56366353107572,99.05549629223324L54.1054932804215,105.6242912313954L54.72472727967382,102.89538134508226L54.80213152958036,106.98050300585382L54.8795357794869,97.40124391150007L55.18915277911306,107.23502136559094L55.963195278178446,104.84123698808978L56.04059952808499,107.54574017116883L56.19540802789807,110.11385212823924L56.505025027524226,113.47473984084846L56.73723777724385,114.76485656004681L56.81464202715039,111.7264535833651L56.89204627705693,108.12597597374065L57.12425902677655,108.58554432442106L58.05311002565503,123.12778979778827L58.51753552509427,121.46684276642677L58.74974827481389,124.39526821203171L58.90455677462697,124.55478428643718L58.98196102453351,126.2722218183837L59.13676952434659,122.12493487630584L59.44638652397275,129.78784905872368L59.756003523598906,131.7058266981713L59.910812023411985,128.62840668009176L60.297833272944686,133.04005045169805L61.381492771636246,137.85835331383024L61.76851402116895,138.70067463015127L61.84591827107549,138.53611066753615L62.15553527070165,137.53918783340296L62.23293952060819,140.44286739885516L62.54255652023435,142.35509540474428L62.619960770140885,140.24995760244752L62.77476926995397,138.58653574915564L63.006982019673586,140.6221867270061L63.39400326920629,142.1891256122802L63.47140751911283,142.91826476043127L63.548811769019366,142.79115294708598L63.93583301855207,145.8470059914432L64.01323726845861,141.7652129427765L64.09064151836515,144.3132292522061L64.32285426808477,145.13204209933957L65.01949251724363,146.85793332358895L65.1743010170567,141.59729463739373L65.63872651649594,143.53386151113324L66.10315201593518,142.73633727873363L66.18055626584172,141.76745618874176L66.64498176528096,139.54028720942563L66.87719451500058,142.19375479243166L67.18681151462674,141.46132913689672L67.4964285142529,143.10903189437366L67.65123701406598,141.89021250262167L67.96085401369214,139.88758800004075L68.03825826359868,144.157954058859L68.11566251350521,140.1650931982561L68.2704710133183,139.19429166515943L68.657492262851,141.28467176276916L69.0445135123837,141.49980583437588L69.12191776229024,142.22908065329437L69.19932201219677,140.80088851925L70.36038576079488,145.348822933365L70.90221551014066,145.6453805178025L71.3666410095799,146.12985381091468L71.44404525948644,142.387478613444L71.59885375929952,145.68812616615403L71.7536622591126,145.14579162987533L72.06327925873876,144.00658290880284L72.75991750789761,145.55510565697116L72.9147260077107,146.66472879413476L72.99213025761723,146.2587644315043L73.22434300733686,145.93472416005346L73.6887685067761,144.78157643720098L74.30800250602842,145.08987422132526L74.38540675593495,147.5076442548512L74.61761950565457,146.90977593081317L74.69502375556112,147.6754994031526L75.39166200471998,147.1892249636449L75.46906625462651,147.93369724766902L76.32051300359845,146.45206486615615L76.55272575331807,147.7443967615058L76.63013000322461,145.21130657564694L76.7849385030377,146.19212903232565L76.93974700285077,145.2120363908098L78.02340650154234,147.51461024701445L78.41042775107503,147.40129942553048L78.5652362508881,146.17514913403386L78.79744900060774,146.5210417556489L78.95225750042081,145.6779344845371L79.33927874995351,146.2811641430406L79.41668299986006,144.77018477103746L79.8811084992993,143.9847539501503L80.03591699911236,146.50038471172897L80.11332124901891,145.25711417287079L80.26812974883198,144.24160912189922L80.34553399873852,144.75649138012963L80.57774674845815,145.0158494436229L80.73255524827123,145.5147763517709L81.11957649780392,142.47271494267036L81.19698074771047,145.90914554208672L81.89361899686932,146.57018966073343L82.0484274966824,143.22971104202085L82.35804449630857,146.44903332624898L82.4354487462151,144.90392106047622L82.51285299612164,144.8730068387068L82.8224699957478,141.11672070927014L83.13208699537395,145.3854493622743L83.2094912452805,142.06761606597018L83.44170399500013,143.4060643264972L83.5965124948132,142.99111294509868L83.67391674471975,142.37446123722225L83.75132099462628,142.42011211131816L83.82872524453283,144.26409538202853L83.90612949443936,142.32548175102144L83.9835337443459,143.74592193811185L84.13834224415899,142.77590635980593L84.21574649406551,145.00156658662198L84.60276774359822,138.59887009323782L84.68017199350476,142.83645996596096L84.98978899313092,138.63572341980995L85.22200174285055,137.48578969065537L85.37681024266362,139.5952572617547L85.84123574210287,137.62557502500147L85.99604424191595,133.9536293298957L86.38306549144863,135.14538474269247L86.69268249107479,131.91517137064974L86.77008674098134,133.99658550185194L86.92489524079443,137.48568910715534L87.8537462396729,133.6462367972715L88.39557598901868,134.84756401662702L88.47298023892523,135.35928140333402L88.6277887387383,132.86834272143133L88.70519298864484,134.8101048499037L88.78259723855139,132.76534521742477L88.86000148845791,131.82830933136515L89.014809988271,132.10137248152205L89.24702273799062,130.61814479891603L89.55663973761679,131.33591333326405L89.63404398752331,131.62486867642195L89.94366098714947,133.44502769253776L90.1758737368691,132.48505409017437L90.48549073649525,132.02622958956377L90.71770348621487,128.41006563224065L90.79510773612141,132.0602361691706L90.87251198602796,130.24788523963667L90.9499162359345,134.5501690160732L91.02732048584103,130.41041414074002L91.18212898565412,132.70999154430496L91.25953323556065,131.04572759659442L91.3369374854672,131.02851144403516L91.56915023518681,129.78574850097934L91.64655448509336,132.0789493784741L91.72395873499988,134.02509039792352L91.87876723481297,131.1774218070679L92.03357573462606,127.2263896475607L92.11097998453259,131.4235098660138L92.65280973387837,132.4316980521477L92.885022483598,131.73389183382423L93.19463948322415,130.81629429392865L93.42685223294377,133.8255467688178L93.58166073275684,129.95144929105967L93.73646923256993,132.1129325665693L94.04608623219609,134.7519488736907L94.35570323182225,134.15663022442027L94.58791598154188,134.0599437502513L94.6653202314484,136.75514646830655L94.74272448135495,132.8760946683853L94.82012873126149,131.94131840234908L95.28455423070072,136.01979219551555L95.74897973013996,133.71911071260175L95.90378822995305,133.07763593258417L95.9811924798596,131.47365191034257L96.29080947948576,132.59352520790222L96.52302222920537,130.6645769495004L96.60042647911192,133.4407844723282L96.83263922883152,130.34071679268908L96.91004347873807,129.66467871508794L96.98744772864461,130.79057766604328L97.14225622845768,130.39638391206472L97.29706472827077,131.14654033341478L97.76149022771001,130.44436458071894L97.99370297742963,129.86458257347275L98.07110722733617,127.98660441891138L98.30331997705579,129.18839479019715L98.38072422696233,131.22263759904754L98.45812847686888,125.47066021107688L98.61293697668195,129.82069074105135L98.69034122658849,130.0768745764165L99.15476672602773,130.47514781002323L99.46438372565389,128.1180506793616L99.54178797556042,130.43720677816034L99.6965964753735,130.33588878468876L99.85140497518658,131.0391077988033L100.00621347499965,132.9512609518552L100.0836177249062,129.7501279070701L100.16102197481274,130.97937523470645L100.23842622471929,129.88202328454364L100.31583047462581,132.74726357893525L100.54804322434545,130.41836725469403L100.70285172415852,128.7240077881211L100.8576602239716,130.28080645310388L101.08987297369121,128.57921433113515L101.2446814735043,129.5432065951965L101.32208572341085,130.37216434092366L101.39948997331737,128.11361564875668L101.86391547275662,127.41725034754958L101.94131972266317,129.64991399294746L102.09612822247625,128.00754917842434L102.32834097219586,129.46330119147046L102.63795797182202,127.95070312686258L102.87017072154164,129.50907837972917L103.10238347126126,130.78581983257786L103.17978772116781,130.16660441502685L103.33459622098088,129.88710392086952L103.48940472079397,127.29666242679772L103.64421322060704,126.81226164737154L104.03123447013974,129.6822644535309L104.26344721985937,128.2791901246742L104.41825571967244,129.68690065113586L105.57931946827054,127.61928283349266L105.8889364678967,127.01314794924478L106.04374496770977,129.35371663778906L106.12114921761632,127.98720324160908L106.43076621724249,125.42781631837647L106.58557471705556,127.60639411058487L106.6629789669621,128.05744327272984L106.89519171668172,128.86805271673492L107.05000021649481,126.12443424790918L107.20480871630788,128.43302206175375L107.4370214660275,127.36023119880176L107.59182996584057,126.32549832527079L107.66923421574712,124.69524095716706L107.82404271556021,126.44817744716234L108.13365971518637,128.510476035061L108.44327671481253,126.02505774990286L108.98510646415829,126.59750417910206L109.06251071406483,126.94653828072892L109.13991496397138,127.76348214608325L109.21731921387791,127.6365925520984L109.37212771369099,127.22956153653763L109.60434046341062,125.42559412477166L109.68174471331714,127.36439020956945L109.7591489632237,126.57206357105392L109.9913617129433,126.94771721291504L110.06876596284985,127.1415158867646L110.14617021275639,127.89581260567306L110.22357446266294,126.45907321327931L110.84280846191525,125.59378377168937L110.92021271182179,124.0673940718248L111.15242546154141,121.99579034059994L111.69425521088719,122.67882715848063L111.92646796060681,125.89616116422022L112.54570195985913,125.16214488589443L112.62310620976567,124.59928897646327L112.77791470957875,124.63075055960482L112.8553189594853,126.15692973586474L112.93272320939182,127.99855748135401L113.16493595911146,127.49674873897325L113.24234020901798,128.3649340497029L113.39714870883107,126.70570395529498L113.55195720864415,127.17669204195286L113.93897845817686,125.79187244877173L114.01638270808338,129.6321691922254L114.32599970770954,129.52563489166047L114.40340395761609,128.2869140018142L114.48080820752263,128.18320071755178L114.55821245742918,128.60826191027652L114.79042520714879,131.02828688552353L114.86782945705534,127.88325604223039L114.94523370696187,129.84397933002955L115.1774464566815,129.01076900748816L115.25485070658803,130.75828802339007L115.87408470584035,127.63583466712161L116.1837017054665,129.72830362671988L116.33851020527959,129.78464442163045L116.49331870509266,128.53253890882985L116.57072295499921,129.51235786965964L116.80293570471882,129.292458947134L117.03514845443846,131.48185765262215L117.11255270434499,131.76650427933797L117.18995695425153,131.0430141812454L117.26736120415806,129.1642687851026L117.4995739538777,129.27664628527253L118.11880795313002,130.52915413207316L118.27361645294309,130.88101860660717L118.42842495275617,127.27262530944736L118.58323345256926,129.48937337033257L118.66063770247578,131.41743275129247L118.8928504521954,130.50548660060653L119.04765895200848,131.05543975222295L119.20246745182156,130.06082799943871L119.58948870135427,130.26180318905617L120.13131845070004,131.21132078572123L120.20872270060659,133.73554091037022L120.4409354503262,130.948503117658L120.59574395013928,130.04168906462354L121.06016944957852,131.20770445802333L121.13757369948506,130.63145456903317L121.29238219929815,130.41368895236815L121.44719069911123,131.28162163477222L121.75680769873739,130.05721167174082L122.06642469836355,129.73134920153402L122.22123319817662,128.38751621502993L122.60825444770931,128.3218936683048L122.68565869761586,127.7291995466392L122.7630629475224,127.06312625299215L123.30489269686818,129.58830542961795L123.38229694677472,129.95358259692026L123.84672244621396,129.9217935326159L124.15633944584012,129.72937027965017L124.23374369574667,130.06538934420647L124.31114794565319,129.15027130454357L125.00778619481207,129.9092463257779L125.16259469462514,128.91699711566827L125.39480744434475,129.00959007530204L125.859232943784,128.9954616022779L125.93663719369054,127.48626466346096L126.2462541933167,126.6295973330576L126.47846694303631,125.84921907868235L126.55587119294286,127.03564122682761L126.6332754428494,123.0187198573627L126.86548819256902,127.30403543126332L127.71693494154096,126.89997981598177L127.94914769126058,126.00706967745984L128.1813604409802,125.867431709637L128.25876469088675,125.54678086822125L128.33616894079327,127.81735279736571L128.5683816905129,128.35805694528386L128.64578594041944,126.87041294528221L128.72319019032597,127.3959781068738L129.88425393892408,127.39358281608295L130.1164666886437,128.48773948575723L130.27127518845677,124.70514960149328L130.34867943836332,126.49592420070026L130.5034879381764,126.74299470313458L130.5808921880829,126.03327752708942L130.81310493780256,126.37228602683192L131.04531768752216,124.99483475981404L131.1227219374287,124.9727718860452L131.2775304372418,128.78125149538056L131.43233893705488,129.18525097103415L131.58714743686795,127.17040908192921L131.74195593668102,126.76865986969435L131.97416868640065,129.6526180516918L132.12897718621372,128.96622689104348L132.28378568602682,128.01580638202952L132.4385941858399,127.49673002576392L132.59340268565296,127.98024660605051L132.74821118546603,129.68882343339178L133.52225368453145,130.19305553637736L133.8318706841576,129.55165093089468L134.14148768378377,128.276790155581L134.21889193369032,130.05163981367068L134.29629618359684,130.77983628390308L134.45110468340994,130.00590940843523L134.68331743312956,129.27379719915606L134.91553018284915,130.28530697994137L135.07033868266225,132.59364216546035L135.30255143238188,131.9656175046297L135.76697693182112,131.99120781835225L135.9217854316342,131.89486753855542L136.07659393144726,131.92146368727805L136.1539981813538,130.08279262885873L136.38621093107344,132.37663911207446L136.46361518097996,131.48511375104098L136.5410194308865,131.0900872592484L136.77323218060613,132.74061103302785L137.39246617985845,133.83647528305104L137.77948742939117,131.3969371088028L137.93429592920424,129.74364378004643L138.39872142864346,130.6769650940593L138.70833842826963,130.97069230558964L138.78574267817618,130.83873143188356L138.8631469280827,131.7382754031036L138.94055117798925,132.9903107413693L139.4049766774285,132.5432708843176L139.6371894271481,132.43012614256622L140.17901917649388,134.07017987574037L140.33382767630695,134.31689950550023L140.56604042602658,132.8982183600844L140.64344467593313,131.58375575558213L140.87565742565275,134.46326955037003L140.9530616755593,133.63995851555018L141.34008292509196,132.94217568873836L141.4174871749985,132.84024483766208L141.49489142490506,130.78173567464736L141.72710417462469,132.24910391236867L141.9593169243443,132.73231172470173L142.03672117425086,132.6162149741827L142.11412542415738,129.70727465776505L142.19152967406393,131.85577096601804L142.26893392397045,132.82121818210274L142.7333594234097,131.09360534259744L143.19778492284894,128.88615306843374L143.66221042228818,128.37272810137782L143.97182742191433,129.75143783172135L144.12663592172743,128.95875564222905L144.51365717126012,127.79205253838737L144.8232741708863,130.471526804023L145.36510392023206,128.55426962313354L145.51991242004513,128.3724333683313L145.75212516976475,130.28596662056933L145.90693366957785,126.92203333314596L145.98433791948437,129.49771946168195L146.216550669204,129.08346514733003L146.29395491911055,128.9065036835513L146.44876341892362,128.47512210438433L146.52616766883017,129.15173093486925L146.75838041854976,128.73197493698208L148.07425266696094,127.5119438649277L148.1516569168675,129.89943592580053L148.22906116677402,128.08352948649895L148.30646541668057,129.24015084882836L148.61608241630674,126.21527752247309L148.84829516602633,127.79647821238765L149.1579121656525,129.71123717983508L149.23531641555905,131.7603102070585L149.31272066546558,130.63328378524258L149.62233766509175,131.1152658823663L149.6997419149983,129.47398175568046L149.77714616490482,130.53515171565496L149.9319546647179,131.49747382578593L150.086763164531,128.31195695416463L150.24157166434406,128.39527284028622L150.39638016415714,129.39874529767567L151.01561416340945,127.9715122156081L151.40263541294217,125.43881968544693L151.4800396628487,125.07857637144727L152.17667791200756,120.882817538971L152.2540821619141,126.7564635355308L153.10552891088605,124.17268394397101L153.49255016041874,126.64555970059351L153.72476291013837,129.32587138234544L153.80216716004492,128.05899646910203L154.03437990976454,126.91760298084337L154.1891884095776,127.22820482886314L154.26659265948413,131.7176861945674L154.88582665873648,132.61899856406663L154.96323090864303,132.09181470987028L155.04063515854955,129.39404828214046L155.11803940845607,132.27526030067264L155.3502521581757,134.57891250556344L155.5050606579888,131.46991862508654L155.58246490789534,131.1399673186469L155.65986915780186,132.3681526716553L156.27910315705418,131.9564901367919L156.66612440658687,133.1546875718914L156.74352865649345,128.69356139658427L156.97574140621305,129.67228095636747L157.5175711555588,132.35709316495692L157.67237965537188,132.6089636055776L158.4464221544373,135.29902486937667L158.83344340397,133.14695901644905L158.91084765387652,135.61583014628056L159.06565615368962,136.29547987327732L159.14306040359617,135.23071697711651L159.6074859030354,133.82153278542222L159.68489015294193,133.17430837184614L160.14931565238118,133.5050877377974L160.22671990228773,134.8202567659509L160.9233581514466,134.59232987663404L161.23297515107274,130.51494612790947L161.3877836508858,130.35332481745732L161.69740065051198,130.8778747874442L162.39403889967085,133.69188767136743L162.54884739948392,132.36123814081765L162.78106014920354,132.23229477211177L162.9358686490166,131.66554183684315L163.01327289892316,129.8501125843788L163.40029414845586,130.68709829689718L163.63250689817548,130.9631836303566L164.01952814770817,131.8567580878088L164.17433664752124,131.10770106750533L164.48395364714742,131.55301463099877L164.63876214696052,131.01918290919738L164.71616639686704,131.8580025162275L164.79357064677356,129.5927778866415L164.94837914658666,132.6407807396959L165.10318764639973,134.29472435247558L165.49020889593245,132.8772548873621L165.72242164565205,134.94598614095887L165.87723014546515,134.21493122800536L166.10944289518477,134.09631755083504L166.34165564490436,132.76626216468065L166.65127264453054,136.18149303710726L166.88348539425016,133.07681255137481L167.1931023938763,133.2746860265502L167.27050664378285,136.5013813152439L167.34791089368937,138.90913978179245L167.88974064303517,137.80800308504794L168.04454914284827,139.41294148096404L168.1993576426613,137.60558463916297L168.43157039238096,140.5912842009925L168.50897464228748,140.02543183892163L168.97340014172676,139.88855406947104L169.05080439163328,139.7865343306506L169.36042139125942,139.06101151019746L169.6700383908856,139.40613689023104L169.90225114060522,138.7803578145168L169.97965539051177,141.280175914234L170.0570596404183,141.92548924130998L170.1344638903248,139.7254427197281L170.2892723901379,140.68395669176584L170.52148513985753,140.39458497970094L171.0633148892033,138.30499083688193L171.14071913910988,141.44988133110527L171.52774038864254,142.0996460628443L171.6825488884556,142.76335915296792L171.7599531383622,141.61272367846448L171.8373573882687,140.63174449865787L172.53399563742755,141.8246952176989L172.84361263705372,142.14812263154505L172.92101688696025,140.6388882663095L172.99842113686682,139.29185532101445L173.07582538677335,140.7885892624353L173.23063388658642,139.70857510069214L173.61765513611914,140.57021780561905L173.69505938602566,140.63305208415795L173.84986788583873,140.34403358391862L173.9272721357453,141.39501654057852L174.00467638565183,142.48179786663607L174.23688913537146,139.8249782800135L174.39169763518453,141.07719373291877L174.46910188509105,139.9652992799759L174.54650613499763,139.63063458394302L175.24314438415647,138.92066945787457L175.4753571338761,137.3553305519959L176.17199538303495,138.4289541527619L176.63642088247417,136.54809884227012L176.71382513238072,136.03133356735353L177.17825063181996,134.50406434665166L177.25565488172649,134.74329401438783L177.33305913163304,135.40695798233702L177.48786763144614,138.7077154751517L177.95229313088535,138.1306094568359L178.4167186303246,136.16330379766424L178.49412288023115,140.31055097417232L179.11335687948346,140.19602847238596L179.19076112938998,137.54967658721756L179.4229738791096,135.76541418484823L179.65518662882926,136.5479865630143L179.9648036284554,136.56300391348037L180.11961212826847,137.68528887588897L180.42922912789462,135.33938926184436L180.8936546273339,133.7783941596753L181.20327162696003,134.6565115062428L181.28067587686658,133.5066783605882L181.5128886265862,136.43322312865817L181.66769712639928,135.34585935396106L181.8999098761189,136.0721704683561L182.20952687574504,136.25826397827493L182.36433537555814,135.9200835380441L182.5191438753712,137.8885681294019L182.59654812527774,137.34114593934382L182.6739523751843,136.30346105704524L183.21578212453008,137.2617645054783L183.37059062434315,139.60920094183697L183.4479948742497,138.56153490152616L183.91242037368895,137.86641870704005L183.9898246235955,139.78613901410407L184.06722887350202,138.22780352680724L184.22203737331512,139.8120965745592L184.37684587312816,139.98550252857024L185.30569687200665,142.58342228890996L186.00233512116552,141.9569180763352L186.31195212079166,140.42520212927263L186.69897337032435,141.93151723385685L186.77637762023093,142.2734824206693L187.16339886976363,141.0906672436173L187.24080311967015,143.5946630673115L187.31820736957667,140.3510837855237L187.62782436920284,144.69223723683484L187.7052286191094,143.60711436895184L188.16965411854864,142.40568656609634L188.47927111817478,144.59869458182888L188.55667536808133,143.88289327360891L188.63407961798788,145.0026823617267L188.78888811780095,143.17160652713343L188.86629236770747,143.7347290997972L189.2533136172402,143.6673311373394L189.4855263669598,143.62082881222017L189.6403348667729,141.38796633897343L189.8725476164925,143.7049306531325L190.1047603662121,141.61645462456937L190.33697311593176,142.97504999406277L190.49178161574486,142.01497814735052L190.95620711518407,142.92486116671074L191.0336113650906,142.15671901206886L191.1884198649037,142.78670154242292L191.34322836471677,142.24715293517926L192.03986661387563,142.09843204339072L192.11727086378218,142.30434284196195L192.1946751136887,143.72198306511032L192.27207936359522,141.69895648608625L193.3557388622868,142.18600050632654L193.66535586191299,137.41313097723213L193.97497286153913,139.22351935894034L194.05237711144565,139.59009943344043L194.2845898611653,139.14748758954016L194.36199411107182,137.75289502280026L194.59420686079145,139.34711542808776L194.74901536060452,138.42901263154096L194.90382386041762,138.26141245071636L195.2908451099503,136.65960617820744L195.52305785966993,138.74919096442179L195.677866359483,136.75773356949276L195.75527060938956,137.65682608453832L195.91007910920263,136.49655330724357L196.14229185892225,138.08895619207746L196.37450460864184,135.31070659028438L196.52931310845494,136.45795731305506L196.76152585817456,135.31836497119187L196.99373860789416,138.63074804528634L197.07114285780074,136.65032910469523L197.30335560752033,138.39001196420128L197.53556835723995,135.8998732719963L198.15480235649227,136.34165939553606L198.23220660639882,134.55726600070156L198.3870151062119,135.40559191805787L198.77403635574458,137.59390759655759L199.16105760527728,139.4920351992365L199.23846185518386,136.68703506474407L199.31586610509038,137.4482697060018L199.47067460490345,136.53038678966433L199.54807885481,137.142706389587L199.70288735462307,137.58593343024313L199.85769585443617,137.7958067508844L200.08990860415577,140.60018467116748L200.16731285406235,137.93696282781198L200.4769298536885,138.68027723201044L200.86395110322118,138.15945820812846L201.01875960303425,138.62424520505337L201.4831851024735,136.19496186950346L201.56058935238002,139.61330147382563L201.63799360228657,136.84200850759115L201.71539785219312,140.28909627970583L201.79280210209967,135.1764954531596L202.0250148518193,137.1731668160308L202.17982335163236,137.71278793696052L202.412036101352,135.5313072581589L202.4894403512585,137.17854218540327L202.72165310097813,139.93090440127608L202.8764616007912,136.05169353907576L203.0312701006043,135.75211377133573L203.10867435051082,134.51115197467539L203.18607860041737,136.8639637804065L203.49569560004352,136.41347601454063L203.8053125996697,135.12184820369097L203.88271684957624,136.9202905404101L203.9601210994828,137.3700812392294L204.26973809910893,139.8698174686559L204.34714234901548,139.42132499873202L204.50195084882856,139.6087448073602L204.5793550987351,141.048499365603L204.73416359854815,139.4584707191995L204.81156784845473,139.74739331424115L204.88897209836125,141.52177046379592L205.04378059817432,143.4349832523246L205.1211848480809,141.89323702507536L205.27599334789394,146.2338501324678L205.5082060976136,144.14157064411376L205.66301459742664,143.94163637676382L205.7404188473332,144.67521523382214L206.20484434677243,144.72613153718584L206.28224859667895,143.90006498229607L206.3596528465855,144.05753897773633L206.66926984621165,144.51776930819582L206.82407834602475,145.54282745251686L206.97888684583782,145.08467428829005L207.28850384546396,145.07674924415L207.83033359480976,145.3280185229218L208.06254634452938,143.51776581198106L208.21735484434245,145.85724679523454L208.37216334415555,145.61318678034692L208.44956759406207,146.85529710022828L208.75918459368825,146.05727228947984L208.91399309350135,147.60873535065997L208.99139734340787,146.91897347318584L209.0688015933144,146.89674451968443L209.30101434303404,145.8053807964987L209.37841859294056,147.0956986826971L209.61063134266018,146.41560217782825L209.68803559256673,146.73627407160444L209.92024834228636,148.0638452792238L210.15246109200598,147.21888773954214L210.46207809163215,145.63698296512752L210.92650359107137,147.9088999061907L211.0039078409779,147.46943889890693L211.2361205906975,149.1510897572116L211.31352484060406,147.72742621981868L211.46833334041716,148.00408932361535L211.6231418402302,147.41836119411295L211.70054609013678,145.6517804353843L211.85535458994985,146.7829845811772L211.93275883985638,146.4364369972365L212.08756733966948,147.62794913831235L212.164971589576,148.28720848462174L212.24237583948255,147.53172113777134L212.3197800893891,148.1017792936332L212.47458858920217,148.36629284628958L212.62939708901527,147.0337930471699L212.7068013389218,148.45423557341144L213.01641833854796,147.30587375383837L213.0938225884545,148.11163413748267L213.2486310882676,147.6593218337097L213.48084383798718,147.88726509708468L213.63565233780028,148.8850183298807L213.8678650875199,148.04657064788552L214.7967160863984,149.16181008699135L215.10633308602453,149.14816581825792L215.33854583574413,148.99985661707404L215.72556708527682,148.7639345090823L215.88037558508992,148.62123693153836L216.11258833480954,147.25408728624205L216.57701383424876,149.58476604366942L216.6544180841553,148.49706309205368L216.8092265839684,149.39143520005248L217.04143933368803,148.33300906439212L217.27365208340763,149.9658699077402L217.3510563333142,149.13548761895478L217.42846058322073,149.80850117410225L218.12509883237956,150.10162956293487L218.2025030822861,148.10454417030778L218.27990733219266,148.94596491343108L218.35731158209921,149.07060424399717L218.51212008191226,149.63929867473104L218.66692858172536,148.961726113967L218.89914133144498,150.18537819202157L219.28616258097767,149.3331201615604L219.44097108079075,148.08066845438765L219.51837533069732,149.23318928472844L219.59577958060385,150.20055460476675L219.67318383051037,148.5651791739185L220.29241782976268,149.4123869770189L220.98905607892155,152.10990545472546L221.37607732845427,152.6366846357706L221.9953113277066,154.71027196718163L222.0727155776131,154.13559632692412L222.30492832733276,153.70753400325734L222.6145453269589,154.69380200384336L222.8467580766785,155.58334376469065L223.15637507630467,154.81281099756023L223.3885878260243,154.52673514948387L223.6208005757439,155.86283256309216L223.69820482565046,155.30495904563807L223.77560907555699,154.5203796757742L223.9304175753701,156.03023157691675L224.5496515746224,155.62245905043733L224.70446007443547,156.45066592864117L224.85926857424857,157.20091357688662L225.01407707406162,156.9906776878151L225.4010983235943,156.41963708846478L225.78811957312703,156.40679514858024L226.40735357237935,157.34165679363392L226.4847578222859,157.3160407492486L226.56216207219242,157.15312705777893L226.8717790718186,157.75223513193333L227.10399182153822,157.18650206657173L227.33620457125784,156.8933994084019L227.95543857051015,157.86418573701602L228.11024707032323,156.73411023165923L228.41986406994937,156.75737776827697L228.49726831985592,157.99418757162314L228.57467256976247,157.56445743317718L228.65207681966902,156.851423340783L228.80688531948206,157.19235696193257L228.96169381929516,156.37162834999663L229.1939065690148,157.8993232962101L229.4261193187344,157.0713538418493L229.50352356864096,157.85251571186413L229.65833206845403,157.8478070005731L229.81314056826713,158.03660223008512L230.35497031761287,157.6393757666238L230.66458731723904,157.26374551627433L230.81939581705214,157.39929347828877L230.97420431686518,157.085296352356L231.12901281667828,158.431798310337L231.20641706658483,158.28423295922298L231.3612255663979,157.7994427111282L231.59343831611753,158.39879288742796L231.7482468159306,158.7352423557982L231.98045956565025,158.14706747417935L232.1352680654633,157.32853415560984L232.36748081518294,158.53875482768683L232.44488506508947,158.4256837691971L232.522289314996,157.1736227002686L233.2963318140614,159.1615549943951L233.37373606396795,158.23971189513875L233.52854456378103,157.94720805966665L233.60594881368758,158.54865294583283L233.6833530635941,158.840863217834L233.76075731350062,158.398764817614L233.99297006322027,158.85629693720705L234.0703743131268,158.31611441999826L234.2251828129399,157.9133570336122L234.4573955626595,157.86328282466712L234.61220406247259,159.18620146062338L234.76701256228566,158.3017075879857L234.92182106209873,158.69458089113283L235.6184593112576,159.87183824502168L235.69586356116412,157.76520689470738L235.92807631088374,158.92255924177522L236.08288481069684,160.6160321700574L236.2376933105099,158.8577472109281L236.392501810323,159.26002039302344L236.54731031013608,159.1322735001374L236.6247145600426,158.5856559780794L236.85692730976223,160.16502862136008L237.3213528092015,159.28842236644385L237.39875705910802,159.43021937079007L237.7083740587342,158.8012192839245L237.94058680845382,159.58164081259625L238.1727995581734,159.66043394994426L238.3276080579865,159.61394565973202L238.40501230789303,159.17474780695406L238.7146293075192,160.25066260628415L239.02424630714535,160.01009611365836L239.25645905686497,159.86933301412617L239.33386330677152,160.09996864048966L239.41126755667804,159.96366396307403L239.48867180658462,160.1886084346581L239.7208845563042,159.71471629183145L240.03050155593036,159.6382272183789L240.18531005574346,159.79568367018544L240.49492705536963,160.43240178631316L240.57233130527615,160.15411180288265L240.72713980508925,159.7856229810336L240.80454405499577,160.4167657303645L241.19156530452847,160.90390448622688L241.4237780542481,160.0565048727311L241.50118230415464,160.11114978304855L241.65599080396774,159.84791691565385L241.81079930378078,159.63174309135522L241.96560780359388,160.4948968879334L242.04301205350043,158.72834887732103L242.27522480322006,158.91936630043782L242.35262905312658,159.4168885483125L242.50743755293965,159.1142667144851L242.73965030265927,160.06804507499348L242.8170545525658,159.4802327618049L242.9718630523789,158.72965880197225L243.4362885518181,159.41872595155098L243.66850130153776,159.32526282768455L243.90071405125738,159.0406477795095L243.9781183011639,160.13421381351512L244.28773530079008,160.27195589932037L244.7521608002293,160.15038202635336L245.75841604901433,159.23508738077768L246.0680330486405,159.74041654565866L246.22284154845357,160.13084192711372L246.60986279798627,159.04221618036425L246.8420755477059,159.97890470247614L246.996884047519,159.83075222442022L247.30650104714513,159.46040962527456L247.69352229667783,159.50973413627187L248.003139296304,160.41901950251L248.31275629593014,160.12185958664804L248.5449690456498,159.48464323132262L249.24160729480863,160.03141396778184L249.70603279424785,160.33559952416167L250.48007529331326,161.1590614342315L250.5574795432198,160.72665764600632L250.63488379312633,160.90005658256385L250.86709654284596,160.5604200207341L250.9445007927525,160.72528573384923L251.33152204228523,160.8175570601981L251.48633054209827,160.5598211980364L251.79594754172444,161.74485973826876L251.87335179163097,159.48351108215974L251.95075604153755,160.40300216492176L252.02816029144407,160.55276865728013L252.1055645413506,160.71971972365702L252.18296879125714,160.3796527580133L252.2603730411637,161.38927133508335L252.879607040416,160.78315633362035L253.1118197901356,161.18614880469835L253.57624528957487,161.05773291457967L253.88586228920104,161.27755113639017L254.6599047882664,160.27441434719265L254.73730903817295,160.75242807436842L254.8147132880795,159.95911665321327L255.35654303742527,161.3422462096792L255.743564286958,160.05980424544643L255.97577703667758,161.35365892820317L256.1305855364907,160.9246293655305L256.2079897863972,160.34781808026125L256.2853940363037,160.5606282051876L256.3627982862103,161.38769240804837L256.67241528583645,161.53231159827268L257.2916492850888,161.05958903102749L257.3690535349953,161.12329698252574L257.60126628471494,160.21303385110153L257.75607478452804,160.37820950174577L257.83347903443456,161.1286384342063L257.98828753424766,161.73893232922188L258.3753087837803,161.58117295733976L258.9171385331261,160.70134919999887L259.0719470329392,161.2027123340831L259.3041597826588,160.82371721478572L259.4589682824719,162.31266763071187L259.8459895320046,160.98916186781372L260.0782022817242,160.06839945639464L260.3104150314438,160.33255979722543L261.0070532806027,160.41445815774225L261.0844575305092,160.24283112819063L261.3166702802289,160.87771184107987L261.54888302994846,160.10114523352462L261.70369152976156,159.8398047394208L261.7810957796681,160.50640551165506L262.2455212791073,159.4662189071877L262.47773402882694,159.3407819260751L262.5551382787335,158.698962121261L262.70994677854657,159.27896634786765L262.9421595282662,159.26527529611099L263.0969680280793,158.82699205143774L263.25177652789233,160.37157332989648L263.483989277612,158.05915047772027L263.56139352751853,157.6748992857598L263.63879777742505,157.925398983799L264.1806275267708,156.36021329232148L264.56764877630354,152.60022428659386L264.7224572761166,154.62093276681546L264.79986152602316,156.07126964491937L264.8772657759297,148.09695128563288L265.18688277555583,146.4629536148196L265.2642870254624,137.92098174706678L265.6513082749951,150.8116250979684L265.72871252490165,143.48025986223448L266.0383295245278,110.48435028093722L266.2705422742474,83.30999146064997L266.34794652415394,127.59806205414247L266.50275502396704,106.86575360640464L267.0445847733128,85.45104458990247L267.1219890232193,103.4172366129294L267.50901027275205,107.65946502240863L268.43786127163054,81.25675006605418L268.82488252116326,58.41574362794963L268.9796910209763,74.64433463600554L269.0570952708828,-73.32219025908417L269.28930802060245,31.22581541752181L269.36671227050897,17.537626781860126L270.0633505196679,10.017704910032785L270.5277760191071,-10.702627083750802L270.8373930187333,13.432135792761686L270.9147972686398,74.99658273133028" fill="none"></path></g></g></g></g></g></g><g transform="translate(20, 176)" clip-path="url(#clip_1)"><clipPath id="clip_1"><rect width="309" height="23"></rect></clipPath><g><g><line x1="0" y1="0" x2="0" y2="5" style="visibility: inherit;" fill="rgb(0, 0, 0)" stroke="rgb(204, 204, 204)" stroke-width="1px"></line><line x1="38.70212495326996" y1="0" x2="38.70212495326996" y2="5" style="visibility: inherit;" fill="rgb(0, 0, 0)" stroke="rgb(204, 204, 204)" stroke-width="1px"></line><line x1="77.40424990653992" y1="0" x2="77.40424990653992" y2="5" style="visibility: inherit;" fill="rgb(0, 0, 0)" stroke="rgb(204, 204, 204)" stroke-width="1px"></line><line x1="116.10637485980988" y1="0" x2="116.10637485980988" y2="5" style="visibility: inherit;" fill="rgb(0, 0, 0)" stroke="rgb(204, 204, 204)" stroke-width="1px"></line><line x1="154.80849981307983" y1="0" x2="154.80849981307983" y2="5" style="visibility: inherit;" fill="rgb(0, 0, 0)" stroke="rgb(204, 204, 204)" stroke-width="1px"></line><line x1="193.5106247663498" y1="0" x2="193.5106247663498" y2="5" style="visibility: inherit;" fill="rgb(0, 0, 0)" stroke="rgb(204, 204, 204)" stroke-width="1px"></line><line x1="232.21274971961975" y1="0" x2="232.21274971961975" y2="5" style="visibility: inherit;" fill="rgb(0, 0, 0)" stroke="rgb(204, 204, 204)" stroke-width="1px"></line><line x1="270.9148746728897" y1="0" x2="270.9148746728897" y2="5" style="visibility: inherit;" fill="rgb(0, 0, 0)" stroke="rgb(204, 204, 204)" stroke-width="1px"></line><line x1="309.61699962615967" y1="0" x2="309.61699962615967" y2="5" style="visibility: inherit;" fill="rgb(0, 0, 0)" stroke="rgb(204, 204, 204)" stroke-width="1px"></line></g><g transform="translate(0, 8)"><text style="text-anchor: middle; visibility: hidden; font-family: Roboto, sans-serif; font-size: 12px; font-weight: 200;" x="0" y="0" dx="0em" dy="0.95em" fill="rgb(33, 33, 33)" stroke="none" stroke-width="1px">-500k</text><text style="text-anchor: middle; visibility: inherit; font-family: Roboto, sans-serif; font-size: 12px; font-weight: 200;" x="38.70212495326996" y="0" dx="0em" dy="0.95em" fill="rgb(33, 33, 33)" stroke="none" stroke-width="1px">0</text><text style="text-anchor: middle; visibility: inherit; font-family: Roboto, sans-serif; font-size: 12px; font-weight: 200;" x="77.40424990653992" y="0" dx="0em" dy="0.95em" fill="rgb(33, 33, 33)" stroke="none" stroke-width="1px">500k</text><text style="text-anchor: middle; visibility: inherit; font-family: Roboto, sans-serif; font-size: 12px; font-weight: 200;" x="116.10637485980988" y="0" dx="0em" dy="0.95em" fill="rgb(33, 33, 33)" stroke="none" stroke-width="1px">1M</text><text style="text-anchor: middle; visibility: inherit; font-family: Roboto, sans-serif; font-size: 12px; font-weight: 200;" x="154.80849981307983" y="0" dx="0em" dy="0.95em" fill="rgb(33, 33, 33)" stroke="none" stroke-width="1px">1.5M</text><text style="text-anchor: middle; visibility: inherit; font-family: Roboto, sans-serif; font-size: 12px; font-weight: 200;" x="193.5106247663498" y="0" dx="0em" dy="0.95em" fill="rgb(33, 33, 33)" stroke="none" stroke-width="1px">2M</text><text style="text-anchor: middle; visibility: inherit; font-family: Roboto, sans-serif; font-size: 12px; font-weight: 200;" x="232.21274971961975" y="0" dx="0em" dy="0.95em" fill="rgb(33, 33, 33)" stroke="none" stroke-width="1px">2.5M</text><text style="text-anchor: middle; visibility: inherit; font-family: Roboto, sans-serif; font-size: 12px; font-weight: 200;" x="270.9148746728897" y="0" dx="0em" dy="0.95em" fill="rgb(33, 33, 33)" stroke="none" stroke-width="1px">3M</text><text style="text-anchor: middle; visibility: hidden; font-family: Roboto, sans-serif; font-size: 12px; font-weight: 200;" x="309.61699962615967" y="0" dx="0em" dy="0.95em" fill="rgb(33, 33, 33)" stroke="none" stroke-width="1px">3.5M</text></g><line x1="0" y1="0" x2="309.61699962615967" y2="0" fill="rgb(0, 0, 0)" stroke="rgb(204, 204, 204)" stroke-width="1px"></line></g></g></g></g></svg>